%TF.GenerationSoftware,KiCad,Pcbnew,8.0.1*%
%TF.CreationDate,2024-05-24T12:35:21-07:00*%
%TF.ProjectId,pcb-v3,7063622d-7633-42e6-9b69-6361645f7063,rev?*%
%TF.SameCoordinates,Original*%
%TF.FileFunction,Legend,Top*%
%TF.FilePolarity,Positive*%
%FSLAX46Y46*%
G04 Gerber Fmt 4.6, Leading zero omitted, Abs format (unit mm)*
G04 Created by KiCad (PCBNEW 8.0.1) date 2024-05-24 12:35:21*
%MOMM*%
%LPD*%
G01*
G04 APERTURE LIST*
%ADD10C,0.150000*%
%ADD11C,0.100000*%
%ADD12C,0.120000*%
%ADD13C,0.200000*%
G04 APERTURE END LIST*
D10*
X206259875Y-66377505D02*
X205259875Y-66377505D01*
X205259875Y-66377505D02*
X205259875Y-65996553D01*
X205259875Y-65996553D02*
X205307494Y-65901315D01*
X205307494Y-65901315D02*
X205355113Y-65853696D01*
X205355113Y-65853696D02*
X205450351Y-65806077D01*
X205450351Y-65806077D02*
X205593208Y-65806077D01*
X205593208Y-65806077D02*
X205688446Y-65853696D01*
X205688446Y-65853696D02*
X205736065Y-65901315D01*
X205736065Y-65901315D02*
X205783684Y-65996553D01*
X205783684Y-65996553D02*
X205783684Y-66377505D01*
X206164636Y-64806077D02*
X206212256Y-64853696D01*
X206212256Y-64853696D02*
X206259875Y-64996553D01*
X206259875Y-64996553D02*
X206259875Y-65091791D01*
X206259875Y-65091791D02*
X206212256Y-65234648D01*
X206212256Y-65234648D02*
X206117017Y-65329886D01*
X206117017Y-65329886D02*
X206021779Y-65377505D01*
X206021779Y-65377505D02*
X205831303Y-65425124D01*
X205831303Y-65425124D02*
X205688446Y-65425124D01*
X205688446Y-65425124D02*
X205497970Y-65377505D01*
X205497970Y-65377505D02*
X205402732Y-65329886D01*
X205402732Y-65329886D02*
X205307494Y-65234648D01*
X205307494Y-65234648D02*
X205259875Y-65091791D01*
X205259875Y-65091791D02*
X205259875Y-64996553D01*
X205259875Y-64996553D02*
X205307494Y-64853696D01*
X205307494Y-64853696D02*
X205355113Y-64806077D01*
X205974160Y-64425124D02*
X205974160Y-63948934D01*
X206259875Y-64520362D02*
X205259875Y-64187029D01*
X205259875Y-64187029D02*
X206259875Y-63853696D01*
X206259875Y-62710838D02*
X206259875Y-62520362D01*
X206259875Y-62520362D02*
X206212256Y-62425124D01*
X206212256Y-62425124D02*
X206164636Y-62377505D01*
X206164636Y-62377505D02*
X206021779Y-62282267D01*
X206021779Y-62282267D02*
X205831303Y-62234648D01*
X205831303Y-62234648D02*
X205450351Y-62234648D01*
X205450351Y-62234648D02*
X205355113Y-62282267D01*
X205355113Y-62282267D02*
X205307494Y-62329886D01*
X205307494Y-62329886D02*
X205259875Y-62425124D01*
X205259875Y-62425124D02*
X205259875Y-62615600D01*
X205259875Y-62615600D02*
X205307494Y-62710838D01*
X205307494Y-62710838D02*
X205355113Y-62758457D01*
X205355113Y-62758457D02*
X205450351Y-62806076D01*
X205450351Y-62806076D02*
X205688446Y-62806076D01*
X205688446Y-62806076D02*
X205783684Y-62758457D01*
X205783684Y-62758457D02*
X205831303Y-62710838D01*
X205831303Y-62710838D02*
X205878922Y-62615600D01*
X205878922Y-62615600D02*
X205878922Y-62425124D01*
X205878922Y-62425124D02*
X205831303Y-62329886D01*
X205831303Y-62329886D02*
X205783684Y-62282267D01*
X205783684Y-62282267D02*
X205688446Y-62234648D01*
X205259875Y-61377505D02*
X205259875Y-61567981D01*
X205259875Y-61567981D02*
X205307494Y-61663219D01*
X205307494Y-61663219D02*
X205355113Y-61710838D01*
X205355113Y-61710838D02*
X205497970Y-61806076D01*
X205497970Y-61806076D02*
X205688446Y-61853695D01*
X205688446Y-61853695D02*
X206069398Y-61853695D01*
X206069398Y-61853695D02*
X206164636Y-61806076D01*
X206164636Y-61806076D02*
X206212256Y-61758457D01*
X206212256Y-61758457D02*
X206259875Y-61663219D01*
X206259875Y-61663219D02*
X206259875Y-61472743D01*
X206259875Y-61472743D02*
X206212256Y-61377505D01*
X206212256Y-61377505D02*
X206164636Y-61329886D01*
X206164636Y-61329886D02*
X206069398Y-61282267D01*
X206069398Y-61282267D02*
X205831303Y-61282267D01*
X205831303Y-61282267D02*
X205736065Y-61329886D01*
X205736065Y-61329886D02*
X205688446Y-61377505D01*
X205688446Y-61377505D02*
X205640827Y-61472743D01*
X205640827Y-61472743D02*
X205640827Y-61663219D01*
X205640827Y-61663219D02*
X205688446Y-61758457D01*
X205688446Y-61758457D02*
X205736065Y-61806076D01*
X205736065Y-61806076D02*
X205831303Y-61853695D01*
X205688446Y-60710838D02*
X205640827Y-60806076D01*
X205640827Y-60806076D02*
X205593208Y-60853695D01*
X205593208Y-60853695D02*
X205497970Y-60901314D01*
X205497970Y-60901314D02*
X205450351Y-60901314D01*
X205450351Y-60901314D02*
X205355113Y-60853695D01*
X205355113Y-60853695D02*
X205307494Y-60806076D01*
X205307494Y-60806076D02*
X205259875Y-60710838D01*
X205259875Y-60710838D02*
X205259875Y-60520362D01*
X205259875Y-60520362D02*
X205307494Y-60425124D01*
X205307494Y-60425124D02*
X205355113Y-60377505D01*
X205355113Y-60377505D02*
X205450351Y-60329886D01*
X205450351Y-60329886D02*
X205497970Y-60329886D01*
X205497970Y-60329886D02*
X205593208Y-60377505D01*
X205593208Y-60377505D02*
X205640827Y-60425124D01*
X205640827Y-60425124D02*
X205688446Y-60520362D01*
X205688446Y-60520362D02*
X205688446Y-60710838D01*
X205688446Y-60710838D02*
X205736065Y-60806076D01*
X205736065Y-60806076D02*
X205783684Y-60853695D01*
X205783684Y-60853695D02*
X205878922Y-60901314D01*
X205878922Y-60901314D02*
X206069398Y-60901314D01*
X206069398Y-60901314D02*
X206164636Y-60853695D01*
X206164636Y-60853695D02*
X206212256Y-60806076D01*
X206212256Y-60806076D02*
X206259875Y-60710838D01*
X206259875Y-60710838D02*
X206259875Y-60520362D01*
X206259875Y-60520362D02*
X206212256Y-60425124D01*
X206212256Y-60425124D02*
X206164636Y-60377505D01*
X206164636Y-60377505D02*
X206069398Y-60329886D01*
X206069398Y-60329886D02*
X205878922Y-60329886D01*
X205878922Y-60329886D02*
X205783684Y-60377505D01*
X205783684Y-60377505D02*
X205736065Y-60425124D01*
X205736065Y-60425124D02*
X205688446Y-60520362D01*
X205259875Y-59425124D02*
X205259875Y-59901314D01*
X205259875Y-59901314D02*
X205736065Y-59948933D01*
X205736065Y-59948933D02*
X205688446Y-59901314D01*
X205688446Y-59901314D02*
X205640827Y-59806076D01*
X205640827Y-59806076D02*
X205640827Y-59567981D01*
X205640827Y-59567981D02*
X205688446Y-59472743D01*
X205688446Y-59472743D02*
X205736065Y-59425124D01*
X205736065Y-59425124D02*
X205831303Y-59377505D01*
X205831303Y-59377505D02*
X206069398Y-59377505D01*
X206069398Y-59377505D02*
X206164636Y-59425124D01*
X206164636Y-59425124D02*
X206212256Y-59472743D01*
X206212256Y-59472743D02*
X206259875Y-59567981D01*
X206259875Y-59567981D02*
X206259875Y-59806076D01*
X206259875Y-59806076D02*
X206212256Y-59901314D01*
X206212256Y-59901314D02*
X206164636Y-59948933D01*
X207869819Y-68663220D02*
X206869819Y-68663220D01*
X206869819Y-68663220D02*
X206869819Y-68282268D01*
X206869819Y-68282268D02*
X206917438Y-68187030D01*
X206917438Y-68187030D02*
X206965057Y-68139411D01*
X206965057Y-68139411D02*
X207060295Y-68091792D01*
X207060295Y-68091792D02*
X207203152Y-68091792D01*
X207203152Y-68091792D02*
X207298390Y-68139411D01*
X207298390Y-68139411D02*
X207346009Y-68187030D01*
X207346009Y-68187030D02*
X207393628Y-68282268D01*
X207393628Y-68282268D02*
X207393628Y-68663220D01*
X206869819Y-67758458D02*
X207869819Y-67520363D01*
X207869819Y-67520363D02*
X207155533Y-67329887D01*
X207155533Y-67329887D02*
X207869819Y-67139411D01*
X207869819Y-67139411D02*
X206869819Y-66901316D01*
X207869819Y-66520363D02*
X206869819Y-66520363D01*
X206869819Y-66520363D02*
X207584104Y-66187030D01*
X207584104Y-66187030D02*
X206869819Y-65853697D01*
X206869819Y-65853697D02*
X207869819Y-65853697D01*
X206822200Y-64663221D02*
X208107914Y-65520363D01*
X207822200Y-64377506D02*
X207869819Y-64234649D01*
X207869819Y-64234649D02*
X207869819Y-63996554D01*
X207869819Y-63996554D02*
X207822200Y-63901316D01*
X207822200Y-63901316D02*
X207774580Y-63853697D01*
X207774580Y-63853697D02*
X207679342Y-63806078D01*
X207679342Y-63806078D02*
X207584104Y-63806078D01*
X207584104Y-63806078D02*
X207488866Y-63853697D01*
X207488866Y-63853697D02*
X207441247Y-63901316D01*
X207441247Y-63901316D02*
X207393628Y-63996554D01*
X207393628Y-63996554D02*
X207346009Y-64187030D01*
X207346009Y-64187030D02*
X207298390Y-64282268D01*
X207298390Y-64282268D02*
X207250771Y-64329887D01*
X207250771Y-64329887D02*
X207155533Y-64377506D01*
X207155533Y-64377506D02*
X207060295Y-64377506D01*
X207060295Y-64377506D02*
X206965057Y-64329887D01*
X206965057Y-64329887D02*
X206917438Y-64282268D01*
X206917438Y-64282268D02*
X206869819Y-64187030D01*
X206869819Y-64187030D02*
X206869819Y-63948935D01*
X206869819Y-63948935D02*
X206917438Y-63806078D01*
X207822200Y-62996554D02*
X207869819Y-63091792D01*
X207869819Y-63091792D02*
X207869819Y-63282268D01*
X207869819Y-63282268D02*
X207822200Y-63377506D01*
X207822200Y-63377506D02*
X207726961Y-63425125D01*
X207726961Y-63425125D02*
X207346009Y-63425125D01*
X207346009Y-63425125D02*
X207250771Y-63377506D01*
X207250771Y-63377506D02*
X207203152Y-63282268D01*
X207203152Y-63282268D02*
X207203152Y-63091792D01*
X207203152Y-63091792D02*
X207250771Y-62996554D01*
X207250771Y-62996554D02*
X207346009Y-62948935D01*
X207346009Y-62948935D02*
X207441247Y-62948935D01*
X207441247Y-62948935D02*
X207536485Y-63425125D01*
X207869819Y-62520363D02*
X207203152Y-62520363D01*
X207393628Y-62520363D02*
X207298390Y-62472744D01*
X207298390Y-62472744D02*
X207250771Y-62425125D01*
X207250771Y-62425125D02*
X207203152Y-62329887D01*
X207203152Y-62329887D02*
X207203152Y-62234649D01*
X207203152Y-61996553D02*
X207869819Y-61758458D01*
X207869819Y-61758458D02*
X207203152Y-61520363D01*
X207869819Y-60996553D02*
X207822200Y-61091791D01*
X207822200Y-61091791D02*
X207774580Y-61139410D01*
X207774580Y-61139410D02*
X207679342Y-61187029D01*
X207679342Y-61187029D02*
X207393628Y-61187029D01*
X207393628Y-61187029D02*
X207298390Y-61139410D01*
X207298390Y-61139410D02*
X207250771Y-61091791D01*
X207250771Y-61091791D02*
X207203152Y-60996553D01*
X207203152Y-60996553D02*
X207203152Y-60853696D01*
X207203152Y-60853696D02*
X207250771Y-60758458D01*
X207250771Y-60758458D02*
X207298390Y-60710839D01*
X207298390Y-60710839D02*
X207393628Y-60663220D01*
X207393628Y-60663220D02*
X207679342Y-60663220D01*
X207679342Y-60663220D02*
X207774580Y-60710839D01*
X207774580Y-60710839D02*
X207822200Y-60758458D01*
X207822200Y-60758458D02*
X207869819Y-60853696D01*
X207869819Y-60853696D02*
X207869819Y-60996553D01*
X207869819Y-59472743D02*
X206869819Y-59472743D01*
X206869819Y-59472743D02*
X206869819Y-59234648D01*
X206869819Y-59234648D02*
X206917438Y-59091791D01*
X206917438Y-59091791D02*
X207012676Y-58996553D01*
X207012676Y-58996553D02*
X207107914Y-58948934D01*
X207107914Y-58948934D02*
X207298390Y-58901315D01*
X207298390Y-58901315D02*
X207441247Y-58901315D01*
X207441247Y-58901315D02*
X207631723Y-58948934D01*
X207631723Y-58948934D02*
X207726961Y-58996553D01*
X207726961Y-58996553D02*
X207822200Y-59091791D01*
X207822200Y-59091791D02*
X207869819Y-59234648D01*
X207869819Y-59234648D02*
X207869819Y-59472743D01*
X207869819Y-58472743D02*
X207203152Y-58472743D01*
X207393628Y-58472743D02*
X207298390Y-58425124D01*
X207298390Y-58425124D02*
X207250771Y-58377505D01*
X207250771Y-58377505D02*
X207203152Y-58282267D01*
X207203152Y-58282267D02*
X207203152Y-58187029D01*
X207869819Y-57853695D02*
X207203152Y-57853695D01*
X206869819Y-57853695D02*
X206917438Y-57901314D01*
X206917438Y-57901314D02*
X206965057Y-57853695D01*
X206965057Y-57853695D02*
X206917438Y-57806076D01*
X206917438Y-57806076D02*
X206869819Y-57853695D01*
X206869819Y-57853695D02*
X206965057Y-57853695D01*
X207203152Y-57472743D02*
X207869819Y-57234648D01*
X207869819Y-57234648D02*
X207203152Y-56996553D01*
X207822200Y-56234648D02*
X207869819Y-56329886D01*
X207869819Y-56329886D02*
X207869819Y-56520362D01*
X207869819Y-56520362D02*
X207822200Y-56615600D01*
X207822200Y-56615600D02*
X207726961Y-56663219D01*
X207726961Y-56663219D02*
X207346009Y-56663219D01*
X207346009Y-56663219D02*
X207250771Y-56615600D01*
X207250771Y-56615600D02*
X207203152Y-56520362D01*
X207203152Y-56520362D02*
X207203152Y-56329886D01*
X207203152Y-56329886D02*
X207250771Y-56234648D01*
X207250771Y-56234648D02*
X207346009Y-56187029D01*
X207346009Y-56187029D02*
X207441247Y-56187029D01*
X207441247Y-56187029D02*
X207536485Y-56663219D01*
X207869819Y-55758457D02*
X207203152Y-55758457D01*
X207393628Y-55758457D02*
X207298390Y-55710838D01*
X207298390Y-55710838D02*
X207250771Y-55663219D01*
X207250771Y-55663219D02*
X207203152Y-55567981D01*
X207203152Y-55567981D02*
X207203152Y-55472743D01*
X184779819Y-48857030D02*
X184779819Y-49333220D01*
X184779819Y-49333220D02*
X183779819Y-49333220D01*
X184779819Y-48523696D02*
X183779819Y-48523696D01*
X184779819Y-48047506D02*
X183779819Y-48047506D01*
X183779819Y-48047506D02*
X183779819Y-47809411D01*
X183779819Y-47809411D02*
X183827438Y-47666554D01*
X183827438Y-47666554D02*
X183922676Y-47571316D01*
X183922676Y-47571316D02*
X184017914Y-47523697D01*
X184017914Y-47523697D02*
X184208390Y-47476078D01*
X184208390Y-47476078D02*
X184351247Y-47476078D01*
X184351247Y-47476078D02*
X184541723Y-47523697D01*
X184541723Y-47523697D02*
X184636961Y-47571316D01*
X184636961Y-47571316D02*
X184732200Y-47666554D01*
X184732200Y-47666554D02*
X184779819Y-47809411D01*
X184779819Y-47809411D02*
X184779819Y-48047506D01*
X184494104Y-47095125D02*
X184494104Y-46618935D01*
X184779819Y-47190363D02*
X183779819Y-46857030D01*
X183779819Y-46857030D02*
X184779819Y-46523697D01*
X184779819Y-45618935D02*
X184303628Y-45952268D01*
X184779819Y-46190363D02*
X183779819Y-46190363D01*
X183779819Y-46190363D02*
X183779819Y-45809411D01*
X183779819Y-45809411D02*
X183827438Y-45714173D01*
X183827438Y-45714173D02*
X183875057Y-45666554D01*
X183875057Y-45666554D02*
X183970295Y-45618935D01*
X183970295Y-45618935D02*
X184113152Y-45618935D01*
X184113152Y-45618935D02*
X184208390Y-45666554D01*
X184208390Y-45666554D02*
X184256009Y-45714173D01*
X184256009Y-45714173D02*
X184303628Y-45809411D01*
X184303628Y-45809411D02*
X184303628Y-46190363D01*
X184779819Y-44428458D02*
X183779819Y-44428458D01*
X183779819Y-44428458D02*
X183779819Y-44047506D01*
X183779819Y-44047506D02*
X183827438Y-43952268D01*
X183827438Y-43952268D02*
X183875057Y-43904649D01*
X183875057Y-43904649D02*
X183970295Y-43857030D01*
X183970295Y-43857030D02*
X184113152Y-43857030D01*
X184113152Y-43857030D02*
X184208390Y-43904649D01*
X184208390Y-43904649D02*
X184256009Y-43952268D01*
X184256009Y-43952268D02*
X184303628Y-44047506D01*
X184303628Y-44047506D02*
X184303628Y-44428458D01*
X184779819Y-43285601D02*
X184732200Y-43380839D01*
X184732200Y-43380839D02*
X184684580Y-43428458D01*
X184684580Y-43428458D02*
X184589342Y-43476077D01*
X184589342Y-43476077D02*
X184303628Y-43476077D01*
X184303628Y-43476077D02*
X184208390Y-43428458D01*
X184208390Y-43428458D02*
X184160771Y-43380839D01*
X184160771Y-43380839D02*
X184113152Y-43285601D01*
X184113152Y-43285601D02*
X184113152Y-43142744D01*
X184113152Y-43142744D02*
X184160771Y-43047506D01*
X184160771Y-43047506D02*
X184208390Y-42999887D01*
X184208390Y-42999887D02*
X184303628Y-42952268D01*
X184303628Y-42952268D02*
X184589342Y-42952268D01*
X184589342Y-42952268D02*
X184684580Y-42999887D01*
X184684580Y-42999887D02*
X184732200Y-43047506D01*
X184732200Y-43047506D02*
X184779819Y-43142744D01*
X184779819Y-43142744D02*
X184779819Y-43285601D01*
X184113152Y-42618934D02*
X184779819Y-42428458D01*
X184779819Y-42428458D02*
X184303628Y-42237982D01*
X184303628Y-42237982D02*
X184779819Y-42047506D01*
X184779819Y-42047506D02*
X184113152Y-41857030D01*
X184732200Y-41095125D02*
X184779819Y-41190363D01*
X184779819Y-41190363D02*
X184779819Y-41380839D01*
X184779819Y-41380839D02*
X184732200Y-41476077D01*
X184732200Y-41476077D02*
X184636961Y-41523696D01*
X184636961Y-41523696D02*
X184256009Y-41523696D01*
X184256009Y-41523696D02*
X184160771Y-41476077D01*
X184160771Y-41476077D02*
X184113152Y-41380839D01*
X184113152Y-41380839D02*
X184113152Y-41190363D01*
X184113152Y-41190363D02*
X184160771Y-41095125D01*
X184160771Y-41095125D02*
X184256009Y-41047506D01*
X184256009Y-41047506D02*
X184351247Y-41047506D01*
X184351247Y-41047506D02*
X184446485Y-41523696D01*
X184779819Y-40618934D02*
X184113152Y-40618934D01*
X184303628Y-40618934D02*
X184208390Y-40571315D01*
X184208390Y-40571315D02*
X184160771Y-40523696D01*
X184160771Y-40523696D02*
X184113152Y-40428458D01*
X184113152Y-40428458D02*
X184113152Y-40333220D01*
X135869819Y-63377506D02*
X136584104Y-63377506D01*
X136584104Y-63377506D02*
X136726961Y-63425125D01*
X136726961Y-63425125D02*
X136822200Y-63520363D01*
X136822200Y-63520363D02*
X136869819Y-63663220D01*
X136869819Y-63663220D02*
X136869819Y-63758458D01*
X136822200Y-62520363D02*
X136869819Y-62615601D01*
X136869819Y-62615601D02*
X136869819Y-62806077D01*
X136869819Y-62806077D02*
X136822200Y-62901315D01*
X136822200Y-62901315D02*
X136726961Y-62948934D01*
X136726961Y-62948934D02*
X136346009Y-62948934D01*
X136346009Y-62948934D02*
X136250771Y-62901315D01*
X136250771Y-62901315D02*
X136203152Y-62806077D01*
X136203152Y-62806077D02*
X136203152Y-62615601D01*
X136203152Y-62615601D02*
X136250771Y-62520363D01*
X136250771Y-62520363D02*
X136346009Y-62472744D01*
X136346009Y-62472744D02*
X136441247Y-62472744D01*
X136441247Y-62472744D02*
X136536485Y-62948934D01*
X136203152Y-62187029D02*
X136203152Y-61806077D01*
X135869819Y-62044172D02*
X136726961Y-62044172D01*
X136726961Y-62044172D02*
X136822200Y-61996553D01*
X136822200Y-61996553D02*
X136869819Y-61901315D01*
X136869819Y-61901315D02*
X136869819Y-61806077D01*
X136822200Y-61520362D02*
X136869819Y-61425124D01*
X136869819Y-61425124D02*
X136869819Y-61234648D01*
X136869819Y-61234648D02*
X136822200Y-61139410D01*
X136822200Y-61139410D02*
X136726961Y-61091791D01*
X136726961Y-61091791D02*
X136679342Y-61091791D01*
X136679342Y-61091791D02*
X136584104Y-61139410D01*
X136584104Y-61139410D02*
X136536485Y-61234648D01*
X136536485Y-61234648D02*
X136536485Y-61377505D01*
X136536485Y-61377505D02*
X136488866Y-61472743D01*
X136488866Y-61472743D02*
X136393628Y-61520362D01*
X136393628Y-61520362D02*
X136346009Y-61520362D01*
X136346009Y-61520362D02*
X136250771Y-61472743D01*
X136250771Y-61472743D02*
X136203152Y-61377505D01*
X136203152Y-61377505D02*
X136203152Y-61234648D01*
X136203152Y-61234648D02*
X136250771Y-61139410D01*
X136869819Y-60520362D02*
X136822200Y-60615600D01*
X136822200Y-60615600D02*
X136774580Y-60663219D01*
X136774580Y-60663219D02*
X136679342Y-60710838D01*
X136679342Y-60710838D02*
X136393628Y-60710838D01*
X136393628Y-60710838D02*
X136298390Y-60663219D01*
X136298390Y-60663219D02*
X136250771Y-60615600D01*
X136250771Y-60615600D02*
X136203152Y-60520362D01*
X136203152Y-60520362D02*
X136203152Y-60377505D01*
X136203152Y-60377505D02*
X136250771Y-60282267D01*
X136250771Y-60282267D02*
X136298390Y-60234648D01*
X136298390Y-60234648D02*
X136393628Y-60187029D01*
X136393628Y-60187029D02*
X136679342Y-60187029D01*
X136679342Y-60187029D02*
X136774580Y-60234648D01*
X136774580Y-60234648D02*
X136822200Y-60282267D01*
X136822200Y-60282267D02*
X136869819Y-60377505D01*
X136869819Y-60377505D02*
X136869819Y-60520362D01*
X136203152Y-59758457D02*
X136869819Y-59758457D01*
X136298390Y-59758457D02*
X136250771Y-59710838D01*
X136250771Y-59710838D02*
X136203152Y-59615600D01*
X136203152Y-59615600D02*
X136203152Y-59472743D01*
X136203152Y-59472743D02*
X136250771Y-59377505D01*
X136250771Y-59377505D02*
X136346009Y-59329886D01*
X136346009Y-59329886D02*
X136869819Y-59329886D01*
X136869819Y-58091790D02*
X135869819Y-58091790D01*
X136346009Y-58091790D02*
X136346009Y-57520362D01*
X136869819Y-57520362D02*
X135869819Y-57520362D01*
X136822200Y-56663219D02*
X136869819Y-56758457D01*
X136869819Y-56758457D02*
X136869819Y-56948933D01*
X136869819Y-56948933D02*
X136822200Y-57044171D01*
X136822200Y-57044171D02*
X136726961Y-57091790D01*
X136726961Y-57091790D02*
X136346009Y-57091790D01*
X136346009Y-57091790D02*
X136250771Y-57044171D01*
X136250771Y-57044171D02*
X136203152Y-56948933D01*
X136203152Y-56948933D02*
X136203152Y-56758457D01*
X136203152Y-56758457D02*
X136250771Y-56663219D01*
X136250771Y-56663219D02*
X136346009Y-56615600D01*
X136346009Y-56615600D02*
X136441247Y-56615600D01*
X136441247Y-56615600D02*
X136536485Y-57091790D01*
X136869819Y-55758457D02*
X136346009Y-55758457D01*
X136346009Y-55758457D02*
X136250771Y-55806076D01*
X136250771Y-55806076D02*
X136203152Y-55901314D01*
X136203152Y-55901314D02*
X136203152Y-56091790D01*
X136203152Y-56091790D02*
X136250771Y-56187028D01*
X136822200Y-55758457D02*
X136869819Y-55853695D01*
X136869819Y-55853695D02*
X136869819Y-56091790D01*
X136869819Y-56091790D02*
X136822200Y-56187028D01*
X136822200Y-56187028D02*
X136726961Y-56234647D01*
X136726961Y-56234647D02*
X136631723Y-56234647D01*
X136631723Y-56234647D02*
X136536485Y-56187028D01*
X136536485Y-56187028D02*
X136488866Y-56091790D01*
X136488866Y-56091790D02*
X136488866Y-55853695D01*
X136488866Y-55853695D02*
X136441247Y-55758457D01*
X136869819Y-54853695D02*
X135869819Y-54853695D01*
X136822200Y-54853695D02*
X136869819Y-54948933D01*
X136869819Y-54948933D02*
X136869819Y-55139409D01*
X136869819Y-55139409D02*
X136822200Y-55234647D01*
X136822200Y-55234647D02*
X136774580Y-55282266D01*
X136774580Y-55282266D02*
X136679342Y-55329885D01*
X136679342Y-55329885D02*
X136393628Y-55329885D01*
X136393628Y-55329885D02*
X136298390Y-55282266D01*
X136298390Y-55282266D02*
X136250771Y-55234647D01*
X136250771Y-55234647D02*
X136203152Y-55139409D01*
X136203152Y-55139409D02*
X136203152Y-54948933D01*
X136203152Y-54948933D02*
X136250771Y-54853695D01*
X136822200Y-53996552D02*
X136869819Y-54091790D01*
X136869819Y-54091790D02*
X136869819Y-54282266D01*
X136869819Y-54282266D02*
X136822200Y-54377504D01*
X136822200Y-54377504D02*
X136726961Y-54425123D01*
X136726961Y-54425123D02*
X136346009Y-54425123D01*
X136346009Y-54425123D02*
X136250771Y-54377504D01*
X136250771Y-54377504D02*
X136203152Y-54282266D01*
X136203152Y-54282266D02*
X136203152Y-54091790D01*
X136203152Y-54091790D02*
X136250771Y-53996552D01*
X136250771Y-53996552D02*
X136346009Y-53948933D01*
X136346009Y-53948933D02*
X136441247Y-53948933D01*
X136441247Y-53948933D02*
X136536485Y-54425123D01*
X136869819Y-53520361D02*
X136203152Y-53520361D01*
X136393628Y-53520361D02*
X136298390Y-53472742D01*
X136298390Y-53472742D02*
X136250771Y-53425123D01*
X136250771Y-53425123D02*
X136203152Y-53329885D01*
X136203152Y-53329885D02*
X136203152Y-53234647D01*
X167566065Y-52270363D02*
X167613684Y-52133458D01*
X167613684Y-52133458D02*
X167661303Y-52091792D01*
X167661303Y-52091792D02*
X167756541Y-52056077D01*
X167756541Y-52056077D02*
X167899398Y-52073935D01*
X167899398Y-52073935D02*
X167994636Y-52133458D01*
X167994636Y-52133458D02*
X168042256Y-52187030D01*
X168042256Y-52187030D02*
X168089875Y-52288220D01*
X168089875Y-52288220D02*
X168089875Y-52669173D01*
X168089875Y-52669173D02*
X167089875Y-52544173D01*
X167089875Y-52544173D02*
X167089875Y-52210839D01*
X167089875Y-52210839D02*
X167137494Y-52121554D01*
X167137494Y-52121554D02*
X167185113Y-52079887D01*
X167185113Y-52079887D02*
X167280351Y-52044173D01*
X167280351Y-52044173D02*
X167375589Y-52056077D01*
X167375589Y-52056077D02*
X167470827Y-52115601D01*
X167470827Y-52115601D02*
X167518446Y-52169173D01*
X167518446Y-52169173D02*
X167566065Y-52270363D01*
X167566065Y-52270363D02*
X167566065Y-52603696D01*
X168089875Y-51526316D02*
X168042256Y-51615601D01*
X168042256Y-51615601D02*
X167994636Y-51657268D01*
X167994636Y-51657268D02*
X167899398Y-51692982D01*
X167899398Y-51692982D02*
X167613684Y-51657268D01*
X167613684Y-51657268D02*
X167518446Y-51597744D01*
X167518446Y-51597744D02*
X167470827Y-51544173D01*
X167470827Y-51544173D02*
X167423208Y-51442982D01*
X167423208Y-51442982D02*
X167423208Y-51300125D01*
X167423208Y-51300125D02*
X167470827Y-51210839D01*
X167470827Y-51210839D02*
X167518446Y-51169173D01*
X167518446Y-51169173D02*
X167613684Y-51133458D01*
X167613684Y-51133458D02*
X167899398Y-51169173D01*
X167899398Y-51169173D02*
X167994636Y-51228696D01*
X167994636Y-51228696D02*
X168042256Y-51282268D01*
X168042256Y-51282268D02*
X168089875Y-51383458D01*
X168089875Y-51383458D02*
X168089875Y-51526316D01*
X168089875Y-50621554D02*
X168042256Y-50710839D01*
X168042256Y-50710839D02*
X167994636Y-50752506D01*
X167994636Y-50752506D02*
X167899398Y-50788220D01*
X167899398Y-50788220D02*
X167613684Y-50752506D01*
X167613684Y-50752506D02*
X167518446Y-50692982D01*
X167518446Y-50692982D02*
X167470827Y-50639411D01*
X167470827Y-50639411D02*
X167423208Y-50538220D01*
X167423208Y-50538220D02*
X167423208Y-50395363D01*
X167423208Y-50395363D02*
X167470827Y-50306077D01*
X167470827Y-50306077D02*
X167518446Y-50264411D01*
X167518446Y-50264411D02*
X167613684Y-50228696D01*
X167613684Y-50228696D02*
X167899398Y-50264411D01*
X167899398Y-50264411D02*
X167994636Y-50323934D01*
X167994636Y-50323934D02*
X168042256Y-50377506D01*
X168042256Y-50377506D02*
X168089875Y-50478696D01*
X168089875Y-50478696D02*
X168089875Y-50621554D01*
X168042256Y-49901315D02*
X168089875Y-49812030D01*
X168089875Y-49812030D02*
X168089875Y-49621553D01*
X168089875Y-49621553D02*
X168042256Y-49520363D01*
X168042256Y-49520363D02*
X167947017Y-49460839D01*
X167947017Y-49460839D02*
X167899398Y-49454887D01*
X167899398Y-49454887D02*
X167804160Y-49490601D01*
X167804160Y-49490601D02*
X167756541Y-49579887D01*
X167756541Y-49579887D02*
X167756541Y-49722744D01*
X167756541Y-49722744D02*
X167708922Y-49812030D01*
X167708922Y-49812030D02*
X167613684Y-49847744D01*
X167613684Y-49847744D02*
X167566065Y-49841792D01*
X167566065Y-49841792D02*
X167470827Y-49782268D01*
X167470827Y-49782268D02*
X167423208Y-49681077D01*
X167423208Y-49681077D02*
X167423208Y-49538220D01*
X167423208Y-49538220D02*
X167470827Y-49448934D01*
X167423208Y-49109648D02*
X167423208Y-48728696D01*
X167089875Y-48925125D02*
X167947017Y-49032268D01*
X167947017Y-49032268D02*
X168042256Y-48996553D01*
X168042256Y-48996553D02*
X168089875Y-48907268D01*
X168089875Y-48907268D02*
X168089875Y-48812029D01*
X167994636Y-47133457D02*
X168042256Y-47187029D01*
X168042256Y-47187029D02*
X168089875Y-47335838D01*
X168089875Y-47335838D02*
X168089875Y-47431076D01*
X168089875Y-47431076D02*
X168042256Y-47567981D01*
X168042256Y-47567981D02*
X167947017Y-47651314D01*
X167947017Y-47651314D02*
X167851779Y-47687029D01*
X167851779Y-47687029D02*
X167661303Y-47710838D01*
X167661303Y-47710838D02*
X167518446Y-47692981D01*
X167518446Y-47692981D02*
X167327970Y-47621553D01*
X167327970Y-47621553D02*
X167232732Y-47562029D01*
X167232732Y-47562029D02*
X167137494Y-47454886D01*
X167137494Y-47454886D02*
X167089875Y-47306076D01*
X167089875Y-47306076D02*
X167089875Y-47210838D01*
X167089875Y-47210838D02*
X167137494Y-47073934D01*
X167137494Y-47073934D02*
X167185113Y-47032267D01*
X168089875Y-46573934D02*
X168042256Y-46663219D01*
X168042256Y-46663219D02*
X167994636Y-46704886D01*
X167994636Y-46704886D02*
X167899398Y-46740600D01*
X167899398Y-46740600D02*
X167613684Y-46704886D01*
X167613684Y-46704886D02*
X167518446Y-46645362D01*
X167518446Y-46645362D02*
X167470827Y-46591791D01*
X167470827Y-46591791D02*
X167423208Y-46490600D01*
X167423208Y-46490600D02*
X167423208Y-46347743D01*
X167423208Y-46347743D02*
X167470827Y-46258457D01*
X167470827Y-46258457D02*
X167518446Y-46216791D01*
X167518446Y-46216791D02*
X167613684Y-46181076D01*
X167613684Y-46181076D02*
X167899398Y-46216791D01*
X167899398Y-46216791D02*
X167994636Y-46276314D01*
X167994636Y-46276314D02*
X168042256Y-46329886D01*
X168042256Y-46329886D02*
X168089875Y-46431076D01*
X168089875Y-46431076D02*
X168089875Y-46573934D01*
X167423208Y-45728695D02*
X168089875Y-45812029D01*
X167518446Y-45740600D02*
X167470827Y-45687029D01*
X167470827Y-45687029D02*
X167423208Y-45585838D01*
X167423208Y-45585838D02*
X167423208Y-45442981D01*
X167423208Y-45442981D02*
X167470827Y-45353695D01*
X167470827Y-45353695D02*
X167566065Y-45317981D01*
X167566065Y-45317981D02*
X168089875Y-45383457D01*
X167423208Y-44919171D02*
X168089875Y-44764410D01*
X168089875Y-44764410D02*
X167423208Y-44442981D01*
X168042256Y-43758457D02*
X168089875Y-43859647D01*
X168089875Y-43859647D02*
X168089875Y-44050124D01*
X168089875Y-44050124D02*
X168042256Y-44139409D01*
X168042256Y-44139409D02*
X167947017Y-44175124D01*
X167947017Y-44175124D02*
X167566065Y-44127505D01*
X167566065Y-44127505D02*
X167470827Y-44067981D01*
X167470827Y-44067981D02*
X167423208Y-43966790D01*
X167423208Y-43966790D02*
X167423208Y-43776314D01*
X167423208Y-43776314D02*
X167470827Y-43687028D01*
X167470827Y-43687028D02*
X167566065Y-43651314D01*
X167566065Y-43651314D02*
X167661303Y-43663219D01*
X167661303Y-43663219D02*
X167756541Y-44151314D01*
X168089875Y-43288219D02*
X167423208Y-43204885D01*
X167613684Y-43228695D02*
X167518446Y-43169171D01*
X167518446Y-43169171D02*
X167470827Y-43115600D01*
X167470827Y-43115600D02*
X167423208Y-43014409D01*
X167423208Y-43014409D02*
X167423208Y-42919171D01*
X167423208Y-42728694D02*
X167423208Y-42347742D01*
X167089875Y-42544171D02*
X167947017Y-42651314D01*
X167947017Y-42651314D02*
X168042256Y-42615599D01*
X168042256Y-42615599D02*
X168089875Y-42526314D01*
X168089875Y-42526314D02*
X168089875Y-42431075D01*
X168042256Y-41710837D02*
X168089875Y-41812027D01*
X168089875Y-41812027D02*
X168089875Y-42002504D01*
X168089875Y-42002504D02*
X168042256Y-42091789D01*
X168042256Y-42091789D02*
X167947017Y-42127504D01*
X167947017Y-42127504D02*
X167566065Y-42079885D01*
X167566065Y-42079885D02*
X167470827Y-42020361D01*
X167470827Y-42020361D02*
X167423208Y-41919170D01*
X167423208Y-41919170D02*
X167423208Y-41728694D01*
X167423208Y-41728694D02*
X167470827Y-41639408D01*
X167470827Y-41639408D02*
X167566065Y-41603694D01*
X167566065Y-41603694D02*
X167661303Y-41615599D01*
X167661303Y-41615599D02*
X167756541Y-42103694D01*
X168089875Y-41240599D02*
X167423208Y-41157265D01*
X167613684Y-41181075D02*
X167518446Y-41121551D01*
X167518446Y-41121551D02*
X167470827Y-41067980D01*
X167470827Y-41067980D02*
X167423208Y-40966789D01*
X167423208Y-40966789D02*
X167423208Y-40871551D01*
X170080771Y-49383457D02*
X170033152Y-49425124D01*
X170033152Y-49425124D02*
X169890295Y-49502505D01*
X169890295Y-49502505D02*
X169795057Y-49538219D01*
X169795057Y-49538219D02*
X169652200Y-49567981D01*
X169652200Y-49567981D02*
X169414104Y-49585838D01*
X169414104Y-49585838D02*
X169223628Y-49562029D01*
X169223628Y-49562029D02*
X168985533Y-49484648D01*
X168985533Y-49484648D02*
X168842676Y-49419172D01*
X168842676Y-49419172D02*
X168747438Y-49359648D01*
X168747438Y-49359648D02*
X168604580Y-49246553D01*
X168604580Y-49246553D02*
X168556961Y-49192981D01*
X169699819Y-48431076D02*
X169699819Y-49002505D01*
X169699819Y-48716790D02*
X168699819Y-48591790D01*
X168699819Y-48591790D02*
X168842676Y-48704886D01*
X168842676Y-48704886D02*
X168937914Y-48812029D01*
X168937914Y-48812029D02*
X168985533Y-48913219D01*
X168795057Y-47937028D02*
X168747438Y-47883457D01*
X168747438Y-47883457D02*
X168699819Y-47782267D01*
X168699819Y-47782267D02*
X168699819Y-47544171D01*
X168699819Y-47544171D02*
X168747438Y-47454886D01*
X168747438Y-47454886D02*
X168795057Y-47413219D01*
X168795057Y-47413219D02*
X168890295Y-47377505D01*
X168890295Y-47377505D02*
X168985533Y-47389409D01*
X168985533Y-47389409D02*
X169128390Y-47454886D01*
X169128390Y-47454886D02*
X169699819Y-48097743D01*
X169699819Y-48097743D02*
X169699819Y-47478695D01*
X169033152Y-47062028D02*
X169699819Y-46907267D01*
X169699819Y-46907267D02*
X169033152Y-46585838D01*
X170080771Y-46431076D02*
X170033152Y-46377504D01*
X170033152Y-46377504D02*
X169890295Y-46264409D01*
X169890295Y-46264409D02*
X169795057Y-46204885D01*
X169795057Y-46204885D02*
X169652200Y-46139409D01*
X169652200Y-46139409D02*
X169414104Y-46062028D01*
X169414104Y-46062028D02*
X169223628Y-46038219D01*
X169223628Y-46038219D02*
X168985533Y-46056076D01*
X168985533Y-46056076D02*
X168842676Y-46085838D01*
X168842676Y-46085838D02*
X168747438Y-46121552D01*
X168747438Y-46121552D02*
X168604580Y-46198933D01*
X168604580Y-46198933D02*
X168556961Y-46240600D01*
X177346009Y-87663220D02*
X177346009Y-87329887D01*
X177869819Y-87187030D02*
X177869819Y-87663220D01*
X177869819Y-87663220D02*
X176869819Y-87663220D01*
X176869819Y-87663220D02*
X176869819Y-87187030D01*
X177822200Y-86806077D02*
X177869819Y-86663220D01*
X177869819Y-86663220D02*
X177869819Y-86425125D01*
X177869819Y-86425125D02*
X177822200Y-86329887D01*
X177822200Y-86329887D02*
X177774580Y-86282268D01*
X177774580Y-86282268D02*
X177679342Y-86234649D01*
X177679342Y-86234649D02*
X177584104Y-86234649D01*
X177584104Y-86234649D02*
X177488866Y-86282268D01*
X177488866Y-86282268D02*
X177441247Y-86329887D01*
X177441247Y-86329887D02*
X177393628Y-86425125D01*
X177393628Y-86425125D02*
X177346009Y-86615601D01*
X177346009Y-86615601D02*
X177298390Y-86710839D01*
X177298390Y-86710839D02*
X177250771Y-86758458D01*
X177250771Y-86758458D02*
X177155533Y-86806077D01*
X177155533Y-86806077D02*
X177060295Y-86806077D01*
X177060295Y-86806077D02*
X176965057Y-86758458D01*
X176965057Y-86758458D02*
X176917438Y-86710839D01*
X176917438Y-86710839D02*
X176869819Y-86615601D01*
X176869819Y-86615601D02*
X176869819Y-86377506D01*
X176869819Y-86377506D02*
X176917438Y-86234649D01*
X177774580Y-85234649D02*
X177822200Y-85282268D01*
X177822200Y-85282268D02*
X177869819Y-85425125D01*
X177869819Y-85425125D02*
X177869819Y-85520363D01*
X177869819Y-85520363D02*
X177822200Y-85663220D01*
X177822200Y-85663220D02*
X177726961Y-85758458D01*
X177726961Y-85758458D02*
X177631723Y-85806077D01*
X177631723Y-85806077D02*
X177441247Y-85853696D01*
X177441247Y-85853696D02*
X177298390Y-85853696D01*
X177298390Y-85853696D02*
X177107914Y-85806077D01*
X177107914Y-85806077D02*
X177012676Y-85758458D01*
X177012676Y-85758458D02*
X176917438Y-85663220D01*
X176917438Y-85663220D02*
X176869819Y-85520363D01*
X176869819Y-85520363D02*
X176869819Y-85425125D01*
X176869819Y-85425125D02*
X176917438Y-85282268D01*
X176917438Y-85282268D02*
X176965057Y-85234649D01*
X143360588Y-48869819D02*
X142789160Y-48869819D01*
X143074874Y-48869819D02*
X143074874Y-47869819D01*
X143074874Y-47869819D02*
X142979636Y-48012676D01*
X142979636Y-48012676D02*
X142884398Y-48107914D01*
X142884398Y-48107914D02*
X142789160Y-48155533D01*
X143741541Y-47965057D02*
X143789160Y-47917438D01*
X143789160Y-47917438D02*
X143884398Y-47869819D01*
X143884398Y-47869819D02*
X144122493Y-47869819D01*
X144122493Y-47869819D02*
X144217731Y-47917438D01*
X144217731Y-47917438D02*
X144265350Y-47965057D01*
X144265350Y-47965057D02*
X144312969Y-48060295D01*
X144312969Y-48060295D02*
X144312969Y-48155533D01*
X144312969Y-48155533D02*
X144265350Y-48298390D01*
X144265350Y-48298390D02*
X143693922Y-48869819D01*
X143693922Y-48869819D02*
X144312969Y-48869819D01*
X144646303Y-48203152D02*
X144884398Y-48869819D01*
X144884398Y-48869819D02*
X145122493Y-48203152D01*
X146265351Y-48869819D02*
X146265351Y-48203152D01*
X146265351Y-47869819D02*
X146217732Y-47917438D01*
X146217732Y-47917438D02*
X146265351Y-47965057D01*
X146265351Y-47965057D02*
X146312970Y-47917438D01*
X146312970Y-47917438D02*
X146265351Y-47869819D01*
X146265351Y-47869819D02*
X146265351Y-47965057D01*
X146741541Y-48203152D02*
X146741541Y-48869819D01*
X146741541Y-48298390D02*
X146789160Y-48250771D01*
X146789160Y-48250771D02*
X146884398Y-48203152D01*
X146884398Y-48203152D02*
X147027255Y-48203152D01*
X147027255Y-48203152D02*
X147122493Y-48250771D01*
X147122493Y-48250771D02*
X147170112Y-48346009D01*
X147170112Y-48346009D02*
X147170112Y-48869819D01*
X157256065Y-50649887D02*
X157303684Y-50507030D01*
X157303684Y-50507030D02*
X157351303Y-50459411D01*
X157351303Y-50459411D02*
X157446541Y-50411792D01*
X157446541Y-50411792D02*
X157589398Y-50411792D01*
X157589398Y-50411792D02*
X157684636Y-50459411D01*
X157684636Y-50459411D02*
X157732256Y-50507030D01*
X157732256Y-50507030D02*
X157779875Y-50602268D01*
X157779875Y-50602268D02*
X157779875Y-50983220D01*
X157779875Y-50983220D02*
X156779875Y-50983220D01*
X156779875Y-50983220D02*
X156779875Y-50649887D01*
X156779875Y-50649887D02*
X156827494Y-50554649D01*
X156827494Y-50554649D02*
X156875113Y-50507030D01*
X156875113Y-50507030D02*
X156970351Y-50459411D01*
X156970351Y-50459411D02*
X157065589Y-50459411D01*
X157065589Y-50459411D02*
X157160827Y-50507030D01*
X157160827Y-50507030D02*
X157208446Y-50554649D01*
X157208446Y-50554649D02*
X157256065Y-50649887D01*
X157256065Y-50649887D02*
X157256065Y-50983220D01*
X157113208Y-49554649D02*
X157779875Y-49554649D01*
X157113208Y-49983220D02*
X157637017Y-49983220D01*
X157637017Y-49983220D02*
X157732256Y-49935601D01*
X157732256Y-49935601D02*
X157779875Y-49840363D01*
X157779875Y-49840363D02*
X157779875Y-49697506D01*
X157779875Y-49697506D02*
X157732256Y-49602268D01*
X157732256Y-49602268D02*
X157684636Y-49554649D01*
X157732256Y-48649887D02*
X157779875Y-48745125D01*
X157779875Y-48745125D02*
X157779875Y-48935601D01*
X157779875Y-48935601D02*
X157732256Y-49030839D01*
X157732256Y-49030839D02*
X157684636Y-49078458D01*
X157684636Y-49078458D02*
X157589398Y-49126077D01*
X157589398Y-49126077D02*
X157303684Y-49126077D01*
X157303684Y-49126077D02*
X157208446Y-49078458D01*
X157208446Y-49078458D02*
X157160827Y-49030839D01*
X157160827Y-49030839D02*
X157113208Y-48935601D01*
X157113208Y-48935601D02*
X157113208Y-48745125D01*
X157113208Y-48745125D02*
X157160827Y-48649887D01*
X157779875Y-48221315D02*
X156779875Y-48221315D01*
X157398922Y-48126077D02*
X157779875Y-47840363D01*
X157113208Y-47840363D02*
X157494160Y-48221315D01*
X157684636Y-46078458D02*
X157732256Y-46126077D01*
X157732256Y-46126077D02*
X157779875Y-46268934D01*
X157779875Y-46268934D02*
X157779875Y-46364172D01*
X157779875Y-46364172D02*
X157732256Y-46507029D01*
X157732256Y-46507029D02*
X157637017Y-46602267D01*
X157637017Y-46602267D02*
X157541779Y-46649886D01*
X157541779Y-46649886D02*
X157351303Y-46697505D01*
X157351303Y-46697505D02*
X157208446Y-46697505D01*
X157208446Y-46697505D02*
X157017970Y-46649886D01*
X157017970Y-46649886D02*
X156922732Y-46602267D01*
X156922732Y-46602267D02*
X156827494Y-46507029D01*
X156827494Y-46507029D02*
X156779875Y-46364172D01*
X156779875Y-46364172D02*
X156779875Y-46268934D01*
X156779875Y-46268934D02*
X156827494Y-46126077D01*
X156827494Y-46126077D02*
X156875113Y-46078458D01*
X157779875Y-45507029D02*
X157732256Y-45602267D01*
X157732256Y-45602267D02*
X157684636Y-45649886D01*
X157684636Y-45649886D02*
X157589398Y-45697505D01*
X157589398Y-45697505D02*
X157303684Y-45697505D01*
X157303684Y-45697505D02*
X157208446Y-45649886D01*
X157208446Y-45649886D02*
X157160827Y-45602267D01*
X157160827Y-45602267D02*
X157113208Y-45507029D01*
X157113208Y-45507029D02*
X157113208Y-45364172D01*
X157113208Y-45364172D02*
X157160827Y-45268934D01*
X157160827Y-45268934D02*
X157208446Y-45221315D01*
X157208446Y-45221315D02*
X157303684Y-45173696D01*
X157303684Y-45173696D02*
X157589398Y-45173696D01*
X157589398Y-45173696D02*
X157684636Y-45221315D01*
X157684636Y-45221315D02*
X157732256Y-45268934D01*
X157732256Y-45268934D02*
X157779875Y-45364172D01*
X157779875Y-45364172D02*
X157779875Y-45507029D01*
X157113208Y-44745124D02*
X157779875Y-44745124D01*
X157208446Y-44745124D02*
X157160827Y-44697505D01*
X157160827Y-44697505D02*
X157113208Y-44602267D01*
X157113208Y-44602267D02*
X157113208Y-44459410D01*
X157113208Y-44459410D02*
X157160827Y-44364172D01*
X157160827Y-44364172D02*
X157256065Y-44316553D01*
X157256065Y-44316553D02*
X157779875Y-44316553D01*
X157113208Y-43935600D02*
X157779875Y-43697505D01*
X157779875Y-43697505D02*
X157113208Y-43459410D01*
X157732256Y-42697505D02*
X157779875Y-42792743D01*
X157779875Y-42792743D02*
X157779875Y-42983219D01*
X157779875Y-42983219D02*
X157732256Y-43078457D01*
X157732256Y-43078457D02*
X157637017Y-43126076D01*
X157637017Y-43126076D02*
X157256065Y-43126076D01*
X157256065Y-43126076D02*
X157160827Y-43078457D01*
X157160827Y-43078457D02*
X157113208Y-42983219D01*
X157113208Y-42983219D02*
X157113208Y-42792743D01*
X157113208Y-42792743D02*
X157160827Y-42697505D01*
X157160827Y-42697505D02*
X157256065Y-42649886D01*
X157256065Y-42649886D02*
X157351303Y-42649886D01*
X157351303Y-42649886D02*
X157446541Y-43126076D01*
X157779875Y-42221314D02*
X157113208Y-42221314D01*
X157303684Y-42221314D02*
X157208446Y-42173695D01*
X157208446Y-42173695D02*
X157160827Y-42126076D01*
X157160827Y-42126076D02*
X157113208Y-42030838D01*
X157113208Y-42030838D02*
X157113208Y-41935600D01*
X157113208Y-41745123D02*
X157113208Y-41364171D01*
X156779875Y-41602266D02*
X157637017Y-41602266D01*
X157637017Y-41602266D02*
X157732256Y-41554647D01*
X157732256Y-41554647D02*
X157779875Y-41459409D01*
X157779875Y-41459409D02*
X157779875Y-41364171D01*
X157732256Y-40649885D02*
X157779875Y-40745123D01*
X157779875Y-40745123D02*
X157779875Y-40935599D01*
X157779875Y-40935599D02*
X157732256Y-41030837D01*
X157732256Y-41030837D02*
X157637017Y-41078456D01*
X157637017Y-41078456D02*
X157256065Y-41078456D01*
X157256065Y-41078456D02*
X157160827Y-41030837D01*
X157160827Y-41030837D02*
X157113208Y-40935599D01*
X157113208Y-40935599D02*
X157113208Y-40745123D01*
X157113208Y-40745123D02*
X157160827Y-40649885D01*
X157160827Y-40649885D02*
X157256065Y-40602266D01*
X157256065Y-40602266D02*
X157351303Y-40602266D01*
X157351303Y-40602266D02*
X157446541Y-41078456D01*
X157779875Y-40173694D02*
X157113208Y-40173694D01*
X157303684Y-40173694D02*
X157208446Y-40126075D01*
X157208446Y-40126075D02*
X157160827Y-40078456D01*
X157160827Y-40078456D02*
X157113208Y-39983218D01*
X157113208Y-39983218D02*
X157113208Y-39887980D01*
X159770771Y-49173696D02*
X159723152Y-49221315D01*
X159723152Y-49221315D02*
X159580295Y-49316553D01*
X159580295Y-49316553D02*
X159485057Y-49364172D01*
X159485057Y-49364172D02*
X159342200Y-49411791D01*
X159342200Y-49411791D02*
X159104104Y-49459410D01*
X159104104Y-49459410D02*
X158913628Y-49459410D01*
X158913628Y-49459410D02*
X158675533Y-49411791D01*
X158675533Y-49411791D02*
X158532676Y-49364172D01*
X158532676Y-49364172D02*
X158437438Y-49316553D01*
X158437438Y-49316553D02*
X158294580Y-49221315D01*
X158294580Y-49221315D02*
X158246961Y-49173696D01*
X159389819Y-48268934D02*
X159389819Y-48840362D01*
X159389819Y-48554648D02*
X158389819Y-48554648D01*
X158389819Y-48554648D02*
X158532676Y-48649886D01*
X158532676Y-48649886D02*
X158627914Y-48745124D01*
X158627914Y-48745124D02*
X158675533Y-48840362D01*
X158485057Y-47887981D02*
X158437438Y-47840362D01*
X158437438Y-47840362D02*
X158389819Y-47745124D01*
X158389819Y-47745124D02*
X158389819Y-47507029D01*
X158389819Y-47507029D02*
X158437438Y-47411791D01*
X158437438Y-47411791D02*
X158485057Y-47364172D01*
X158485057Y-47364172D02*
X158580295Y-47316553D01*
X158580295Y-47316553D02*
X158675533Y-47316553D01*
X158675533Y-47316553D02*
X158818390Y-47364172D01*
X158818390Y-47364172D02*
X159389819Y-47935600D01*
X159389819Y-47935600D02*
X159389819Y-47316553D01*
X158723152Y-46983219D02*
X159389819Y-46745124D01*
X159389819Y-46745124D02*
X158723152Y-46507029D01*
X159008866Y-46126076D02*
X159008866Y-45364172D01*
X158389819Y-44411791D02*
X158389819Y-44887981D01*
X158389819Y-44887981D02*
X158866009Y-44935600D01*
X158866009Y-44935600D02*
X158818390Y-44887981D01*
X158818390Y-44887981D02*
X158770771Y-44792743D01*
X158770771Y-44792743D02*
X158770771Y-44554648D01*
X158770771Y-44554648D02*
X158818390Y-44459410D01*
X158818390Y-44459410D02*
X158866009Y-44411791D01*
X158866009Y-44411791D02*
X158961247Y-44364172D01*
X158961247Y-44364172D02*
X159199342Y-44364172D01*
X159199342Y-44364172D02*
X159294580Y-44411791D01*
X159294580Y-44411791D02*
X159342200Y-44459410D01*
X159342200Y-44459410D02*
X159389819Y-44554648D01*
X159389819Y-44554648D02*
X159389819Y-44792743D01*
X159389819Y-44792743D02*
X159342200Y-44887981D01*
X159342200Y-44887981D02*
X159294580Y-44935600D01*
X158723152Y-44030838D02*
X159389819Y-43792743D01*
X159389819Y-43792743D02*
X158723152Y-43554648D01*
X159770771Y-43268933D02*
X159723152Y-43221314D01*
X159723152Y-43221314D02*
X159580295Y-43126076D01*
X159580295Y-43126076D02*
X159485057Y-43078457D01*
X159485057Y-43078457D02*
X159342200Y-43030838D01*
X159342200Y-43030838D02*
X159104104Y-42983219D01*
X159104104Y-42983219D02*
X158913628Y-42983219D01*
X158913628Y-42983219D02*
X158675533Y-43030838D01*
X158675533Y-43030838D02*
X158532676Y-43078457D01*
X158532676Y-43078457D02*
X158437438Y-43126076D01*
X158437438Y-43126076D02*
X158294580Y-43221314D01*
X158294580Y-43221314D02*
X158246961Y-43268933D01*
X176709819Y-49107506D02*
X177424104Y-49107506D01*
X177424104Y-49107506D02*
X177566961Y-49155125D01*
X177566961Y-49155125D02*
X177662200Y-49250363D01*
X177662200Y-49250363D02*
X177709819Y-49393220D01*
X177709819Y-49393220D02*
X177709819Y-49488458D01*
X177662200Y-48250363D02*
X177709819Y-48345601D01*
X177709819Y-48345601D02*
X177709819Y-48536077D01*
X177709819Y-48536077D02*
X177662200Y-48631315D01*
X177662200Y-48631315D02*
X177566961Y-48678934D01*
X177566961Y-48678934D02*
X177186009Y-48678934D01*
X177186009Y-48678934D02*
X177090771Y-48631315D01*
X177090771Y-48631315D02*
X177043152Y-48536077D01*
X177043152Y-48536077D02*
X177043152Y-48345601D01*
X177043152Y-48345601D02*
X177090771Y-48250363D01*
X177090771Y-48250363D02*
X177186009Y-48202744D01*
X177186009Y-48202744D02*
X177281247Y-48202744D01*
X177281247Y-48202744D02*
X177376485Y-48678934D01*
X177043152Y-47917029D02*
X177043152Y-47536077D01*
X176709819Y-47774172D02*
X177566961Y-47774172D01*
X177566961Y-47774172D02*
X177662200Y-47726553D01*
X177662200Y-47726553D02*
X177709819Y-47631315D01*
X177709819Y-47631315D02*
X177709819Y-47536077D01*
X177662200Y-47250362D02*
X177709819Y-47155124D01*
X177709819Y-47155124D02*
X177709819Y-46964648D01*
X177709819Y-46964648D02*
X177662200Y-46869410D01*
X177662200Y-46869410D02*
X177566961Y-46821791D01*
X177566961Y-46821791D02*
X177519342Y-46821791D01*
X177519342Y-46821791D02*
X177424104Y-46869410D01*
X177424104Y-46869410D02*
X177376485Y-46964648D01*
X177376485Y-46964648D02*
X177376485Y-47107505D01*
X177376485Y-47107505D02*
X177328866Y-47202743D01*
X177328866Y-47202743D02*
X177233628Y-47250362D01*
X177233628Y-47250362D02*
X177186009Y-47250362D01*
X177186009Y-47250362D02*
X177090771Y-47202743D01*
X177090771Y-47202743D02*
X177043152Y-47107505D01*
X177043152Y-47107505D02*
X177043152Y-46964648D01*
X177043152Y-46964648D02*
X177090771Y-46869410D01*
X177709819Y-46250362D02*
X177662200Y-46345600D01*
X177662200Y-46345600D02*
X177614580Y-46393219D01*
X177614580Y-46393219D02*
X177519342Y-46440838D01*
X177519342Y-46440838D02*
X177233628Y-46440838D01*
X177233628Y-46440838D02*
X177138390Y-46393219D01*
X177138390Y-46393219D02*
X177090771Y-46345600D01*
X177090771Y-46345600D02*
X177043152Y-46250362D01*
X177043152Y-46250362D02*
X177043152Y-46107505D01*
X177043152Y-46107505D02*
X177090771Y-46012267D01*
X177090771Y-46012267D02*
X177138390Y-45964648D01*
X177138390Y-45964648D02*
X177233628Y-45917029D01*
X177233628Y-45917029D02*
X177519342Y-45917029D01*
X177519342Y-45917029D02*
X177614580Y-45964648D01*
X177614580Y-45964648D02*
X177662200Y-46012267D01*
X177662200Y-46012267D02*
X177709819Y-46107505D01*
X177709819Y-46107505D02*
X177709819Y-46250362D01*
X177043152Y-45488457D02*
X177709819Y-45488457D01*
X177138390Y-45488457D02*
X177090771Y-45440838D01*
X177090771Y-45440838D02*
X177043152Y-45345600D01*
X177043152Y-45345600D02*
X177043152Y-45202743D01*
X177043152Y-45202743D02*
X177090771Y-45107505D01*
X177090771Y-45107505D02*
X177186009Y-45059886D01*
X177186009Y-45059886D02*
X177709819Y-45059886D01*
X177709819Y-43821790D02*
X176709819Y-43821790D01*
X176709819Y-43821790D02*
X176709819Y-43440838D01*
X176709819Y-43440838D02*
X176757438Y-43345600D01*
X176757438Y-43345600D02*
X176805057Y-43297981D01*
X176805057Y-43297981D02*
X176900295Y-43250362D01*
X176900295Y-43250362D02*
X177043152Y-43250362D01*
X177043152Y-43250362D02*
X177138390Y-43297981D01*
X177138390Y-43297981D02*
X177186009Y-43345600D01*
X177186009Y-43345600D02*
X177233628Y-43440838D01*
X177233628Y-43440838D02*
X177233628Y-43821790D01*
X177709819Y-42678933D02*
X177662200Y-42774171D01*
X177662200Y-42774171D02*
X177614580Y-42821790D01*
X177614580Y-42821790D02*
X177519342Y-42869409D01*
X177519342Y-42869409D02*
X177233628Y-42869409D01*
X177233628Y-42869409D02*
X177138390Y-42821790D01*
X177138390Y-42821790D02*
X177090771Y-42774171D01*
X177090771Y-42774171D02*
X177043152Y-42678933D01*
X177043152Y-42678933D02*
X177043152Y-42536076D01*
X177043152Y-42536076D02*
X177090771Y-42440838D01*
X177090771Y-42440838D02*
X177138390Y-42393219D01*
X177138390Y-42393219D02*
X177233628Y-42345600D01*
X177233628Y-42345600D02*
X177519342Y-42345600D01*
X177519342Y-42345600D02*
X177614580Y-42393219D01*
X177614580Y-42393219D02*
X177662200Y-42440838D01*
X177662200Y-42440838D02*
X177709819Y-42536076D01*
X177709819Y-42536076D02*
X177709819Y-42678933D01*
X177043152Y-42012266D02*
X177709819Y-41821790D01*
X177709819Y-41821790D02*
X177233628Y-41631314D01*
X177233628Y-41631314D02*
X177709819Y-41440838D01*
X177709819Y-41440838D02*
X177043152Y-41250362D01*
X177662200Y-40488457D02*
X177709819Y-40583695D01*
X177709819Y-40583695D02*
X177709819Y-40774171D01*
X177709819Y-40774171D02*
X177662200Y-40869409D01*
X177662200Y-40869409D02*
X177566961Y-40917028D01*
X177566961Y-40917028D02*
X177186009Y-40917028D01*
X177186009Y-40917028D02*
X177090771Y-40869409D01*
X177090771Y-40869409D02*
X177043152Y-40774171D01*
X177043152Y-40774171D02*
X177043152Y-40583695D01*
X177043152Y-40583695D02*
X177090771Y-40488457D01*
X177090771Y-40488457D02*
X177186009Y-40440838D01*
X177186009Y-40440838D02*
X177281247Y-40440838D01*
X177281247Y-40440838D02*
X177376485Y-40917028D01*
X177709819Y-40012266D02*
X177043152Y-40012266D01*
X177233628Y-40012266D02*
X177138390Y-39964647D01*
X177138390Y-39964647D02*
X177090771Y-39917028D01*
X177090771Y-39917028D02*
X177043152Y-39821790D01*
X177043152Y-39821790D02*
X177043152Y-39726552D01*
X196346009Y-65829887D02*
X196393628Y-65687030D01*
X196393628Y-65687030D02*
X196441247Y-65639411D01*
X196441247Y-65639411D02*
X196536485Y-65591792D01*
X196536485Y-65591792D02*
X196679342Y-65591792D01*
X196679342Y-65591792D02*
X196774580Y-65639411D01*
X196774580Y-65639411D02*
X196822200Y-65687030D01*
X196822200Y-65687030D02*
X196869819Y-65782268D01*
X196869819Y-65782268D02*
X196869819Y-66163220D01*
X196869819Y-66163220D02*
X195869819Y-66163220D01*
X195869819Y-66163220D02*
X195869819Y-65829887D01*
X195869819Y-65829887D02*
X195917438Y-65734649D01*
X195917438Y-65734649D02*
X195965057Y-65687030D01*
X195965057Y-65687030D02*
X196060295Y-65639411D01*
X196060295Y-65639411D02*
X196155533Y-65639411D01*
X196155533Y-65639411D02*
X196250771Y-65687030D01*
X196250771Y-65687030D02*
X196298390Y-65734649D01*
X196298390Y-65734649D02*
X196346009Y-65829887D01*
X196346009Y-65829887D02*
X196346009Y-66163220D01*
X196869819Y-65163220D02*
X195869819Y-65163220D01*
X195869819Y-65163220D02*
X196584104Y-64829887D01*
X196584104Y-64829887D02*
X195869819Y-64496554D01*
X195869819Y-64496554D02*
X196869819Y-64496554D01*
X195869819Y-64115601D02*
X196869819Y-63448935D01*
X195869819Y-63448935D02*
X196869819Y-64115601D01*
X196869819Y-61782268D02*
X196869819Y-62353696D01*
X196869819Y-62067982D02*
X195869819Y-62067982D01*
X195869819Y-62067982D02*
X196012676Y-62163220D01*
X196012676Y-62163220D02*
X196107914Y-62258458D01*
X196107914Y-62258458D02*
X196155533Y-62353696D01*
X195869819Y-60925125D02*
X195869819Y-61115601D01*
X195869819Y-61115601D02*
X195917438Y-61210839D01*
X195917438Y-61210839D02*
X195965057Y-61258458D01*
X195965057Y-61258458D02*
X196107914Y-61353696D01*
X196107914Y-61353696D02*
X196298390Y-61401315D01*
X196298390Y-61401315D02*
X196679342Y-61401315D01*
X196679342Y-61401315D02*
X196774580Y-61353696D01*
X196774580Y-61353696D02*
X196822200Y-61306077D01*
X196822200Y-61306077D02*
X196869819Y-61210839D01*
X196869819Y-61210839D02*
X196869819Y-61020363D01*
X196869819Y-61020363D02*
X196822200Y-60925125D01*
X196822200Y-60925125D02*
X196774580Y-60877506D01*
X196774580Y-60877506D02*
X196679342Y-60829887D01*
X196679342Y-60829887D02*
X196441247Y-60829887D01*
X196441247Y-60829887D02*
X196346009Y-60877506D01*
X196346009Y-60877506D02*
X196298390Y-60925125D01*
X196298390Y-60925125D02*
X196250771Y-61020363D01*
X196250771Y-61020363D02*
X196250771Y-61210839D01*
X196250771Y-61210839D02*
X196298390Y-61306077D01*
X196298390Y-61306077D02*
X196346009Y-61353696D01*
X196346009Y-61353696D02*
X196441247Y-61401315D01*
X195869819Y-60210839D02*
X195869819Y-60115601D01*
X195869819Y-60115601D02*
X195917438Y-60020363D01*
X195917438Y-60020363D02*
X195965057Y-59972744D01*
X195965057Y-59972744D02*
X196060295Y-59925125D01*
X196060295Y-59925125D02*
X196250771Y-59877506D01*
X196250771Y-59877506D02*
X196488866Y-59877506D01*
X196488866Y-59877506D02*
X196679342Y-59925125D01*
X196679342Y-59925125D02*
X196774580Y-59972744D01*
X196774580Y-59972744D02*
X196822200Y-60020363D01*
X196822200Y-60020363D02*
X196869819Y-60115601D01*
X196869819Y-60115601D02*
X196869819Y-60210839D01*
X196869819Y-60210839D02*
X196822200Y-60306077D01*
X196822200Y-60306077D02*
X196774580Y-60353696D01*
X196774580Y-60353696D02*
X196679342Y-60401315D01*
X196679342Y-60401315D02*
X196488866Y-60448934D01*
X196488866Y-60448934D02*
X196250771Y-60448934D01*
X196250771Y-60448934D02*
X196060295Y-60401315D01*
X196060295Y-60401315D02*
X195965057Y-60353696D01*
X195965057Y-60353696D02*
X195917438Y-60306077D01*
X195917438Y-60306077D02*
X195869819Y-60210839D01*
X179014819Y-29913333D02*
X179729104Y-29913333D01*
X179729104Y-29913333D02*
X179871961Y-29960952D01*
X179871961Y-29960952D02*
X179967200Y-30056190D01*
X179967200Y-30056190D02*
X180014819Y-30199047D01*
X180014819Y-30199047D02*
X180014819Y-30294285D01*
X180014819Y-28913333D02*
X180014819Y-29484761D01*
X180014819Y-29199047D02*
X179014819Y-29199047D01*
X179014819Y-29199047D02*
X179157676Y-29294285D01*
X179157676Y-29294285D02*
X179252914Y-29389523D01*
X179252914Y-29389523D02*
X179300533Y-29484761D01*
X177454819Y-90333333D02*
X178169104Y-90333333D01*
X178169104Y-90333333D02*
X178311961Y-90380952D01*
X178311961Y-90380952D02*
X178407200Y-90476190D01*
X178407200Y-90476190D02*
X178454819Y-90619047D01*
X178454819Y-90619047D02*
X178454819Y-90714285D01*
X177788152Y-89428571D02*
X178454819Y-89428571D01*
X177407200Y-89666666D02*
X178121485Y-89904761D01*
X178121485Y-89904761D02*
X178121485Y-89285714D01*
D11*
X167552657Y-30595238D02*
X167505038Y-30690476D01*
X167505038Y-30690476D02*
X167409800Y-30785714D01*
X167409800Y-30785714D02*
X167266942Y-30928571D01*
X167266942Y-30928571D02*
X167219323Y-31023809D01*
X167219323Y-31023809D02*
X167219323Y-31119047D01*
X167457419Y-31071428D02*
X167409800Y-31166666D01*
X167409800Y-31166666D02*
X167314561Y-31261904D01*
X167314561Y-31261904D02*
X167124085Y-31309523D01*
X167124085Y-31309523D02*
X166790752Y-31309523D01*
X166790752Y-31309523D02*
X166600276Y-31261904D01*
X166600276Y-31261904D02*
X166505038Y-31166666D01*
X166505038Y-31166666D02*
X166457419Y-31071428D01*
X166457419Y-31071428D02*
X166457419Y-30880952D01*
X166457419Y-30880952D02*
X166505038Y-30785714D01*
X166505038Y-30785714D02*
X166600276Y-30690476D01*
X166600276Y-30690476D02*
X166790752Y-30642857D01*
X166790752Y-30642857D02*
X167124085Y-30642857D01*
X167124085Y-30642857D02*
X167314561Y-30690476D01*
X167314561Y-30690476D02*
X167409800Y-30785714D01*
X167409800Y-30785714D02*
X167457419Y-30880952D01*
X167457419Y-30880952D02*
X167457419Y-31071428D01*
X166552657Y-30261904D02*
X166505038Y-30214285D01*
X166505038Y-30214285D02*
X166457419Y-30119047D01*
X166457419Y-30119047D02*
X166457419Y-29880952D01*
X166457419Y-29880952D02*
X166505038Y-29785714D01*
X166505038Y-29785714D02*
X166552657Y-29738095D01*
X166552657Y-29738095D02*
X166647895Y-29690476D01*
X166647895Y-29690476D02*
X166743133Y-29690476D01*
X166743133Y-29690476D02*
X166885990Y-29738095D01*
X166885990Y-29738095D02*
X167457419Y-30309523D01*
X167457419Y-30309523D02*
X167457419Y-29690476D01*
D10*
X193166666Y-72784819D02*
X193166666Y-73499104D01*
X193166666Y-73499104D02*
X193119047Y-73641961D01*
X193119047Y-73641961D02*
X193023809Y-73737200D01*
X193023809Y-73737200D02*
X192880952Y-73784819D01*
X192880952Y-73784819D02*
X192785714Y-73784819D01*
X193595238Y-72880057D02*
X193642857Y-72832438D01*
X193642857Y-72832438D02*
X193738095Y-72784819D01*
X193738095Y-72784819D02*
X193976190Y-72784819D01*
X193976190Y-72784819D02*
X194071428Y-72832438D01*
X194071428Y-72832438D02*
X194119047Y-72880057D01*
X194119047Y-72880057D02*
X194166666Y-72975295D01*
X194166666Y-72975295D02*
X194166666Y-73070533D01*
X194166666Y-73070533D02*
X194119047Y-73213390D01*
X194119047Y-73213390D02*
X193547619Y-73784819D01*
X193547619Y-73784819D02*
X194166666Y-73784819D01*
X185944819Y-30063333D02*
X186659104Y-30063333D01*
X186659104Y-30063333D02*
X186801961Y-30110952D01*
X186801961Y-30110952D02*
X186897200Y-30206190D01*
X186897200Y-30206190D02*
X186944819Y-30349047D01*
X186944819Y-30349047D02*
X186944819Y-30444285D01*
X185944819Y-29682380D02*
X185944819Y-29063333D01*
X185944819Y-29063333D02*
X186325771Y-29396666D01*
X186325771Y-29396666D02*
X186325771Y-29253809D01*
X186325771Y-29253809D02*
X186373390Y-29158571D01*
X186373390Y-29158571D02*
X186421009Y-29110952D01*
X186421009Y-29110952D02*
X186516247Y-29063333D01*
X186516247Y-29063333D02*
X186754342Y-29063333D01*
X186754342Y-29063333D02*
X186849580Y-29110952D01*
X186849580Y-29110952D02*
X186897200Y-29158571D01*
X186897200Y-29158571D02*
X186944819Y-29253809D01*
X186944819Y-29253809D02*
X186944819Y-29539523D01*
X186944819Y-29539523D02*
X186897200Y-29634761D01*
X186897200Y-29634761D02*
X186849580Y-29682380D01*
D11*
X156904761Y-30552657D02*
X156809523Y-30505038D01*
X156809523Y-30505038D02*
X156714285Y-30409800D01*
X156714285Y-30409800D02*
X156571428Y-30266942D01*
X156571428Y-30266942D02*
X156476190Y-30219323D01*
X156476190Y-30219323D02*
X156380952Y-30219323D01*
X156428571Y-30457419D02*
X156333333Y-30409800D01*
X156333333Y-30409800D02*
X156238095Y-30314561D01*
X156238095Y-30314561D02*
X156190476Y-30124085D01*
X156190476Y-30124085D02*
X156190476Y-29790752D01*
X156190476Y-29790752D02*
X156238095Y-29600276D01*
X156238095Y-29600276D02*
X156333333Y-29505038D01*
X156333333Y-29505038D02*
X156428571Y-29457419D01*
X156428571Y-29457419D02*
X156619047Y-29457419D01*
X156619047Y-29457419D02*
X156714285Y-29505038D01*
X156714285Y-29505038D02*
X156809523Y-29600276D01*
X156809523Y-29600276D02*
X156857142Y-29790752D01*
X156857142Y-29790752D02*
X156857142Y-30124085D01*
X156857142Y-30124085D02*
X156809523Y-30314561D01*
X156809523Y-30314561D02*
X156714285Y-30409800D01*
X156714285Y-30409800D02*
X156619047Y-30457419D01*
X156619047Y-30457419D02*
X156428571Y-30457419D01*
X157809523Y-30457419D02*
X157238095Y-30457419D01*
X157523809Y-30457419D02*
X157523809Y-29457419D01*
X157523809Y-29457419D02*
X157428571Y-29600276D01*
X157428571Y-29600276D02*
X157333333Y-29695514D01*
X157333333Y-29695514D02*
X157238095Y-29743133D01*
D10*
X219026819Y-62761904D02*
X219836342Y-62761904D01*
X219836342Y-62761904D02*
X219931580Y-62714285D01*
X219931580Y-62714285D02*
X219979200Y-62666666D01*
X219979200Y-62666666D02*
X220026819Y-62571428D01*
X220026819Y-62571428D02*
X220026819Y-62380952D01*
X220026819Y-62380952D02*
X219979200Y-62285714D01*
X219979200Y-62285714D02*
X219931580Y-62238095D01*
X219931580Y-62238095D02*
X219836342Y-62190476D01*
X219836342Y-62190476D02*
X219026819Y-62190476D01*
X219122057Y-61761904D02*
X219074438Y-61714285D01*
X219074438Y-61714285D02*
X219026819Y-61619047D01*
X219026819Y-61619047D02*
X219026819Y-61380952D01*
X219026819Y-61380952D02*
X219074438Y-61285714D01*
X219074438Y-61285714D02*
X219122057Y-61238095D01*
X219122057Y-61238095D02*
X219217295Y-61190476D01*
X219217295Y-61190476D02*
X219312533Y-61190476D01*
X219312533Y-61190476D02*
X219455390Y-61238095D01*
X219455390Y-61238095D02*
X220026819Y-61809523D01*
X220026819Y-61809523D02*
X220026819Y-61190476D01*
X144933333Y-39859580D02*
X144885714Y-39907200D01*
X144885714Y-39907200D02*
X144742857Y-39954819D01*
X144742857Y-39954819D02*
X144647619Y-39954819D01*
X144647619Y-39954819D02*
X144504762Y-39907200D01*
X144504762Y-39907200D02*
X144409524Y-39811961D01*
X144409524Y-39811961D02*
X144361905Y-39716723D01*
X144361905Y-39716723D02*
X144314286Y-39526247D01*
X144314286Y-39526247D02*
X144314286Y-39383390D01*
X144314286Y-39383390D02*
X144361905Y-39192914D01*
X144361905Y-39192914D02*
X144409524Y-39097676D01*
X144409524Y-39097676D02*
X144504762Y-39002438D01*
X144504762Y-39002438D02*
X144647619Y-38954819D01*
X144647619Y-38954819D02*
X144742857Y-38954819D01*
X144742857Y-38954819D02*
X144885714Y-39002438D01*
X144885714Y-39002438D02*
X144933333Y-39050057D01*
X145314286Y-39050057D02*
X145361905Y-39002438D01*
X145361905Y-39002438D02*
X145457143Y-38954819D01*
X145457143Y-38954819D02*
X145695238Y-38954819D01*
X145695238Y-38954819D02*
X145790476Y-39002438D01*
X145790476Y-39002438D02*
X145838095Y-39050057D01*
X145838095Y-39050057D02*
X145885714Y-39145295D01*
X145885714Y-39145295D02*
X145885714Y-39240533D01*
X145885714Y-39240533D02*
X145838095Y-39383390D01*
X145838095Y-39383390D02*
X145266667Y-39954819D01*
X145266667Y-39954819D02*
X145885714Y-39954819D01*
X151119048Y-45573866D02*
X151880953Y-45573866D01*
X138628571Y-45614700D02*
X139771429Y-45614700D01*
X139200000Y-46186128D02*
X139200000Y-45043271D01*
D12*
%TO.C,J1*%
X174395000Y-33405000D02*
X174395000Y-36065000D01*
X174395000Y-36065000D02*
X179595000Y-36065000D01*
X174455000Y-38775000D02*
X174455000Y-37505000D01*
X175345000Y-27405000D02*
X176105000Y-27405000D01*
X175345000Y-33405000D02*
X175345000Y-27405000D01*
X175345000Y-36395000D02*
X175345000Y-36065000D01*
X175405000Y-33405000D02*
X175405000Y-27405000D01*
X175525000Y-33405000D02*
X175525000Y-27405000D01*
X175645000Y-33405000D02*
X175645000Y-27405000D01*
X175725000Y-38775000D02*
X174455000Y-38775000D01*
X175765000Y-33405000D02*
X175765000Y-27405000D01*
X175885000Y-33405000D02*
X175885000Y-27405000D01*
X176005000Y-33405000D02*
X176005000Y-27405000D01*
X176105000Y-27405000D02*
X176105000Y-33405000D01*
X176105000Y-36395000D02*
X176105000Y-36065000D01*
X176995000Y-36065000D02*
X176995000Y-33405000D01*
X177885000Y-27405000D02*
X178645000Y-27405000D01*
X177885000Y-33405000D02*
X177885000Y-27405000D01*
X177885000Y-36462071D02*
X177885000Y-36065000D01*
X178645000Y-27405000D02*
X178645000Y-33405000D01*
X178645000Y-36462071D02*
X178645000Y-36065000D01*
X179595000Y-33405000D02*
X174395000Y-33405000D01*
X179595000Y-36065000D02*
X179595000Y-33405000D01*
%TO.C,J4*%
X170905000Y-87565000D02*
X170905000Y-90225000D01*
X170905000Y-90225000D02*
X176105000Y-90225000D01*
X171855000Y-87167929D02*
X171855000Y-87565000D01*
X171855000Y-96225000D02*
X171855000Y-90225000D01*
X172615000Y-87167929D02*
X172615000Y-87565000D01*
X172615000Y-90225000D02*
X172615000Y-96225000D01*
X172615000Y-96225000D02*
X171855000Y-96225000D01*
X173505000Y-87565000D02*
X173505000Y-90225000D01*
X174395000Y-87235000D02*
X174395000Y-87565000D01*
X174395000Y-96225000D02*
X174395000Y-90225000D01*
X174495000Y-90225000D02*
X174495000Y-96225000D01*
X174615000Y-90225000D02*
X174615000Y-96225000D01*
X174735000Y-90225000D02*
X174735000Y-96225000D01*
X174775000Y-84855000D02*
X176045000Y-84855000D01*
X174855000Y-90225000D02*
X174855000Y-96225000D01*
X174975000Y-90225000D02*
X174975000Y-96225000D01*
X175095000Y-90225000D02*
X175095000Y-96225000D01*
X175155000Y-87235000D02*
X175155000Y-87565000D01*
X175155000Y-90225000D02*
X175155000Y-96225000D01*
X175155000Y-96225000D02*
X174395000Y-96225000D01*
X176045000Y-84855000D02*
X176045000Y-86125000D01*
X176105000Y-87565000D02*
X170905000Y-87565000D01*
X176105000Y-90225000D02*
X176105000Y-87565000D01*
%TO.C,Q2*%
D11*
X165352000Y-40165800D02*
X171448000Y-40165800D01*
X171448000Y-28634200D01*
X165352000Y-28634200D01*
X165352000Y-40165800D01*
D12*
%TO.C,J2*%
X192170000Y-69730000D02*
X192170000Y-54430000D01*
X194830000Y-54430000D02*
X192170000Y-54430000D01*
X194830000Y-69730000D02*
X192170000Y-69730000D01*
X194830000Y-69730000D02*
X194830000Y-54430000D01*
X194830000Y-71000000D02*
X194830000Y-72330000D01*
X194830000Y-72330000D02*
X193500000Y-72330000D01*
%TO.C,J3*%
X180630000Y-33400000D02*
X180630000Y-36060000D01*
X180630000Y-36060000D02*
X185830000Y-36060000D01*
X180690000Y-38770000D02*
X180690000Y-37500000D01*
X181580000Y-27400000D02*
X182340000Y-27400000D01*
X181580000Y-33400000D02*
X181580000Y-27400000D01*
X181580000Y-36390000D02*
X181580000Y-36060000D01*
X181640000Y-33400000D02*
X181640000Y-27400000D01*
X181760000Y-33400000D02*
X181760000Y-27400000D01*
X181880000Y-33400000D02*
X181880000Y-27400000D01*
X181960000Y-38770000D02*
X180690000Y-38770000D01*
X182000000Y-33400000D02*
X182000000Y-27400000D01*
X182120000Y-33400000D02*
X182120000Y-27400000D01*
X182240000Y-33400000D02*
X182240000Y-27400000D01*
X182340000Y-27400000D02*
X182340000Y-33400000D01*
X182340000Y-36390000D02*
X182340000Y-36060000D01*
X183230000Y-36060000D02*
X183230000Y-33400000D01*
X184120000Y-27400000D02*
X184880000Y-27400000D01*
X184120000Y-33400000D02*
X184120000Y-27400000D01*
X184120000Y-36457071D02*
X184120000Y-36060000D01*
X184880000Y-27400000D02*
X184880000Y-33400000D01*
X184880000Y-36457071D02*
X184880000Y-36060000D01*
X185830000Y-33400000D02*
X180630000Y-33400000D01*
X185830000Y-36060000D02*
X185830000Y-33400000D01*
%TO.C,Q1*%
D11*
X155674000Y-27893200D02*
X163192400Y-27893200D01*
X163192400Y-39501000D01*
X155674000Y-39501000D01*
X155674000Y-27893200D01*
D13*
%TO.C,U2*%
X208776600Y-89974600D02*
X208776600Y-34094600D01*
X211951600Y-30919600D02*
X231002000Y-30919600D01*
X231002000Y-93149600D02*
X211951600Y-93149600D01*
X234177000Y-34094600D02*
X234177000Y-89974600D01*
X208776600Y-34094600D02*
G75*
G02*
X211951600Y-30919600I3175000J0D01*
G01*
X211951600Y-93149600D02*
G75*
G02*
X208776600Y-89974600I0J3175000D01*
G01*
X231002000Y-30919600D02*
G75*
G02*
X234177000Y-34094600I0J-3175000D01*
G01*
X234177000Y-89974600D02*
G75*
G02*
X231002000Y-93149600I-3175000J0D01*
G01*
D12*
%TO.C,C2*%
X137240000Y-35240000D02*
X137240000Y-40850000D01*
X137240000Y-35240000D02*
X138090000Y-35240000D01*
X138090000Y-27540000D02*
X138090000Y-35240000D01*
X138090000Y-27540000D02*
X152110000Y-27540000D01*
X142650000Y-44960000D02*
X146390000Y-44960000D01*
X152110000Y-27540000D02*
X152110000Y-35240000D01*
X152110000Y-35240000D02*
X152960000Y-35240000D01*
X152960000Y-35240000D02*
X152960000Y-40850000D01*
X140110100Y-44808718D02*
G75*
G02*
X137240001Y-40850000I1239898J3918716D01*
G01*
X152960000Y-40850000D02*
G75*
G02*
X150966806Y-44372958I-4110000J0D01*
G01*
%TD*%
M02*
