%TF.GenerationSoftware,KiCad,Pcbnew,8.0.1*%
%TF.CreationDate,2024-05-27T17:32:14-07:00*%
%TF.ProjectId,pcb-v3,7063622d-7633-42e6-9b69-6361645f7063,rev?*%
%TF.SameCoordinates,Original*%
%TF.FileFunction,Copper,L1,Top*%
%TF.FilePolarity,Positive*%
%FSLAX46Y46*%
G04 Gerber Fmt 4.6, Leading zero omitted, Abs format (unit mm)*
G04 Created by KiCad (PCBNEW 8.0.1) date 2024-05-27 17:32:14*
%MOMM*%
%LPD*%
G01*
G04 APERTURE LIST*
G04 Aperture macros list*
%AMRoundRect*
0 Rectangle with rounded corners*
0 $1 Rounding radius*
0 $2 $3 $4 $5 $6 $7 $8 $9 X,Y pos of 4 corners*
0 Add a 4 corners polygon primitive as box body*
4,1,4,$2,$3,$4,$5,$6,$7,$8,$9,$2,$3,0*
0 Add four circle primitives for the rounded corners*
1,1,$1+$1,$2,$3*
1,1,$1+$1,$4,$5*
1,1,$1+$1,$6,$7*
1,1,$1+$1,$8,$9*
0 Add four rect primitives between the rounded corners*
20,1,$1+$1,$2,$3,$4,$5,0*
20,1,$1+$1,$4,$5,$6,$7,0*
20,1,$1+$1,$6,$7,$8,$9,0*
20,1,$1+$1,$8,$9,$2,$3,0*%
G04 Aperture macros list end*
%TA.AperFunction,ComponentPad*%
%ADD10R,1.600000X1.600000*%
%TD*%
%TA.AperFunction,ComponentPad*%
%ADD11C,1.600000*%
%TD*%
%TA.AperFunction,ComponentPad*%
%ADD12R,1.700000X1.700000*%
%TD*%
%TA.AperFunction,ComponentPad*%
%ADD13O,1.700000X1.700000*%
%TD*%
%TA.AperFunction,ComponentPad*%
%ADD14C,2.032000*%
%TD*%
%TA.AperFunction,WasherPad*%
%ADD15C,3.000000*%
%TD*%
%TA.AperFunction,ComponentPad*%
%ADD16C,1.524000*%
%TD*%
%TA.AperFunction,ComponentPad*%
%ADD17C,2.000000*%
%TD*%
%TA.AperFunction,ComponentPad*%
%ADD18R,0.900000X2.000000*%
%TD*%
%TA.AperFunction,ComponentPad*%
%ADD19RoundRect,1.025000X-1.025000X-1.025000X1.025000X-1.025000X1.025000X1.025000X-1.025000X1.025000X0*%
%TD*%
%TA.AperFunction,ComponentPad*%
%ADD20C,4.100000*%
%TD*%
%TA.AperFunction,Conductor*%
%ADD21C,0.250000*%
%TD*%
%TA.AperFunction,Conductor*%
%ADD22C,0.410000*%
%TD*%
G04 APERTURE END LIST*
D10*
%TO.P,C3,1*%
%TO.N,SCL*%
X181000000Y-55000000D03*
D11*
%TO.P,C3,2*%
%TO.N,GND*%
X183500000Y-55000000D03*
%TD*%
D10*
%TO.P,C2,1*%
%TO.N,SDA*%
X181000000Y-67000000D03*
D11*
%TO.P,C2,2*%
%TO.N,GND*%
X183500000Y-67000000D03*
%TD*%
D10*
%TO.P,C1,1*%
%TO.N,ESC*%
X166000000Y-81000000D03*
D11*
%TO.P,C1,2*%
%TO.N,GND*%
X168500000Y-81000000D03*
%TD*%
D12*
%TO.P,J1,1,Pin_1*%
%TO.N,STABLE_12V*%
X175725000Y-37505000D03*
D13*
%TO.P,J1,2,Pin_2*%
%TO.N,GND*%
X178265000Y-37505000D03*
%TD*%
D12*
%TO.P,J4,1,Pin_1*%
%TO.N,ESC*%
X174775000Y-86125000D03*
D13*
%TO.P,J4,2,Pin_2*%
%TO.N,GND*%
X172235000Y-86125000D03*
%TD*%
D14*
%TO.P,Q2,1,-Vin*%
%TO.N,GND*%
X170330400Y-37956000D03*
%TO.P,Q2,2,+Vin*%
%TO.N,+12V*%
X170330400Y-35416000D03*
%TO.P,Q2,3,-Vout*%
%TO.N,GND*%
X170330400Y-32876000D03*
%TO.P,Q2,4,+Vout*%
%TO.N,STABLE_12V*%
X170330400Y-30336000D03*
%TD*%
D12*
%TO.P,J2,1,Pin_1*%
%TO.N,unconnected-(J2-Pin_1-Pad1)*%
X193500000Y-71000000D03*
D13*
%TO.P,J2,2,Pin_2*%
%TO.N,unconnected-(J2-Pin_2-Pad2)*%
X193500000Y-68460000D03*
%TO.P,J2,3,Pin_3*%
%TO.N,GND*%
X193500000Y-65920000D03*
%TO.P,J2,4,Pin_4*%
%TO.N,SDA*%
X193500000Y-63380000D03*
%TO.P,J2,5,Pin_5*%
%TO.N,SCL*%
X193500000Y-60840000D03*
%TO.P,J2,6,Pin_6*%
%TO.N,GND*%
X193500000Y-58300000D03*
%TO.P,J2,7,Pin_7*%
%TO.N,+5V*%
X193500000Y-55760000D03*
%TD*%
D15*
%TO.P,,*%
%TO.N,*%
X234000000Y-30000000D03*
%TD*%
D12*
%TO.P,J3,1,Pin_1*%
%TO.N,STABLE_12V*%
X181960000Y-37500000D03*
D13*
%TO.P,J3,2,Pin_2*%
%TO.N,GND*%
X184500000Y-37500000D03*
%TD*%
D16*
%TO.P,Q1,1,Vin*%
%TO.N,+12V*%
X160500000Y-36580000D03*
%TO.P,Q1,2,GND*%
%TO.N,GND*%
X160500000Y-34040000D03*
%TO.P,Q1,3,Vout*%
%TO.N,+5V*%
X160500000Y-31500000D03*
%TD*%
D15*
%TO.P,U2,*%
%TO.N,*%
X211952000Y-90000000D03*
X231002000Y-89974600D03*
X211952000Y-34094600D03*
X231002000Y-34094600D03*
D17*
%TO.P,U2,1,A0*%
%TO.N,unconnected-(U2-A0-Pad1)_10*%
X227700000Y-91244600D03*
%TO.N,unconnected-(U2-A0-Pad1)_13*%
X230240000Y-86164600D03*
%TO.N,unconnected-(U2-A0-Pad1)_12*%
X230240000Y-83624600D03*
%TO.N,unconnected-(U2-A0-Pad1)_4*%
X230240000Y-81084600D03*
%TO.N,unconnected-(U2-A0-Pad1)_16*%
X230240000Y-78544600D03*
%TO.N,unconnected-(U2-A0-Pad1)_14*%
X230240000Y-73464600D03*
%TO.N,unconnected-(U2-A0-Pad1)_0*%
X230240000Y-70924600D03*
%TO.N,unconnected-(U2-A0-Pad1)_11*%
X230240000Y-68384600D03*
%TO.N,unconnected-(U2-A0-Pad1)_7*%
X230240000Y-65844600D03*
%TO.N,unconnected-(U2-A0-Pad1)_1*%
X230240000Y-58224600D03*
%TO.N,unconnected-(U2-A0-Pad1)_6*%
X230240000Y-55684600D03*
%TO.N,unconnected-(U2-A0-Pad1)_5*%
X230240000Y-53144600D03*
%TO.N,unconnected-(U2-A0-Pad1)_2*%
X230240000Y-50604600D03*
%TO.N,unconnected-(U2-A0-Pad1)_8*%
X230240000Y-45524600D03*
%TO.N,unconnected-(U2-A0-Pad1)*%
X230240000Y-42984600D03*
%TO.N,unconnected-(U2-A0-Pad1)_9*%
X230240000Y-40444600D03*
%TO.N,unconnected-(U2-A0-Pad1)_15*%
X230240000Y-37904600D03*
%TO.N,unconnected-(U2-A0-Pad1)_3*%
X227700000Y-32824600D03*
%TO.P,U2,2,A1*%
%TO.N,unconnected-(U2-A1-Pad2)_0*%
X225160000Y-91244600D03*
%TO.N,unconnected-(U2-A1-Pad2)*%
X225160000Y-32824600D03*
%TO.P,U2,3,A2*%
%TO.N,SDA*%
X222620000Y-91244600D03*
%TO.N,N/C*%
X222620000Y-32824600D03*
%TO.P,U2,4,A3*%
%TO.N,SCL*%
X220080000Y-91244600D03*
%TO.N,N/C*%
X220080000Y-32824600D03*
%TO.P,U2,5,A4*%
%TO.N,unconnected-(U2-A4-Pad5)_0*%
X217540000Y-91244600D03*
%TO.N,unconnected-(U2-A4-Pad5)*%
X217540000Y-32824600D03*
%TO.P,U2,6,PWM0*%
%TO.N,unconnected-(U2-PWM0-Pad6)_8*%
X215000000Y-91244600D03*
%TO.N,unconnected-(U2-PWM0-Pad6)_0*%
X232780000Y-86164600D03*
%TO.N,unconnected-(U2-PWM0-Pad6)_1*%
X232780000Y-83624600D03*
%TO.N,unconnected-(U2-PWM0-Pad6)_2*%
X232780000Y-81084600D03*
%TO.N,unconnected-(U2-PWM0-Pad6)_12*%
X232780000Y-78544600D03*
%TO.N,unconnected-(U2-PWM0-Pad6)_7*%
X232780000Y-73464600D03*
%TO.N,unconnected-(U2-PWM0-Pad6)_14*%
X232780000Y-70924600D03*
%TO.N,unconnected-(U2-PWM0-Pad6)_9*%
X232780000Y-68384600D03*
%TO.N,unconnected-(U2-PWM0-Pad6)*%
X232780000Y-65844600D03*
%TO.N,unconnected-(U2-PWM0-Pad6)_3*%
X232780000Y-58224600D03*
%TO.N,unconnected-(U2-PWM0-Pad6)_16*%
X232780000Y-55684600D03*
%TO.N,unconnected-(U2-PWM0-Pad6)_15*%
X232780000Y-53144600D03*
%TO.N,unconnected-(U2-PWM0-Pad6)_10*%
X232780000Y-50604600D03*
%TO.N,unconnected-(U2-PWM0-Pad6)_11*%
X232780000Y-45524600D03*
%TO.N,unconnected-(U2-PWM0-Pad6)_4*%
X232780000Y-42984600D03*
%TO.N,unconnected-(U2-PWM0-Pad6)_5*%
X232780000Y-40444600D03*
%TO.N,unconnected-(U2-PWM0-Pad6)_6*%
X232780000Y-37904600D03*
%TO.N,unconnected-(U2-PWM0-Pad6)_13*%
X215000000Y-32824600D03*
%TO.P,U2,7,PWM1*%
%TO.N,unconnected-(U2-PWM1-Pad7)*%
X227700000Y-86164600D03*
%TO.P,U2,8,PWM2*%
%TO.N,unconnected-(U2-PWM2-Pad8)*%
X227700000Y-83624600D03*
%TO.P,U2,9,PWM3*%
%TO.N,unconnected-(U2-PWM3-Pad9)*%
X227700000Y-81084600D03*
%TO.P,U2,10,PWM4*%
%TO.N,unconnected-(U2-PWM4-Pad10)*%
X227700000Y-78544600D03*
%TO.P,U2,11,PWM5*%
%TO.N,unconnected-(U2-PWM5-Pad11)*%
X227700000Y-73464600D03*
%TO.P,U2,12,PWM6*%
%TO.N,unconnected-(U2-PWM6-Pad12)*%
X227700000Y-70924600D03*
%TO.P,U2,13,PWM7*%
%TO.N,unconnected-(U2-PWM7-Pad13)*%
X227700000Y-68384600D03*
%TO.P,U2,14,GND*%
%TO.N,GND*%
X227700000Y-65844600D03*
%TO.P,U2,15,PWM8*%
%TO.N,unconnected-(U2-PWM8-Pad15)*%
X227700000Y-58224600D03*
%TO.P,U2,16,PWM9*%
%TO.N,unconnected-(U2-PWM9-Pad16)*%
X227700000Y-55684600D03*
%TO.P,U2,17,PWM10*%
%TO.N,unconnected-(U2-PWM10-Pad17)*%
X227700000Y-53144600D03*
%TO.P,U2,18,PWM11*%
%TO.N,unconnected-(U2-PWM11-Pad18)*%
X227700000Y-50604600D03*
%TO.P,U2,19,PWM12*%
%TO.N,unconnected-(U2-PWM12-Pad19)*%
X227700000Y-45524600D03*
%TO.P,U2,20,PWM13*%
%TO.N,unconnected-(U2-PWM13-Pad20)*%
X227700000Y-42984600D03*
%TO.P,U2,21,PWM14*%
%TO.N,unconnected-(U2-PWM14-Pad21)*%
X227700000Y-40444600D03*
%TO.P,U2,22,PWM15*%
%TO.N,unconnected-(U2-PWM15-Pad22)*%
X227700000Y-37904600D03*
%TO.P,U2,24,A5*%
%TO.N,+5V*%
X212587000Y-63812600D03*
%TO.P,U2,25,EXTCLK*%
%TO.N,GND*%
X212587000Y-60358200D03*
%TD*%
D18*
%TO.P,C2,*%
%TO.N,*%
X138350000Y-37000000D03*
X151850000Y-37000000D03*
D19*
%TO.P,C2,1,Vin*%
%TO.N,GND*%
X148700000Y-43000000D03*
D20*
%TO.P,C2,2,Vout*%
%TO.N,+12V*%
X141500000Y-43000000D03*
%TD*%
D15*
%TO.P,,*%
%TO.N,*%
X128000000Y-93000000D03*
%TD*%
%TO.P,,*%
%TO.N,*%
X128000000Y-31000000D03*
%TD*%
%TO.P,,*%
%TO.N,*%
X234000000Y-94000000D03*
%TD*%
D12*
%TO.P,J5,1,Pin_1*%
%TO.N,N/C*%
X134000000Y-84020000D03*
D13*
%TO.P,J5,2,Pin_2*%
X131460000Y-84020000D03*
%TO.P,J5,3,Pin_3*%
%TO.N,SDA*%
X134000000Y-81480000D03*
%TO.P,J5,4,Pin_4*%
%TO.N,N/C*%
X131460000Y-81480000D03*
%TO.P,J5,5,Pin_5*%
%TO.N,SCL*%
X134000000Y-78940000D03*
%TO.P,J5,6,Pin_6*%
%TO.N,GND*%
X131460000Y-78940000D03*
%TO.P,J5,7,Pin_7*%
%TO.N,unconnected-(J5-Pin_7-Pad7)*%
X134000000Y-76400000D03*
%TO.P,J5,8,Pin_8*%
%TO.N,unconnected-(J5-Pin_8-Pad8)*%
X131460000Y-76400000D03*
%TO.P,J5,9,Pin_9*%
%TO.N,GND*%
X134000000Y-73860000D03*
%TO.P,J5,10,Pin_10*%
%TO.N,unconnected-(J5-Pin_10-Pad10)*%
X131460000Y-73860000D03*
%TO.P,J5,11,Pin_11*%
%TO.N,unconnected-(J5-Pin_11-Pad11)*%
X134000000Y-71320000D03*
%TO.P,J5,12,Pin_12*%
%TO.N,unconnected-(J5-Pin_12-Pad12)*%
X131460000Y-71320000D03*
%TO.P,J5,13,Pin_13*%
%TO.N,unconnected-(J5-Pin_13-Pad13)*%
X134000000Y-68780000D03*
%TO.P,J5,14,Pin_14*%
%TO.N,GND*%
X131460000Y-68780000D03*
%TO.P,J5,15,Pin_15*%
%TO.N,unconnected-(J5-Pin_15-Pad15)*%
X134000000Y-66240000D03*
%TO.P,J5,16,Pin_16*%
%TO.N,unconnected-(J5-Pin_16-Pad16)*%
X131460000Y-66240000D03*
%TO.P,J5,17,Pin_17*%
%TO.N,N/C*%
X134000000Y-63700000D03*
%TO.P,J5,18,Pin_18*%
%TO.N,unconnected-(J5-Pin_18-Pad18)*%
X131460000Y-63700000D03*
%TO.P,J5,19,Pin_19*%
%TO.N,unconnected-(J5-Pin_19-Pad19)*%
X134000000Y-61160000D03*
%TO.P,J5,20,Pin_20*%
%TO.N,GND*%
X131460000Y-61160000D03*
%TO.P,J5,21,Pin_21*%
%TO.N,unconnected-(J5-Pin_21-Pad21)*%
X134000000Y-58620000D03*
%TO.P,J5,22,Pin_22*%
%TO.N,unconnected-(J5-Pin_22-Pad22)*%
X131460000Y-58620000D03*
%TO.P,J5,23,Pin_23*%
%TO.N,unconnected-(J5-Pin_23-Pad23)*%
X134000000Y-56080000D03*
%TO.P,J5,24,Pin_24*%
%TO.N,unconnected-(J5-Pin_24-Pad24)*%
X131460000Y-56080000D03*
%TO.P,J5,25,Pin_25*%
%TO.N,GND*%
X134000000Y-53540000D03*
%TO.P,J5,26,Pin_26*%
%TO.N,unconnected-(J5-Pin_26-Pad26)*%
X131460000Y-53540000D03*
%TO.P,J5,27,Pin_27*%
%TO.N,unconnected-(J5-Pin_27-Pad27)*%
X134000000Y-51000000D03*
%TO.P,J5,28,Pin_28*%
%TO.N,unconnected-(J5-Pin_28-Pad28)*%
X131460000Y-51000000D03*
%TO.P,J5,29,Pin_29*%
%TO.N,unconnected-(J5-Pin_29-Pad29)*%
X134000000Y-48460000D03*
%TO.P,J5,30,Pin_30*%
%TO.N,GND*%
X131460000Y-48460000D03*
%TO.P,J5,31,Pin_31*%
%TO.N,unconnected-(J5-Pin_31-Pad31)*%
X134000000Y-45920000D03*
%TO.P,J5,32,Pin_32*%
%TO.N,SERVO*%
X131460000Y-45920000D03*
%TO.P,J5,33,Pin_33*%
%TO.N,ESC*%
X134000000Y-43380000D03*
%TO.P,J5,34,Pin_34*%
%TO.N,GND*%
X131460000Y-43380000D03*
%TO.P,J5,35,Pin_35*%
%TO.N,unconnected-(J5-Pin_35-Pad35)*%
X134000000Y-40840000D03*
%TO.P,J5,36,Pin_36*%
%TO.N,unconnected-(J5-Pin_36-Pad36)*%
X131460000Y-40840000D03*
%TO.P,J5,37,Pin_37*%
%TO.N,unconnected-(J5-Pin_37-Pad37)*%
X134000000Y-38300000D03*
%TO.P,J5,38,Pin_38*%
%TO.N,unconnected-(J5-Pin_38-Pad38)*%
X131460000Y-38300000D03*
%TO.P,J5,39,Pin_39*%
%TO.N,GND*%
X134000000Y-35760000D03*
%TO.P,J5,40,Pin_40*%
%TO.N,unconnected-(J5-Pin_40-Pad40)*%
X131460000Y-35760000D03*
%TD*%
D21*
%TO.N,SCL*%
X182000000Y-60840000D02*
X193500000Y-60840000D01*
X170660000Y-60840000D02*
X182000000Y-60840000D01*
X181000000Y-59000000D02*
X181000000Y-55000000D01*
X182000000Y-60840000D02*
X182000000Y-60000000D01*
X182000000Y-60000000D02*
X181000000Y-59000000D01*
%TO.N,SDA*%
X187940000Y-68940000D02*
X193500000Y-63380000D01*
X187440000Y-69440000D02*
X183440000Y-69440000D01*
X180420000Y-76460000D02*
X187940000Y-68940000D01*
X183440000Y-69440000D02*
X181000000Y-67000000D01*
X187940000Y-68940000D02*
X187440000Y-69440000D01*
%TO.N,ESC*%
X163000000Y-85320000D02*
X170680000Y-85320000D01*
X130000000Y-85320000D02*
X163000000Y-85320000D01*
X163000000Y-85320000D02*
X166000000Y-82320000D01*
X166000000Y-82320000D02*
X166000000Y-81000000D01*
D22*
%TO.N,+12V*%
X144575000Y-34500000D02*
X158420000Y-34500000D01*
X144575000Y-34500000D02*
X141500000Y-37575000D01*
X169746400Y-36000000D02*
X170330400Y-35416000D01*
X160500000Y-36580000D02*
X161080000Y-36000000D01*
X161080000Y-36000000D02*
X169746400Y-36000000D01*
X158420000Y-34500000D02*
X160500000Y-36580000D01*
X141500000Y-37575000D02*
X141500000Y-43000000D01*
%TO.N,+5V*%
X193500000Y-40500000D02*
X193500000Y-55760000D01*
X195548000Y-57808000D02*
X193500000Y-55760000D01*
X206582400Y-57808000D02*
X195548000Y-57808000D01*
X206582400Y-57808000D02*
X212587000Y-63812600D01*
X163480000Y-28520000D02*
X181520000Y-28520000D01*
X160500000Y-31500000D02*
X163480000Y-28520000D01*
X181520000Y-28520000D02*
X193500000Y-40500000D01*
D21*
%TO.N,ESC*%
X135300000Y-42080000D02*
X135300000Y-35221522D01*
X130921522Y-34460000D02*
X129000000Y-36381522D01*
X135300000Y-35221522D02*
X134538478Y-34460000D01*
X134538478Y-34460000D02*
X130921522Y-34460000D01*
X134000000Y-43380000D02*
X135300000Y-42080000D01*
X129000000Y-84320000D02*
X130000000Y-85320000D01*
X171175000Y-84825000D02*
X173475000Y-84825000D01*
X129000000Y-36381522D02*
X129000000Y-84320000D01*
X170680000Y-85320000D02*
X171175000Y-84825000D01*
X173475000Y-84825000D02*
X174775000Y-86125000D01*
%TO.N,SCL*%
X193500000Y-60840000D02*
X220080000Y-87420000D01*
X139020000Y-73920000D02*
X134000000Y-78940000D01*
X157580000Y-73920000D02*
X139020000Y-73920000D01*
X220080000Y-87420000D02*
X220080000Y-91244600D01*
X157580000Y-73920000D02*
X170660000Y-60840000D01*
%TO.N,SDA*%
X180420000Y-76460000D02*
X139020000Y-76460000D01*
X209860000Y-79740000D02*
X209860000Y-91429600D01*
X209860000Y-91429600D02*
X211430400Y-93000000D01*
X211430400Y-93000000D02*
X220864600Y-93000000D01*
X220864600Y-93000000D02*
X222620000Y-91244600D01*
X193500000Y-63380000D02*
X209860000Y-79740000D01*
X139020000Y-76460000D02*
X134000000Y-81480000D01*
D22*
%TO.N,STABLE_12V*%
X174796000Y-30336000D02*
X181960000Y-37500000D01*
X170330400Y-30336000D02*
X173140000Y-30336000D01*
X175725000Y-32921000D02*
X175725000Y-37505000D01*
X173140000Y-30336000D02*
X175725000Y-32921000D01*
X173140000Y-30336000D02*
X174796000Y-30336000D01*
%TD*%
M02*
