M48
; DRILL file {KiCad 8.0.1} date 2024-05-22T18:25:16-0700
; FORMAT={-:-/ absolute / inch / decimal}
; #@! TF.CreationDate,2024-05-22T18:25:16-07:00
; #@! TF.GenerationSoftware,Kicad,Pcbnew,8.0.1
; #@! TF.FileFunction,Plated,1,2,PTH
FMAT,2
INCH
; #@! TA.AperFunction,Plated,PTH,ComponentDrill
T1C0.0236
; #@! TA.AperFunction,Plated,PTH,ComponentDrill
T2C0.0350
; #@! TA.AperFunction,Plated,PTH,ComponentDrill
T3C0.0394
; #@! TA.AperFunction,Plated,PTH,ComponentDrill
T4C0.0550
; #@! TA.AperFunction,Plated,PTH,ComponentDrill
T5C0.1063
%
G90
G05
T2
X6.3189Y-1.2402
X6.3189Y-1.3402
X6.3189Y-1.4402
T3
X5.0969Y-1.2102
X5.0969Y-1.3102
X5.0969Y-1.4102
X5.0969Y-1.5102
X5.0969Y-1.6102
X5.0969Y-1.7102
X5.0969Y-1.8102
X5.0969Y-1.9102
X5.0969Y-2.0102
X5.0969Y-2.1102
X5.0969Y-2.2102
X5.0969Y-2.3102
X5.0969Y-2.4102
X5.0969Y-2.5102
X5.0969Y-2.6102
X5.0969Y-2.7102
X5.0969Y-2.8102
X5.0969Y-2.9102
X5.0969Y-3.0102
X5.0969Y-3.1102
X5.1969Y-1.2102
X5.1969Y-1.3102
X5.1969Y-1.4102
X5.1969Y-1.5102
X5.1969Y-1.6102
X5.1969Y-1.7102
X5.1969Y-1.8102
X5.1969Y-1.9102
X5.1969Y-2.0102
X5.1969Y-2.1102
X5.1969Y-2.2102
X5.1969Y-2.3102
X5.1969Y-2.4102
X5.1969Y-2.5102
X5.1969Y-2.6102
X5.1969Y-2.7102
X5.1969Y-2.8102
X5.1969Y-2.9102
X5.1969Y-3.0102
X5.1969Y-3.1102
X6.7809Y-3.3907
X6.8809Y-3.3907
X6.9183Y-1.4766
X7.0183Y-1.4766
X7.1638Y-1.4764
X7.2638Y-1.4764
X7.6181Y-2.1953
X7.6181Y-2.2953
X7.6181Y-2.3953
X7.6181Y-2.4953
X7.6181Y-2.5953
X7.6181Y-2.6953
X7.6181Y-2.7953
X8.4502Y-2.3763
X8.4502Y-2.5123
X8.5452Y-1.2923
X8.5452Y-3.5923
X8.6452Y-1.2923
X8.6452Y-3.5923
X8.7452Y-1.2923
X8.7452Y-3.5923
X8.8452Y-1.2923
X8.8452Y-3.5923
X8.9452Y-1.2923
X8.9452Y-3.5923
X9.0452Y-1.2923
X9.0452Y-1.4923
X9.0452Y-1.5923
X9.0452Y-1.6923
X9.0452Y-1.7923
X9.0452Y-1.9923
X9.0452Y-2.0923
X9.0452Y-2.1923
X9.0452Y-2.2923
X9.0452Y-2.5923
X9.0452Y-2.6923
X9.0452Y-2.7923
X9.0452Y-2.8923
X9.0452Y-3.0923
X9.0452Y-3.1923
X9.0452Y-3.2923
X9.0452Y-3.3923
X9.0452Y-3.5923
X9.1452Y-1.4923
X9.1452Y-1.5923
X9.1452Y-1.6923
X9.1452Y-1.7923
X9.1452Y-1.9923
X9.1452Y-2.0923
X9.1452Y-2.1923
X9.1452Y-2.2923
X9.1452Y-2.5923
X9.1452Y-2.6923
X9.1452Y-2.7923
X9.1452Y-2.8923
X9.1452Y-3.0923
X9.1452Y-3.1923
X9.1452Y-3.2923
X9.1452Y-3.3923
X9.2452Y-1.4923
X9.2452Y-1.5923
X9.2452Y-1.6923
X9.2452Y-1.7923
X9.2452Y-1.9923
X9.2452Y-2.0923
X9.2452Y-2.1923
X9.2452Y-2.2923
X9.2452Y-2.5923
X9.2452Y-2.6923
X9.2452Y-2.7923
X9.2452Y-2.8923
X9.2452Y-3.0923
X9.2452Y-3.1923
X9.2452Y-3.2923
X9.2452Y-3.3923
T4
X6.7059Y-1.1943
X6.7059Y-1.2943
X6.7059Y-1.3943
X6.7059Y-1.4943
T5
X5.5709Y-1.6929
X5.8543Y-1.6929
T1
G00X5.4469Y-1.435
M15
G01X5.4469Y-1.4783
M16
G05
G00X5.9783Y-1.435
M15
G01X5.9783Y-1.4783
M16
G05
M30
