%TF.GenerationSoftware,KiCad,Pcbnew,8.0.1*%
%TF.CreationDate,2024-05-24T12:35:21-07:00*%
%TF.ProjectId,pcb-v3,7063622d-7633-42e6-9b69-6361645f7063,rev?*%
%TF.SameCoordinates,Original*%
%TF.FileFunction,Soldermask,Bot*%
%TF.FilePolarity,Negative*%
%FSLAX46Y46*%
G04 Gerber Fmt 4.6, Leading zero omitted, Abs format (unit mm)*
G04 Created by KiCad (PCBNEW 8.0.1) date 2024-05-24 12:35:21*
%MOMM*%
%LPD*%
G01*
G04 APERTURE LIST*
G04 Aperture macros list*
%AMRoundRect*
0 Rectangle with rounded corners*
0 $1 Rounding radius*
0 $2 $3 $4 $5 $6 $7 $8 $9 X,Y pos of 4 corners*
0 Add a 4 corners polygon primitive as box body*
4,1,4,$2,$3,$4,$5,$6,$7,$8,$9,$2,$3,0*
0 Add four circle primitives for the rounded corners*
1,1,$1+$1,$2,$3*
1,1,$1+$1,$4,$5*
1,1,$1+$1,$6,$7*
1,1,$1+$1,$8,$9*
0 Add four rect primitives between the rounded corners*
20,1,$1+$1,$2,$3,$4,$5,0*
20,1,$1+$1,$4,$5,$6,$7,0*
20,1,$1+$1,$6,$7,$8,$9,0*
20,1,$1+$1,$8,$9,$2,$3,0*%
G04 Aperture macros list end*
%ADD10C,3.000000*%
%ADD11R,1.700000X1.700000*%
%ADD12O,1.700000X1.700000*%
%ADD13C,2.032000*%
%ADD14C,1.524000*%
%ADD15C,2.000000*%
%ADD16R,0.900000X2.000000*%
%ADD17RoundRect,1.025000X-1.025000X-1.025000X1.025000X-1.025000X1.025000X1.025000X-1.025000X1.025000X0*%
%ADD18C,4.100000*%
G04 APERTURE END LIST*
D10*
%TO.C,*%
X234000000Y-94000000D03*
%TD*%
%TO.C,*%
X234000000Y-30000000D03*
%TD*%
%TO.C,*%
X128000000Y-31000000D03*
%TD*%
%TO.C,*%
X128000000Y-93000000D03*
%TD*%
D11*
%TO.C,J1*%
X175725000Y-37505000D03*
D12*
X178265000Y-37505000D03*
%TD*%
D11*
%TO.C,J4*%
X174775000Y-86125000D03*
D12*
X172235000Y-86125000D03*
%TD*%
D13*
%TO.C,Q2*%
X170330400Y-37956000D03*
X170330400Y-35416000D03*
X170330400Y-32876000D03*
X170330400Y-30336000D03*
%TD*%
D11*
%TO.C,J2*%
X193500000Y-71000000D03*
D12*
X193500000Y-68460000D03*
X193500000Y-65920000D03*
X193500000Y-63380000D03*
X193500000Y-60840000D03*
X193500000Y-58300000D03*
X193500000Y-55760000D03*
%TD*%
D11*
%TO.C,J3*%
X181960000Y-37500000D03*
D12*
X184500000Y-37500000D03*
%TD*%
D14*
%TO.C,Q1*%
X160500000Y-36580000D03*
X160500000Y-34040000D03*
X160500000Y-31500000D03*
%TD*%
D10*
%TO.C,U2*%
X211952000Y-90000000D03*
X231002000Y-89974600D03*
X211952000Y-34094600D03*
X231002000Y-34094600D03*
D15*
X227700000Y-91244600D03*
X230240000Y-86164600D03*
X230240000Y-83624600D03*
X230240000Y-81084600D03*
X230240000Y-78544600D03*
X230240000Y-73464600D03*
X230240000Y-70924600D03*
X230240000Y-68384600D03*
X230240000Y-65844600D03*
X230240000Y-58224600D03*
X230240000Y-55684600D03*
X230240000Y-53144600D03*
X230240000Y-50604600D03*
X230240000Y-45524600D03*
X230240000Y-42984600D03*
X230240000Y-40444600D03*
X230240000Y-37904600D03*
X227700000Y-32824600D03*
X225160000Y-91244600D03*
X225160000Y-32824600D03*
X222620000Y-91244600D03*
X222620000Y-32824600D03*
X220080000Y-91244600D03*
X220080000Y-32824600D03*
X217540000Y-91244600D03*
X217540000Y-32824600D03*
X215000000Y-91244600D03*
X232780000Y-86164600D03*
X232780000Y-83624600D03*
X232780000Y-81084600D03*
X232780000Y-78544600D03*
X232780000Y-73464600D03*
X232780000Y-70924600D03*
X232780000Y-68384600D03*
X232780000Y-65844600D03*
X232780000Y-58224600D03*
X232780000Y-55684600D03*
X232780000Y-53144600D03*
X232780000Y-50604600D03*
X232780000Y-45524600D03*
X232780000Y-42984600D03*
X232780000Y-40444600D03*
X232780000Y-37904600D03*
X215000000Y-32824600D03*
X227700000Y-86164600D03*
X227700000Y-83624600D03*
X227700000Y-81084600D03*
X227700000Y-78544600D03*
X227700000Y-73464600D03*
X227700000Y-70924600D03*
X227700000Y-68384600D03*
X227700000Y-65844600D03*
X227700000Y-58224600D03*
X227700000Y-55684600D03*
X227700000Y-53144600D03*
X227700000Y-50604600D03*
X227700000Y-45524600D03*
X227700000Y-42984600D03*
X227700000Y-40444600D03*
X227700000Y-37904600D03*
X212587000Y-63812600D03*
X212587000Y-60358200D03*
%TD*%
D16*
%TO.C,C2*%
X138350000Y-37000000D03*
X151850000Y-37000000D03*
D17*
X148700000Y-43000000D03*
D18*
X141500000Y-43000000D03*
%TD*%
D11*
%TO.C,J5*%
X134000000Y-84020000D03*
D12*
X131460000Y-84020000D03*
X134000000Y-81480000D03*
X131460000Y-81480000D03*
X134000000Y-78940000D03*
X131460000Y-78940000D03*
X134000000Y-76400000D03*
X131460000Y-76400000D03*
X134000000Y-73860000D03*
X131460000Y-73860000D03*
X134000000Y-71320000D03*
X131460000Y-71320000D03*
X134000000Y-68780000D03*
X131460000Y-68780000D03*
X134000000Y-66240000D03*
X131460000Y-66240000D03*
X134000000Y-63700000D03*
X131460000Y-63700000D03*
X134000000Y-61160000D03*
X131460000Y-61160000D03*
X134000000Y-58620000D03*
X131460000Y-58620000D03*
X134000000Y-56080000D03*
X131460000Y-56080000D03*
X134000000Y-53540000D03*
X131460000Y-53540000D03*
X134000000Y-51000000D03*
X131460000Y-51000000D03*
X134000000Y-48460000D03*
X131460000Y-48460000D03*
X134000000Y-45920000D03*
X131460000Y-45920000D03*
X134000000Y-43380000D03*
X131460000Y-43380000D03*
X134000000Y-40840000D03*
X131460000Y-40840000D03*
X134000000Y-38300000D03*
X131460000Y-38300000D03*
X134000000Y-35760000D03*
X131460000Y-35760000D03*
%TD*%
M02*
