%TF.GenerationSoftware,KiCad,Pcbnew,8.0.1*%
%TF.CreationDate,2024-05-22T18:28:09-07:00*%
%TF.ProjectId,pcb-v3,7063622d-7633-42e6-9b69-6361645f7063,rev?*%
%TF.SameCoordinates,Original*%
%TF.FileFunction,Copper,L2,Bot*%
%TF.FilePolarity,Positive*%
%FSLAX46Y46*%
G04 Gerber Fmt 4.6, Leading zero omitted, Abs format (unit mm)*
G04 Created by KiCad (PCBNEW 8.0.1) date 2024-05-22 18:28:09*
%MOMM*%
%LPD*%
G01*
G04 APERTURE LIST*
G04 Aperture macros list*
%AMRoundRect*
0 Rectangle with rounded corners*
0 $1 Rounding radius*
0 $2 $3 $4 $5 $6 $7 $8 $9 X,Y pos of 4 corners*
0 Add a 4 corners polygon primitive as box body*
4,1,4,$2,$3,$4,$5,$6,$7,$8,$9,$2,$3,0*
0 Add four circle primitives for the rounded corners*
1,1,$1+$1,$2,$3*
1,1,$1+$1,$4,$5*
1,1,$1+$1,$6,$7*
1,1,$1+$1,$8,$9*
0 Add four rect primitives between the rounded corners*
20,1,$1+$1,$2,$3,$4,$5,0*
20,1,$1+$1,$4,$5,$6,$7,0*
20,1,$1+$1,$6,$7,$8,$9,0*
20,1,$1+$1,$8,$9,$2,$3,0*%
G04 Aperture macros list end*
%TA.AperFunction,ComponentPad*%
%ADD10R,1.700000X1.700000*%
%TD*%
%TA.AperFunction,ComponentPad*%
%ADD11O,1.700000X1.700000*%
%TD*%
%TA.AperFunction,ComponentPad*%
%ADD12C,2.032000*%
%TD*%
%TA.AperFunction,ComponentPad*%
%ADD13C,1.524000*%
%TD*%
%TA.AperFunction,WasherPad*%
%ADD14C,3.000000*%
%TD*%
%TA.AperFunction,ComponentPad*%
%ADD15C,2.000000*%
%TD*%
%TA.AperFunction,ComponentPad*%
%ADD16R,0.900000X2.000000*%
%TD*%
%TA.AperFunction,ComponentPad*%
%ADD17RoundRect,1.025000X-1.025000X-1.025000X1.025000X-1.025000X1.025000X1.025000X-1.025000X1.025000X0*%
%TD*%
%TA.AperFunction,ComponentPad*%
%ADD18C,4.100000*%
%TD*%
G04 APERTURE END LIST*
D10*
%TO.P,J1,1,Pin_1*%
%TO.N,STABLE_12V*%
X175725000Y-37505000D03*
D11*
%TO.P,J1,2,Pin_2*%
%TO.N,GND*%
X178265000Y-37505000D03*
%TD*%
D10*
%TO.P,J4,1,Pin_1*%
%TO.N,ESC*%
X174775000Y-86125000D03*
D11*
%TO.P,J4,2,Pin_2*%
%TO.N,GND*%
X172235000Y-86125000D03*
%TD*%
D12*
%TO.P,Q2,1,-Vin*%
%TO.N,GND*%
X170330400Y-37956000D03*
%TO.P,Q2,2,+Vin*%
%TO.N,+12V*%
X170330400Y-35416000D03*
%TO.P,Q2,3,-Vout*%
%TO.N,GND*%
X170330400Y-32876000D03*
%TO.P,Q2,4,+Vout*%
%TO.N,STABLE_12V*%
X170330400Y-30336000D03*
%TD*%
D10*
%TO.P,J2,1,Pin_1*%
%TO.N,unconnected-(J2-Pin_1-Pad1)*%
X193500000Y-71000000D03*
D11*
%TO.P,J2,2,Pin_2*%
%TO.N,unconnected-(J2-Pin_2-Pad2)*%
X193500000Y-68460000D03*
%TO.P,J2,3,Pin_3*%
%TO.N,GND*%
X193500000Y-65920000D03*
%TO.P,J2,4,Pin_4*%
%TO.N,SDA*%
X193500000Y-63380000D03*
%TO.P,J2,5,Pin_5*%
%TO.N,SCL*%
X193500000Y-60840000D03*
%TO.P,J2,6,Pin_6*%
%TO.N,GND*%
X193500000Y-58300000D03*
%TO.P,J2,7,Pin_7*%
%TO.N,+5V*%
X193500000Y-55760000D03*
%TD*%
D10*
%TO.P,J3,1,Pin_1*%
%TO.N,STABLE_12V*%
X181960000Y-37500000D03*
D11*
%TO.P,J3,2,Pin_2*%
%TO.N,GND*%
X184500000Y-37500000D03*
%TD*%
D13*
%TO.P,Q1,1,Vin*%
%TO.N,+12V*%
X160500000Y-36580000D03*
%TO.P,Q1,2,GND*%
%TO.N,GND*%
X160500000Y-34040000D03*
%TO.P,Q1,3,Vout*%
%TO.N,+5V*%
X160500000Y-31500000D03*
%TD*%
D14*
%TO.P,U2,*%
%TO.N,*%
X214000000Y-90000000D03*
X233050000Y-89974600D03*
X214000000Y-34094600D03*
X233050000Y-34094600D03*
D15*
%TO.P,U2,1,A0*%
%TO.N,unconnected-(U2-A0-Pad1)_10*%
X229748000Y-91244600D03*
%TO.N,unconnected-(U2-A0-Pad1)_13*%
X232288000Y-86164600D03*
%TO.N,unconnected-(U2-A0-Pad1)_12*%
X232288000Y-83624600D03*
%TO.N,unconnected-(U2-A0-Pad1)_4*%
X232288000Y-81084600D03*
%TO.N,unconnected-(U2-A0-Pad1)_16*%
X232288000Y-78544600D03*
%TO.N,unconnected-(U2-A0-Pad1)_14*%
X232288000Y-73464600D03*
%TO.N,unconnected-(U2-A0-Pad1)_0*%
X232288000Y-70924600D03*
%TO.N,unconnected-(U2-A0-Pad1)_11*%
X232288000Y-68384600D03*
%TO.N,unconnected-(U2-A0-Pad1)_7*%
X232288000Y-65844600D03*
%TO.N,unconnected-(U2-A0-Pad1)_1*%
X232288000Y-58224600D03*
%TO.N,unconnected-(U2-A0-Pad1)_6*%
X232288000Y-55684600D03*
%TO.N,unconnected-(U2-A0-Pad1)_5*%
X232288000Y-53144600D03*
%TO.N,unconnected-(U2-A0-Pad1)_2*%
X232288000Y-50604600D03*
%TO.N,unconnected-(U2-A0-Pad1)_8*%
X232288000Y-45524600D03*
%TO.N,unconnected-(U2-A0-Pad1)*%
X232288000Y-42984600D03*
%TO.N,unconnected-(U2-A0-Pad1)_9*%
X232288000Y-40444600D03*
%TO.N,unconnected-(U2-A0-Pad1)_15*%
X232288000Y-37904600D03*
%TO.N,unconnected-(U2-A0-Pad1)_3*%
X229748000Y-32824600D03*
%TO.P,U2,2,A1*%
%TO.N,unconnected-(U2-A1-Pad2)_0*%
X227208000Y-91244600D03*
%TO.N,unconnected-(U2-A1-Pad2)*%
X227208000Y-32824600D03*
%TO.P,U2,3,A2*%
%TO.N,SDA*%
X224668000Y-91244600D03*
%TO.N,N/C*%
X224668000Y-32824600D03*
%TO.P,U2,4,A3*%
%TO.N,SCL*%
X222128000Y-91244600D03*
%TO.N,N/C*%
X222128000Y-32824600D03*
%TO.P,U2,5,A4*%
%TO.N,unconnected-(U2-A4-Pad5)_0*%
X219588000Y-91244600D03*
%TO.N,unconnected-(U2-A4-Pad5)*%
X219588000Y-32824600D03*
%TO.P,U2,6,PWM0*%
%TO.N,unconnected-(U2-PWM0-Pad6)_8*%
X217048000Y-91244600D03*
%TO.N,unconnected-(U2-PWM0-Pad6)_0*%
X234828000Y-86164600D03*
%TO.N,unconnected-(U2-PWM0-Pad6)_1*%
X234828000Y-83624600D03*
%TO.N,unconnected-(U2-PWM0-Pad6)_2*%
X234828000Y-81084600D03*
%TO.N,unconnected-(U2-PWM0-Pad6)_12*%
X234828000Y-78544600D03*
%TO.N,unconnected-(U2-PWM0-Pad6)_7*%
X234828000Y-73464600D03*
%TO.N,unconnected-(U2-PWM0-Pad6)_14*%
X234828000Y-70924600D03*
%TO.N,unconnected-(U2-PWM0-Pad6)_9*%
X234828000Y-68384600D03*
%TO.N,unconnected-(U2-PWM0-Pad6)*%
X234828000Y-65844600D03*
%TO.N,unconnected-(U2-PWM0-Pad6)_3*%
X234828000Y-58224600D03*
%TO.N,unconnected-(U2-PWM0-Pad6)_16*%
X234828000Y-55684600D03*
%TO.N,unconnected-(U2-PWM0-Pad6)_15*%
X234828000Y-53144600D03*
%TO.N,unconnected-(U2-PWM0-Pad6)_10*%
X234828000Y-50604600D03*
%TO.N,unconnected-(U2-PWM0-Pad6)_11*%
X234828000Y-45524600D03*
%TO.N,unconnected-(U2-PWM0-Pad6)_4*%
X234828000Y-42984600D03*
%TO.N,unconnected-(U2-PWM0-Pad6)_5*%
X234828000Y-40444600D03*
%TO.N,unconnected-(U2-PWM0-Pad6)_6*%
X234828000Y-37904600D03*
%TO.N,unconnected-(U2-PWM0-Pad6)_13*%
X217048000Y-32824600D03*
%TO.P,U2,7,PWM1*%
%TO.N,unconnected-(U2-PWM1-Pad7)*%
X229748000Y-86164600D03*
%TO.P,U2,8,PWM2*%
%TO.N,unconnected-(U2-PWM2-Pad8)*%
X229748000Y-83624600D03*
%TO.P,U2,9,PWM3*%
%TO.N,unconnected-(U2-PWM3-Pad9)*%
X229748000Y-81084600D03*
%TO.P,U2,10,PWM4*%
%TO.N,unconnected-(U2-PWM4-Pad10)*%
X229748000Y-78544600D03*
%TO.P,U2,11,PWM5*%
%TO.N,unconnected-(U2-PWM5-Pad11)*%
X229748000Y-73464600D03*
%TO.P,U2,12,PWM6*%
%TO.N,unconnected-(U2-PWM6-Pad12)*%
X229748000Y-70924600D03*
%TO.P,U2,13,PWM7*%
%TO.N,unconnected-(U2-PWM7-Pad13)*%
X229748000Y-68384600D03*
%TO.P,U2,14,GND*%
%TO.N,GND*%
X229748000Y-65844600D03*
%TO.P,U2,15,PWM8*%
%TO.N,unconnected-(U2-PWM8-Pad15)*%
X229748000Y-58224600D03*
%TO.P,U2,16,PWM9*%
%TO.N,unconnected-(U2-PWM9-Pad16)*%
X229748000Y-55684600D03*
%TO.P,U2,17,PWM10*%
%TO.N,unconnected-(U2-PWM10-Pad17)*%
X229748000Y-53144600D03*
%TO.P,U2,18,PWM11*%
%TO.N,unconnected-(U2-PWM11-Pad18)*%
X229748000Y-50604600D03*
%TO.P,U2,19,PWM12*%
%TO.N,unconnected-(U2-PWM12-Pad19)*%
X229748000Y-45524600D03*
%TO.P,U2,20,PWM13*%
%TO.N,unconnected-(U2-PWM13-Pad20)*%
X229748000Y-42984600D03*
%TO.P,U2,21,PWM14*%
%TO.N,unconnected-(U2-PWM14-Pad21)*%
X229748000Y-40444600D03*
%TO.P,U2,22,PWM15*%
%TO.N,unconnected-(U2-PWM15-Pad22)*%
X229748000Y-37904600D03*
%TO.P,U2,24,A5*%
%TO.N,+5V*%
X214635000Y-63812600D03*
%TO.P,U2,25,EXTCLK*%
%TO.N,GND*%
X214635000Y-60358200D03*
%TD*%
D16*
%TO.P,C2,*%
%TO.N,*%
X138350000Y-37000000D03*
X151850000Y-37000000D03*
D17*
%TO.P,C2,1,Vin*%
%TO.N,GND*%
X148700000Y-43000000D03*
D18*
%TO.P,C2,2,Vout*%
%TO.N,+12V*%
X141500000Y-43000000D03*
%TD*%
D10*
%TO.P,J5,1,Pin_1*%
%TO.N,N/C*%
X132000000Y-79000000D03*
D11*
%TO.P,J5,2,Pin_2*%
X129460000Y-79000000D03*
%TO.P,J5,3,Pin_3*%
%TO.N,SDA*%
X132000000Y-76460000D03*
%TO.P,J5,4,Pin_4*%
%TO.N,N/C*%
X129460000Y-76460000D03*
%TO.P,J5,5,Pin_5*%
%TO.N,SCL*%
X132000000Y-73920000D03*
%TO.P,J5,6,Pin_6*%
%TO.N,GND*%
X129460000Y-73920000D03*
%TO.P,J5,7,Pin_7*%
%TO.N,unconnected-(J5-Pin_7-Pad7)*%
X132000000Y-71380000D03*
%TO.P,J5,8,Pin_8*%
%TO.N,unconnected-(J5-Pin_8-Pad8)*%
X129460000Y-71380000D03*
%TO.P,J5,9,Pin_9*%
%TO.N,GND*%
X132000000Y-68840000D03*
%TO.P,J5,10,Pin_10*%
%TO.N,unconnected-(J5-Pin_10-Pad10)*%
X129460000Y-68840000D03*
%TO.P,J5,11,Pin_11*%
%TO.N,unconnected-(J5-Pin_11-Pad11)*%
X132000000Y-66300000D03*
%TO.P,J5,12,Pin_12*%
%TO.N,unconnected-(J5-Pin_12-Pad12)*%
X129460000Y-66300000D03*
%TO.P,J5,13,Pin_13*%
%TO.N,unconnected-(J5-Pin_13-Pad13)*%
X132000000Y-63760000D03*
%TO.P,J5,14,Pin_14*%
%TO.N,GND*%
X129460000Y-63760000D03*
%TO.P,J5,15,Pin_15*%
%TO.N,unconnected-(J5-Pin_15-Pad15)*%
X132000000Y-61220000D03*
%TO.P,J5,16,Pin_16*%
%TO.N,unconnected-(J5-Pin_16-Pad16)*%
X129460000Y-61220000D03*
%TO.P,J5,17,Pin_17*%
%TO.N,N/C*%
X132000000Y-58680000D03*
%TO.P,J5,18,Pin_18*%
%TO.N,unconnected-(J5-Pin_18-Pad18)*%
X129460000Y-58680000D03*
%TO.P,J5,19,Pin_19*%
%TO.N,unconnected-(J5-Pin_19-Pad19)*%
X132000000Y-56140000D03*
%TO.P,J5,20,Pin_20*%
%TO.N,GND*%
X129460000Y-56140000D03*
%TO.P,J5,21,Pin_21*%
%TO.N,unconnected-(J5-Pin_21-Pad21)*%
X132000000Y-53600000D03*
%TO.P,J5,22,Pin_22*%
%TO.N,unconnected-(J5-Pin_22-Pad22)*%
X129460000Y-53600000D03*
%TO.P,J5,23,Pin_23*%
%TO.N,unconnected-(J5-Pin_23-Pad23)*%
X132000000Y-51060000D03*
%TO.P,J5,24,Pin_24*%
%TO.N,unconnected-(J5-Pin_24-Pad24)*%
X129460000Y-51060000D03*
%TO.P,J5,25,Pin_25*%
%TO.N,GND*%
X132000000Y-48520000D03*
%TO.P,J5,26,Pin_26*%
%TO.N,unconnected-(J5-Pin_26-Pad26)*%
X129460000Y-48520000D03*
%TO.P,J5,27,Pin_27*%
%TO.N,unconnected-(J5-Pin_27-Pad27)*%
X132000000Y-45980000D03*
%TO.P,J5,28,Pin_28*%
%TO.N,unconnected-(J5-Pin_28-Pad28)*%
X129460000Y-45980000D03*
%TO.P,J5,29,Pin_29*%
%TO.N,unconnected-(J5-Pin_29-Pad29)*%
X132000000Y-43440000D03*
%TO.P,J5,30,Pin_30*%
%TO.N,GND*%
X129460000Y-43440000D03*
%TO.P,J5,31,Pin_31*%
%TO.N,unconnected-(J5-Pin_31-Pad31)*%
X132000000Y-40900000D03*
%TO.P,J5,32,Pin_32*%
%TO.N,SERVO*%
X129460000Y-40900000D03*
%TO.P,J5,33,Pin_33*%
%TO.N,ESC*%
X132000000Y-38360000D03*
%TO.P,J5,34,Pin_34*%
%TO.N,GND*%
X129460000Y-38360000D03*
%TO.P,J5,35,Pin_35*%
%TO.N,unconnected-(J5-Pin_35-Pad35)*%
X132000000Y-35820000D03*
%TO.P,J5,36,Pin_36*%
%TO.N,unconnected-(J5-Pin_36-Pad36)*%
X129460000Y-35820000D03*
%TO.P,J5,37,Pin_37*%
%TO.N,unconnected-(J5-Pin_37-Pad37)*%
X132000000Y-33280000D03*
%TO.P,J5,38,Pin_38*%
%TO.N,unconnected-(J5-Pin_38-Pad38)*%
X129460000Y-33280000D03*
%TO.P,J5,39,Pin_39*%
%TO.N,GND*%
X132000000Y-30740000D03*
%TO.P,J5,40,Pin_40*%
%TO.N,unconnected-(J5-Pin_40-Pad40)*%
X129460000Y-30740000D03*
%TD*%
%TA.AperFunction,Conductor*%
%TO.N,GND*%
G36*
X130574925Y-74681373D02*
G01*
X130628119Y-74605405D01*
X130682696Y-74561781D01*
X130752195Y-74554588D01*
X130814549Y-74586110D01*
X130831269Y-74605405D01*
X130961505Y-74791401D01*
X130961506Y-74791402D01*
X131128597Y-74958493D01*
X131128603Y-74958498D01*
X131314158Y-75088425D01*
X131357783Y-75143002D01*
X131364977Y-75212500D01*
X131333454Y-75274855D01*
X131314158Y-75291575D01*
X131128597Y-75421505D01*
X130961505Y-75588597D01*
X130831575Y-75774158D01*
X130776998Y-75817783D01*
X130707500Y-75824977D01*
X130645145Y-75793454D01*
X130628425Y-75774158D01*
X130498494Y-75588597D01*
X130331402Y-75421506D01*
X130331401Y-75421505D01*
X130145405Y-75291269D01*
X130101781Y-75236692D01*
X130094588Y-75167193D01*
X130126110Y-75104839D01*
X130145405Y-75088119D01*
X130221373Y-75034925D01*
X129589409Y-74402962D01*
X129652993Y-74385925D01*
X129767007Y-74320099D01*
X129860099Y-74227007D01*
X129925925Y-74112993D01*
X129942962Y-74049410D01*
X130574925Y-74681373D01*
G37*
%TD.AperFunction*%
%TA.AperFunction,Conductor*%
G36*
X130814855Y-72046546D02*
G01*
X130831575Y-72065842D01*
X130961501Y-72251396D01*
X130961506Y-72251402D01*
X131128597Y-72418493D01*
X131128603Y-72418498D01*
X131314158Y-72548425D01*
X131357783Y-72603002D01*
X131364977Y-72672500D01*
X131333454Y-72734855D01*
X131314158Y-72751575D01*
X131128597Y-72881505D01*
X130961505Y-73048597D01*
X130831269Y-73234595D01*
X130776692Y-73278220D01*
X130707194Y-73285414D01*
X130644839Y-73253891D01*
X130628119Y-73234595D01*
X130574925Y-73158626D01*
X130574925Y-73158625D01*
X129942962Y-73790589D01*
X129925925Y-73727007D01*
X129860099Y-73612993D01*
X129767007Y-73519901D01*
X129652993Y-73454075D01*
X129589410Y-73437037D01*
X130221373Y-72805073D01*
X130221373Y-72805072D01*
X130145405Y-72751880D01*
X130101780Y-72697304D01*
X130094586Y-72627805D01*
X130126108Y-72565451D01*
X130145399Y-72548734D01*
X130331401Y-72418495D01*
X130498495Y-72251401D01*
X130628425Y-72065842D01*
X130683002Y-72022217D01*
X130752500Y-72015023D01*
X130814855Y-72046546D01*
G37*
%TD.AperFunction*%
%TA.AperFunction,Conductor*%
G36*
X131534075Y-69032993D02*
G01*
X131599901Y-69147007D01*
X131692993Y-69240099D01*
X131807007Y-69305925D01*
X131870590Y-69322962D01*
X131238625Y-69954925D01*
X131314594Y-70008119D01*
X131358219Y-70062696D01*
X131365413Y-70132194D01*
X131333890Y-70194549D01*
X131314595Y-70211269D01*
X131128594Y-70341508D01*
X130961505Y-70508597D01*
X130831575Y-70694158D01*
X130776998Y-70737783D01*
X130707500Y-70744977D01*
X130645145Y-70713454D01*
X130628425Y-70694158D01*
X130498494Y-70508597D01*
X130331402Y-70341506D01*
X130331396Y-70341501D01*
X130145842Y-70211575D01*
X130102217Y-70156998D01*
X130095023Y-70087500D01*
X130126546Y-70025145D01*
X130145842Y-70008425D01*
X130289743Y-69907664D01*
X130331401Y-69878495D01*
X130498495Y-69711401D01*
X130628732Y-69525403D01*
X130683307Y-69481780D01*
X130752805Y-69474586D01*
X130815160Y-69506109D01*
X130831880Y-69525405D01*
X130885073Y-69601373D01*
X131517037Y-68969409D01*
X131534075Y-69032993D01*
G37*
%TD.AperFunction*%
%TA.AperFunction,Conductor*%
G36*
X130814855Y-66966546D02*
G01*
X130831575Y-66985842D01*
X130961500Y-67171395D01*
X130961505Y-67171401D01*
X131128599Y-67338495D01*
X131247154Y-67421508D01*
X131314594Y-67468730D01*
X131358218Y-67523307D01*
X131365411Y-67592806D01*
X131333889Y-67655160D01*
X131314593Y-67671880D01*
X131238626Y-67725072D01*
X131238625Y-67725072D01*
X131870590Y-68357037D01*
X131807007Y-68374075D01*
X131692993Y-68439901D01*
X131599901Y-68532993D01*
X131534075Y-68647007D01*
X131517037Y-68710590D01*
X130885073Y-68078626D01*
X130831881Y-68154594D01*
X130777304Y-68198219D01*
X130707806Y-68205413D01*
X130645451Y-68173891D01*
X130628730Y-68154594D01*
X130498494Y-67968597D01*
X130331402Y-67801506D01*
X130331396Y-67801501D01*
X130145842Y-67671575D01*
X130102217Y-67616998D01*
X130095023Y-67547500D01*
X130126546Y-67485145D01*
X130145842Y-67468425D01*
X130212849Y-67421506D01*
X130331401Y-67338495D01*
X130498495Y-67171401D01*
X130628425Y-66985842D01*
X130683002Y-66942217D01*
X130752500Y-66935023D01*
X130814855Y-66966546D01*
G37*
%TD.AperFunction*%
%TA.AperFunction,Conductor*%
G36*
X130574925Y-64521373D02*
G01*
X130628119Y-64445405D01*
X130682696Y-64401781D01*
X130752195Y-64394588D01*
X130814549Y-64426110D01*
X130831269Y-64445405D01*
X130961505Y-64631401D01*
X130961506Y-64631402D01*
X131128597Y-64798493D01*
X131128603Y-64798498D01*
X131314158Y-64928425D01*
X131357783Y-64983002D01*
X131364977Y-65052500D01*
X131333454Y-65114855D01*
X131314158Y-65131575D01*
X131128597Y-65261505D01*
X130961505Y-65428597D01*
X130831575Y-65614158D01*
X130776998Y-65657783D01*
X130707500Y-65664977D01*
X130645145Y-65633454D01*
X130628425Y-65614158D01*
X130498494Y-65428597D01*
X130331402Y-65261506D01*
X130331401Y-65261505D01*
X130145405Y-65131269D01*
X130101781Y-65076692D01*
X130094588Y-65007193D01*
X130126110Y-64944839D01*
X130145405Y-64928119D01*
X130221373Y-64874925D01*
X129589409Y-64242962D01*
X129652993Y-64225925D01*
X129767007Y-64160099D01*
X129860099Y-64067007D01*
X129925925Y-63952993D01*
X129942962Y-63889410D01*
X130574925Y-64521373D01*
G37*
%TD.AperFunction*%
%TA.AperFunction,Conductor*%
G36*
X130814855Y-61886546D02*
G01*
X130831575Y-61905842D01*
X130961501Y-62091396D01*
X130961506Y-62091402D01*
X131128597Y-62258493D01*
X131128603Y-62258498D01*
X131314158Y-62388425D01*
X131357783Y-62443002D01*
X131364977Y-62512500D01*
X131333454Y-62574855D01*
X131314158Y-62591575D01*
X131128597Y-62721505D01*
X130961505Y-62888597D01*
X130831269Y-63074595D01*
X130776692Y-63118220D01*
X130707194Y-63125414D01*
X130644839Y-63093891D01*
X130628119Y-63074595D01*
X130574925Y-62998626D01*
X130574925Y-62998625D01*
X129942962Y-63630589D01*
X129925925Y-63567007D01*
X129860099Y-63452993D01*
X129767007Y-63359901D01*
X129652993Y-63294075D01*
X129589410Y-63277037D01*
X130221373Y-62645073D01*
X130221373Y-62645072D01*
X130145405Y-62591880D01*
X130101780Y-62537304D01*
X130094586Y-62467805D01*
X130126108Y-62405451D01*
X130145399Y-62388734D01*
X130331401Y-62258495D01*
X130498495Y-62091401D01*
X130628425Y-61905842D01*
X130683002Y-61862217D01*
X130752500Y-61855023D01*
X130814855Y-61886546D01*
G37*
%TD.AperFunction*%
%TA.AperFunction,Conductor*%
G36*
X130574925Y-56901373D02*
G01*
X130628119Y-56825405D01*
X130682696Y-56781781D01*
X130752195Y-56774588D01*
X130814549Y-56806110D01*
X130831269Y-56825405D01*
X130961505Y-57011401D01*
X130961506Y-57011402D01*
X131128597Y-57178493D01*
X131128603Y-57178498D01*
X131314158Y-57308425D01*
X131357783Y-57363002D01*
X131364977Y-57432500D01*
X131333454Y-57494855D01*
X131314158Y-57511575D01*
X131128597Y-57641505D01*
X130961505Y-57808597D01*
X130831575Y-57994158D01*
X130776998Y-58037783D01*
X130707500Y-58044977D01*
X130645145Y-58013454D01*
X130628425Y-57994158D01*
X130498494Y-57808597D01*
X130331402Y-57641506D01*
X130331401Y-57641505D01*
X130145405Y-57511269D01*
X130101781Y-57456692D01*
X130094588Y-57387193D01*
X130126110Y-57324839D01*
X130145405Y-57308119D01*
X130221373Y-57254925D01*
X129589409Y-56622962D01*
X129652993Y-56605925D01*
X129767007Y-56540099D01*
X129860099Y-56447007D01*
X129925925Y-56332993D01*
X129942962Y-56269410D01*
X130574925Y-56901373D01*
G37*
%TD.AperFunction*%
%TA.AperFunction,Conductor*%
G36*
X130814855Y-54266546D02*
G01*
X130831575Y-54285842D01*
X130961501Y-54471396D01*
X130961506Y-54471402D01*
X131128597Y-54638493D01*
X131128603Y-54638498D01*
X131314158Y-54768425D01*
X131357783Y-54823002D01*
X131364977Y-54892500D01*
X131333454Y-54954855D01*
X131314158Y-54971575D01*
X131128597Y-55101505D01*
X130961505Y-55268597D01*
X130831269Y-55454595D01*
X130776692Y-55498220D01*
X130707194Y-55505414D01*
X130644839Y-55473891D01*
X130628119Y-55454595D01*
X130574925Y-55378626D01*
X130574925Y-55378625D01*
X129942962Y-56010589D01*
X129925925Y-55947007D01*
X129860099Y-55832993D01*
X129767007Y-55739901D01*
X129652993Y-55674075D01*
X129589410Y-55657037D01*
X130221373Y-55025073D01*
X130221373Y-55025072D01*
X130145405Y-54971880D01*
X130101780Y-54917304D01*
X130094586Y-54847805D01*
X130126108Y-54785451D01*
X130145399Y-54768734D01*
X130331401Y-54638495D01*
X130498495Y-54471401D01*
X130628425Y-54285842D01*
X130683002Y-54242217D01*
X130752500Y-54235023D01*
X130814855Y-54266546D01*
G37*
%TD.AperFunction*%
%TA.AperFunction,Conductor*%
G36*
X131534075Y-48712993D02*
G01*
X131599901Y-48827007D01*
X131692993Y-48920099D01*
X131807007Y-48985925D01*
X131870590Y-49002962D01*
X131238625Y-49634925D01*
X131314594Y-49688119D01*
X131358219Y-49742696D01*
X131365413Y-49812194D01*
X131333890Y-49874549D01*
X131314595Y-49891269D01*
X131128594Y-50021508D01*
X130961505Y-50188597D01*
X130831575Y-50374158D01*
X130776998Y-50417783D01*
X130707500Y-50424977D01*
X130645145Y-50393454D01*
X130628425Y-50374158D01*
X130498494Y-50188597D01*
X130331402Y-50021506D01*
X130331396Y-50021501D01*
X130145842Y-49891575D01*
X130102217Y-49836998D01*
X130095023Y-49767500D01*
X130126546Y-49705145D01*
X130145842Y-49688425D01*
X130222248Y-49634925D01*
X130331401Y-49558495D01*
X130498495Y-49391401D01*
X130628732Y-49205403D01*
X130683307Y-49161780D01*
X130752805Y-49154586D01*
X130815160Y-49186109D01*
X130831880Y-49205405D01*
X130885073Y-49281373D01*
X131517037Y-48649409D01*
X131534075Y-48712993D01*
G37*
%TD.AperFunction*%
%TA.AperFunction,Conductor*%
G36*
X130814855Y-46646546D02*
G01*
X130831575Y-46665842D01*
X130961500Y-46851395D01*
X130961505Y-46851401D01*
X131128599Y-47018495D01*
X131314158Y-47148425D01*
X131314594Y-47148730D01*
X131358218Y-47203307D01*
X131365411Y-47272806D01*
X131333889Y-47335160D01*
X131314593Y-47351880D01*
X131238626Y-47405072D01*
X131238625Y-47405072D01*
X131870590Y-48037037D01*
X131807007Y-48054075D01*
X131692993Y-48119901D01*
X131599901Y-48212993D01*
X131534075Y-48327007D01*
X131517037Y-48390590D01*
X130885073Y-47758626D01*
X130831881Y-47834594D01*
X130777304Y-47878219D01*
X130707806Y-47885413D01*
X130645451Y-47853891D01*
X130628730Y-47834594D01*
X130498494Y-47648597D01*
X130331402Y-47481506D01*
X130331396Y-47481501D01*
X130145842Y-47351575D01*
X130102217Y-47296998D01*
X130095023Y-47227500D01*
X130126546Y-47165145D01*
X130145842Y-47148425D01*
X130168026Y-47132891D01*
X130331401Y-47018495D01*
X130498495Y-46851401D01*
X130628425Y-46665842D01*
X130683002Y-46622217D01*
X130752500Y-46615023D01*
X130814855Y-46646546D01*
G37*
%TD.AperFunction*%
%TA.AperFunction,Conductor*%
G36*
X130574925Y-44201373D02*
G01*
X130628119Y-44125405D01*
X130682696Y-44081781D01*
X130752195Y-44074588D01*
X130814549Y-44106110D01*
X130831269Y-44125405D01*
X130961505Y-44311401D01*
X130961506Y-44311402D01*
X131128597Y-44478493D01*
X131128603Y-44478498D01*
X131314158Y-44608425D01*
X131357783Y-44663002D01*
X131364977Y-44732500D01*
X131333454Y-44794855D01*
X131314158Y-44811575D01*
X131128597Y-44941505D01*
X130961505Y-45108597D01*
X130831575Y-45294158D01*
X130776998Y-45337783D01*
X130707500Y-45344977D01*
X130645145Y-45313454D01*
X130628425Y-45294158D01*
X130498494Y-45108597D01*
X130331402Y-44941506D01*
X130331401Y-44941505D01*
X130145405Y-44811269D01*
X130101781Y-44756692D01*
X130094588Y-44687193D01*
X130126110Y-44624839D01*
X130145405Y-44608119D01*
X130221373Y-44554925D01*
X129589409Y-43922962D01*
X129652993Y-43905925D01*
X129767007Y-43840099D01*
X129860099Y-43747007D01*
X129925925Y-43632993D01*
X129942962Y-43569410D01*
X130574925Y-44201373D01*
G37*
%TD.AperFunction*%
%TA.AperFunction,Conductor*%
G36*
X130814855Y-41566546D02*
G01*
X130831575Y-41585842D01*
X130961501Y-41771396D01*
X130961506Y-41771402D01*
X131128597Y-41938493D01*
X131128603Y-41938498D01*
X131314158Y-42068425D01*
X131357783Y-42123002D01*
X131364977Y-42192500D01*
X131333454Y-42254855D01*
X131314158Y-42271575D01*
X131128597Y-42401505D01*
X130961505Y-42568597D01*
X130831269Y-42754595D01*
X130776692Y-42798220D01*
X130707194Y-42805414D01*
X130644839Y-42773891D01*
X130628119Y-42754595D01*
X130574925Y-42678626D01*
X130574925Y-42678625D01*
X129942962Y-43310589D01*
X129925925Y-43247007D01*
X129860099Y-43132993D01*
X129767007Y-43039901D01*
X129652993Y-42974075D01*
X129589410Y-42957037D01*
X130221373Y-42325073D01*
X130221373Y-42325072D01*
X130145405Y-42271880D01*
X130101780Y-42217304D01*
X130094586Y-42147805D01*
X130126108Y-42085451D01*
X130145399Y-42068734D01*
X130331401Y-41938495D01*
X130498495Y-41771401D01*
X130628425Y-41585842D01*
X130683002Y-41542217D01*
X130752500Y-41535023D01*
X130814855Y-41566546D01*
G37*
%TD.AperFunction*%
%TA.AperFunction,Conductor*%
G36*
X130574925Y-39121373D02*
G01*
X130628119Y-39045405D01*
X130682696Y-39001781D01*
X130752195Y-38994588D01*
X130814549Y-39026110D01*
X130831269Y-39045405D01*
X130961505Y-39231401D01*
X130961506Y-39231402D01*
X131128597Y-39398493D01*
X131128603Y-39398498D01*
X131314158Y-39528425D01*
X131357783Y-39583002D01*
X131364977Y-39652500D01*
X131333454Y-39714855D01*
X131314158Y-39731575D01*
X131128597Y-39861505D01*
X130961505Y-40028597D01*
X130831575Y-40214158D01*
X130776998Y-40257783D01*
X130707500Y-40264977D01*
X130645145Y-40233454D01*
X130628425Y-40214158D01*
X130498494Y-40028597D01*
X130331402Y-39861506D01*
X130331401Y-39861505D01*
X130145405Y-39731269D01*
X130101781Y-39676692D01*
X130094588Y-39607193D01*
X130126110Y-39544839D01*
X130145405Y-39528119D01*
X130221373Y-39474925D01*
X129589409Y-38842962D01*
X129652993Y-38825925D01*
X129767007Y-38760099D01*
X129860099Y-38667007D01*
X129925925Y-38552993D01*
X129942962Y-38489410D01*
X130574925Y-39121373D01*
G37*
%TD.AperFunction*%
%TA.AperFunction,Conductor*%
G36*
X130814855Y-36486546D02*
G01*
X130831575Y-36505842D01*
X130961501Y-36691396D01*
X130961506Y-36691402D01*
X131128597Y-36858493D01*
X131128603Y-36858498D01*
X131314158Y-36988425D01*
X131357783Y-37043002D01*
X131364977Y-37112500D01*
X131333454Y-37174855D01*
X131314158Y-37191575D01*
X131128597Y-37321505D01*
X130961505Y-37488597D01*
X130831269Y-37674595D01*
X130776692Y-37718220D01*
X130707194Y-37725414D01*
X130644839Y-37693891D01*
X130628119Y-37674595D01*
X130574925Y-37598626D01*
X130574925Y-37598625D01*
X129942962Y-38230589D01*
X129925925Y-38167007D01*
X129860099Y-38052993D01*
X129767007Y-37959901D01*
X129652993Y-37894075D01*
X129589410Y-37877037D01*
X130221373Y-37245073D01*
X130221373Y-37245072D01*
X130145405Y-37191880D01*
X130101780Y-37137304D01*
X130094586Y-37067805D01*
X130126108Y-37005451D01*
X130145399Y-36988734D01*
X130331401Y-36858495D01*
X130498495Y-36691401D01*
X130628425Y-36505842D01*
X130683002Y-36462217D01*
X130752500Y-36455023D01*
X130814855Y-36486546D01*
G37*
%TD.AperFunction*%
%TA.AperFunction,Conductor*%
G36*
X230971434Y-66714482D02*
G01*
X230982861Y-66713297D01*
X231051573Y-66725960D01*
X231096092Y-66765794D01*
X231096683Y-66765335D01*
X231099218Y-66768592D01*
X231099456Y-66768805D01*
X231099831Y-66769380D01*
X231109229Y-66779589D01*
X231268256Y-66952338D01*
X231351008Y-67016747D01*
X231391821Y-67073457D01*
X231395496Y-67143230D01*
X231360864Y-67203913D01*
X231351014Y-67212448D01*
X231292400Y-67258069D01*
X231268257Y-67276861D01*
X231109230Y-67449610D01*
X231049342Y-67485601D01*
X230979504Y-67483500D01*
X230926770Y-67449610D01*
X230887108Y-67406526D01*
X230767744Y-67276862D01*
X230664253Y-67196312D01*
X230623442Y-67139603D01*
X230616655Y-67090776D01*
X230618056Y-67068209D01*
X229877409Y-66327562D01*
X229940993Y-66310525D01*
X230055007Y-66244699D01*
X230148099Y-66151607D01*
X230213925Y-66037593D01*
X230230962Y-65974009D01*
X230971434Y-66714482D01*
G37*
%TD.AperFunction*%
%TA.AperFunction,Conductor*%
G36*
X236943039Y-27019685D02*
G01*
X236988794Y-27072489D01*
X237000000Y-27124000D01*
X237000000Y-96876000D01*
X236980315Y-96943039D01*
X236927511Y-96988794D01*
X236876000Y-97000000D01*
X124124000Y-97000000D01*
X124056961Y-96980315D01*
X124011206Y-96927511D01*
X124000000Y-96876000D01*
X124000000Y-90000001D01*
X211994390Y-90000001D01*
X212014804Y-90285433D01*
X212075628Y-90565037D01*
X212175635Y-90833166D01*
X212312770Y-91084309D01*
X212312775Y-91084317D01*
X212484254Y-91313387D01*
X212484270Y-91313405D01*
X212686594Y-91515729D01*
X212686612Y-91515745D01*
X212915682Y-91687224D01*
X212915690Y-91687229D01*
X213166833Y-91824364D01*
X213166832Y-91824364D01*
X213166836Y-91824365D01*
X213166839Y-91824367D01*
X213434954Y-91924369D01*
X213434960Y-91924370D01*
X213434962Y-91924371D01*
X213714566Y-91985195D01*
X213714568Y-91985195D01*
X213714572Y-91985196D01*
X213968220Y-92003337D01*
X213999999Y-92005610D01*
X214000000Y-92005610D01*
X214000001Y-92005610D01*
X214028595Y-92003564D01*
X214285428Y-91985196D01*
X214308349Y-91980210D01*
X214565037Y-91924371D01*
X214565037Y-91924370D01*
X214565046Y-91924369D01*
X214833161Y-91824367D01*
X215084315Y-91687226D01*
X215313395Y-91515739D01*
X215362874Y-91466260D01*
X215424197Y-91432774D01*
X215493888Y-91437758D01*
X215549822Y-91479629D01*
X215570762Y-91523500D01*
X215623936Y-91733481D01*
X215723826Y-91961206D01*
X215859833Y-92169382D01*
X215859836Y-92169385D01*
X216028256Y-92352338D01*
X216224491Y-92505074D01*
X216443190Y-92623428D01*
X216678386Y-92704171D01*
X216923665Y-92745100D01*
X217172335Y-92745100D01*
X217417614Y-92704171D01*
X217652810Y-92623428D01*
X217871509Y-92505074D01*
X218067744Y-92352338D01*
X218226771Y-92179588D01*
X218286657Y-92143599D01*
X218356495Y-92145699D01*
X218409228Y-92179588D01*
X218568256Y-92352338D01*
X218764491Y-92505074D01*
X218983190Y-92623428D01*
X219218386Y-92704171D01*
X219463665Y-92745100D01*
X219712335Y-92745100D01*
X219957614Y-92704171D01*
X220192810Y-92623428D01*
X220411509Y-92505074D01*
X220607744Y-92352338D01*
X220766771Y-92179588D01*
X220826657Y-92143599D01*
X220896495Y-92145699D01*
X220949228Y-92179588D01*
X221108256Y-92352338D01*
X221304491Y-92505074D01*
X221523190Y-92623428D01*
X221758386Y-92704171D01*
X222003665Y-92745100D01*
X222252335Y-92745100D01*
X222497614Y-92704171D01*
X222732810Y-92623428D01*
X222951509Y-92505074D01*
X223147744Y-92352338D01*
X223306771Y-92179588D01*
X223366657Y-92143599D01*
X223436495Y-92145699D01*
X223489228Y-92179588D01*
X223648256Y-92352338D01*
X223844491Y-92505074D01*
X224063190Y-92623428D01*
X224298386Y-92704171D01*
X224543665Y-92745100D01*
X224792335Y-92745100D01*
X225037614Y-92704171D01*
X225272810Y-92623428D01*
X225491509Y-92505074D01*
X225687744Y-92352338D01*
X225846771Y-92179588D01*
X225906657Y-92143599D01*
X225976495Y-92145699D01*
X226029228Y-92179588D01*
X226188256Y-92352338D01*
X226384491Y-92505074D01*
X226603190Y-92623428D01*
X226838386Y-92704171D01*
X227083665Y-92745100D01*
X227332335Y-92745100D01*
X227577614Y-92704171D01*
X227812810Y-92623428D01*
X228031509Y-92505074D01*
X228227744Y-92352338D01*
X228386771Y-92179588D01*
X228446657Y-92143599D01*
X228516495Y-92145699D01*
X228569228Y-92179588D01*
X228728256Y-92352338D01*
X228924491Y-92505074D01*
X229143190Y-92623428D01*
X229378386Y-92704171D01*
X229623665Y-92745100D01*
X229872335Y-92745100D01*
X230117614Y-92704171D01*
X230352810Y-92623428D01*
X230571509Y-92505074D01*
X230767744Y-92352338D01*
X230936164Y-92169385D01*
X231072173Y-91961207D01*
X231172063Y-91733481D01*
X231233108Y-91492421D01*
X231251383Y-91271865D01*
X231276536Y-91206685D01*
X231332937Y-91165446D01*
X231402681Y-91161248D01*
X231463623Y-91195421D01*
X231474226Y-91207798D01*
X231534261Y-91287995D01*
X231534265Y-91287999D01*
X231534270Y-91288005D01*
X231736594Y-91490329D01*
X231736612Y-91490345D01*
X231965682Y-91661824D01*
X231965690Y-91661829D01*
X232216833Y-91798964D01*
X232216832Y-91798964D01*
X232216836Y-91798965D01*
X232216839Y-91798967D01*
X232484954Y-91898969D01*
X232484960Y-91898970D01*
X232484962Y-91898971D01*
X232764566Y-91959795D01*
X232764568Y-91959795D01*
X232764572Y-91959796D01*
X233018220Y-91977937D01*
X233049999Y-91980210D01*
X233050000Y-91980210D01*
X233050001Y-91980210D01*
X233078595Y-91978164D01*
X233335428Y-91959796D01*
X233615046Y-91898969D01*
X233883161Y-91798967D01*
X234134315Y-91661826D01*
X234363395Y-91490339D01*
X234565739Y-91287995D01*
X234737226Y-91058915D01*
X234874367Y-90807761D01*
X234974369Y-90539646D01*
X235024410Y-90309610D01*
X235035195Y-90260033D01*
X235035195Y-90260032D01*
X235035196Y-90260028D01*
X235055610Y-89974600D01*
X235035196Y-89689172D01*
X234979894Y-89434954D01*
X234974371Y-89409562D01*
X234974370Y-89409560D01*
X234974369Y-89409554D01*
X234874367Y-89141439D01*
X234751098Y-88915690D01*
X234737229Y-88890290D01*
X234737224Y-88890282D01*
X234565745Y-88661212D01*
X234565729Y-88661194D01*
X234363405Y-88458870D01*
X234363387Y-88458854D01*
X234134317Y-88287375D01*
X234134309Y-88287370D01*
X233883166Y-88150235D01*
X233883167Y-88150235D01*
X233775915Y-88110232D01*
X233615046Y-88050231D01*
X233615043Y-88050230D01*
X233615037Y-88050228D01*
X233335433Y-87989404D01*
X233050001Y-87968990D01*
X233049999Y-87968990D01*
X232764566Y-87989404D01*
X232484962Y-88050228D01*
X232216833Y-88150235D01*
X231965690Y-88287370D01*
X231965682Y-88287375D01*
X231736612Y-88458854D01*
X231736594Y-88458870D01*
X231534270Y-88661194D01*
X231534254Y-88661212D01*
X231362775Y-88890282D01*
X231362770Y-88890290D01*
X231225635Y-89141433D01*
X231125628Y-89409562D01*
X231064804Y-89689166D01*
X231044390Y-89974598D01*
X231044390Y-89974601D01*
X231054974Y-90122590D01*
X231040122Y-90190863D01*
X230990717Y-90240268D01*
X230922444Y-90255120D01*
X230856979Y-90230703D01*
X230840064Y-90215423D01*
X230767744Y-90136862D01*
X230571509Y-89984126D01*
X230571507Y-89984125D01*
X230571506Y-89984124D01*
X230352811Y-89865772D01*
X230352802Y-89865769D01*
X230117616Y-89785029D01*
X229872335Y-89744100D01*
X229623665Y-89744100D01*
X229378383Y-89785029D01*
X229143197Y-89865769D01*
X229143188Y-89865772D01*
X228924493Y-89984124D01*
X228728257Y-90136861D01*
X228569230Y-90309610D01*
X228509342Y-90345601D01*
X228439504Y-90343500D01*
X228386770Y-90309610D01*
X228322936Y-90240268D01*
X228227744Y-90136862D01*
X228031509Y-89984126D01*
X228031507Y-89984125D01*
X228031506Y-89984124D01*
X227812811Y-89865772D01*
X227812802Y-89865769D01*
X227577616Y-89785029D01*
X227332335Y-89744100D01*
X227083665Y-89744100D01*
X226838383Y-89785029D01*
X226603197Y-89865769D01*
X226603188Y-89865772D01*
X226384493Y-89984124D01*
X226188257Y-90136861D01*
X226029230Y-90309610D01*
X225969342Y-90345601D01*
X225899504Y-90343500D01*
X225846770Y-90309610D01*
X225782936Y-90240268D01*
X225687744Y-90136862D01*
X225491509Y-89984126D01*
X225491507Y-89984125D01*
X225491506Y-89984124D01*
X225272811Y-89865772D01*
X225272802Y-89865769D01*
X225037616Y-89785029D01*
X224792335Y-89744100D01*
X224543665Y-89744100D01*
X224298383Y-89785029D01*
X224063197Y-89865769D01*
X224063188Y-89865772D01*
X223844493Y-89984124D01*
X223648257Y-90136861D01*
X223489230Y-90309610D01*
X223429342Y-90345601D01*
X223359504Y-90343500D01*
X223306770Y-90309610D01*
X223242936Y-90240268D01*
X223147744Y-90136862D01*
X222951509Y-89984126D01*
X222951507Y-89984125D01*
X222951506Y-89984124D01*
X222732811Y-89865772D01*
X222732802Y-89865769D01*
X222497616Y-89785029D01*
X222252335Y-89744100D01*
X222003665Y-89744100D01*
X221758383Y-89785029D01*
X221523197Y-89865769D01*
X221523188Y-89865772D01*
X221304493Y-89984124D01*
X221108257Y-90136861D01*
X220949230Y-90309610D01*
X220889342Y-90345601D01*
X220819504Y-90343500D01*
X220766770Y-90309610D01*
X220702936Y-90240268D01*
X220607744Y-90136862D01*
X220411509Y-89984126D01*
X220411507Y-89984125D01*
X220411506Y-89984124D01*
X220192811Y-89865772D01*
X220192802Y-89865769D01*
X219957616Y-89785029D01*
X219712335Y-89744100D01*
X219463665Y-89744100D01*
X219218383Y-89785029D01*
X218983197Y-89865769D01*
X218983188Y-89865772D01*
X218764493Y-89984124D01*
X218568257Y-90136861D01*
X218409230Y-90309610D01*
X218349342Y-90345601D01*
X218279504Y-90343500D01*
X218226770Y-90309610D01*
X218162936Y-90240268D01*
X218067744Y-90136862D01*
X217871509Y-89984126D01*
X217871507Y-89984125D01*
X217871506Y-89984124D01*
X217652811Y-89865772D01*
X217652802Y-89865769D01*
X217417616Y-89785029D01*
X217172335Y-89744100D01*
X216923665Y-89744100D01*
X216678383Y-89785029D01*
X216443197Y-89865769D01*
X216443188Y-89865772D01*
X216224493Y-89984124D01*
X216199353Y-90003692D01*
X216134358Y-90029333D01*
X216065818Y-90015766D01*
X216015494Y-89967296D01*
X215999508Y-89914683D01*
X215990235Y-89785029D01*
X215985196Y-89714572D01*
X215979669Y-89689166D01*
X215924371Y-89434962D01*
X215924370Y-89434960D01*
X215924369Y-89434954D01*
X215824367Y-89166839D01*
X215810497Y-89141439D01*
X215687229Y-88915690D01*
X215687224Y-88915682D01*
X215515745Y-88686612D01*
X215515729Y-88686594D01*
X215313405Y-88484270D01*
X215313387Y-88484254D01*
X215084317Y-88312775D01*
X215084309Y-88312770D01*
X214833166Y-88175635D01*
X214833167Y-88175635D01*
X214725915Y-88135632D01*
X214565046Y-88075631D01*
X214565043Y-88075630D01*
X214565037Y-88075628D01*
X214285433Y-88014804D01*
X214000001Y-87994390D01*
X213999999Y-87994390D01*
X213714566Y-88014804D01*
X213434962Y-88075628D01*
X213166833Y-88175635D01*
X212915690Y-88312770D01*
X212915682Y-88312775D01*
X212686612Y-88484254D01*
X212686594Y-88484270D01*
X212484270Y-88686594D01*
X212484254Y-88686612D01*
X212312775Y-88915682D01*
X212312770Y-88915690D01*
X212175635Y-89166833D01*
X212075628Y-89434962D01*
X212014804Y-89714566D01*
X211994390Y-89999998D01*
X211994390Y-90000001D01*
X124000000Y-90000001D01*
X124000000Y-86375000D01*
X170904364Y-86375000D01*
X170961567Y-86588486D01*
X170961570Y-86588492D01*
X171061399Y-86802578D01*
X171196894Y-86996082D01*
X171363917Y-87163105D01*
X171557421Y-87298600D01*
X171771507Y-87398429D01*
X171771516Y-87398433D01*
X171985000Y-87455634D01*
X171985000Y-86558012D01*
X172042007Y-86590925D01*
X172169174Y-86625000D01*
X172300826Y-86625000D01*
X172427993Y-86590925D01*
X172485000Y-86558012D01*
X172485000Y-87455633D01*
X172698483Y-87398433D01*
X172698492Y-87398429D01*
X172912578Y-87298600D01*
X173106078Y-87163108D01*
X173228133Y-87041053D01*
X173289456Y-87007568D01*
X173359148Y-87012552D01*
X173415082Y-87054423D01*
X173431997Y-87085401D01*
X173481202Y-87217328D01*
X173481206Y-87217335D01*
X173567452Y-87332544D01*
X173567455Y-87332547D01*
X173682664Y-87418793D01*
X173682671Y-87418797D01*
X173817517Y-87469091D01*
X173817516Y-87469091D01*
X173824444Y-87469835D01*
X173877127Y-87475500D01*
X175672872Y-87475499D01*
X175732483Y-87469091D01*
X175867331Y-87418796D01*
X175982546Y-87332546D01*
X176068796Y-87217331D01*
X176119091Y-87082483D01*
X176125500Y-87022873D01*
X176125500Y-86164605D01*
X228242357Y-86164605D01*
X228262890Y-86412412D01*
X228262892Y-86412424D01*
X228323936Y-86653481D01*
X228423826Y-86881206D01*
X228559833Y-87089382D01*
X228559836Y-87089385D01*
X228728256Y-87272338D01*
X228924491Y-87425074D01*
X229143190Y-87543428D01*
X229378386Y-87624171D01*
X229623665Y-87665100D01*
X229872335Y-87665100D01*
X230117614Y-87624171D01*
X230352810Y-87543428D01*
X230571509Y-87425074D01*
X230767744Y-87272338D01*
X230926771Y-87099588D01*
X230986657Y-87063599D01*
X231056495Y-87065699D01*
X231109228Y-87099588D01*
X231268256Y-87272338D01*
X231464491Y-87425074D01*
X231683190Y-87543428D01*
X231918386Y-87624171D01*
X232163665Y-87665100D01*
X232412335Y-87665100D01*
X232657614Y-87624171D01*
X232892810Y-87543428D01*
X233111509Y-87425074D01*
X233307744Y-87272338D01*
X233466771Y-87099588D01*
X233526657Y-87063599D01*
X233596495Y-87065699D01*
X233649228Y-87099588D01*
X233808256Y-87272338D01*
X234004491Y-87425074D01*
X234223190Y-87543428D01*
X234458386Y-87624171D01*
X234703665Y-87665100D01*
X234952335Y-87665100D01*
X235197614Y-87624171D01*
X235432810Y-87543428D01*
X235651509Y-87425074D01*
X235847744Y-87272338D01*
X236016164Y-87089385D01*
X236152173Y-86881207D01*
X236252063Y-86653481D01*
X236313108Y-86412421D01*
X236333643Y-86164600D01*
X236324907Y-86059174D01*
X236313109Y-85916787D01*
X236313107Y-85916775D01*
X236252063Y-85675718D01*
X236152173Y-85447993D01*
X236016166Y-85239817D01*
X235875390Y-85086894D01*
X235847744Y-85056862D01*
X235764991Y-84992452D01*
X235724179Y-84935743D01*
X235720504Y-84865970D01*
X235755136Y-84805287D01*
X235764985Y-84796751D01*
X235847744Y-84732338D01*
X236016164Y-84549385D01*
X236152173Y-84341207D01*
X236252063Y-84113481D01*
X236313108Y-83872421D01*
X236333643Y-83624600D01*
X236313108Y-83376779D01*
X236252063Y-83135719D01*
X236152173Y-82907993D01*
X236033011Y-82725601D01*
X236016166Y-82699817D01*
X235994557Y-82676344D01*
X235847744Y-82516862D01*
X235764991Y-82452452D01*
X235724179Y-82395743D01*
X235720504Y-82325970D01*
X235755136Y-82265287D01*
X235764985Y-82256751D01*
X235847744Y-82192338D01*
X236016164Y-82009385D01*
X236152173Y-81801207D01*
X236252063Y-81573481D01*
X236313108Y-81332421D01*
X236333643Y-81084600D01*
X236313108Y-80836779D01*
X236252063Y-80595719D01*
X236152173Y-80367993D01*
X236098000Y-80285074D01*
X236016166Y-80159817D01*
X235954044Y-80092335D01*
X235847744Y-79976862D01*
X235764991Y-79912452D01*
X235724179Y-79855743D01*
X235720504Y-79785970D01*
X235755136Y-79725287D01*
X235764985Y-79716751D01*
X235847744Y-79652338D01*
X236016164Y-79469385D01*
X236152173Y-79261207D01*
X236252063Y-79033481D01*
X236313108Y-78792421D01*
X236315414Y-78764592D01*
X236333643Y-78544605D01*
X236333643Y-78544594D01*
X236313109Y-78296787D01*
X236313107Y-78296775D01*
X236252063Y-78055718D01*
X236152173Y-77827993D01*
X236016166Y-77619817D01*
X235951759Y-77549853D01*
X235847744Y-77436862D01*
X235651509Y-77284126D01*
X235651507Y-77284125D01*
X235651506Y-77284124D01*
X235432811Y-77165772D01*
X235432802Y-77165769D01*
X235197616Y-77085029D01*
X234952335Y-77044100D01*
X234703665Y-77044100D01*
X234458383Y-77085029D01*
X234223197Y-77165769D01*
X234223188Y-77165772D01*
X234004493Y-77284124D01*
X233808257Y-77436861D01*
X233649230Y-77609610D01*
X233589342Y-77645601D01*
X233519504Y-77643500D01*
X233466770Y-77609610D01*
X233379352Y-77514649D01*
X233307744Y-77436862D01*
X233111509Y-77284126D01*
X233111507Y-77284125D01*
X233111506Y-77284124D01*
X232892811Y-77165772D01*
X232892802Y-77165769D01*
X232657616Y-77085029D01*
X232412335Y-77044100D01*
X232163665Y-77044100D01*
X231918383Y-77085029D01*
X231683197Y-77165769D01*
X231683188Y-77165772D01*
X231464493Y-77284124D01*
X231268257Y-77436861D01*
X231109230Y-77609610D01*
X231049342Y-77645601D01*
X230979504Y-77643500D01*
X230926770Y-77609610D01*
X230839352Y-77514649D01*
X230767744Y-77436862D01*
X230571509Y-77284126D01*
X230571507Y-77284125D01*
X230571506Y-77284124D01*
X230352811Y-77165772D01*
X230352802Y-77165769D01*
X230117616Y-77085029D01*
X229872335Y-77044100D01*
X229623665Y-77044100D01*
X229378383Y-77085029D01*
X229143197Y-77165769D01*
X229143188Y-77165772D01*
X228924493Y-77284124D01*
X228728257Y-77436861D01*
X228559833Y-77619817D01*
X228423826Y-77827993D01*
X228323936Y-78055718D01*
X228262892Y-78296775D01*
X228262890Y-78296787D01*
X228242357Y-78544594D01*
X228242357Y-78544605D01*
X228262890Y-78792412D01*
X228262892Y-78792424D01*
X228323936Y-79033481D01*
X228423826Y-79261206D01*
X228559833Y-79469382D01*
X228559836Y-79469385D01*
X228728256Y-79652338D01*
X228811008Y-79716747D01*
X228851821Y-79773457D01*
X228855496Y-79843230D01*
X228820864Y-79903913D01*
X228811014Y-79912448D01*
X228788543Y-79929939D01*
X228728257Y-79976861D01*
X228559833Y-80159817D01*
X228423826Y-80367993D01*
X228323936Y-80595718D01*
X228262892Y-80836775D01*
X228262890Y-80836787D01*
X228242357Y-81084594D01*
X228242357Y-81084605D01*
X228262890Y-81332412D01*
X228262892Y-81332424D01*
X228323936Y-81573481D01*
X228423826Y-81801206D01*
X228559833Y-82009382D01*
X228559836Y-82009385D01*
X228728256Y-82192338D01*
X228811008Y-82256747D01*
X228851821Y-82313457D01*
X228855496Y-82383230D01*
X228820864Y-82443913D01*
X228811014Y-82452448D01*
X228752400Y-82498069D01*
X228728257Y-82516861D01*
X228559833Y-82699817D01*
X228423826Y-82907993D01*
X228323936Y-83135718D01*
X228262892Y-83376775D01*
X228262890Y-83376787D01*
X228242357Y-83624594D01*
X228242357Y-83624605D01*
X228262890Y-83872412D01*
X228262892Y-83872424D01*
X228323936Y-84113481D01*
X228423826Y-84341206D01*
X228559833Y-84549382D01*
X228559836Y-84549385D01*
X228728256Y-84732338D01*
X228811008Y-84796747D01*
X228851821Y-84853457D01*
X228855496Y-84923230D01*
X228820864Y-84983913D01*
X228811014Y-84992448D01*
X228759346Y-85032664D01*
X228728257Y-85056861D01*
X228559833Y-85239817D01*
X228423826Y-85447993D01*
X228323936Y-85675718D01*
X228262892Y-85916775D01*
X228262890Y-85916787D01*
X228242357Y-86164594D01*
X228242357Y-86164605D01*
X176125500Y-86164605D01*
X176125499Y-85227128D01*
X176119091Y-85167517D01*
X176118002Y-85164598D01*
X176068797Y-85032671D01*
X176068793Y-85032664D01*
X175982547Y-84917455D01*
X175982544Y-84917452D01*
X175867335Y-84831206D01*
X175867328Y-84831202D01*
X175732482Y-84780908D01*
X175732483Y-84780908D01*
X175672883Y-84774501D01*
X175672881Y-84774500D01*
X175672873Y-84774500D01*
X175672864Y-84774500D01*
X173877129Y-84774500D01*
X173877123Y-84774501D01*
X173817516Y-84780908D01*
X173682671Y-84831202D01*
X173682664Y-84831206D01*
X173567455Y-84917452D01*
X173567452Y-84917455D01*
X173481206Y-85032664D01*
X173481202Y-85032671D01*
X173431997Y-85164598D01*
X173390126Y-85220532D01*
X173324661Y-85244949D01*
X173256388Y-85230097D01*
X173228134Y-85208946D01*
X173106082Y-85086894D01*
X172912578Y-84951399D01*
X172698492Y-84851570D01*
X172698486Y-84851567D01*
X172485000Y-84794364D01*
X172485000Y-85691988D01*
X172427993Y-85659075D01*
X172300826Y-85625000D01*
X172169174Y-85625000D01*
X172042007Y-85659075D01*
X171985000Y-85691988D01*
X171985000Y-84794364D01*
X171984999Y-84794364D01*
X171771513Y-84851567D01*
X171771507Y-84851570D01*
X171557422Y-84951399D01*
X171557420Y-84951400D01*
X171363926Y-85086886D01*
X171363920Y-85086891D01*
X171196891Y-85253920D01*
X171196886Y-85253926D01*
X171061400Y-85447420D01*
X171061399Y-85447422D01*
X170961570Y-85661507D01*
X170961567Y-85661513D01*
X170904364Y-85874999D01*
X170904364Y-85875000D01*
X171801988Y-85875000D01*
X171769075Y-85932007D01*
X171735000Y-86059174D01*
X171735000Y-86190826D01*
X171769075Y-86317993D01*
X171801988Y-86375000D01*
X170904364Y-86375000D01*
X124000000Y-86375000D01*
X124000000Y-79000000D01*
X128104341Y-79000000D01*
X128124936Y-79235403D01*
X128124938Y-79235413D01*
X128186094Y-79463655D01*
X128186096Y-79463659D01*
X128186097Y-79463663D01*
X128270499Y-79644663D01*
X128285965Y-79677830D01*
X128285967Y-79677834D01*
X128375062Y-79805074D01*
X128421505Y-79871401D01*
X128588599Y-80038495D01*
X128685384Y-80106265D01*
X128782165Y-80174032D01*
X128782167Y-80174033D01*
X128782170Y-80174035D01*
X128996337Y-80273903D01*
X129224592Y-80335063D01*
X129401034Y-80350500D01*
X129459999Y-80355659D01*
X129460000Y-80355659D01*
X129460001Y-80355659D01*
X129518966Y-80350500D01*
X129695408Y-80335063D01*
X129923663Y-80273903D01*
X130137830Y-80174035D01*
X130331401Y-80038495D01*
X130453329Y-79916566D01*
X130514648Y-79883084D01*
X130584340Y-79888068D01*
X130640274Y-79929939D01*
X130657189Y-79960917D01*
X130706202Y-80092328D01*
X130706206Y-80092335D01*
X130792452Y-80207544D01*
X130792455Y-80207547D01*
X130907664Y-80293793D01*
X130907671Y-80293797D01*
X131042517Y-80344091D01*
X131042516Y-80344091D01*
X131049444Y-80344835D01*
X131102127Y-80350500D01*
X132897872Y-80350499D01*
X132957483Y-80344091D01*
X133092331Y-80293796D01*
X133207546Y-80207546D01*
X133293796Y-80092331D01*
X133344091Y-79957483D01*
X133350500Y-79897873D01*
X133350499Y-78102128D01*
X133344091Y-78042517D01*
X133342810Y-78039083D01*
X133293797Y-77907671D01*
X133293793Y-77907664D01*
X133207547Y-77792455D01*
X133207544Y-77792452D01*
X133092335Y-77706206D01*
X133092328Y-77706202D01*
X132960917Y-77657189D01*
X132904983Y-77615318D01*
X132880566Y-77549853D01*
X132895418Y-77481580D01*
X132916563Y-77453332D01*
X133038495Y-77331401D01*
X133174035Y-77137830D01*
X133273903Y-76923663D01*
X133335063Y-76695408D01*
X133355659Y-76460000D01*
X133335063Y-76224592D01*
X133273903Y-75996337D01*
X133174035Y-75782171D01*
X133168425Y-75774158D01*
X133038494Y-75588597D01*
X132871402Y-75421506D01*
X132871396Y-75421501D01*
X132685842Y-75291575D01*
X132642217Y-75236998D01*
X132635023Y-75167500D01*
X132666546Y-75105145D01*
X132685842Y-75088425D01*
X132762248Y-75034925D01*
X132871401Y-74958495D01*
X133038495Y-74791401D01*
X133174035Y-74597830D01*
X133273903Y-74383663D01*
X133335063Y-74155408D01*
X133355659Y-73920000D01*
X133335063Y-73684592D01*
X133276118Y-73464605D01*
X228242357Y-73464605D01*
X228262890Y-73712412D01*
X228262892Y-73712424D01*
X228323936Y-73953481D01*
X228423826Y-74181206D01*
X228559833Y-74389382D01*
X228559836Y-74389385D01*
X228728256Y-74572338D01*
X228924491Y-74725074D01*
X229143190Y-74843428D01*
X229378386Y-74924171D01*
X229623665Y-74965100D01*
X229872335Y-74965100D01*
X230117614Y-74924171D01*
X230352810Y-74843428D01*
X230571509Y-74725074D01*
X230767744Y-74572338D01*
X230926771Y-74399588D01*
X230986657Y-74363599D01*
X231056495Y-74365699D01*
X231109228Y-74399588D01*
X231268256Y-74572338D01*
X231464491Y-74725074D01*
X231683190Y-74843428D01*
X231918386Y-74924171D01*
X232163665Y-74965100D01*
X232412335Y-74965100D01*
X232657614Y-74924171D01*
X232892810Y-74843428D01*
X233111509Y-74725074D01*
X233307744Y-74572338D01*
X233466771Y-74399588D01*
X233526657Y-74363599D01*
X233596495Y-74365699D01*
X233649228Y-74399588D01*
X233808256Y-74572338D01*
X234004491Y-74725074D01*
X234223190Y-74843428D01*
X234458386Y-74924171D01*
X234703665Y-74965100D01*
X234952335Y-74965100D01*
X235197614Y-74924171D01*
X235432810Y-74843428D01*
X235651509Y-74725074D01*
X235847744Y-74572338D01*
X236016164Y-74389385D01*
X236152173Y-74181207D01*
X236252063Y-73953481D01*
X236313108Y-73712421D01*
X236313109Y-73712412D01*
X236333643Y-73464605D01*
X236333643Y-73464594D01*
X236313109Y-73216787D01*
X236313107Y-73216775D01*
X236252063Y-72975718D01*
X236152173Y-72747993D01*
X236016166Y-72539817D01*
X235994557Y-72516344D01*
X235847744Y-72356862D01*
X235764991Y-72292452D01*
X235724179Y-72235743D01*
X235720504Y-72165970D01*
X235755136Y-72105287D01*
X235764985Y-72096751D01*
X235847744Y-72032338D01*
X236016164Y-71849385D01*
X236152173Y-71641207D01*
X236252063Y-71413481D01*
X236313108Y-71172421D01*
X236315414Y-71144592D01*
X236333643Y-70924605D01*
X236333643Y-70924594D01*
X236313109Y-70676787D01*
X236313107Y-70676775D01*
X236252063Y-70435718D01*
X236152173Y-70207993D01*
X236016166Y-69999817D01*
X235974840Y-69954925D01*
X235847744Y-69816862D01*
X235764991Y-69752452D01*
X235724179Y-69695743D01*
X235720504Y-69625970D01*
X235755136Y-69565287D01*
X235764985Y-69556751D01*
X235847744Y-69492338D01*
X236016164Y-69309385D01*
X236152173Y-69101207D01*
X236252063Y-68873481D01*
X236313108Y-68632421D01*
X236313109Y-68632412D01*
X236333643Y-68384605D01*
X236333643Y-68384594D01*
X236313109Y-68136787D01*
X236313107Y-68136775D01*
X236252063Y-67895718D01*
X236152173Y-67667993D01*
X236016166Y-67459817D01*
X235980897Y-67421505D01*
X235847744Y-67276862D01*
X235764991Y-67212452D01*
X235724179Y-67155743D01*
X235720504Y-67085970D01*
X235755136Y-67025287D01*
X235764985Y-67016751D01*
X235847744Y-66952338D01*
X236016164Y-66769385D01*
X236152173Y-66561207D01*
X236252063Y-66333481D01*
X236313108Y-66092421D01*
X236315414Y-66064592D01*
X236333643Y-65844605D01*
X236333643Y-65844594D01*
X236313109Y-65596787D01*
X236313107Y-65596775D01*
X236252063Y-65355718D01*
X236152173Y-65127993D01*
X236016166Y-64919817D01*
X235994557Y-64896344D01*
X235847744Y-64736862D01*
X235651509Y-64584126D01*
X235651507Y-64584125D01*
X235651506Y-64584124D01*
X235432811Y-64465772D01*
X235432802Y-64465769D01*
X235197616Y-64385029D01*
X234952335Y-64344100D01*
X234703665Y-64344100D01*
X234458383Y-64385029D01*
X234223197Y-64465769D01*
X234223188Y-64465772D01*
X234004493Y-64584124D01*
X233808257Y-64736861D01*
X233649230Y-64909610D01*
X233589342Y-64945601D01*
X233519504Y-64943500D01*
X233466770Y-64909610D01*
X233427108Y-64866526D01*
X233307744Y-64736862D01*
X233111509Y-64584126D01*
X233111507Y-64584125D01*
X233111506Y-64584124D01*
X232892811Y-64465772D01*
X232892802Y-64465769D01*
X232657616Y-64385029D01*
X232412335Y-64344100D01*
X232163665Y-64344100D01*
X231918383Y-64385029D01*
X231683197Y-64465769D01*
X231683188Y-64465772D01*
X231464493Y-64584124D01*
X231268257Y-64736861D01*
X231099837Y-64919813D01*
X231099829Y-64919824D01*
X231099455Y-64920397D01*
X231099242Y-64920578D01*
X231096690Y-64923858D01*
X231096014Y-64923332D01*
X231046304Y-64965747D01*
X230982865Y-64975902D01*
X230971434Y-64974716D01*
X230230962Y-65715189D01*
X230213925Y-65651607D01*
X230148099Y-65537593D01*
X230055007Y-65444501D01*
X229940993Y-65378675D01*
X229877410Y-65361637D01*
X230618057Y-64620990D01*
X230618056Y-64620989D01*
X230571229Y-64584543D01*
X230352614Y-64466235D01*
X230352603Y-64466230D01*
X230117493Y-64385516D01*
X229872293Y-64344600D01*
X229623707Y-64344600D01*
X229378506Y-64385516D01*
X229143396Y-64466230D01*
X229143390Y-64466232D01*
X228924761Y-64584549D01*
X228877942Y-64620988D01*
X228877942Y-64620990D01*
X229618590Y-65361637D01*
X229555007Y-65378675D01*
X229440993Y-65444501D01*
X229347901Y-65537593D01*
X229282075Y-65651607D01*
X229265037Y-65715189D01*
X228524564Y-64974716D01*
X228424267Y-65128232D01*
X228324412Y-65355882D01*
X228263387Y-65596861D01*
X228263385Y-65596870D01*
X228242859Y-65844594D01*
X228242859Y-65844605D01*
X228263385Y-66092329D01*
X228263387Y-66092338D01*
X228324412Y-66333317D01*
X228424266Y-66560964D01*
X228524564Y-66714482D01*
X229265037Y-65974009D01*
X229282075Y-66037593D01*
X229347901Y-66151607D01*
X229440993Y-66244699D01*
X229555007Y-66310525D01*
X229618590Y-66327562D01*
X228877942Y-67068209D01*
X228879343Y-67090777D01*
X228863850Y-67158907D01*
X228831744Y-67196313D01*
X228728258Y-67276860D01*
X228559833Y-67459817D01*
X228423826Y-67667993D01*
X228323936Y-67895718D01*
X228262892Y-68136775D01*
X228262890Y-68136787D01*
X228242357Y-68384594D01*
X228242357Y-68384605D01*
X228262890Y-68632412D01*
X228262892Y-68632424D01*
X228323936Y-68873481D01*
X228423826Y-69101206D01*
X228559833Y-69309382D01*
X228580103Y-69331401D01*
X228728256Y-69492338D01*
X228811008Y-69556747D01*
X228851821Y-69613457D01*
X228855496Y-69683230D01*
X228820864Y-69743913D01*
X228811014Y-69752448D01*
X228759618Y-69792452D01*
X228728257Y-69816861D01*
X228559833Y-69999817D01*
X228423826Y-70207993D01*
X228323936Y-70435718D01*
X228262892Y-70676775D01*
X228262890Y-70676787D01*
X228242357Y-70924594D01*
X228242357Y-70924605D01*
X228262890Y-71172412D01*
X228262892Y-71172424D01*
X228323936Y-71413481D01*
X228423826Y-71641206D01*
X228559833Y-71849382D01*
X228559836Y-71849385D01*
X228728256Y-72032338D01*
X228811008Y-72096747D01*
X228851821Y-72153457D01*
X228855496Y-72223230D01*
X228820864Y-72283913D01*
X228811014Y-72292448D01*
X228809282Y-72293797D01*
X228728257Y-72356861D01*
X228559833Y-72539817D01*
X228423826Y-72747993D01*
X228323936Y-72975718D01*
X228262892Y-73216775D01*
X228262890Y-73216787D01*
X228242357Y-73464594D01*
X228242357Y-73464605D01*
X133276118Y-73464605D01*
X133276117Y-73464600D01*
X133273905Y-73456344D01*
X133273904Y-73456343D01*
X133273903Y-73456337D01*
X133174035Y-73242171D01*
X133168731Y-73234595D01*
X133038494Y-73048597D01*
X132871402Y-72881506D01*
X132871396Y-72881501D01*
X132685842Y-72751575D01*
X132642217Y-72696998D01*
X132635023Y-72627500D01*
X132666546Y-72565145D01*
X132685842Y-72548425D01*
X132712712Y-72529610D01*
X132871401Y-72418495D01*
X133038495Y-72251401D01*
X133174035Y-72057830D01*
X133273903Y-71843663D01*
X133335063Y-71615408D01*
X133355659Y-71380000D01*
X133335063Y-71144592D01*
X133276117Y-70924600D01*
X133273905Y-70916344D01*
X133273904Y-70916343D01*
X133273903Y-70916337D01*
X133174035Y-70702171D01*
X133168425Y-70694158D01*
X133038494Y-70508597D01*
X132871402Y-70341506D01*
X132871401Y-70341505D01*
X132685405Y-70211269D01*
X132641781Y-70156692D01*
X132634588Y-70087193D01*
X132666110Y-70024839D01*
X132685405Y-70008119D01*
X132761373Y-69954925D01*
X132129409Y-69322962D01*
X132192993Y-69305925D01*
X132307007Y-69240099D01*
X132400099Y-69147007D01*
X132465925Y-69032993D01*
X132482962Y-68969410D01*
X133114925Y-69601373D01*
X133114926Y-69601373D01*
X133173598Y-69517582D01*
X133173600Y-69517578D01*
X133273429Y-69303492D01*
X133273433Y-69303483D01*
X133334567Y-69075326D01*
X133334569Y-69075315D01*
X133355157Y-68840001D01*
X133355157Y-68839998D01*
X133334569Y-68604684D01*
X133334567Y-68604673D01*
X133295802Y-68460000D01*
X192144341Y-68460000D01*
X192164936Y-68695403D01*
X192164938Y-68695413D01*
X192226094Y-68923655D01*
X192226096Y-68923659D01*
X192226097Y-68923663D01*
X192308887Y-69101206D01*
X192325965Y-69137830D01*
X192325967Y-69137834D01*
X192428034Y-69283599D01*
X192461501Y-69331396D01*
X192461506Y-69331402D01*
X192583430Y-69453326D01*
X192616915Y-69514649D01*
X192611931Y-69584341D01*
X192570059Y-69640274D01*
X192539083Y-69657189D01*
X192407669Y-69706203D01*
X192407664Y-69706206D01*
X192292455Y-69792452D01*
X192292452Y-69792455D01*
X192206206Y-69907664D01*
X192206202Y-69907671D01*
X192155908Y-70042517D01*
X192149501Y-70102116D01*
X192149501Y-70102123D01*
X192149500Y-70102135D01*
X192149500Y-71897870D01*
X192149501Y-71897876D01*
X192155908Y-71957483D01*
X192206202Y-72092328D01*
X192206206Y-72092335D01*
X192292452Y-72207544D01*
X192292455Y-72207547D01*
X192407664Y-72293793D01*
X192407671Y-72293797D01*
X192542517Y-72344091D01*
X192542516Y-72344091D01*
X192549444Y-72344835D01*
X192602127Y-72350500D01*
X194397872Y-72350499D01*
X194457483Y-72344091D01*
X194592331Y-72293796D01*
X194707546Y-72207546D01*
X194793796Y-72092331D01*
X194844091Y-71957483D01*
X194850500Y-71897873D01*
X194850499Y-70102128D01*
X194844091Y-70042517D01*
X194831261Y-70008119D01*
X194793797Y-69907671D01*
X194793793Y-69907664D01*
X194707547Y-69792455D01*
X194707544Y-69792452D01*
X194592335Y-69706206D01*
X194592328Y-69706202D01*
X194460917Y-69657189D01*
X194404983Y-69615318D01*
X194380566Y-69549853D01*
X194395418Y-69481580D01*
X194416563Y-69453332D01*
X194538495Y-69331401D01*
X194674035Y-69137830D01*
X194773903Y-68923663D01*
X194835063Y-68695408D01*
X194855659Y-68460000D01*
X194835063Y-68224592D01*
X194773903Y-67996337D01*
X194674035Y-67782171D01*
X194596596Y-67671575D01*
X194538494Y-67588597D01*
X194371402Y-67421506D01*
X194371401Y-67421505D01*
X194185405Y-67291269D01*
X194141781Y-67236692D01*
X194134588Y-67167193D01*
X194166110Y-67104839D01*
X194185405Y-67088119D01*
X194371082Y-66958105D01*
X194538105Y-66791082D01*
X194673600Y-66597578D01*
X194773429Y-66383492D01*
X194773432Y-66383486D01*
X194830636Y-66170000D01*
X193933012Y-66170000D01*
X193965925Y-66112993D01*
X194000000Y-65985826D01*
X194000000Y-65854174D01*
X193965925Y-65727007D01*
X193933012Y-65670000D01*
X194830636Y-65670000D01*
X194830635Y-65669999D01*
X194773432Y-65456513D01*
X194773429Y-65456507D01*
X194673600Y-65242422D01*
X194673599Y-65242420D01*
X194538113Y-65048926D01*
X194538108Y-65048920D01*
X194371078Y-64881890D01*
X194185405Y-64751879D01*
X194141780Y-64697302D01*
X194134588Y-64627804D01*
X194166110Y-64565449D01*
X194185406Y-64548730D01*
X194303221Y-64466235D01*
X194371401Y-64418495D01*
X194538495Y-64251401D01*
X194674035Y-64057830D01*
X194773903Y-63843663D01*
X194782225Y-63812605D01*
X213129357Y-63812605D01*
X213149890Y-64060412D01*
X213149892Y-64060424D01*
X213210936Y-64301481D01*
X213310826Y-64529206D01*
X213446833Y-64737382D01*
X213479245Y-64772591D01*
X213615256Y-64920338D01*
X213811491Y-65073074D01*
X214030190Y-65191428D01*
X214265386Y-65272171D01*
X214510665Y-65313100D01*
X214759335Y-65313100D01*
X215004614Y-65272171D01*
X215239810Y-65191428D01*
X215458509Y-65073074D01*
X215654744Y-64920338D01*
X215823164Y-64737385D01*
X215959173Y-64529207D01*
X216059063Y-64301481D01*
X216120108Y-64060421D01*
X216120109Y-64060412D01*
X216140643Y-63812605D01*
X216140643Y-63812594D01*
X216120109Y-63564787D01*
X216120107Y-63564775D01*
X216059063Y-63323718D01*
X215959173Y-63095993D01*
X215823166Y-62887817D01*
X215801557Y-62864344D01*
X215654744Y-62704862D01*
X215458509Y-62552126D01*
X215458507Y-62552125D01*
X215458506Y-62552124D01*
X215239811Y-62433772D01*
X215239802Y-62433769D01*
X215004616Y-62353029D01*
X214759335Y-62312100D01*
X214510665Y-62312100D01*
X214265383Y-62353029D01*
X214030197Y-62433769D01*
X214030188Y-62433772D01*
X213811493Y-62552124D01*
X213615257Y-62704861D01*
X213446833Y-62887817D01*
X213310826Y-63095993D01*
X213210936Y-63323718D01*
X213149892Y-63564775D01*
X213149890Y-63564787D01*
X213129357Y-63812594D01*
X213129357Y-63812605D01*
X194782225Y-63812605D01*
X194835063Y-63615408D01*
X194855659Y-63380000D01*
X194835063Y-63144592D01*
X194773903Y-62916337D01*
X194674035Y-62702171D01*
X194596596Y-62591575D01*
X194538494Y-62508597D01*
X194371402Y-62341506D01*
X194371396Y-62341501D01*
X194185842Y-62211575D01*
X194142217Y-62156998D01*
X194135023Y-62087500D01*
X194166546Y-62025145D01*
X194185842Y-62008425D01*
X194332345Y-61905842D01*
X194371401Y-61878495D01*
X194538495Y-61711401D01*
X194674035Y-61517830D01*
X194773903Y-61303663D01*
X194835063Y-61075408D01*
X194855659Y-60840000D01*
X194835063Y-60604592D01*
X194773903Y-60376337D01*
X194765448Y-60358205D01*
X213129859Y-60358205D01*
X213150385Y-60605929D01*
X213150387Y-60605938D01*
X213211412Y-60846917D01*
X213311266Y-61074564D01*
X213411564Y-61228082D01*
X214152037Y-60487609D01*
X214169075Y-60551193D01*
X214234901Y-60665207D01*
X214327993Y-60758299D01*
X214442007Y-60824125D01*
X214505590Y-60841162D01*
X213764942Y-61581809D01*
X213811768Y-61618255D01*
X213811770Y-61618256D01*
X214030385Y-61736564D01*
X214030396Y-61736569D01*
X214265506Y-61817283D01*
X214510707Y-61858200D01*
X214759293Y-61858200D01*
X215004493Y-61817283D01*
X215239603Y-61736569D01*
X215239614Y-61736564D01*
X215458228Y-61618257D01*
X215458231Y-61618255D01*
X215505056Y-61581809D01*
X214764409Y-60841162D01*
X214827993Y-60824125D01*
X214942007Y-60758299D01*
X215035099Y-60665207D01*
X215100925Y-60551193D01*
X215117962Y-60487610D01*
X215858434Y-61228082D01*
X215958731Y-61074569D01*
X216058587Y-60846917D01*
X216119612Y-60605938D01*
X216119614Y-60605929D01*
X216140141Y-60358205D01*
X216140141Y-60358194D01*
X216119614Y-60110470D01*
X216119612Y-60110461D01*
X216058587Y-59869482D01*
X215958731Y-59641830D01*
X215858434Y-59488316D01*
X215117962Y-60228789D01*
X215100925Y-60165207D01*
X215035099Y-60051193D01*
X214942007Y-59958101D01*
X214827993Y-59892275D01*
X214764410Y-59875237D01*
X215505057Y-59134590D01*
X215505056Y-59134589D01*
X215458229Y-59098143D01*
X215239614Y-58979835D01*
X215239603Y-58979830D01*
X215004493Y-58899116D01*
X214759293Y-58858200D01*
X214510707Y-58858200D01*
X214265506Y-58899116D01*
X214030396Y-58979830D01*
X214030390Y-58979832D01*
X213811761Y-59098149D01*
X213764942Y-59134588D01*
X213764942Y-59134590D01*
X214505590Y-59875237D01*
X214442007Y-59892275D01*
X214327993Y-59958101D01*
X214234901Y-60051193D01*
X214169075Y-60165207D01*
X214152037Y-60228789D01*
X213411564Y-59488316D01*
X213311267Y-59641832D01*
X213211412Y-59869482D01*
X213150387Y-60110461D01*
X213150385Y-60110470D01*
X213129859Y-60358194D01*
X213129859Y-60358205D01*
X194765448Y-60358205D01*
X194674035Y-60162171D01*
X194637828Y-60110461D01*
X194538494Y-59968597D01*
X194371402Y-59801506D01*
X194371401Y-59801505D01*
X194185405Y-59671269D01*
X194141781Y-59616692D01*
X194134588Y-59547193D01*
X194166110Y-59484839D01*
X194185405Y-59468119D01*
X194371082Y-59338105D01*
X194538105Y-59171082D01*
X194673600Y-58977578D01*
X194773429Y-58763492D01*
X194773432Y-58763486D01*
X194830636Y-58550000D01*
X193933012Y-58550000D01*
X193965925Y-58492993D01*
X194000000Y-58365826D01*
X194000000Y-58234174D01*
X193997436Y-58224605D01*
X228242357Y-58224605D01*
X228262890Y-58472412D01*
X228262892Y-58472424D01*
X228323936Y-58713481D01*
X228423826Y-58941206D01*
X228559833Y-59149382D01*
X228559836Y-59149385D01*
X228728256Y-59332338D01*
X228924491Y-59485074D01*
X229143190Y-59603428D01*
X229378386Y-59684171D01*
X229623665Y-59725100D01*
X229872335Y-59725100D01*
X230117614Y-59684171D01*
X230352810Y-59603428D01*
X230571509Y-59485074D01*
X230767744Y-59332338D01*
X230926771Y-59159588D01*
X230986657Y-59123599D01*
X231056495Y-59125699D01*
X231109228Y-59159588D01*
X231268256Y-59332338D01*
X231464491Y-59485074D01*
X231683190Y-59603428D01*
X231918386Y-59684171D01*
X232163665Y-59725100D01*
X232412335Y-59725100D01*
X232657614Y-59684171D01*
X232892810Y-59603428D01*
X233111509Y-59485074D01*
X233307744Y-59332338D01*
X233466771Y-59159588D01*
X233526657Y-59123599D01*
X233596495Y-59125699D01*
X233649228Y-59159588D01*
X233808256Y-59332338D01*
X234004491Y-59485074D01*
X234223190Y-59603428D01*
X234458386Y-59684171D01*
X234703665Y-59725100D01*
X234952335Y-59725100D01*
X235197614Y-59684171D01*
X235432810Y-59603428D01*
X235651509Y-59485074D01*
X235847744Y-59332338D01*
X236016164Y-59149385D01*
X236152173Y-58941207D01*
X236252063Y-58713481D01*
X236313108Y-58472421D01*
X236315414Y-58444592D01*
X236333643Y-58224605D01*
X236333643Y-58224594D01*
X236313109Y-57976787D01*
X236313107Y-57976775D01*
X236252063Y-57735718D01*
X236152173Y-57507993D01*
X236016166Y-57299817D01*
X235994557Y-57276344D01*
X235847744Y-57116862D01*
X235764991Y-57052452D01*
X235724179Y-56995743D01*
X235720504Y-56925970D01*
X235755136Y-56865287D01*
X235764985Y-56856751D01*
X235847744Y-56792338D01*
X236016164Y-56609385D01*
X236152173Y-56401207D01*
X236252063Y-56173481D01*
X236313108Y-55932421D01*
X236313109Y-55932412D01*
X236333643Y-55684605D01*
X236333643Y-55684594D01*
X236313109Y-55436787D01*
X236313107Y-55436775D01*
X236252063Y-55195718D01*
X236152173Y-54967993D01*
X236016166Y-54759817D01*
X235980893Y-54721501D01*
X235847744Y-54576862D01*
X235764991Y-54512452D01*
X235724179Y-54455743D01*
X235720504Y-54385970D01*
X235755136Y-54325287D01*
X235764985Y-54316751D01*
X235847744Y-54252338D01*
X236016164Y-54069385D01*
X236152173Y-53861207D01*
X236252063Y-53633481D01*
X236313108Y-53392421D01*
X236315414Y-53364592D01*
X236333643Y-53144605D01*
X236333643Y-53144594D01*
X236313109Y-52896787D01*
X236313107Y-52896775D01*
X236252063Y-52655718D01*
X236152173Y-52427993D01*
X236016166Y-52219817D01*
X235994557Y-52196344D01*
X235847744Y-52036862D01*
X235764991Y-51972452D01*
X235724179Y-51915743D01*
X235720504Y-51845970D01*
X235755136Y-51785287D01*
X235764985Y-51776751D01*
X235847744Y-51712338D01*
X236016164Y-51529385D01*
X236152173Y-51321207D01*
X236252063Y-51093481D01*
X236313108Y-50852421D01*
X236315414Y-50824592D01*
X236333643Y-50604605D01*
X236333643Y-50604594D01*
X236313109Y-50356787D01*
X236313107Y-50356775D01*
X236252063Y-50115718D01*
X236152173Y-49887993D01*
X236016166Y-49679817D01*
X235974840Y-49634925D01*
X235847744Y-49496862D01*
X235651509Y-49344126D01*
X235651507Y-49344125D01*
X235651506Y-49344124D01*
X235432811Y-49225772D01*
X235432802Y-49225769D01*
X235197616Y-49145029D01*
X234952335Y-49104100D01*
X234703665Y-49104100D01*
X234458383Y-49145029D01*
X234223197Y-49225769D01*
X234223188Y-49225772D01*
X234004493Y-49344124D01*
X233808257Y-49496861D01*
X233649230Y-49669610D01*
X233589342Y-49705601D01*
X233519504Y-49703500D01*
X233466770Y-49669610D01*
X233427108Y-49626526D01*
X233307744Y-49496862D01*
X233111509Y-49344126D01*
X233111507Y-49344125D01*
X233111506Y-49344124D01*
X232892811Y-49225772D01*
X232892802Y-49225769D01*
X232657616Y-49145029D01*
X232412335Y-49104100D01*
X232163665Y-49104100D01*
X231918383Y-49145029D01*
X231683197Y-49225769D01*
X231683188Y-49225772D01*
X231464493Y-49344124D01*
X231268257Y-49496861D01*
X231109230Y-49669610D01*
X231049342Y-49705601D01*
X230979504Y-49703500D01*
X230926770Y-49669610D01*
X230887108Y-49626526D01*
X230767744Y-49496862D01*
X230571509Y-49344126D01*
X230571507Y-49344125D01*
X230571506Y-49344124D01*
X230352811Y-49225772D01*
X230352802Y-49225769D01*
X230117616Y-49145029D01*
X229872335Y-49104100D01*
X229623665Y-49104100D01*
X229378383Y-49145029D01*
X229143197Y-49225769D01*
X229143188Y-49225772D01*
X228924493Y-49344124D01*
X228728257Y-49496861D01*
X228559833Y-49679817D01*
X228423826Y-49887993D01*
X228323936Y-50115718D01*
X228262892Y-50356775D01*
X228262890Y-50356787D01*
X228242357Y-50604594D01*
X228242357Y-50604605D01*
X228262890Y-50852412D01*
X228262892Y-50852424D01*
X228323936Y-51093481D01*
X228423826Y-51321206D01*
X228559833Y-51529382D01*
X228559836Y-51529385D01*
X228728256Y-51712338D01*
X228811008Y-51776747D01*
X228851821Y-51833457D01*
X228855496Y-51903230D01*
X228820864Y-51963913D01*
X228811014Y-51972448D01*
X228752400Y-52018069D01*
X228728257Y-52036861D01*
X228559833Y-52219817D01*
X228423826Y-52427993D01*
X228323936Y-52655718D01*
X228262892Y-52896775D01*
X228262890Y-52896787D01*
X228242357Y-53144594D01*
X228242357Y-53144605D01*
X228262890Y-53392412D01*
X228262892Y-53392424D01*
X228323936Y-53633481D01*
X228423826Y-53861206D01*
X228559833Y-54069382D01*
X228559836Y-54069385D01*
X228728256Y-54252338D01*
X228811008Y-54316747D01*
X228851821Y-54373457D01*
X228855496Y-54443230D01*
X228820864Y-54503913D01*
X228811014Y-54512448D01*
X228752400Y-54558069D01*
X228728257Y-54576861D01*
X228559833Y-54759817D01*
X228423826Y-54967993D01*
X228323936Y-55195718D01*
X228262892Y-55436775D01*
X228262890Y-55436787D01*
X228242357Y-55684594D01*
X228242357Y-55684605D01*
X228262890Y-55932412D01*
X228262892Y-55932424D01*
X228323936Y-56173481D01*
X228423826Y-56401206D01*
X228559833Y-56609382D01*
X228559836Y-56609385D01*
X228728256Y-56792338D01*
X228811008Y-56856747D01*
X228851821Y-56913457D01*
X228855496Y-56983230D01*
X228820864Y-57043913D01*
X228811014Y-57052448D01*
X228779083Y-57077302D01*
X228728257Y-57116861D01*
X228559833Y-57299817D01*
X228423826Y-57507993D01*
X228323936Y-57735718D01*
X228262892Y-57976775D01*
X228262890Y-57976787D01*
X228242357Y-58224594D01*
X228242357Y-58224605D01*
X193997436Y-58224605D01*
X193965925Y-58107007D01*
X193933012Y-58050000D01*
X194830636Y-58050000D01*
X194830635Y-58049999D01*
X194773432Y-57836513D01*
X194773429Y-57836507D01*
X194673600Y-57622422D01*
X194673599Y-57622420D01*
X194538113Y-57428926D01*
X194538108Y-57428920D01*
X194371078Y-57261890D01*
X194185405Y-57131879D01*
X194141780Y-57077302D01*
X194134588Y-57007804D01*
X194166110Y-56945449D01*
X194185406Y-56928730D01*
X194276012Y-56865287D01*
X194371401Y-56798495D01*
X194538495Y-56631401D01*
X194674035Y-56437830D01*
X194773903Y-56223663D01*
X194835063Y-55995408D01*
X194855659Y-55760000D01*
X194835063Y-55524592D01*
X194773903Y-55296337D01*
X194674035Y-55082171D01*
X194596596Y-54971575D01*
X194538494Y-54888597D01*
X194371402Y-54721506D01*
X194371395Y-54721501D01*
X194177834Y-54585967D01*
X194177830Y-54585965D01*
X194158306Y-54576861D01*
X193963663Y-54486097D01*
X193963659Y-54486096D01*
X193963655Y-54486094D01*
X193735413Y-54424938D01*
X193735403Y-54424936D01*
X193500001Y-54404341D01*
X193499999Y-54404341D01*
X193264596Y-54424936D01*
X193264586Y-54424938D01*
X193036344Y-54486094D01*
X193036335Y-54486098D01*
X192822171Y-54585964D01*
X192822169Y-54585965D01*
X192628597Y-54721505D01*
X192461505Y-54888597D01*
X192325965Y-55082169D01*
X192325964Y-55082171D01*
X192226098Y-55296335D01*
X192226094Y-55296344D01*
X192164938Y-55524586D01*
X192164936Y-55524596D01*
X192144341Y-55759999D01*
X192144341Y-55760000D01*
X192164936Y-55995403D01*
X192164938Y-55995413D01*
X192226094Y-56223655D01*
X192226096Y-56223659D01*
X192226097Y-56223663D01*
X192308887Y-56401206D01*
X192325965Y-56437830D01*
X192325967Y-56437834D01*
X192428034Y-56583599D01*
X192443666Y-56605925D01*
X192461501Y-56631395D01*
X192461506Y-56631402D01*
X192628597Y-56798493D01*
X192628603Y-56798498D01*
X192814594Y-56928730D01*
X192858219Y-56983307D01*
X192865413Y-57052805D01*
X192833890Y-57115160D01*
X192814595Y-57131880D01*
X192628922Y-57261890D01*
X192628920Y-57261891D01*
X192461891Y-57428920D01*
X192461886Y-57428926D01*
X192326400Y-57622420D01*
X192326399Y-57622422D01*
X192226570Y-57836507D01*
X192226567Y-57836513D01*
X192169364Y-58049999D01*
X192169364Y-58050000D01*
X193066988Y-58050000D01*
X193034075Y-58107007D01*
X193000000Y-58234174D01*
X193000000Y-58365826D01*
X193034075Y-58492993D01*
X193066988Y-58550000D01*
X192169364Y-58550000D01*
X192226567Y-58763486D01*
X192226570Y-58763492D01*
X192326399Y-58977578D01*
X192461894Y-59171082D01*
X192628917Y-59338105D01*
X192814595Y-59468119D01*
X192858219Y-59522696D01*
X192865412Y-59592195D01*
X192833890Y-59654549D01*
X192814595Y-59671269D01*
X192628594Y-59801508D01*
X192461505Y-59968597D01*
X192325965Y-60162169D01*
X192325964Y-60162171D01*
X192226098Y-60376335D01*
X192226094Y-60376344D01*
X192164938Y-60604586D01*
X192164936Y-60604596D01*
X192144341Y-60839999D01*
X192144341Y-60840000D01*
X192164936Y-61075403D01*
X192164938Y-61075413D01*
X192226094Y-61303655D01*
X192226096Y-61303659D01*
X192226097Y-61303663D01*
X192325965Y-61517830D01*
X192325967Y-61517834D01*
X192461501Y-61711395D01*
X192461506Y-61711402D01*
X192628597Y-61878493D01*
X192628603Y-61878498D01*
X192814158Y-62008425D01*
X192857783Y-62063002D01*
X192864977Y-62132500D01*
X192833454Y-62194855D01*
X192814158Y-62211575D01*
X192628597Y-62341505D01*
X192461505Y-62508597D01*
X192325965Y-62702169D01*
X192325964Y-62702171D01*
X192226098Y-62916335D01*
X192226094Y-62916344D01*
X192164938Y-63144586D01*
X192164936Y-63144596D01*
X192144341Y-63379999D01*
X192144341Y-63380000D01*
X192164936Y-63615403D01*
X192164938Y-63615413D01*
X192226094Y-63843655D01*
X192226096Y-63843659D01*
X192226097Y-63843663D01*
X192325965Y-64057830D01*
X192325967Y-64057834D01*
X192434281Y-64212521D01*
X192443666Y-64225925D01*
X192461501Y-64251395D01*
X192461506Y-64251402D01*
X192628597Y-64418493D01*
X192628603Y-64418498D01*
X192814594Y-64548730D01*
X192858219Y-64603307D01*
X192865413Y-64672805D01*
X192833890Y-64735160D01*
X192814595Y-64751880D01*
X192628922Y-64881890D01*
X192628920Y-64881891D01*
X192461891Y-65048920D01*
X192461886Y-65048926D01*
X192326400Y-65242420D01*
X192326399Y-65242422D01*
X192226570Y-65456507D01*
X192226567Y-65456513D01*
X192169364Y-65669999D01*
X192169364Y-65670000D01*
X193066988Y-65670000D01*
X193034075Y-65727007D01*
X193000000Y-65854174D01*
X193000000Y-65985826D01*
X193034075Y-66112993D01*
X193066988Y-66170000D01*
X192169364Y-66170000D01*
X192226567Y-66383486D01*
X192226570Y-66383492D01*
X192326399Y-66597578D01*
X192461894Y-66791082D01*
X192628917Y-66958105D01*
X192814595Y-67088119D01*
X192858219Y-67142696D01*
X192865412Y-67212195D01*
X192833890Y-67274549D01*
X192814595Y-67291269D01*
X192628594Y-67421508D01*
X192461505Y-67588597D01*
X192325965Y-67782169D01*
X192325964Y-67782171D01*
X192226098Y-67996335D01*
X192226094Y-67996344D01*
X192164938Y-68224586D01*
X192164936Y-68224596D01*
X192144341Y-68459999D01*
X192144341Y-68460000D01*
X133295802Y-68460000D01*
X133273433Y-68376516D01*
X133273429Y-68376507D01*
X133173600Y-68162423D01*
X133173599Y-68162421D01*
X133114925Y-68078626D01*
X133114925Y-68078625D01*
X132482962Y-68710589D01*
X132465925Y-68647007D01*
X132400099Y-68532993D01*
X132307007Y-68439901D01*
X132192993Y-68374075D01*
X132129410Y-68357037D01*
X132761373Y-67725073D01*
X132761373Y-67725072D01*
X132685405Y-67671880D01*
X132641780Y-67617304D01*
X132634586Y-67547805D01*
X132666108Y-67485451D01*
X132685399Y-67468734D01*
X132871401Y-67338495D01*
X133038495Y-67171401D01*
X133174035Y-66977830D01*
X133273903Y-66763663D01*
X133335063Y-66535408D01*
X133355659Y-66300000D01*
X133335063Y-66064592D01*
X133276117Y-65844599D01*
X133273905Y-65836344D01*
X133273904Y-65836343D01*
X133273903Y-65836337D01*
X133174035Y-65622171D01*
X133168425Y-65614158D01*
X133038494Y-65428597D01*
X132871402Y-65261506D01*
X132871396Y-65261501D01*
X132685842Y-65131575D01*
X132642217Y-65076998D01*
X132635023Y-65007500D01*
X132666546Y-64945145D01*
X132685842Y-64928425D01*
X132762248Y-64874925D01*
X132871401Y-64798495D01*
X133038495Y-64631401D01*
X133174035Y-64437830D01*
X133273903Y-64223663D01*
X133335063Y-63995408D01*
X133355659Y-63760000D01*
X133335063Y-63524592D01*
X133273903Y-63296337D01*
X133174035Y-63082171D01*
X133168731Y-63074595D01*
X133038494Y-62888597D01*
X132871402Y-62721506D01*
X132871396Y-62721501D01*
X132685842Y-62591575D01*
X132642217Y-62536998D01*
X132635023Y-62467500D01*
X132666546Y-62405145D01*
X132685842Y-62388425D01*
X132708026Y-62372891D01*
X132871401Y-62258495D01*
X133038495Y-62091401D01*
X133174035Y-61897830D01*
X133273903Y-61683663D01*
X133335063Y-61455408D01*
X133355659Y-61220000D01*
X133335063Y-60984592D01*
X133273903Y-60756337D01*
X133174035Y-60542171D01*
X133168425Y-60534158D01*
X133038494Y-60348597D01*
X132871402Y-60181506D01*
X132871396Y-60181501D01*
X132685842Y-60051575D01*
X132642217Y-59996998D01*
X132635023Y-59927500D01*
X132666546Y-59865145D01*
X132685842Y-59848425D01*
X132752849Y-59801506D01*
X132871401Y-59718495D01*
X133038495Y-59551401D01*
X133174035Y-59357830D01*
X133273903Y-59143663D01*
X133335063Y-58915408D01*
X133355659Y-58680000D01*
X133335063Y-58444592D01*
X133276117Y-58224600D01*
X133273905Y-58216344D01*
X133273904Y-58216343D01*
X133273903Y-58216337D01*
X133174035Y-58002171D01*
X133168425Y-57994158D01*
X133038494Y-57808597D01*
X132871402Y-57641506D01*
X132871396Y-57641501D01*
X132685842Y-57511575D01*
X132642217Y-57456998D01*
X132635023Y-57387500D01*
X132666546Y-57325145D01*
X132685842Y-57308425D01*
X132762248Y-57254925D01*
X132871401Y-57178495D01*
X133038495Y-57011401D01*
X133174035Y-56817830D01*
X133273903Y-56603663D01*
X133335063Y-56375408D01*
X133355659Y-56140000D01*
X133335063Y-55904592D01*
X133276117Y-55684600D01*
X133273905Y-55676344D01*
X133273904Y-55676343D01*
X133273903Y-55676337D01*
X133174035Y-55462171D01*
X133168731Y-55454595D01*
X133038494Y-55268597D01*
X132871402Y-55101506D01*
X132871396Y-55101501D01*
X132685842Y-54971575D01*
X132642217Y-54916998D01*
X132635023Y-54847500D01*
X132666546Y-54785145D01*
X132685842Y-54768425D01*
X132752849Y-54721506D01*
X132871401Y-54638495D01*
X133038495Y-54471401D01*
X133174035Y-54277830D01*
X133273903Y-54063663D01*
X133335063Y-53835408D01*
X133355659Y-53600000D01*
X133335063Y-53364592D01*
X133276117Y-53144600D01*
X133273905Y-53136344D01*
X133273904Y-53136343D01*
X133273903Y-53136337D01*
X133174035Y-52922171D01*
X133168425Y-52914158D01*
X133038494Y-52728597D01*
X132871402Y-52561506D01*
X132871396Y-52561501D01*
X132685842Y-52431575D01*
X132642217Y-52376998D01*
X132635023Y-52307500D01*
X132666546Y-52245145D01*
X132685842Y-52228425D01*
X132712712Y-52209610D01*
X132871401Y-52098495D01*
X133038495Y-51931401D01*
X133174035Y-51737830D01*
X133273903Y-51523663D01*
X133335063Y-51295408D01*
X133355659Y-51060000D01*
X133335063Y-50824592D01*
X133276117Y-50604600D01*
X133273905Y-50596344D01*
X133273904Y-50596343D01*
X133273903Y-50596337D01*
X133174035Y-50382171D01*
X133168425Y-50374158D01*
X133038494Y-50188597D01*
X132871402Y-50021506D01*
X132871401Y-50021505D01*
X132685405Y-49891269D01*
X132641781Y-49836692D01*
X132634588Y-49767193D01*
X132666110Y-49704839D01*
X132685405Y-49688119D01*
X132761373Y-49634925D01*
X132129409Y-49002962D01*
X132192993Y-48985925D01*
X132307007Y-48920099D01*
X132400099Y-48827007D01*
X132465925Y-48712993D01*
X132482962Y-48649410D01*
X133114925Y-49281373D01*
X133114926Y-49281373D01*
X133173598Y-49197582D01*
X133173600Y-49197578D01*
X133273429Y-48983492D01*
X133273433Y-48983483D01*
X133334567Y-48755326D01*
X133334569Y-48755315D01*
X133355157Y-48520001D01*
X133355157Y-48519998D01*
X133334569Y-48284684D01*
X133334567Y-48284673D01*
X133273433Y-48056516D01*
X133273429Y-48056507D01*
X133173600Y-47842423D01*
X133173599Y-47842421D01*
X133114925Y-47758626D01*
X133114925Y-47758625D01*
X132482962Y-48390589D01*
X132465925Y-48327007D01*
X132400099Y-48212993D01*
X132307007Y-48119901D01*
X132192993Y-48054075D01*
X132129410Y-48037037D01*
X132761373Y-47405073D01*
X132761373Y-47405072D01*
X132685405Y-47351880D01*
X132641780Y-47297304D01*
X132634586Y-47227805D01*
X132666108Y-47165451D01*
X132685399Y-47148734D01*
X132871401Y-47018495D01*
X133038495Y-46851401D01*
X133174035Y-46657830D01*
X133273903Y-46443663D01*
X133335063Y-46215408D01*
X133355659Y-45980000D01*
X133335063Y-45744592D01*
X133276117Y-45524600D01*
X133273905Y-45516344D01*
X133273904Y-45516343D01*
X133273903Y-45516337D01*
X133174035Y-45302171D01*
X133168425Y-45294158D01*
X133038494Y-45108597D01*
X132871402Y-44941506D01*
X132871396Y-44941501D01*
X132685842Y-44811575D01*
X132642217Y-44756998D01*
X132635023Y-44687500D01*
X132666546Y-44625145D01*
X132685842Y-44608425D01*
X132762248Y-44554925D01*
X132871401Y-44478495D01*
X133038495Y-44311401D01*
X133174035Y-44117830D01*
X133273903Y-43903663D01*
X133335063Y-43675408D01*
X133355659Y-43440000D01*
X133335063Y-43204592D01*
X133280245Y-43000005D01*
X138944457Y-43000005D01*
X138964606Y-43320283D01*
X138964607Y-43320290D01*
X139024745Y-43635542D01*
X139123916Y-43940759D01*
X139123918Y-43940764D01*
X139260558Y-44231138D01*
X139260562Y-44231144D01*
X139432520Y-44502108D01*
X139432522Y-44502111D01*
X139616973Y-44725074D01*
X139637089Y-44749390D01*
X139841672Y-44941505D01*
X139871034Y-44969078D01*
X139871044Y-44969086D01*
X140130660Y-45157708D01*
X140130666Y-45157711D01*
X140130672Y-45157716D01*
X140411903Y-45312324D01*
X140710294Y-45430466D01*
X140710293Y-45430466D01*
X141012142Y-45507967D01*
X141021139Y-45510277D01*
X141069093Y-45516335D01*
X141339524Y-45550499D01*
X141339533Y-45550499D01*
X141339536Y-45550500D01*
X141339538Y-45550500D01*
X141660462Y-45550500D01*
X141660464Y-45550500D01*
X141660467Y-45550499D01*
X141660475Y-45550499D01*
X141865483Y-45524600D01*
X141978861Y-45510277D01*
X142289706Y-45430466D01*
X142588097Y-45312324D01*
X142869328Y-45157716D01*
X143128964Y-44969080D01*
X143362911Y-44749390D01*
X143567478Y-44502110D01*
X143739439Y-44231142D01*
X143803377Y-44095268D01*
X146150000Y-44095268D01*
X146160215Y-44239958D01*
X146160217Y-44239968D01*
X146214313Y-44480165D01*
X146214315Y-44480172D01*
X146306244Y-44708585D01*
X146433620Y-44919289D01*
X146433627Y-44919299D01*
X146593153Y-45106846D01*
X146780700Y-45266372D01*
X146780710Y-45266379D01*
X146991414Y-45393755D01*
X147219827Y-45485684D01*
X147219834Y-45485686D01*
X147460031Y-45539782D01*
X147460041Y-45539784D01*
X147604731Y-45549999D01*
X147604734Y-45550000D01*
X148450000Y-45550000D01*
X148450000Y-44327231D01*
X148593753Y-44350000D01*
X148806247Y-44350000D01*
X148950000Y-44327231D01*
X148950000Y-45550000D01*
X149795266Y-45550000D01*
X149795268Y-45549999D01*
X149939958Y-45539784D01*
X149939968Y-45539782D01*
X150007357Y-45524605D01*
X228242357Y-45524605D01*
X228262890Y-45772412D01*
X228262892Y-45772424D01*
X228323936Y-46013481D01*
X228423826Y-46241206D01*
X228559833Y-46449382D01*
X228559836Y-46449385D01*
X228728256Y-46632338D01*
X228924491Y-46785074D01*
X229143190Y-46903428D01*
X229378386Y-46984171D01*
X229623665Y-47025100D01*
X229872335Y-47025100D01*
X230117614Y-46984171D01*
X230352810Y-46903428D01*
X230571509Y-46785074D01*
X230767744Y-46632338D01*
X230926771Y-46459588D01*
X230986657Y-46423599D01*
X231056495Y-46425699D01*
X231109228Y-46459588D01*
X231268256Y-46632338D01*
X231464491Y-46785074D01*
X231683190Y-46903428D01*
X231918386Y-46984171D01*
X232163665Y-47025100D01*
X232412335Y-47025100D01*
X232657614Y-46984171D01*
X232892810Y-46903428D01*
X233111509Y-46785074D01*
X233307744Y-46632338D01*
X233466771Y-46459588D01*
X233526657Y-46423599D01*
X233596495Y-46425699D01*
X233649228Y-46459588D01*
X233808256Y-46632338D01*
X234004491Y-46785074D01*
X234223190Y-46903428D01*
X234458386Y-46984171D01*
X234703665Y-47025100D01*
X234952335Y-47025100D01*
X235197614Y-46984171D01*
X235432810Y-46903428D01*
X235651509Y-46785074D01*
X235847744Y-46632338D01*
X236016164Y-46449385D01*
X236152173Y-46241207D01*
X236252063Y-46013481D01*
X236313108Y-45772421D01*
X236315414Y-45744592D01*
X236333643Y-45524605D01*
X236333643Y-45524594D01*
X236313109Y-45276787D01*
X236313107Y-45276775D01*
X236252063Y-45035718D01*
X236152173Y-44807993D01*
X236016166Y-44599817D01*
X235926218Y-44502108D01*
X235847744Y-44416862D01*
X235764991Y-44352452D01*
X235724179Y-44295743D01*
X235720504Y-44225970D01*
X235755136Y-44165287D01*
X235764985Y-44156751D01*
X235847744Y-44092338D01*
X236016164Y-43909385D01*
X236152173Y-43701207D01*
X236252063Y-43473481D01*
X236313108Y-43232421D01*
X236313109Y-43232412D01*
X236333643Y-42984605D01*
X236333643Y-42984594D01*
X236313109Y-42736787D01*
X236313107Y-42736775D01*
X236252063Y-42495718D01*
X236152173Y-42267993D01*
X236016166Y-42059817D01*
X235933739Y-41970278D01*
X235847744Y-41876862D01*
X235764991Y-41812452D01*
X235724179Y-41755743D01*
X235720504Y-41685970D01*
X235755136Y-41625287D01*
X235764985Y-41616751D01*
X235847744Y-41552338D01*
X236016164Y-41369385D01*
X236152173Y-41161207D01*
X236252063Y-40933481D01*
X236313108Y-40692421D01*
X236313501Y-40687676D01*
X236333643Y-40444605D01*
X236333643Y-40444594D01*
X236313109Y-40196787D01*
X236313107Y-40196775D01*
X236252063Y-39955718D01*
X236152173Y-39727993D01*
X236016166Y-39519817D01*
X235907944Y-39402257D01*
X235847744Y-39336862D01*
X235764991Y-39272452D01*
X235724179Y-39215743D01*
X235720504Y-39145970D01*
X235755136Y-39085287D01*
X235764985Y-39076751D01*
X235847744Y-39012338D01*
X236016164Y-38829385D01*
X236152173Y-38621207D01*
X236252063Y-38393481D01*
X236313108Y-38152421D01*
X236313109Y-38152412D01*
X236333643Y-37904605D01*
X236333643Y-37904594D01*
X236313109Y-37656787D01*
X236313107Y-37656775D01*
X236252063Y-37415718D01*
X236152173Y-37187993D01*
X236016166Y-36979817D01*
X235976924Y-36937189D01*
X235847744Y-36796862D01*
X235651509Y-36644126D01*
X235651507Y-36644125D01*
X235651506Y-36644124D01*
X235432811Y-36525772D01*
X235432802Y-36525769D01*
X235197616Y-36445029D01*
X234952335Y-36404100D01*
X234703665Y-36404100D01*
X234458383Y-36445029D01*
X234223197Y-36525769D01*
X234223188Y-36525772D01*
X234004493Y-36644124D01*
X233808257Y-36796861D01*
X233649230Y-36969610D01*
X233589342Y-37005601D01*
X233519504Y-37003500D01*
X233466770Y-36969610D01*
X233368386Y-36862737D01*
X233307744Y-36796862D01*
X233111509Y-36644126D01*
X233111507Y-36644125D01*
X233111506Y-36644124D01*
X232892811Y-36525772D01*
X232892802Y-36525769D01*
X232657616Y-36445029D01*
X232412335Y-36404100D01*
X232163665Y-36404100D01*
X231918383Y-36445029D01*
X231683197Y-36525769D01*
X231683188Y-36525772D01*
X231464493Y-36644124D01*
X231268257Y-36796861D01*
X231109230Y-36969610D01*
X231049342Y-37005601D01*
X230979504Y-37003500D01*
X230926770Y-36969610D01*
X230828386Y-36862737D01*
X230767744Y-36796862D01*
X230571509Y-36644126D01*
X230571507Y-36644125D01*
X230571506Y-36644124D01*
X230352811Y-36525772D01*
X230352802Y-36525769D01*
X230117616Y-36445029D01*
X229872335Y-36404100D01*
X229623665Y-36404100D01*
X229378383Y-36445029D01*
X229143197Y-36525769D01*
X229143188Y-36525772D01*
X228924493Y-36644124D01*
X228728257Y-36796861D01*
X228559833Y-36979817D01*
X228423826Y-37187993D01*
X228323936Y-37415718D01*
X228262892Y-37656775D01*
X228262890Y-37656787D01*
X228242357Y-37904594D01*
X228242357Y-37904605D01*
X228262890Y-38152412D01*
X228262892Y-38152424D01*
X228323936Y-38393481D01*
X228423826Y-38621206D01*
X228559833Y-38829382D01*
X228588019Y-38860000D01*
X228728256Y-39012338D01*
X228811008Y-39076747D01*
X228851821Y-39133457D01*
X228855496Y-39203230D01*
X228820864Y-39263913D01*
X228811014Y-39272448D01*
X228761557Y-39310943D01*
X228728257Y-39336861D01*
X228559833Y-39519817D01*
X228423826Y-39727993D01*
X228323936Y-39955718D01*
X228262892Y-40196775D01*
X228262890Y-40196787D01*
X228242357Y-40444594D01*
X228242357Y-40444605D01*
X228262890Y-40692412D01*
X228262892Y-40692424D01*
X228323936Y-40933481D01*
X228423826Y-41161206D01*
X228559833Y-41369382D01*
X228559836Y-41369385D01*
X228728256Y-41552338D01*
X228811008Y-41616747D01*
X228851821Y-41673457D01*
X228855496Y-41743230D01*
X228820864Y-41803913D01*
X228811014Y-41812448D01*
X228768708Y-41845377D01*
X228728257Y-41876861D01*
X228559833Y-42059817D01*
X228423826Y-42267993D01*
X228323936Y-42495718D01*
X228262892Y-42736775D01*
X228262890Y-42736787D01*
X228242357Y-42984594D01*
X228242357Y-42984605D01*
X228262890Y-43232412D01*
X228262892Y-43232424D01*
X228323936Y-43473481D01*
X228423826Y-43701206D01*
X228559833Y-43909382D01*
X228559836Y-43909385D01*
X228728256Y-44092338D01*
X228811008Y-44156747D01*
X228851821Y-44213457D01*
X228855496Y-44283230D01*
X228820864Y-44343913D01*
X228811014Y-44352448D01*
X228752400Y-44398069D01*
X228728257Y-44416861D01*
X228559833Y-44599817D01*
X228423826Y-44807993D01*
X228323936Y-45035718D01*
X228262892Y-45276775D01*
X228262890Y-45276787D01*
X228242357Y-45524594D01*
X228242357Y-45524605D01*
X150007357Y-45524605D01*
X150180165Y-45485686D01*
X150180172Y-45485684D01*
X150408585Y-45393755D01*
X150619289Y-45266379D01*
X150619299Y-45266372D01*
X150806846Y-45106846D01*
X150966372Y-44919299D01*
X150966379Y-44919289D01*
X151093755Y-44708585D01*
X151185684Y-44480172D01*
X151185686Y-44480165D01*
X151239782Y-44239968D01*
X151239784Y-44239958D01*
X151249999Y-44095268D01*
X151250000Y-44095266D01*
X151250000Y-43250000D01*
X150027231Y-43250000D01*
X150050000Y-43106247D01*
X150050000Y-42893753D01*
X150027231Y-42750000D01*
X151250000Y-42750000D01*
X151250000Y-41904734D01*
X151249999Y-41904731D01*
X151239784Y-41760041D01*
X151239782Y-41760031D01*
X151185686Y-41519834D01*
X151185684Y-41519827D01*
X151093755Y-41291414D01*
X150966379Y-41080710D01*
X150966372Y-41080700D01*
X150806846Y-40893153D01*
X150619299Y-40733627D01*
X150619289Y-40733620D01*
X150408585Y-40606244D01*
X150180172Y-40514315D01*
X150180165Y-40514313D01*
X149939968Y-40460217D01*
X149939958Y-40460215D01*
X149795268Y-40450000D01*
X148950000Y-40450000D01*
X148950000Y-41672768D01*
X148806247Y-41650000D01*
X148593753Y-41650000D01*
X148450000Y-41672768D01*
X148450000Y-40450000D01*
X147604731Y-40450000D01*
X147460041Y-40460215D01*
X147460031Y-40460217D01*
X147219834Y-40514313D01*
X147219827Y-40514315D01*
X146991414Y-40606244D01*
X146780710Y-40733620D01*
X146780700Y-40733627D01*
X146593153Y-40893153D01*
X146433627Y-41080700D01*
X146433620Y-41080710D01*
X146306244Y-41291414D01*
X146214315Y-41519827D01*
X146214313Y-41519834D01*
X146160217Y-41760031D01*
X146160215Y-41760041D01*
X146150000Y-41904731D01*
X146150000Y-42750000D01*
X147372769Y-42750000D01*
X147350000Y-42893753D01*
X147350000Y-43106247D01*
X147372769Y-43250000D01*
X146150000Y-43250000D01*
X146150000Y-44095268D01*
X143803377Y-44095268D01*
X143876084Y-43940758D01*
X143975256Y-43635538D01*
X144035392Y-43320294D01*
X144035393Y-43320283D01*
X144055543Y-43000005D01*
X144055543Y-42999994D01*
X144035393Y-42679716D01*
X144035392Y-42679709D01*
X144035392Y-42679706D01*
X143975256Y-42364462D01*
X143876084Y-42059242D01*
X143819266Y-41938498D01*
X143739441Y-41768861D01*
X143739437Y-41768855D01*
X143733843Y-41760041D01*
X143618212Y-41577834D01*
X143567479Y-41497891D01*
X143567477Y-41497888D01*
X143362912Y-41250611D01*
X143240228Y-41135403D01*
X143128964Y-41030920D01*
X143128961Y-41030918D01*
X143128955Y-41030913D01*
X142869339Y-40842291D01*
X142869321Y-40842280D01*
X142588096Y-40687675D01*
X142588093Y-40687674D01*
X142289703Y-40569533D01*
X142289706Y-40569533D01*
X141978864Y-40489723D01*
X141978851Y-40489721D01*
X141660475Y-40449500D01*
X141660464Y-40449500D01*
X141339536Y-40449500D01*
X141339524Y-40449500D01*
X141021148Y-40489721D01*
X141021135Y-40489723D01*
X140710294Y-40569533D01*
X140411906Y-40687674D01*
X140411903Y-40687675D01*
X140130678Y-40842280D01*
X140130660Y-40842291D01*
X139871044Y-41030913D01*
X139871034Y-41030921D01*
X139637087Y-41250611D01*
X139432522Y-41497888D01*
X139432520Y-41497891D01*
X139260562Y-41768855D01*
X139260558Y-41768861D01*
X139123918Y-42059235D01*
X139123916Y-42059240D01*
X139024745Y-42364457D01*
X138964607Y-42679709D01*
X138964606Y-42679716D01*
X138944457Y-42999994D01*
X138944457Y-43000005D01*
X133280245Y-43000005D01*
X133276117Y-42984600D01*
X133273905Y-42976344D01*
X133273904Y-42976343D01*
X133273903Y-42976337D01*
X133174035Y-42762171D01*
X133168731Y-42754595D01*
X133038494Y-42568597D01*
X132871402Y-42401506D01*
X132871396Y-42401501D01*
X132685842Y-42271575D01*
X132642217Y-42216998D01*
X132635023Y-42147500D01*
X132666546Y-42085145D01*
X132685842Y-42068425D01*
X132826010Y-41970278D01*
X132871401Y-41938495D01*
X133038495Y-41771401D01*
X133174035Y-41577830D01*
X133273903Y-41363663D01*
X133335063Y-41135408D01*
X133355659Y-40900000D01*
X133335063Y-40664592D01*
X133276117Y-40444600D01*
X133273905Y-40436344D01*
X133273904Y-40436343D01*
X133273903Y-40436337D01*
X133174035Y-40222171D01*
X133168425Y-40214158D01*
X133038494Y-40028597D01*
X132871402Y-39861506D01*
X132871396Y-39861501D01*
X132685842Y-39731575D01*
X132642217Y-39676998D01*
X132635023Y-39607500D01*
X132666546Y-39545145D01*
X132685842Y-39528425D01*
X132762248Y-39474925D01*
X132871401Y-39398495D01*
X133038495Y-39231401D01*
X133174035Y-39037830D01*
X133273903Y-38823663D01*
X133335063Y-38595408D01*
X133355659Y-38360000D01*
X133335063Y-38124592D01*
X133314506Y-38047870D01*
X137399500Y-38047870D01*
X137399501Y-38047876D01*
X137405908Y-38107483D01*
X137456202Y-38242328D01*
X137456206Y-38242335D01*
X137542452Y-38357544D01*
X137542455Y-38357547D01*
X137657664Y-38443793D01*
X137657671Y-38443797D01*
X137792517Y-38494091D01*
X137792516Y-38494091D01*
X137799444Y-38494835D01*
X137852127Y-38500500D01*
X138847872Y-38500499D01*
X138907483Y-38494091D01*
X139042331Y-38443796D01*
X139157546Y-38357546D01*
X139243796Y-38242331D01*
X139294091Y-38107483D01*
X139300500Y-38047873D01*
X139300500Y-38047870D01*
X150899500Y-38047870D01*
X150899501Y-38047876D01*
X150905908Y-38107483D01*
X150956202Y-38242328D01*
X150956206Y-38242335D01*
X151042452Y-38357544D01*
X151042455Y-38357547D01*
X151157664Y-38443793D01*
X151157671Y-38443797D01*
X151292517Y-38494091D01*
X151292516Y-38494091D01*
X151299444Y-38494835D01*
X151352127Y-38500500D01*
X152347872Y-38500499D01*
X152407483Y-38494091D01*
X152542331Y-38443796D01*
X152657546Y-38357546D01*
X152743796Y-38242331D01*
X152794091Y-38107483D01*
X152800500Y-38047873D01*
X152800499Y-36580002D01*
X159232677Y-36580002D01*
X159251929Y-36800062D01*
X159251930Y-36800070D01*
X159309104Y-37013445D01*
X159309105Y-37013447D01*
X159309106Y-37013450D01*
X159366717Y-37136998D01*
X159402466Y-37213662D01*
X159402468Y-37213666D01*
X159529170Y-37394615D01*
X159529175Y-37394621D01*
X159685378Y-37550824D01*
X159685384Y-37550829D01*
X159866333Y-37677531D01*
X159866335Y-37677532D01*
X159866338Y-37677534D01*
X160066550Y-37770894D01*
X160279932Y-37828070D01*
X160437123Y-37841822D01*
X160499998Y-37847323D01*
X160500000Y-37847323D01*
X160500002Y-37847323D01*
X160555017Y-37842509D01*
X160720068Y-37828070D01*
X160933450Y-37770894D01*
X161133662Y-37677534D01*
X161314620Y-37550826D01*
X161470826Y-37394620D01*
X161597534Y-37213662D01*
X161690894Y-37013450D01*
X161748070Y-36800068D01*
X161764951Y-36607116D01*
X161767323Y-36580002D01*
X161767323Y-36579997D01*
X161757427Y-36466886D01*
X161748070Y-36359932D01*
X161690894Y-36146550D01*
X161597534Y-35946339D01*
X161470826Y-35765380D01*
X161314620Y-35609174D01*
X161314616Y-35609171D01*
X161314615Y-35609170D01*
X161133666Y-35482468D01*
X161133662Y-35482466D01*
X161004218Y-35422105D01*
X160997285Y-35416000D01*
X168809211Y-35416000D01*
X168827938Y-35653963D01*
X168883661Y-35886068D01*
X168975008Y-36106600D01*
X168975010Y-36106604D01*
X168975011Y-36106605D01*
X169099732Y-36310132D01*
X169254757Y-36491643D01*
X169347175Y-36570575D01*
X169403580Y-36618750D01*
X169441773Y-36677257D01*
X169445287Y-36717335D01*
X170045790Y-37317837D01*
X169999536Y-37336997D01*
X169885132Y-37413439D01*
X169787839Y-37510732D01*
X169711397Y-37625136D01*
X169692238Y-37671390D01*
X169093629Y-37072781D01*
X168975456Y-37265621D01*
X168884142Y-37486074D01*
X168828433Y-37718116D01*
X168809712Y-37956000D01*
X168828433Y-38193883D01*
X168884142Y-38425925D01*
X168975456Y-38646378D01*
X169093629Y-38839217D01*
X169692237Y-38240608D01*
X169711397Y-38286864D01*
X169787839Y-38401268D01*
X169885132Y-38498561D01*
X169999536Y-38575003D01*
X170045790Y-38594161D01*
X169447181Y-39192769D01*
X169640021Y-39310943D01*
X169860475Y-39402257D01*
X169860472Y-39402257D01*
X170092516Y-39457966D01*
X170330400Y-39476687D01*
X170568283Y-39457966D01*
X170800325Y-39402257D01*
X171020778Y-39310943D01*
X171213617Y-39192770D01*
X171213617Y-39192769D01*
X170615009Y-38594162D01*
X170661264Y-38575003D01*
X170775668Y-38498561D01*
X170872961Y-38401268D01*
X170949403Y-38286864D01*
X170968561Y-38240609D01*
X171567169Y-38839217D01*
X171567170Y-38839217D01*
X171685343Y-38646378D01*
X171776657Y-38425925D01*
X171782192Y-38402870D01*
X174374500Y-38402870D01*
X174374501Y-38402876D01*
X174380908Y-38462483D01*
X174431202Y-38597328D01*
X174431206Y-38597335D01*
X174517452Y-38712544D01*
X174517455Y-38712547D01*
X174632664Y-38798793D01*
X174632671Y-38798797D01*
X174767517Y-38849091D01*
X174767516Y-38849091D01*
X174774444Y-38849835D01*
X174827127Y-38855500D01*
X176622872Y-38855499D01*
X176682483Y-38849091D01*
X176817331Y-38798796D01*
X176932546Y-38712546D01*
X177018796Y-38597331D01*
X177020660Y-38592335D01*
X177040886Y-38538105D01*
X177068002Y-38465401D01*
X177109872Y-38409468D01*
X177175337Y-38385050D01*
X177243610Y-38399901D01*
X177271865Y-38421053D01*
X177393917Y-38543105D01*
X177587421Y-38678600D01*
X177801507Y-38778429D01*
X177801516Y-38778433D01*
X178015000Y-38835634D01*
X178015000Y-37938012D01*
X178072007Y-37970925D01*
X178199174Y-38005000D01*
X178330826Y-38005000D01*
X178457993Y-37970925D01*
X178515000Y-37938012D01*
X178515000Y-38835633D01*
X178728483Y-38778433D01*
X178728492Y-38778429D01*
X178942578Y-38678600D01*
X179136082Y-38543105D01*
X179281317Y-38397870D01*
X180609500Y-38397870D01*
X180609501Y-38397876D01*
X180615908Y-38457483D01*
X180666202Y-38592328D01*
X180666206Y-38592335D01*
X180752452Y-38707544D01*
X180752455Y-38707547D01*
X180867664Y-38793793D01*
X180867671Y-38793797D01*
X181002517Y-38844091D01*
X181002516Y-38844091D01*
X181009444Y-38844835D01*
X181062127Y-38850500D01*
X182857872Y-38850499D01*
X182917483Y-38844091D01*
X183052331Y-38793796D01*
X183167546Y-38707546D01*
X183253796Y-38592331D01*
X183303002Y-38460401D01*
X183344872Y-38404468D01*
X183410337Y-38380050D01*
X183478610Y-38394901D01*
X183506865Y-38416053D01*
X183628917Y-38538105D01*
X183822421Y-38673600D01*
X184036507Y-38773429D01*
X184036516Y-38773433D01*
X184250000Y-38830634D01*
X184250000Y-37933012D01*
X184307007Y-37965925D01*
X184434174Y-38000000D01*
X184565826Y-38000000D01*
X184692993Y-37965925D01*
X184750000Y-37933012D01*
X184750000Y-38830633D01*
X184963483Y-38773433D01*
X184963492Y-38773429D01*
X185177578Y-38673600D01*
X185371082Y-38538105D01*
X185538105Y-38371082D01*
X185673600Y-38177578D01*
X185773429Y-37963492D01*
X185773432Y-37963486D01*
X185830636Y-37750000D01*
X184933012Y-37750000D01*
X184965925Y-37692993D01*
X185000000Y-37565826D01*
X185000000Y-37434174D01*
X184965925Y-37307007D01*
X184933012Y-37250000D01*
X185830636Y-37250000D01*
X185830635Y-37249999D01*
X185773432Y-37036513D01*
X185773429Y-37036507D01*
X185673600Y-36822422D01*
X185673599Y-36822420D01*
X185538113Y-36628926D01*
X185538108Y-36628920D01*
X185371082Y-36461894D01*
X185177578Y-36326399D01*
X184963492Y-36226570D01*
X184963486Y-36226567D01*
X184750000Y-36169364D01*
X184750000Y-37066988D01*
X184692993Y-37034075D01*
X184565826Y-37000000D01*
X184434174Y-37000000D01*
X184307007Y-37034075D01*
X184250000Y-37066988D01*
X184250000Y-36169364D01*
X184249999Y-36169364D01*
X184036513Y-36226567D01*
X184036507Y-36226570D01*
X183822422Y-36326399D01*
X183822420Y-36326400D01*
X183628926Y-36461886D01*
X183506865Y-36583947D01*
X183445542Y-36617431D01*
X183375850Y-36612447D01*
X183319917Y-36570575D01*
X183303002Y-36539598D01*
X183297845Y-36525772D01*
X183275885Y-36466894D01*
X183253797Y-36407671D01*
X183253793Y-36407664D01*
X183167547Y-36292455D01*
X183167544Y-36292452D01*
X183052335Y-36206206D01*
X183052328Y-36206202D01*
X182917482Y-36155908D01*
X182917483Y-36155908D01*
X182857883Y-36149501D01*
X182857881Y-36149500D01*
X182857873Y-36149500D01*
X182857864Y-36149500D01*
X181062129Y-36149500D01*
X181062123Y-36149501D01*
X181002516Y-36155908D01*
X180867671Y-36206202D01*
X180867664Y-36206206D01*
X180752455Y-36292452D01*
X180752452Y-36292455D01*
X180666206Y-36407664D01*
X180666202Y-36407671D01*
X180615908Y-36542517D01*
X180609501Y-36602116D01*
X180609500Y-36602135D01*
X180609500Y-38397870D01*
X179281317Y-38397870D01*
X179303105Y-38376082D01*
X179438600Y-38182578D01*
X179538429Y-37968492D01*
X179538432Y-37968486D01*
X179595636Y-37755000D01*
X178698012Y-37755000D01*
X178730925Y-37697993D01*
X178765000Y-37570826D01*
X178765000Y-37439174D01*
X178730925Y-37312007D01*
X178698012Y-37255000D01*
X179595636Y-37255000D01*
X179595635Y-37254999D01*
X179538432Y-37041513D01*
X179538429Y-37041507D01*
X179438600Y-36827422D01*
X179438599Y-36827420D01*
X179303113Y-36633926D01*
X179303108Y-36633920D01*
X179136082Y-36466894D01*
X178942578Y-36331399D01*
X178728492Y-36231570D01*
X178728486Y-36231567D01*
X178515000Y-36174364D01*
X178515000Y-37071988D01*
X178457993Y-37039075D01*
X178330826Y-37005000D01*
X178199174Y-37005000D01*
X178072007Y-37039075D01*
X178015000Y-37071988D01*
X178015000Y-36174364D01*
X178014999Y-36174364D01*
X177801513Y-36231567D01*
X177801507Y-36231570D01*
X177587422Y-36331399D01*
X177587420Y-36331400D01*
X177393926Y-36466886D01*
X177271865Y-36588947D01*
X177210542Y-36622431D01*
X177140850Y-36617447D01*
X177084917Y-36575575D01*
X177068002Y-36544598D01*
X177060980Y-36525772D01*
X177034593Y-36455023D01*
X177018797Y-36412671D01*
X177018793Y-36412664D01*
X176932547Y-36297455D01*
X176932544Y-36297452D01*
X176817335Y-36211206D01*
X176817328Y-36211202D01*
X176682482Y-36160908D01*
X176682483Y-36160908D01*
X176622883Y-36154501D01*
X176622881Y-36154500D01*
X176622873Y-36154500D01*
X176622864Y-36154500D01*
X174827129Y-36154500D01*
X174827123Y-36154501D01*
X174767516Y-36160908D01*
X174632671Y-36211202D01*
X174632664Y-36211206D01*
X174517455Y-36297452D01*
X174517452Y-36297455D01*
X174431206Y-36412664D01*
X174431202Y-36412671D01*
X174380908Y-36547517D01*
X174374501Y-36607116D01*
X174374500Y-36607135D01*
X174374500Y-38402870D01*
X171782192Y-38402870D01*
X171832366Y-38193883D01*
X171851087Y-37956000D01*
X171832366Y-37718116D01*
X171776657Y-37486074D01*
X171685343Y-37265621D01*
X171567169Y-37072781D01*
X170968561Y-37671389D01*
X170949403Y-37625136D01*
X170872961Y-37510732D01*
X170775668Y-37413439D01*
X170661264Y-37336997D01*
X170615009Y-37317837D01*
X171216522Y-36716324D01*
X171226278Y-36658728D01*
X171257216Y-36618752D01*
X171406043Y-36491643D01*
X171561068Y-36310132D01*
X171685789Y-36106605D01*
X171777137Y-35886073D01*
X171832861Y-35653966D01*
X171851589Y-35416000D01*
X171832861Y-35178034D01*
X171781391Y-34963649D01*
X171777138Y-34945931D01*
X171777137Y-34945930D01*
X171777137Y-34945927D01*
X171685789Y-34725395D01*
X171561068Y-34521868D01*
X171406043Y-34340357D01*
X171257219Y-34213249D01*
X171257218Y-34213248D01*
X171219025Y-34154741D01*
X171215511Y-34114663D01*
X171195449Y-34094601D01*
X211994390Y-34094601D01*
X212014804Y-34380033D01*
X212075628Y-34659637D01*
X212075630Y-34659643D01*
X212075631Y-34659646D01*
X212104926Y-34738188D01*
X212175635Y-34927766D01*
X212312770Y-35178909D01*
X212312775Y-35178917D01*
X212484254Y-35407987D01*
X212484270Y-35408005D01*
X212686594Y-35610329D01*
X212686612Y-35610345D01*
X212915682Y-35781824D01*
X212915690Y-35781829D01*
X213166833Y-35918964D01*
X213166832Y-35918964D01*
X213166836Y-35918965D01*
X213166839Y-35918967D01*
X213434954Y-36018969D01*
X213434960Y-36018970D01*
X213434962Y-36018971D01*
X213714566Y-36079795D01*
X213714568Y-36079795D01*
X213714572Y-36079796D01*
X213968220Y-36097937D01*
X213999999Y-36100210D01*
X214000000Y-36100210D01*
X214000001Y-36100210D01*
X214028595Y-36098164D01*
X214285428Y-36079796D01*
X214565046Y-36018969D01*
X214833161Y-35918967D01*
X215084315Y-35781826D01*
X215313395Y-35610339D01*
X215515739Y-35407995D01*
X215687226Y-35178915D01*
X215824367Y-34927761D01*
X215924369Y-34659646D01*
X215962470Y-34484500D01*
X215985195Y-34380033D01*
X215985195Y-34380032D01*
X215985196Y-34380028D01*
X216001229Y-34155854D01*
X216025646Y-34090391D01*
X216081579Y-34048519D01*
X216151271Y-34043535D01*
X216201073Y-34066847D01*
X216224491Y-34085074D01*
X216409751Y-34185332D01*
X216443190Y-34203428D01*
X216678386Y-34284171D01*
X216923665Y-34325100D01*
X217172335Y-34325100D01*
X217417614Y-34284171D01*
X217652810Y-34203428D01*
X217871509Y-34085074D01*
X218067744Y-33932338D01*
X218226771Y-33759588D01*
X218286657Y-33723599D01*
X218356495Y-33725699D01*
X218409228Y-33759588D01*
X218568256Y-33932338D01*
X218764491Y-34085074D01*
X218764493Y-34085075D01*
X218949751Y-34185332D01*
X218983190Y-34203428D01*
X219218386Y-34284171D01*
X219463665Y-34325100D01*
X219712335Y-34325100D01*
X219957614Y-34284171D01*
X220192810Y-34203428D01*
X220411509Y-34085074D01*
X220607744Y-33932338D01*
X220766771Y-33759588D01*
X220826657Y-33723599D01*
X220896495Y-33725699D01*
X220949228Y-33759588D01*
X221108256Y-33932338D01*
X221304491Y-34085074D01*
X221304493Y-34085075D01*
X221489751Y-34185332D01*
X221523190Y-34203428D01*
X221758386Y-34284171D01*
X222003665Y-34325100D01*
X222252335Y-34325100D01*
X222497614Y-34284171D01*
X222732810Y-34203428D01*
X222951509Y-34085074D01*
X223147744Y-33932338D01*
X223306771Y-33759588D01*
X223366657Y-33723599D01*
X223436495Y-33725699D01*
X223489228Y-33759588D01*
X223648256Y-33932338D01*
X223844491Y-34085074D01*
X223844493Y-34085075D01*
X224029751Y-34185332D01*
X224063190Y-34203428D01*
X224298386Y-34284171D01*
X224543665Y-34325100D01*
X224792335Y-34325100D01*
X225037614Y-34284171D01*
X225272810Y-34203428D01*
X225491509Y-34085074D01*
X225687744Y-33932338D01*
X225846771Y-33759588D01*
X225906657Y-33723599D01*
X225976495Y-33725699D01*
X226029228Y-33759588D01*
X226188256Y-33932338D01*
X226384491Y-34085074D01*
X226384493Y-34085075D01*
X226569751Y-34185332D01*
X226603190Y-34203428D01*
X226838386Y-34284171D01*
X227083665Y-34325100D01*
X227332335Y-34325100D01*
X227577614Y-34284171D01*
X227812810Y-34203428D01*
X228031509Y-34085074D01*
X228227744Y-33932338D01*
X228386771Y-33759588D01*
X228446657Y-33723599D01*
X228516495Y-33725699D01*
X228569228Y-33759588D01*
X228728256Y-33932338D01*
X228924491Y-34085074D01*
X228924493Y-34085075D01*
X229109751Y-34185332D01*
X229143190Y-34203428D01*
X229378386Y-34284171D01*
X229623665Y-34325100D01*
X229872335Y-34325100D01*
X230117614Y-34284171D01*
X230352810Y-34203428D01*
X230571509Y-34085074D01*
X230767744Y-33932338D01*
X230840061Y-33853779D01*
X230899946Y-33817790D01*
X230969785Y-33819889D01*
X231027401Y-33859413D01*
X231054503Y-33923812D01*
X231054974Y-33946609D01*
X231044390Y-34094598D01*
X231044390Y-34094601D01*
X231064804Y-34380033D01*
X231125628Y-34659637D01*
X231125630Y-34659643D01*
X231125631Y-34659646D01*
X231154926Y-34738188D01*
X231225635Y-34927766D01*
X231362770Y-35178909D01*
X231362775Y-35178917D01*
X231534254Y-35407987D01*
X231534270Y-35408005D01*
X231736594Y-35610329D01*
X231736612Y-35610345D01*
X231965682Y-35781824D01*
X231965690Y-35781829D01*
X232216833Y-35918964D01*
X232216832Y-35918964D01*
X232216836Y-35918965D01*
X232216839Y-35918967D01*
X232484954Y-36018969D01*
X232484960Y-36018970D01*
X232484962Y-36018971D01*
X232764566Y-36079795D01*
X232764568Y-36079795D01*
X232764572Y-36079796D01*
X233018220Y-36097937D01*
X233049999Y-36100210D01*
X233050000Y-36100210D01*
X233050001Y-36100210D01*
X233078595Y-36098164D01*
X233335428Y-36079796D01*
X233615046Y-36018969D01*
X233883161Y-35918967D01*
X234134315Y-35781826D01*
X234363395Y-35610339D01*
X234565739Y-35407995D01*
X234737226Y-35178915D01*
X234874367Y-34927761D01*
X234974369Y-34659646D01*
X235012470Y-34484500D01*
X235035195Y-34380033D01*
X235035195Y-34380032D01*
X235035196Y-34380028D01*
X235055610Y-34094600D01*
X235035196Y-33809172D01*
X235026037Y-33767070D01*
X234974371Y-33529562D01*
X234974370Y-33529560D01*
X234974369Y-33529554D01*
X234874367Y-33261439D01*
X234755961Y-33044596D01*
X234737229Y-33010290D01*
X234737224Y-33010282D01*
X234565745Y-32781212D01*
X234565729Y-32781194D01*
X234363405Y-32578870D01*
X234363387Y-32578854D01*
X234134317Y-32407375D01*
X234134309Y-32407370D01*
X233883166Y-32270235D01*
X233883167Y-32270235D01*
X233775915Y-32230232D01*
X233615046Y-32170231D01*
X233615043Y-32170230D01*
X233615037Y-32170228D01*
X233335433Y-32109404D01*
X233050001Y-32088990D01*
X233049999Y-32088990D01*
X232764566Y-32109404D01*
X232484962Y-32170228D01*
X232216833Y-32270235D01*
X231965690Y-32407370D01*
X231965682Y-32407375D01*
X231736612Y-32578854D01*
X231736594Y-32578870D01*
X231534270Y-32781194D01*
X231534252Y-32781215D01*
X231474225Y-32861401D01*
X231418291Y-32903272D01*
X231348600Y-32908256D01*
X231287277Y-32874770D01*
X231253793Y-32813447D01*
X231251384Y-32797347D01*
X231233108Y-32576779D01*
X231206277Y-32470826D01*
X231172063Y-32335718D01*
X231072173Y-32107993D01*
X230936166Y-31899817D01*
X230896924Y-31857189D01*
X230767744Y-31716862D01*
X230571509Y-31564126D01*
X230571507Y-31564125D01*
X230571506Y-31564124D01*
X230352811Y-31445772D01*
X230352802Y-31445769D01*
X230117616Y-31365029D01*
X229872335Y-31324100D01*
X229623665Y-31324100D01*
X229378383Y-31365029D01*
X229143197Y-31445769D01*
X229143188Y-31445772D01*
X228924493Y-31564124D01*
X228728257Y-31716861D01*
X228569230Y-31889610D01*
X228509342Y-31925601D01*
X228439504Y-31923500D01*
X228386770Y-31889610D01*
X228288386Y-31782737D01*
X228227744Y-31716862D01*
X228031509Y-31564126D01*
X228031507Y-31564125D01*
X228031506Y-31564124D01*
X227812811Y-31445772D01*
X227812802Y-31445769D01*
X227577616Y-31365029D01*
X227332335Y-31324100D01*
X227083665Y-31324100D01*
X226838383Y-31365029D01*
X226603197Y-31445769D01*
X226603188Y-31445772D01*
X226384493Y-31564124D01*
X226188257Y-31716861D01*
X226029230Y-31889610D01*
X225969342Y-31925601D01*
X225899504Y-31923500D01*
X225846770Y-31889610D01*
X225748386Y-31782737D01*
X225687744Y-31716862D01*
X225491509Y-31564126D01*
X225491507Y-31564125D01*
X225491506Y-31564124D01*
X225272811Y-31445772D01*
X225272802Y-31445769D01*
X225037616Y-31365029D01*
X224792335Y-31324100D01*
X224543665Y-31324100D01*
X224298383Y-31365029D01*
X224063197Y-31445769D01*
X224063188Y-31445772D01*
X223844493Y-31564124D01*
X223648257Y-31716861D01*
X223489230Y-31889610D01*
X223429342Y-31925601D01*
X223359504Y-31923500D01*
X223306770Y-31889610D01*
X223208386Y-31782737D01*
X223147744Y-31716862D01*
X222951509Y-31564126D01*
X222951507Y-31564125D01*
X222951506Y-31564124D01*
X222732811Y-31445772D01*
X222732802Y-31445769D01*
X222497616Y-31365029D01*
X222252335Y-31324100D01*
X222003665Y-31324100D01*
X221758383Y-31365029D01*
X221523197Y-31445769D01*
X221523188Y-31445772D01*
X221304493Y-31564124D01*
X221108257Y-31716861D01*
X220949230Y-31889610D01*
X220889342Y-31925601D01*
X220819504Y-31923500D01*
X220766770Y-31889610D01*
X220668386Y-31782737D01*
X220607744Y-31716862D01*
X220411509Y-31564126D01*
X220411507Y-31564125D01*
X220411506Y-31564124D01*
X220192811Y-31445772D01*
X220192802Y-31445769D01*
X219957616Y-31365029D01*
X219712335Y-31324100D01*
X219463665Y-31324100D01*
X219218383Y-31365029D01*
X218983197Y-31445769D01*
X218983188Y-31445772D01*
X218764493Y-31564124D01*
X218568257Y-31716861D01*
X218409230Y-31889610D01*
X218349342Y-31925601D01*
X218279504Y-31923500D01*
X218226770Y-31889610D01*
X218128386Y-31782737D01*
X218067744Y-31716862D01*
X217871509Y-31564126D01*
X217871507Y-31564125D01*
X217871506Y-31564124D01*
X217652811Y-31445772D01*
X217652802Y-31445769D01*
X217417616Y-31365029D01*
X217172335Y-31324100D01*
X216923665Y-31324100D01*
X216678383Y-31365029D01*
X216443197Y-31445769D01*
X216443188Y-31445772D01*
X216224493Y-31564124D01*
X216028257Y-31716861D01*
X215859833Y-31899817D01*
X215723826Y-32107993D01*
X215623935Y-32335722D01*
X215623935Y-32335723D01*
X215565628Y-32565967D01*
X215530089Y-32626122D01*
X215467668Y-32657514D01*
X215398185Y-32650176D01*
X215357742Y-32623207D01*
X215313405Y-32578870D01*
X215313387Y-32578854D01*
X215084317Y-32407375D01*
X215084309Y-32407370D01*
X214833166Y-32270235D01*
X214833167Y-32270235D01*
X214725915Y-32230232D01*
X214565046Y-32170231D01*
X214565043Y-32170230D01*
X214565037Y-32170228D01*
X214285433Y-32109404D01*
X214000001Y-32088990D01*
X213999999Y-32088990D01*
X213714566Y-32109404D01*
X213434962Y-32170228D01*
X213166833Y-32270235D01*
X212915690Y-32407370D01*
X212915682Y-32407375D01*
X212686612Y-32578854D01*
X212686594Y-32578870D01*
X212484270Y-32781194D01*
X212484254Y-32781212D01*
X212312775Y-33010282D01*
X212312770Y-33010290D01*
X212175635Y-33261433D01*
X212075628Y-33529562D01*
X212014804Y-33809166D01*
X211994390Y-34094598D01*
X211994390Y-34094601D01*
X171195449Y-34094601D01*
X170615009Y-33514162D01*
X170661264Y-33495003D01*
X170775668Y-33418561D01*
X170872961Y-33321268D01*
X170949403Y-33206864D01*
X170968562Y-33160609D01*
X171567169Y-33759217D01*
X171567170Y-33759217D01*
X171685343Y-33566378D01*
X171776657Y-33345925D01*
X171832366Y-33113883D01*
X171851087Y-32876000D01*
X171832366Y-32638116D01*
X171776657Y-32406074D01*
X171685343Y-32185621D01*
X171567169Y-31992781D01*
X170968561Y-32591389D01*
X170949403Y-32545136D01*
X170872961Y-32430732D01*
X170775668Y-32333439D01*
X170661264Y-32256997D01*
X170615009Y-32237837D01*
X171216522Y-31636324D01*
X171226278Y-31578728D01*
X171257216Y-31538752D01*
X171406043Y-31411643D01*
X171561068Y-31230132D01*
X171685789Y-31026605D01*
X171777137Y-30806073D01*
X171832861Y-30573966D01*
X171851589Y-30336000D01*
X171832861Y-30098034D01*
X171777856Y-29868920D01*
X171777138Y-29865931D01*
X171777137Y-29865930D01*
X171777137Y-29865927D01*
X171685789Y-29645395D01*
X171561068Y-29441868D01*
X171406043Y-29260357D01*
X171224532Y-29105332D01*
X171021005Y-28980611D01*
X171021004Y-28980610D01*
X171021000Y-28980608D01*
X170800468Y-28889261D01*
X170568362Y-28833538D01*
X170568363Y-28833538D01*
X170330400Y-28814811D01*
X170092436Y-28833538D01*
X169860331Y-28889261D01*
X169639799Y-28980608D01*
X169436267Y-29105332D01*
X169254757Y-29260357D01*
X169099732Y-29441867D01*
X168975008Y-29645399D01*
X168883661Y-29865931D01*
X168827938Y-30098036D01*
X168809211Y-30336000D01*
X168827938Y-30573963D01*
X168883661Y-30806068D01*
X168975008Y-31026600D01*
X168975010Y-31026604D01*
X168975011Y-31026605D01*
X169099732Y-31230132D01*
X169254757Y-31411643D01*
X169358206Y-31499997D01*
X169403580Y-31538750D01*
X169441773Y-31597257D01*
X169445287Y-31637335D01*
X170045790Y-32237837D01*
X169999536Y-32256997D01*
X169885132Y-32333439D01*
X169787839Y-32430732D01*
X169711397Y-32545136D01*
X169692238Y-32591390D01*
X169093629Y-31992781D01*
X168975456Y-32185621D01*
X168884142Y-32406074D01*
X168828433Y-32638116D01*
X168809712Y-32876000D01*
X168828433Y-33113883D01*
X168884142Y-33345925D01*
X168975456Y-33566378D01*
X169093629Y-33759217D01*
X169692237Y-33160608D01*
X169711397Y-33206864D01*
X169787839Y-33321268D01*
X169885132Y-33418561D01*
X169999536Y-33495003D01*
X170045790Y-33514161D01*
X169444276Y-34115674D01*
X169434521Y-34173272D01*
X169403581Y-34213249D01*
X169254757Y-34340357D01*
X169099732Y-34521867D01*
X168975008Y-34725399D01*
X168883661Y-34945931D01*
X168827938Y-35178036D01*
X168809211Y-35416000D01*
X160997285Y-35416000D01*
X160951779Y-35375932D01*
X160932627Y-35308739D01*
X160952843Y-35241858D01*
X161004219Y-35197340D01*
X161133416Y-35137095D01*
X161133417Y-35137094D01*
X161198188Y-35091741D01*
X160584095Y-34477647D01*
X160671571Y-34454208D01*
X160772930Y-34395689D01*
X160855689Y-34312930D01*
X160914208Y-34211571D01*
X160937647Y-34124094D01*
X161551741Y-34738188D01*
X161597094Y-34673417D01*
X161597100Y-34673407D01*
X161690419Y-34473284D01*
X161690424Y-34473270D01*
X161747573Y-34259986D01*
X161747575Y-34259976D01*
X161766821Y-34040000D01*
X161766821Y-34039999D01*
X161747575Y-33820023D01*
X161747573Y-33820013D01*
X161690424Y-33606729D01*
X161690420Y-33606720D01*
X161597096Y-33406586D01*
X161551741Y-33341811D01*
X161551740Y-33341810D01*
X160937647Y-33955904D01*
X160914208Y-33868429D01*
X160855689Y-33767070D01*
X160772930Y-33684311D01*
X160671571Y-33625792D01*
X160584095Y-33602352D01*
X161198188Y-32988259D01*
X161198187Y-32988258D01*
X161133411Y-32942901D01*
X161133405Y-32942898D01*
X161004219Y-32882658D01*
X160951779Y-32836486D01*
X160932627Y-32769293D01*
X160952843Y-32702411D01*
X161004219Y-32657894D01*
X161020770Y-32650176D01*
X161133662Y-32597534D01*
X161314620Y-32470826D01*
X161470826Y-32314620D01*
X161597534Y-32133662D01*
X161690894Y-31933450D01*
X161748070Y-31720068D01*
X161767323Y-31500000D01*
X161748070Y-31279932D01*
X161690894Y-31066550D01*
X161597534Y-30866339D01*
X161470826Y-30685380D01*
X161314620Y-30529174D01*
X161314616Y-30529171D01*
X161314615Y-30529170D01*
X161133666Y-30402468D01*
X161133662Y-30402466D01*
X160999490Y-30339901D01*
X160933450Y-30309106D01*
X160933447Y-30309105D01*
X160933445Y-30309104D01*
X160720070Y-30251930D01*
X160720062Y-30251929D01*
X160500002Y-30232677D01*
X160499998Y-30232677D01*
X160279937Y-30251929D01*
X160279929Y-30251930D01*
X160066554Y-30309104D01*
X160066548Y-30309107D01*
X159866340Y-30402465D01*
X159866338Y-30402466D01*
X159685377Y-30529175D01*
X159529175Y-30685377D01*
X159402466Y-30866338D01*
X159402465Y-30866340D01*
X159309107Y-31066548D01*
X159309104Y-31066554D01*
X159251930Y-31279929D01*
X159251929Y-31279937D01*
X159232677Y-31499997D01*
X159232677Y-31500002D01*
X159251929Y-31720062D01*
X159251930Y-31720070D01*
X159309104Y-31933445D01*
X159309105Y-31933447D01*
X159309106Y-31933450D01*
X159366717Y-32056998D01*
X159402466Y-32133662D01*
X159402468Y-32133666D01*
X159529170Y-32314615D01*
X159529175Y-32314621D01*
X159685378Y-32470824D01*
X159685384Y-32470829D01*
X159866333Y-32597531D01*
X159866335Y-32597532D01*
X159866338Y-32597534D01*
X159979230Y-32650176D01*
X159995781Y-32657894D01*
X160048220Y-32704066D01*
X160067372Y-32771260D01*
X160047156Y-32838141D01*
X159995781Y-32882658D01*
X159866590Y-32942901D01*
X159801811Y-32988258D01*
X160415905Y-33602352D01*
X160328429Y-33625792D01*
X160227070Y-33684311D01*
X160144311Y-33767070D01*
X160085792Y-33868429D01*
X160062352Y-33955905D01*
X159448258Y-33341811D01*
X159402901Y-33406590D01*
X159309579Y-33606720D01*
X159309575Y-33606729D01*
X159252426Y-33820013D01*
X159252424Y-33820023D01*
X159233179Y-34039999D01*
X159233179Y-34040000D01*
X159252424Y-34259976D01*
X159252426Y-34259986D01*
X159309575Y-34473270D01*
X159309580Y-34473284D01*
X159402898Y-34673405D01*
X159402901Y-34673411D01*
X159448258Y-34738187D01*
X159448259Y-34738188D01*
X160062352Y-34124094D01*
X160085792Y-34211571D01*
X160144311Y-34312930D01*
X160227070Y-34395689D01*
X160328429Y-34454208D01*
X160415905Y-34477647D01*
X159801810Y-35091740D01*
X159866589Y-35137098D01*
X159995781Y-35197342D01*
X160048220Y-35243514D01*
X160067372Y-35310708D01*
X160047156Y-35377589D01*
X159995781Y-35422106D01*
X159866340Y-35482465D01*
X159866338Y-35482466D01*
X159685377Y-35609175D01*
X159529175Y-35765377D01*
X159402466Y-35946338D01*
X159402465Y-35946340D01*
X159309107Y-36146548D01*
X159309104Y-36146554D01*
X159251930Y-36359929D01*
X159251929Y-36359937D01*
X159232677Y-36579997D01*
X159232677Y-36580002D01*
X152800499Y-36580002D01*
X152800499Y-35952128D01*
X152794091Y-35892517D01*
X152746672Y-35765381D01*
X152743797Y-35757671D01*
X152743793Y-35757664D01*
X152657547Y-35642455D01*
X152657544Y-35642452D01*
X152542335Y-35556206D01*
X152542328Y-35556202D01*
X152407482Y-35505908D01*
X152407483Y-35505908D01*
X152347883Y-35499501D01*
X152347881Y-35499500D01*
X152347873Y-35499500D01*
X152347864Y-35499500D01*
X151352129Y-35499500D01*
X151352123Y-35499501D01*
X151292516Y-35505908D01*
X151157671Y-35556202D01*
X151157664Y-35556206D01*
X151042455Y-35642452D01*
X151042452Y-35642455D01*
X150956206Y-35757664D01*
X150956202Y-35757671D01*
X150905908Y-35892517D01*
X150903065Y-35918967D01*
X150899501Y-35952123D01*
X150899500Y-35952135D01*
X150899500Y-38047870D01*
X139300500Y-38047870D01*
X139300499Y-35952128D01*
X139294091Y-35892517D01*
X139246672Y-35765381D01*
X139243797Y-35757671D01*
X139243793Y-35757664D01*
X139157547Y-35642455D01*
X139157544Y-35642452D01*
X139042335Y-35556206D01*
X139042328Y-35556202D01*
X138907482Y-35505908D01*
X138907483Y-35505908D01*
X138847883Y-35499501D01*
X138847881Y-35499500D01*
X138847873Y-35499500D01*
X138847864Y-35499500D01*
X137852129Y-35499500D01*
X137852123Y-35499501D01*
X137792516Y-35505908D01*
X137657671Y-35556202D01*
X137657664Y-35556206D01*
X137542455Y-35642452D01*
X137542452Y-35642455D01*
X137456206Y-35757664D01*
X137456202Y-35757671D01*
X137405908Y-35892517D01*
X137403065Y-35918967D01*
X137399501Y-35952123D01*
X137399500Y-35952135D01*
X137399500Y-38047870D01*
X133314506Y-38047870D01*
X133276117Y-37904600D01*
X133273905Y-37896344D01*
X133273904Y-37896343D01*
X133273903Y-37896337D01*
X133174035Y-37682171D01*
X133170789Y-37677534D01*
X133038494Y-37488597D01*
X132871402Y-37321506D01*
X132871396Y-37321501D01*
X132685842Y-37191575D01*
X132642217Y-37136998D01*
X132635023Y-37067500D01*
X132666546Y-37005145D01*
X132685842Y-36988425D01*
X132759014Y-36937189D01*
X132871401Y-36858495D01*
X133038495Y-36691401D01*
X133174035Y-36497830D01*
X133273903Y-36283663D01*
X133335063Y-36055408D01*
X133355659Y-35820000D01*
X133335063Y-35584592D01*
X133273903Y-35356337D01*
X133174035Y-35142171D01*
X133168425Y-35134158D01*
X133038494Y-34948597D01*
X132871402Y-34781506D01*
X132871396Y-34781501D01*
X132685842Y-34651575D01*
X132642217Y-34596998D01*
X132635023Y-34527500D01*
X132666546Y-34465145D01*
X132685842Y-34448425D01*
X132708026Y-34432891D01*
X132871401Y-34318495D01*
X133038495Y-34151401D01*
X133174035Y-33957830D01*
X133273903Y-33743663D01*
X133335063Y-33515408D01*
X133355659Y-33280000D01*
X133335063Y-33044592D01*
X133273903Y-32816337D01*
X133174035Y-32602171D01*
X133170789Y-32597534D01*
X133038494Y-32408597D01*
X132871402Y-32241506D01*
X132871401Y-32241505D01*
X132685405Y-32111269D01*
X132641781Y-32056692D01*
X132634588Y-31987193D01*
X132666110Y-31924839D01*
X132685405Y-31908119D01*
X132871082Y-31778105D01*
X133038105Y-31611082D01*
X133173600Y-31417578D01*
X133273429Y-31203492D01*
X133273432Y-31203486D01*
X133330636Y-30990000D01*
X132433012Y-30990000D01*
X132465925Y-30932993D01*
X132500000Y-30805826D01*
X132500000Y-30674174D01*
X132465925Y-30547007D01*
X132433012Y-30490000D01*
X133330636Y-30490000D01*
X133330635Y-30489999D01*
X133273432Y-30276513D01*
X133273429Y-30276507D01*
X133173600Y-30062422D01*
X133173599Y-30062420D01*
X133038113Y-29868926D01*
X133038108Y-29868920D01*
X132871082Y-29701894D01*
X132677578Y-29566399D01*
X132463492Y-29466570D01*
X132463486Y-29466567D01*
X132250000Y-29409364D01*
X132250000Y-30306988D01*
X132192993Y-30274075D01*
X132065826Y-30240000D01*
X131934174Y-30240000D01*
X131807007Y-30274075D01*
X131750000Y-30306988D01*
X131750000Y-29409364D01*
X131749999Y-29409364D01*
X131536513Y-29466567D01*
X131536507Y-29466570D01*
X131322422Y-29566399D01*
X131322420Y-29566400D01*
X131128926Y-29701886D01*
X131128920Y-29701891D01*
X130961891Y-29868920D01*
X130961890Y-29868922D01*
X130831880Y-30054595D01*
X130777303Y-30098219D01*
X130707804Y-30105412D01*
X130645450Y-30073890D01*
X130628730Y-30054594D01*
X130498494Y-29868597D01*
X130331402Y-29701506D01*
X130331395Y-29701501D01*
X130137834Y-29565967D01*
X130137830Y-29565965D01*
X130137828Y-29565964D01*
X129923663Y-29466097D01*
X129923659Y-29466096D01*
X129923655Y-29466094D01*
X129695413Y-29404938D01*
X129695403Y-29404936D01*
X129460001Y-29384341D01*
X129459999Y-29384341D01*
X129224596Y-29404936D01*
X129224586Y-29404938D01*
X128996344Y-29466094D01*
X128996335Y-29466098D01*
X128782171Y-29565964D01*
X128782169Y-29565965D01*
X128588597Y-29701505D01*
X128421505Y-29868597D01*
X128285965Y-30062169D01*
X128285964Y-30062171D01*
X128186098Y-30276335D01*
X128186094Y-30276344D01*
X128124938Y-30504586D01*
X128124936Y-30504596D01*
X128104341Y-30739999D01*
X128104341Y-30740000D01*
X128124936Y-30975403D01*
X128124938Y-30975413D01*
X128186094Y-31203655D01*
X128186096Y-31203659D01*
X128186097Y-31203663D01*
X128269155Y-31381781D01*
X128285965Y-31417830D01*
X128285967Y-31417834D01*
X128370634Y-31538750D01*
X128421501Y-31611396D01*
X128421506Y-31611402D01*
X128588597Y-31778493D01*
X128588603Y-31778498D01*
X128774158Y-31908425D01*
X128817783Y-31963002D01*
X128824977Y-32032500D01*
X128793454Y-32094855D01*
X128774158Y-32111575D01*
X128588597Y-32241505D01*
X128421505Y-32408597D01*
X128285965Y-32602169D01*
X128285964Y-32602171D01*
X128186098Y-32816335D01*
X128186094Y-32816344D01*
X128124938Y-33044586D01*
X128124936Y-33044596D01*
X128104341Y-33279999D01*
X128104341Y-33280000D01*
X128124936Y-33515403D01*
X128124938Y-33515413D01*
X128186094Y-33743655D01*
X128186096Y-33743659D01*
X128186097Y-33743663D01*
X128274077Y-33932337D01*
X128285965Y-33957830D01*
X128285967Y-33957834D01*
X128343500Y-34039999D01*
X128421501Y-34151396D01*
X128421506Y-34151402D01*
X128588597Y-34318493D01*
X128588603Y-34318498D01*
X128774158Y-34448425D01*
X128817783Y-34503002D01*
X128824977Y-34572500D01*
X128793454Y-34634855D01*
X128774158Y-34651575D01*
X128588597Y-34781505D01*
X128421505Y-34948597D01*
X128285965Y-35142169D01*
X128285964Y-35142171D01*
X128186098Y-35356335D01*
X128186094Y-35356344D01*
X128124938Y-35584586D01*
X128124936Y-35584596D01*
X128104341Y-35819999D01*
X128104341Y-35820000D01*
X128124936Y-36055403D01*
X128124938Y-36055413D01*
X128186094Y-36283655D01*
X128186096Y-36283659D01*
X128186097Y-36283663D01*
X128266004Y-36455023D01*
X128285965Y-36497830D01*
X128285967Y-36497834D01*
X128388401Y-36644124D01*
X128421505Y-36691401D01*
X128588599Y-36858495D01*
X128700986Y-36937189D01*
X128774594Y-36988730D01*
X128818218Y-37043307D01*
X128825411Y-37112806D01*
X128793889Y-37175160D01*
X128774593Y-37191880D01*
X128698626Y-37245072D01*
X128698625Y-37245072D01*
X129330590Y-37877037D01*
X129267007Y-37894075D01*
X129152993Y-37959901D01*
X129059901Y-38052993D01*
X128994075Y-38167007D01*
X128977037Y-38230589D01*
X128345073Y-37598625D01*
X128345072Y-37598625D01*
X128286401Y-37682419D01*
X128186570Y-37896507D01*
X128186566Y-37896516D01*
X128125432Y-38124673D01*
X128125430Y-38124684D01*
X128104843Y-38359998D01*
X128104843Y-38360001D01*
X128125430Y-38595315D01*
X128125432Y-38595326D01*
X128186566Y-38823483D01*
X128186570Y-38823492D01*
X128286400Y-39037579D01*
X128286402Y-39037583D01*
X128345072Y-39121373D01*
X128345073Y-39121373D01*
X128977037Y-38489409D01*
X128994075Y-38552993D01*
X129059901Y-38667007D01*
X129152993Y-38760099D01*
X129267007Y-38825925D01*
X129330590Y-38842962D01*
X128698625Y-39474925D01*
X128774594Y-39528119D01*
X128818219Y-39582696D01*
X128825413Y-39652194D01*
X128793890Y-39714549D01*
X128774595Y-39731269D01*
X128588594Y-39861508D01*
X128421505Y-40028597D01*
X128285965Y-40222169D01*
X128285964Y-40222171D01*
X128186098Y-40436335D01*
X128186094Y-40436344D01*
X128124938Y-40664586D01*
X128124936Y-40664596D01*
X128104341Y-40899999D01*
X128104341Y-40900000D01*
X128124936Y-41135403D01*
X128124938Y-41135413D01*
X128186094Y-41363655D01*
X128186096Y-41363659D01*
X128186097Y-41363663D01*
X128248688Y-41497890D01*
X128285965Y-41577830D01*
X128285967Y-41577834D01*
X128375062Y-41705074D01*
X128421505Y-41771401D01*
X128588599Y-41938495D01*
X128761862Y-42059815D01*
X128774594Y-42068730D01*
X128818218Y-42123307D01*
X128825411Y-42192806D01*
X128793889Y-42255160D01*
X128774593Y-42271880D01*
X128698626Y-42325072D01*
X128698625Y-42325072D01*
X129330590Y-42957037D01*
X129267007Y-42974075D01*
X129152993Y-43039901D01*
X129059901Y-43132993D01*
X128994075Y-43247007D01*
X128977037Y-43310589D01*
X128345073Y-42678625D01*
X128345072Y-42678625D01*
X128286401Y-42762419D01*
X128186570Y-42976507D01*
X128186566Y-42976516D01*
X128125432Y-43204673D01*
X128125430Y-43204684D01*
X128104843Y-43439998D01*
X128104843Y-43440001D01*
X128125430Y-43675315D01*
X128125432Y-43675326D01*
X128186566Y-43903483D01*
X128186570Y-43903492D01*
X128286400Y-44117579D01*
X128286402Y-44117583D01*
X128345072Y-44201373D01*
X128345073Y-44201373D01*
X128977037Y-43569409D01*
X128994075Y-43632993D01*
X129059901Y-43747007D01*
X129152993Y-43840099D01*
X129267007Y-43905925D01*
X129330590Y-43922962D01*
X128698625Y-44554925D01*
X128774594Y-44608119D01*
X128818219Y-44662696D01*
X128825413Y-44732194D01*
X128793890Y-44794549D01*
X128774595Y-44811269D01*
X128588594Y-44941508D01*
X128421505Y-45108597D01*
X128285965Y-45302169D01*
X128285964Y-45302171D01*
X128186098Y-45516335D01*
X128186094Y-45516344D01*
X128124938Y-45744586D01*
X128124936Y-45744596D01*
X128104341Y-45979999D01*
X128104341Y-45980000D01*
X128124936Y-46215403D01*
X128124938Y-46215413D01*
X128186094Y-46443655D01*
X128186096Y-46443659D01*
X128186097Y-46443663D01*
X128266004Y-46615023D01*
X128285965Y-46657830D01*
X128285967Y-46657834D01*
X128375062Y-46785074D01*
X128421501Y-46851396D01*
X128421506Y-46851402D01*
X128588597Y-47018493D01*
X128588603Y-47018498D01*
X128774158Y-47148425D01*
X128817783Y-47203002D01*
X128824977Y-47272500D01*
X128793454Y-47334855D01*
X128774158Y-47351575D01*
X128588597Y-47481505D01*
X128421505Y-47648597D01*
X128285965Y-47842169D01*
X128285964Y-47842171D01*
X128186098Y-48056335D01*
X128186094Y-48056344D01*
X128124938Y-48284586D01*
X128124936Y-48284596D01*
X128104341Y-48519999D01*
X128104341Y-48520000D01*
X128124936Y-48755403D01*
X128124938Y-48755413D01*
X128186094Y-48983655D01*
X128186096Y-48983659D01*
X128186097Y-48983663D01*
X128265800Y-49154586D01*
X128285965Y-49197830D01*
X128285967Y-49197834D01*
X128305530Y-49225772D01*
X128421501Y-49391396D01*
X128421506Y-49391402D01*
X128588597Y-49558493D01*
X128588603Y-49558498D01*
X128774158Y-49688425D01*
X128817783Y-49743002D01*
X128824977Y-49812500D01*
X128793454Y-49874855D01*
X128774158Y-49891575D01*
X128588597Y-50021505D01*
X128421505Y-50188597D01*
X128285965Y-50382169D01*
X128285964Y-50382171D01*
X128186098Y-50596335D01*
X128186094Y-50596344D01*
X128124938Y-50824586D01*
X128124936Y-50824596D01*
X128104341Y-51059999D01*
X128104341Y-51060000D01*
X128124936Y-51295403D01*
X128124938Y-51295413D01*
X128186094Y-51523655D01*
X128186096Y-51523659D01*
X128186097Y-51523663D01*
X128266004Y-51695023D01*
X128285965Y-51737830D01*
X128285967Y-51737834D01*
X128375062Y-51865074D01*
X128421501Y-51931396D01*
X128421506Y-51931402D01*
X128588597Y-52098493D01*
X128588603Y-52098498D01*
X128774158Y-52228425D01*
X128817783Y-52283002D01*
X128824977Y-52352500D01*
X128793454Y-52414855D01*
X128774158Y-52431575D01*
X128588597Y-52561505D01*
X128421505Y-52728597D01*
X128285965Y-52922169D01*
X128285964Y-52922171D01*
X128186098Y-53136335D01*
X128186094Y-53136344D01*
X128124938Y-53364586D01*
X128124936Y-53364596D01*
X128104341Y-53599999D01*
X128104341Y-53600000D01*
X128124936Y-53835403D01*
X128124938Y-53835413D01*
X128186094Y-54063655D01*
X128186096Y-54063659D01*
X128186097Y-54063663D01*
X128266004Y-54235023D01*
X128285965Y-54277830D01*
X128285967Y-54277834D01*
X128388971Y-54424938D01*
X128421505Y-54471401D01*
X128588599Y-54638495D01*
X128747288Y-54749610D01*
X128774594Y-54768730D01*
X128818218Y-54823307D01*
X128825411Y-54892806D01*
X128793889Y-54955160D01*
X128774593Y-54971880D01*
X128698626Y-55025072D01*
X128698625Y-55025072D01*
X129330590Y-55657037D01*
X129267007Y-55674075D01*
X129152993Y-55739901D01*
X129059901Y-55832993D01*
X128994075Y-55947007D01*
X128977037Y-56010589D01*
X128345073Y-55378625D01*
X128345072Y-55378625D01*
X128286401Y-55462419D01*
X128186570Y-55676507D01*
X128186566Y-55676516D01*
X128125432Y-55904673D01*
X128125430Y-55904684D01*
X128104843Y-56139998D01*
X128104843Y-56140001D01*
X128125430Y-56375315D01*
X128125432Y-56375326D01*
X128186566Y-56603483D01*
X128186570Y-56603492D01*
X128286400Y-56817579D01*
X128286402Y-56817583D01*
X128345072Y-56901373D01*
X128345073Y-56901373D01*
X128977037Y-56269409D01*
X128994075Y-56332993D01*
X129059901Y-56447007D01*
X129152993Y-56540099D01*
X129267007Y-56605925D01*
X129330590Y-56622962D01*
X128698625Y-57254925D01*
X128774594Y-57308119D01*
X128818219Y-57362696D01*
X128825413Y-57432194D01*
X128793890Y-57494549D01*
X128774595Y-57511269D01*
X128588594Y-57641508D01*
X128421505Y-57808597D01*
X128285965Y-58002169D01*
X128285964Y-58002171D01*
X128186098Y-58216335D01*
X128186094Y-58216344D01*
X128124938Y-58444586D01*
X128124936Y-58444596D01*
X128104341Y-58679999D01*
X128104341Y-58680000D01*
X128124936Y-58915403D01*
X128124938Y-58915413D01*
X128186094Y-59143655D01*
X128186096Y-59143659D01*
X128186097Y-59143663D01*
X128198883Y-59171082D01*
X128285965Y-59357830D01*
X128285967Y-59357834D01*
X128394281Y-59512521D01*
X128421501Y-59551396D01*
X128421506Y-59551402D01*
X128588597Y-59718493D01*
X128588603Y-59718498D01*
X128774158Y-59848425D01*
X128817783Y-59903002D01*
X128824977Y-59972500D01*
X128793454Y-60034855D01*
X128774158Y-60051575D01*
X128588597Y-60181505D01*
X128421505Y-60348597D01*
X128285965Y-60542169D01*
X128285964Y-60542171D01*
X128186098Y-60756335D01*
X128186094Y-60756344D01*
X128124938Y-60984586D01*
X128124936Y-60984596D01*
X128104341Y-61219999D01*
X128104341Y-61220000D01*
X128124936Y-61455403D01*
X128124938Y-61455413D01*
X128186094Y-61683655D01*
X128186096Y-61683659D01*
X128186097Y-61683663D01*
X128210768Y-61736569D01*
X128285965Y-61897830D01*
X128285967Y-61897834D01*
X128375112Y-62025145D01*
X128421505Y-62091401D01*
X128588599Y-62258495D01*
X128774158Y-62388425D01*
X128774594Y-62388730D01*
X128818218Y-62443307D01*
X128825411Y-62512806D01*
X128793889Y-62575160D01*
X128774593Y-62591880D01*
X128698626Y-62645072D01*
X128698625Y-62645072D01*
X129330590Y-63277037D01*
X129267007Y-63294075D01*
X129152993Y-63359901D01*
X129059901Y-63452993D01*
X128994075Y-63567007D01*
X128977037Y-63630589D01*
X128345073Y-62998625D01*
X128345072Y-62998625D01*
X128286401Y-63082419D01*
X128186570Y-63296507D01*
X128186566Y-63296516D01*
X128125432Y-63524673D01*
X128125430Y-63524684D01*
X128104843Y-63759998D01*
X128104843Y-63760001D01*
X128125430Y-63995315D01*
X128125432Y-63995326D01*
X128186566Y-64223483D01*
X128186570Y-64223492D01*
X128286400Y-64437579D01*
X128286402Y-64437583D01*
X128345072Y-64521373D01*
X128345073Y-64521373D01*
X128977037Y-63889409D01*
X128994075Y-63952993D01*
X129059901Y-64067007D01*
X129152993Y-64160099D01*
X129267007Y-64225925D01*
X129330590Y-64242962D01*
X128698625Y-64874925D01*
X128774594Y-64928119D01*
X128818219Y-64982696D01*
X128825413Y-65052194D01*
X128793890Y-65114549D01*
X128774595Y-65131269D01*
X128588594Y-65261508D01*
X128421505Y-65428597D01*
X128285965Y-65622169D01*
X128285964Y-65622171D01*
X128186098Y-65836335D01*
X128186094Y-65836344D01*
X128124938Y-66064586D01*
X128124936Y-66064596D01*
X128104341Y-66299999D01*
X128104341Y-66300000D01*
X128124936Y-66535403D01*
X128124938Y-66535413D01*
X128186094Y-66763655D01*
X128186096Y-66763659D01*
X128186097Y-66763663D01*
X128266004Y-66935023D01*
X128285965Y-66977830D01*
X128285967Y-66977834D01*
X128394281Y-67132521D01*
X128421501Y-67171396D01*
X128421506Y-67171402D01*
X128588597Y-67338493D01*
X128588603Y-67338498D01*
X128774158Y-67468425D01*
X128817783Y-67523002D01*
X128824977Y-67592500D01*
X128793454Y-67654855D01*
X128774158Y-67671575D01*
X128588597Y-67801505D01*
X128421505Y-67968597D01*
X128285965Y-68162169D01*
X128285964Y-68162171D01*
X128186098Y-68376335D01*
X128186094Y-68376344D01*
X128124938Y-68604586D01*
X128124936Y-68604596D01*
X128104341Y-68839999D01*
X128104341Y-68840000D01*
X128124936Y-69075403D01*
X128124938Y-69075413D01*
X128186094Y-69303655D01*
X128186096Y-69303659D01*
X128186097Y-69303663D01*
X128255886Y-69453325D01*
X128285965Y-69517830D01*
X128285967Y-69517834D01*
X128371701Y-69640274D01*
X128421501Y-69711396D01*
X128421506Y-69711402D01*
X128588597Y-69878493D01*
X128588603Y-69878498D01*
X128774158Y-70008425D01*
X128817783Y-70063002D01*
X128824977Y-70132500D01*
X128793454Y-70194855D01*
X128774158Y-70211575D01*
X128588597Y-70341505D01*
X128421505Y-70508597D01*
X128285965Y-70702169D01*
X128285964Y-70702171D01*
X128186098Y-70916335D01*
X128186094Y-70916344D01*
X128124938Y-71144586D01*
X128124936Y-71144596D01*
X128104341Y-71379999D01*
X128104341Y-71380000D01*
X128124936Y-71615403D01*
X128124938Y-71615413D01*
X128186094Y-71843655D01*
X128186096Y-71843659D01*
X128186097Y-71843663D01*
X128266004Y-72015023D01*
X128285965Y-72057830D01*
X128285967Y-72057834D01*
X128375062Y-72185074D01*
X128421505Y-72251401D01*
X128588599Y-72418495D01*
X128747288Y-72529610D01*
X128774594Y-72548730D01*
X128818218Y-72603307D01*
X128825411Y-72672806D01*
X128793889Y-72735160D01*
X128774593Y-72751880D01*
X128698626Y-72805072D01*
X128698625Y-72805072D01*
X129330590Y-73437037D01*
X129267007Y-73454075D01*
X129152993Y-73519901D01*
X129059901Y-73612993D01*
X128994075Y-73727007D01*
X128977037Y-73790589D01*
X128345073Y-73158625D01*
X128345072Y-73158625D01*
X128286401Y-73242419D01*
X128186570Y-73456507D01*
X128186566Y-73456516D01*
X128125432Y-73684673D01*
X128125430Y-73684684D01*
X128104843Y-73919998D01*
X128104843Y-73920001D01*
X128125430Y-74155315D01*
X128125432Y-74155326D01*
X128186566Y-74383483D01*
X128186570Y-74383492D01*
X128286400Y-74597579D01*
X128286402Y-74597583D01*
X128345072Y-74681373D01*
X128345073Y-74681373D01*
X128977037Y-74049409D01*
X128994075Y-74112993D01*
X129059901Y-74227007D01*
X129152993Y-74320099D01*
X129267007Y-74385925D01*
X129330590Y-74402962D01*
X128698625Y-75034925D01*
X128774594Y-75088119D01*
X128818219Y-75142696D01*
X128825413Y-75212194D01*
X128793890Y-75274549D01*
X128774595Y-75291269D01*
X128588594Y-75421508D01*
X128421505Y-75588597D01*
X128285965Y-75782169D01*
X128285964Y-75782171D01*
X128186098Y-75996335D01*
X128186094Y-75996344D01*
X128124938Y-76224586D01*
X128124936Y-76224596D01*
X128104341Y-76459999D01*
X128104341Y-76460000D01*
X128124936Y-76695403D01*
X128124938Y-76695413D01*
X128186094Y-76923655D01*
X128186096Y-76923659D01*
X128186097Y-76923663D01*
X128266004Y-77095023D01*
X128285965Y-77137830D01*
X128285967Y-77137834D01*
X128305530Y-77165772D01*
X128421501Y-77331396D01*
X128421506Y-77331402D01*
X128588597Y-77498493D01*
X128588603Y-77498498D01*
X128774158Y-77628425D01*
X128817783Y-77683002D01*
X128824977Y-77752500D01*
X128793454Y-77814855D01*
X128774158Y-77831575D01*
X128588597Y-77961505D01*
X128421505Y-78128597D01*
X128285965Y-78322169D01*
X128285964Y-78322171D01*
X128186098Y-78536335D01*
X128186094Y-78536344D01*
X128124938Y-78764586D01*
X128124936Y-78764596D01*
X128104341Y-78999999D01*
X128104341Y-79000000D01*
X124000000Y-79000000D01*
X124000000Y-27124000D01*
X124019685Y-27056961D01*
X124072489Y-27011206D01*
X124124000Y-27000000D01*
X236876000Y-27000000D01*
X236943039Y-27019685D01*
G37*
%TD.AperFunction*%
%TD*%
M02*
