%TF.GenerationSoftware,KiCad,Pcbnew,8.0.1*%
%TF.CreationDate,2024-05-27T17:32:14-07:00*%
%TF.ProjectId,pcb-v3,7063622d-7633-42e6-9b69-6361645f7063,rev?*%
%TF.SameCoordinates,Original*%
%TF.FileFunction,Copper,L2,Bot*%
%TF.FilePolarity,Positive*%
%FSLAX46Y46*%
G04 Gerber Fmt 4.6, Leading zero omitted, Abs format (unit mm)*
G04 Created by KiCad (PCBNEW 8.0.1) date 2024-05-27 17:32:14*
%MOMM*%
%LPD*%
G01*
G04 APERTURE LIST*
G04 Aperture macros list*
%AMRoundRect*
0 Rectangle with rounded corners*
0 $1 Rounding radius*
0 $2 $3 $4 $5 $6 $7 $8 $9 X,Y pos of 4 corners*
0 Add a 4 corners polygon primitive as box body*
4,1,4,$2,$3,$4,$5,$6,$7,$8,$9,$2,$3,0*
0 Add four circle primitives for the rounded corners*
1,1,$1+$1,$2,$3*
1,1,$1+$1,$4,$5*
1,1,$1+$1,$6,$7*
1,1,$1+$1,$8,$9*
0 Add four rect primitives between the rounded corners*
20,1,$1+$1,$2,$3,$4,$5,0*
20,1,$1+$1,$4,$5,$6,$7,0*
20,1,$1+$1,$6,$7,$8,$9,0*
20,1,$1+$1,$8,$9,$2,$3,0*%
G04 Aperture macros list end*
%TA.AperFunction,ComponentPad*%
%ADD10R,1.600000X1.600000*%
%TD*%
%TA.AperFunction,ComponentPad*%
%ADD11C,1.600000*%
%TD*%
%TA.AperFunction,ComponentPad*%
%ADD12R,1.700000X1.700000*%
%TD*%
%TA.AperFunction,ComponentPad*%
%ADD13O,1.700000X1.700000*%
%TD*%
%TA.AperFunction,ComponentPad*%
%ADD14C,2.032000*%
%TD*%
%TA.AperFunction,WasherPad*%
%ADD15C,3.000000*%
%TD*%
%TA.AperFunction,ComponentPad*%
%ADD16C,1.524000*%
%TD*%
%TA.AperFunction,ComponentPad*%
%ADD17C,2.000000*%
%TD*%
%TA.AperFunction,ComponentPad*%
%ADD18R,0.900000X2.000000*%
%TD*%
%TA.AperFunction,ComponentPad*%
%ADD19RoundRect,1.025000X-1.025000X-1.025000X1.025000X-1.025000X1.025000X1.025000X-1.025000X1.025000X0*%
%TD*%
%TA.AperFunction,ComponentPad*%
%ADD20C,4.100000*%
%TD*%
G04 APERTURE END LIST*
D10*
%TO.P,C3,1*%
%TO.N,SCL*%
X181000000Y-55000000D03*
D11*
%TO.P,C3,2*%
%TO.N,GND*%
X183500000Y-55000000D03*
%TD*%
D10*
%TO.P,C2,1*%
%TO.N,SDA*%
X181000000Y-67000000D03*
D11*
%TO.P,C2,2*%
%TO.N,GND*%
X183500000Y-67000000D03*
%TD*%
D10*
%TO.P,C1,1*%
%TO.N,ESC*%
X166000000Y-81000000D03*
D11*
%TO.P,C1,2*%
%TO.N,GND*%
X168500000Y-81000000D03*
%TD*%
D12*
%TO.P,J1,1,Pin_1*%
%TO.N,STABLE_12V*%
X175725000Y-37505000D03*
D13*
%TO.P,J1,2,Pin_2*%
%TO.N,GND*%
X178265000Y-37505000D03*
%TD*%
D12*
%TO.P,J4,1,Pin_1*%
%TO.N,ESC*%
X174775000Y-86125000D03*
D13*
%TO.P,J4,2,Pin_2*%
%TO.N,GND*%
X172235000Y-86125000D03*
%TD*%
D14*
%TO.P,Q2,1,-Vin*%
%TO.N,GND*%
X170330400Y-37956000D03*
%TO.P,Q2,2,+Vin*%
%TO.N,+12V*%
X170330400Y-35416000D03*
%TO.P,Q2,3,-Vout*%
%TO.N,GND*%
X170330400Y-32876000D03*
%TO.P,Q2,4,+Vout*%
%TO.N,STABLE_12V*%
X170330400Y-30336000D03*
%TD*%
D12*
%TO.P,J2,1,Pin_1*%
%TO.N,unconnected-(J2-Pin_1-Pad1)*%
X193500000Y-71000000D03*
D13*
%TO.P,J2,2,Pin_2*%
%TO.N,unconnected-(J2-Pin_2-Pad2)*%
X193500000Y-68460000D03*
%TO.P,J2,3,Pin_3*%
%TO.N,GND*%
X193500000Y-65920000D03*
%TO.P,J2,4,Pin_4*%
%TO.N,SDA*%
X193500000Y-63380000D03*
%TO.P,J2,5,Pin_5*%
%TO.N,SCL*%
X193500000Y-60840000D03*
%TO.P,J2,6,Pin_6*%
%TO.N,GND*%
X193500000Y-58300000D03*
%TO.P,J2,7,Pin_7*%
%TO.N,+5V*%
X193500000Y-55760000D03*
%TD*%
D15*
%TO.P,,*%
%TO.N,*%
X234000000Y-30000000D03*
%TD*%
D12*
%TO.P,J3,1,Pin_1*%
%TO.N,STABLE_12V*%
X181960000Y-37500000D03*
D13*
%TO.P,J3,2,Pin_2*%
%TO.N,GND*%
X184500000Y-37500000D03*
%TD*%
D16*
%TO.P,Q1,1,Vin*%
%TO.N,+12V*%
X160500000Y-36580000D03*
%TO.P,Q1,2,GND*%
%TO.N,GND*%
X160500000Y-34040000D03*
%TO.P,Q1,3,Vout*%
%TO.N,+5V*%
X160500000Y-31500000D03*
%TD*%
D15*
%TO.P,U2,*%
%TO.N,*%
X211952000Y-90000000D03*
X231002000Y-89974600D03*
X211952000Y-34094600D03*
X231002000Y-34094600D03*
D17*
%TO.P,U2,1,A0*%
%TO.N,unconnected-(U2-A0-Pad1)_10*%
X227700000Y-91244600D03*
%TO.N,unconnected-(U2-A0-Pad1)_13*%
X230240000Y-86164600D03*
%TO.N,unconnected-(U2-A0-Pad1)_12*%
X230240000Y-83624600D03*
%TO.N,unconnected-(U2-A0-Pad1)_4*%
X230240000Y-81084600D03*
%TO.N,unconnected-(U2-A0-Pad1)_16*%
X230240000Y-78544600D03*
%TO.N,unconnected-(U2-A0-Pad1)_14*%
X230240000Y-73464600D03*
%TO.N,unconnected-(U2-A0-Pad1)_0*%
X230240000Y-70924600D03*
%TO.N,unconnected-(U2-A0-Pad1)_11*%
X230240000Y-68384600D03*
%TO.N,unconnected-(U2-A0-Pad1)_7*%
X230240000Y-65844600D03*
%TO.N,unconnected-(U2-A0-Pad1)_1*%
X230240000Y-58224600D03*
%TO.N,unconnected-(U2-A0-Pad1)_6*%
X230240000Y-55684600D03*
%TO.N,unconnected-(U2-A0-Pad1)_5*%
X230240000Y-53144600D03*
%TO.N,unconnected-(U2-A0-Pad1)_2*%
X230240000Y-50604600D03*
%TO.N,unconnected-(U2-A0-Pad1)_8*%
X230240000Y-45524600D03*
%TO.N,unconnected-(U2-A0-Pad1)*%
X230240000Y-42984600D03*
%TO.N,unconnected-(U2-A0-Pad1)_9*%
X230240000Y-40444600D03*
%TO.N,unconnected-(U2-A0-Pad1)_15*%
X230240000Y-37904600D03*
%TO.N,unconnected-(U2-A0-Pad1)_3*%
X227700000Y-32824600D03*
%TO.P,U2,2,A1*%
%TO.N,unconnected-(U2-A1-Pad2)_0*%
X225160000Y-91244600D03*
%TO.N,unconnected-(U2-A1-Pad2)*%
X225160000Y-32824600D03*
%TO.P,U2,3,A2*%
%TO.N,SDA*%
X222620000Y-91244600D03*
%TO.N,N/C*%
X222620000Y-32824600D03*
%TO.P,U2,4,A3*%
%TO.N,SCL*%
X220080000Y-91244600D03*
%TO.N,N/C*%
X220080000Y-32824600D03*
%TO.P,U2,5,A4*%
%TO.N,unconnected-(U2-A4-Pad5)_0*%
X217540000Y-91244600D03*
%TO.N,unconnected-(U2-A4-Pad5)*%
X217540000Y-32824600D03*
%TO.P,U2,6,PWM0*%
%TO.N,unconnected-(U2-PWM0-Pad6)_8*%
X215000000Y-91244600D03*
%TO.N,unconnected-(U2-PWM0-Pad6)_0*%
X232780000Y-86164600D03*
%TO.N,unconnected-(U2-PWM0-Pad6)_1*%
X232780000Y-83624600D03*
%TO.N,unconnected-(U2-PWM0-Pad6)_2*%
X232780000Y-81084600D03*
%TO.N,unconnected-(U2-PWM0-Pad6)_12*%
X232780000Y-78544600D03*
%TO.N,unconnected-(U2-PWM0-Pad6)_7*%
X232780000Y-73464600D03*
%TO.N,unconnected-(U2-PWM0-Pad6)_14*%
X232780000Y-70924600D03*
%TO.N,unconnected-(U2-PWM0-Pad6)_9*%
X232780000Y-68384600D03*
%TO.N,unconnected-(U2-PWM0-Pad6)*%
X232780000Y-65844600D03*
%TO.N,unconnected-(U2-PWM0-Pad6)_3*%
X232780000Y-58224600D03*
%TO.N,unconnected-(U2-PWM0-Pad6)_16*%
X232780000Y-55684600D03*
%TO.N,unconnected-(U2-PWM0-Pad6)_15*%
X232780000Y-53144600D03*
%TO.N,unconnected-(U2-PWM0-Pad6)_10*%
X232780000Y-50604600D03*
%TO.N,unconnected-(U2-PWM0-Pad6)_11*%
X232780000Y-45524600D03*
%TO.N,unconnected-(U2-PWM0-Pad6)_4*%
X232780000Y-42984600D03*
%TO.N,unconnected-(U2-PWM0-Pad6)_5*%
X232780000Y-40444600D03*
%TO.N,unconnected-(U2-PWM0-Pad6)_6*%
X232780000Y-37904600D03*
%TO.N,unconnected-(U2-PWM0-Pad6)_13*%
X215000000Y-32824600D03*
%TO.P,U2,7,PWM1*%
%TO.N,unconnected-(U2-PWM1-Pad7)*%
X227700000Y-86164600D03*
%TO.P,U2,8,PWM2*%
%TO.N,unconnected-(U2-PWM2-Pad8)*%
X227700000Y-83624600D03*
%TO.P,U2,9,PWM3*%
%TO.N,unconnected-(U2-PWM3-Pad9)*%
X227700000Y-81084600D03*
%TO.P,U2,10,PWM4*%
%TO.N,unconnected-(U2-PWM4-Pad10)*%
X227700000Y-78544600D03*
%TO.P,U2,11,PWM5*%
%TO.N,unconnected-(U2-PWM5-Pad11)*%
X227700000Y-73464600D03*
%TO.P,U2,12,PWM6*%
%TO.N,unconnected-(U2-PWM6-Pad12)*%
X227700000Y-70924600D03*
%TO.P,U2,13,PWM7*%
%TO.N,unconnected-(U2-PWM7-Pad13)*%
X227700000Y-68384600D03*
%TO.P,U2,14,GND*%
%TO.N,GND*%
X227700000Y-65844600D03*
%TO.P,U2,15,PWM8*%
%TO.N,unconnected-(U2-PWM8-Pad15)*%
X227700000Y-58224600D03*
%TO.P,U2,16,PWM9*%
%TO.N,unconnected-(U2-PWM9-Pad16)*%
X227700000Y-55684600D03*
%TO.P,U2,17,PWM10*%
%TO.N,unconnected-(U2-PWM10-Pad17)*%
X227700000Y-53144600D03*
%TO.P,U2,18,PWM11*%
%TO.N,unconnected-(U2-PWM11-Pad18)*%
X227700000Y-50604600D03*
%TO.P,U2,19,PWM12*%
%TO.N,unconnected-(U2-PWM12-Pad19)*%
X227700000Y-45524600D03*
%TO.P,U2,20,PWM13*%
%TO.N,unconnected-(U2-PWM13-Pad20)*%
X227700000Y-42984600D03*
%TO.P,U2,21,PWM14*%
%TO.N,unconnected-(U2-PWM14-Pad21)*%
X227700000Y-40444600D03*
%TO.P,U2,22,PWM15*%
%TO.N,unconnected-(U2-PWM15-Pad22)*%
X227700000Y-37904600D03*
%TO.P,U2,24,A5*%
%TO.N,+5V*%
X212587000Y-63812600D03*
%TO.P,U2,25,EXTCLK*%
%TO.N,GND*%
X212587000Y-60358200D03*
%TD*%
D18*
%TO.P,C2,*%
%TO.N,*%
X138350000Y-37000000D03*
X151850000Y-37000000D03*
D19*
%TO.P,C2,1,Vin*%
%TO.N,GND*%
X148700000Y-43000000D03*
D20*
%TO.P,C2,2,Vout*%
%TO.N,+12V*%
X141500000Y-43000000D03*
%TD*%
D15*
%TO.P,,*%
%TO.N,*%
X128000000Y-93000000D03*
%TD*%
%TO.P,,*%
%TO.N,*%
X128000000Y-31000000D03*
%TD*%
%TO.P,,*%
%TO.N,*%
X234000000Y-94000000D03*
%TD*%
D12*
%TO.P,J5,1,Pin_1*%
%TO.N,N/C*%
X134000000Y-84020000D03*
D13*
%TO.P,J5,2,Pin_2*%
X131460000Y-84020000D03*
%TO.P,J5,3,Pin_3*%
%TO.N,SDA*%
X134000000Y-81480000D03*
%TO.P,J5,4,Pin_4*%
%TO.N,N/C*%
X131460000Y-81480000D03*
%TO.P,J5,5,Pin_5*%
%TO.N,SCL*%
X134000000Y-78940000D03*
%TO.P,J5,6,Pin_6*%
%TO.N,GND*%
X131460000Y-78940000D03*
%TO.P,J5,7,Pin_7*%
%TO.N,unconnected-(J5-Pin_7-Pad7)*%
X134000000Y-76400000D03*
%TO.P,J5,8,Pin_8*%
%TO.N,unconnected-(J5-Pin_8-Pad8)*%
X131460000Y-76400000D03*
%TO.P,J5,9,Pin_9*%
%TO.N,GND*%
X134000000Y-73860000D03*
%TO.P,J5,10,Pin_10*%
%TO.N,unconnected-(J5-Pin_10-Pad10)*%
X131460000Y-73860000D03*
%TO.P,J5,11,Pin_11*%
%TO.N,unconnected-(J5-Pin_11-Pad11)*%
X134000000Y-71320000D03*
%TO.P,J5,12,Pin_12*%
%TO.N,unconnected-(J5-Pin_12-Pad12)*%
X131460000Y-71320000D03*
%TO.P,J5,13,Pin_13*%
%TO.N,unconnected-(J5-Pin_13-Pad13)*%
X134000000Y-68780000D03*
%TO.P,J5,14,Pin_14*%
%TO.N,GND*%
X131460000Y-68780000D03*
%TO.P,J5,15,Pin_15*%
%TO.N,unconnected-(J5-Pin_15-Pad15)*%
X134000000Y-66240000D03*
%TO.P,J5,16,Pin_16*%
%TO.N,unconnected-(J5-Pin_16-Pad16)*%
X131460000Y-66240000D03*
%TO.P,J5,17,Pin_17*%
%TO.N,N/C*%
X134000000Y-63700000D03*
%TO.P,J5,18,Pin_18*%
%TO.N,unconnected-(J5-Pin_18-Pad18)*%
X131460000Y-63700000D03*
%TO.P,J5,19,Pin_19*%
%TO.N,unconnected-(J5-Pin_19-Pad19)*%
X134000000Y-61160000D03*
%TO.P,J5,20,Pin_20*%
%TO.N,GND*%
X131460000Y-61160000D03*
%TO.P,J5,21,Pin_21*%
%TO.N,unconnected-(J5-Pin_21-Pad21)*%
X134000000Y-58620000D03*
%TO.P,J5,22,Pin_22*%
%TO.N,unconnected-(J5-Pin_22-Pad22)*%
X131460000Y-58620000D03*
%TO.P,J5,23,Pin_23*%
%TO.N,unconnected-(J5-Pin_23-Pad23)*%
X134000000Y-56080000D03*
%TO.P,J5,24,Pin_24*%
%TO.N,unconnected-(J5-Pin_24-Pad24)*%
X131460000Y-56080000D03*
%TO.P,J5,25,Pin_25*%
%TO.N,GND*%
X134000000Y-53540000D03*
%TO.P,J5,26,Pin_26*%
%TO.N,unconnected-(J5-Pin_26-Pad26)*%
X131460000Y-53540000D03*
%TO.P,J5,27,Pin_27*%
%TO.N,unconnected-(J5-Pin_27-Pad27)*%
X134000000Y-51000000D03*
%TO.P,J5,28,Pin_28*%
%TO.N,unconnected-(J5-Pin_28-Pad28)*%
X131460000Y-51000000D03*
%TO.P,J5,29,Pin_29*%
%TO.N,unconnected-(J5-Pin_29-Pad29)*%
X134000000Y-48460000D03*
%TO.P,J5,30,Pin_30*%
%TO.N,GND*%
X131460000Y-48460000D03*
%TO.P,J5,31,Pin_31*%
%TO.N,unconnected-(J5-Pin_31-Pad31)*%
X134000000Y-45920000D03*
%TO.P,J5,32,Pin_32*%
%TO.N,SERVO*%
X131460000Y-45920000D03*
%TO.P,J5,33,Pin_33*%
%TO.N,ESC*%
X134000000Y-43380000D03*
%TO.P,J5,34,Pin_34*%
%TO.N,GND*%
X131460000Y-43380000D03*
%TO.P,J5,35,Pin_35*%
%TO.N,unconnected-(J5-Pin_35-Pad35)*%
X134000000Y-40840000D03*
%TO.P,J5,36,Pin_36*%
%TO.N,unconnected-(J5-Pin_36-Pad36)*%
X131460000Y-40840000D03*
%TO.P,J5,37,Pin_37*%
%TO.N,unconnected-(J5-Pin_37-Pad37)*%
X134000000Y-38300000D03*
%TO.P,J5,38,Pin_38*%
%TO.N,unconnected-(J5-Pin_38-Pad38)*%
X131460000Y-38300000D03*
%TO.P,J5,39,Pin_39*%
%TO.N,GND*%
X134000000Y-35760000D03*
%TO.P,J5,40,Pin_40*%
%TO.N,unconnected-(J5-Pin_40-Pad40)*%
X131460000Y-35760000D03*
%TD*%
%TA.AperFunction,Conductor*%
%TO.N,GND*%
G36*
X132574925Y-79701373D02*
G01*
X132628119Y-79625405D01*
X132682696Y-79581781D01*
X132752195Y-79574588D01*
X132814549Y-79606110D01*
X132831269Y-79625405D01*
X132961505Y-79811401D01*
X132961506Y-79811402D01*
X133128597Y-79978493D01*
X133128603Y-79978498D01*
X133314158Y-80108425D01*
X133357783Y-80163002D01*
X133364977Y-80232500D01*
X133333454Y-80294855D01*
X133314158Y-80311575D01*
X133128597Y-80441505D01*
X132961505Y-80608597D01*
X132831575Y-80794158D01*
X132776998Y-80837783D01*
X132707500Y-80844977D01*
X132645145Y-80813454D01*
X132628425Y-80794158D01*
X132498494Y-80608597D01*
X132331402Y-80441506D01*
X132331401Y-80441505D01*
X132145405Y-80311269D01*
X132101781Y-80256692D01*
X132094588Y-80187193D01*
X132126110Y-80124839D01*
X132145405Y-80108119D01*
X132221373Y-80054925D01*
X131589409Y-79422962D01*
X131652993Y-79405925D01*
X131767007Y-79340099D01*
X131860099Y-79247007D01*
X131925925Y-79132993D01*
X131942962Y-79069410D01*
X132574925Y-79701373D01*
G37*
%TD.AperFunction*%
%TA.AperFunction,Conductor*%
G36*
X132814855Y-77066546D02*
G01*
X132831575Y-77085842D01*
X132961501Y-77271396D01*
X132961506Y-77271402D01*
X133128597Y-77438493D01*
X133128603Y-77438498D01*
X133314158Y-77568425D01*
X133357783Y-77623002D01*
X133364977Y-77692500D01*
X133333454Y-77754855D01*
X133314158Y-77771575D01*
X133128597Y-77901505D01*
X132961505Y-78068597D01*
X132831269Y-78254595D01*
X132776692Y-78298220D01*
X132707194Y-78305414D01*
X132644839Y-78273891D01*
X132628119Y-78254595D01*
X132574925Y-78178626D01*
X132574925Y-78178625D01*
X131942962Y-78810589D01*
X131925925Y-78747007D01*
X131860099Y-78632993D01*
X131767007Y-78539901D01*
X131652993Y-78474075D01*
X131589410Y-78457037D01*
X132221373Y-77825073D01*
X132221373Y-77825072D01*
X132145405Y-77771880D01*
X132101780Y-77717304D01*
X132094586Y-77647805D01*
X132126108Y-77585451D01*
X132145399Y-77568734D01*
X132331401Y-77438495D01*
X132498495Y-77271401D01*
X132628425Y-77085842D01*
X132683002Y-77042217D01*
X132752500Y-77035023D01*
X132814855Y-77066546D01*
G37*
%TD.AperFunction*%
%TA.AperFunction,Conductor*%
G36*
X133534075Y-74052993D02*
G01*
X133599901Y-74167007D01*
X133692993Y-74260099D01*
X133807007Y-74325925D01*
X133870590Y-74342962D01*
X133238625Y-74974925D01*
X133314594Y-75028119D01*
X133358219Y-75082696D01*
X133365413Y-75152194D01*
X133333890Y-75214549D01*
X133314595Y-75231269D01*
X133128594Y-75361508D01*
X132961505Y-75528597D01*
X132831575Y-75714158D01*
X132776998Y-75757783D01*
X132707500Y-75764977D01*
X132645145Y-75733454D01*
X132628425Y-75714158D01*
X132498494Y-75528597D01*
X132331402Y-75361506D01*
X132331396Y-75361501D01*
X132145842Y-75231575D01*
X132102217Y-75176998D01*
X132095023Y-75107500D01*
X132126546Y-75045145D01*
X132145842Y-75028425D01*
X132236279Y-74965100D01*
X132331401Y-74898495D01*
X132498495Y-74731401D01*
X132628732Y-74545403D01*
X132683307Y-74501780D01*
X132752805Y-74494586D01*
X132815160Y-74526109D01*
X132831880Y-74545405D01*
X132885073Y-74621373D01*
X133517037Y-73989409D01*
X133534075Y-74052993D01*
G37*
%TD.AperFunction*%
%TA.AperFunction,Conductor*%
G36*
X132814855Y-71986546D02*
G01*
X132831575Y-72005842D01*
X132961500Y-72191395D01*
X132961505Y-72191401D01*
X133128599Y-72358495D01*
X133314158Y-72488425D01*
X133314594Y-72488730D01*
X133358218Y-72543307D01*
X133365411Y-72612806D01*
X133333889Y-72675160D01*
X133314593Y-72691880D01*
X133238626Y-72745072D01*
X133238625Y-72745072D01*
X133870590Y-73377037D01*
X133807007Y-73394075D01*
X133692993Y-73459901D01*
X133599901Y-73552993D01*
X133534075Y-73667007D01*
X133517037Y-73730590D01*
X132885073Y-73098626D01*
X132831881Y-73174594D01*
X132777304Y-73218219D01*
X132707806Y-73225413D01*
X132645451Y-73193891D01*
X132628730Y-73174594D01*
X132498494Y-72988597D01*
X132331402Y-72821506D01*
X132331396Y-72821501D01*
X132145842Y-72691575D01*
X132102217Y-72636998D01*
X132095023Y-72567500D01*
X132126546Y-72505145D01*
X132145842Y-72488425D01*
X132168026Y-72472891D01*
X132331401Y-72358495D01*
X132498495Y-72191401D01*
X132628425Y-72005842D01*
X132683002Y-71962217D01*
X132752500Y-71955023D01*
X132814855Y-71986546D01*
G37*
%TD.AperFunction*%
%TA.AperFunction,Conductor*%
G36*
X132574925Y-69541373D02*
G01*
X132628119Y-69465405D01*
X132682696Y-69421781D01*
X132752195Y-69414588D01*
X132814549Y-69446110D01*
X132831269Y-69465405D01*
X132961505Y-69651401D01*
X132961506Y-69651402D01*
X133128597Y-69818493D01*
X133128603Y-69818498D01*
X133314158Y-69948425D01*
X133357783Y-70003002D01*
X133364977Y-70072500D01*
X133333454Y-70134855D01*
X133314158Y-70151575D01*
X133128597Y-70281505D01*
X132961505Y-70448597D01*
X132831575Y-70634158D01*
X132776998Y-70677783D01*
X132707500Y-70684977D01*
X132645145Y-70653454D01*
X132628425Y-70634158D01*
X132498494Y-70448597D01*
X132331402Y-70281506D01*
X132331401Y-70281505D01*
X132145405Y-70151269D01*
X132101781Y-70096692D01*
X132094588Y-70027193D01*
X132126110Y-69964839D01*
X132145405Y-69948119D01*
X132221373Y-69894925D01*
X131589409Y-69262962D01*
X131652993Y-69245925D01*
X131767007Y-69180099D01*
X131860099Y-69087007D01*
X131925925Y-68972993D01*
X131942962Y-68909410D01*
X132574925Y-69541373D01*
G37*
%TD.AperFunction*%
%TA.AperFunction,Conductor*%
G36*
X132814855Y-66906546D02*
G01*
X132831575Y-66925842D01*
X132961501Y-67111396D01*
X132961506Y-67111402D01*
X133128597Y-67278493D01*
X133128603Y-67278498D01*
X133314158Y-67408425D01*
X133357783Y-67463002D01*
X133364977Y-67532500D01*
X133333454Y-67594855D01*
X133314158Y-67611575D01*
X133128597Y-67741505D01*
X132961505Y-67908597D01*
X132831269Y-68094595D01*
X132776692Y-68138220D01*
X132707194Y-68145414D01*
X132644839Y-68113891D01*
X132628119Y-68094595D01*
X132574925Y-68018626D01*
X132574925Y-68018625D01*
X131942962Y-68650589D01*
X131925925Y-68587007D01*
X131860099Y-68472993D01*
X131767007Y-68379901D01*
X131652993Y-68314075D01*
X131589410Y-68297037D01*
X132221373Y-67665073D01*
X132221373Y-67665072D01*
X132145405Y-67611880D01*
X132101780Y-67557304D01*
X132094586Y-67487805D01*
X132126108Y-67425451D01*
X132145399Y-67408734D01*
X132331401Y-67278495D01*
X132498495Y-67111401D01*
X132628425Y-66925842D01*
X132683002Y-66882217D01*
X132752500Y-66875023D01*
X132814855Y-66906546D01*
G37*
%TD.AperFunction*%
%TA.AperFunction,Conductor*%
G36*
X132574925Y-61921373D02*
G01*
X132628119Y-61845405D01*
X132682696Y-61801781D01*
X132752195Y-61794588D01*
X132814549Y-61826110D01*
X132831269Y-61845405D01*
X132961505Y-62031401D01*
X132961506Y-62031402D01*
X133128597Y-62198493D01*
X133128603Y-62198498D01*
X133314158Y-62328425D01*
X133357783Y-62383002D01*
X133364977Y-62452500D01*
X133333454Y-62514855D01*
X133314158Y-62531575D01*
X133128597Y-62661505D01*
X132961505Y-62828597D01*
X132831575Y-63014158D01*
X132776998Y-63057783D01*
X132707500Y-63064977D01*
X132645145Y-63033454D01*
X132628425Y-63014158D01*
X132498494Y-62828597D01*
X132331402Y-62661506D01*
X132331401Y-62661505D01*
X132145405Y-62531269D01*
X132101781Y-62476692D01*
X132094588Y-62407193D01*
X132126110Y-62344839D01*
X132145405Y-62328119D01*
X132221373Y-62274925D01*
X131589409Y-61642962D01*
X131652993Y-61625925D01*
X131767007Y-61560099D01*
X131860099Y-61467007D01*
X131925925Y-61352993D01*
X131942962Y-61289410D01*
X132574925Y-61921373D01*
G37*
%TD.AperFunction*%
%TA.AperFunction,Conductor*%
G36*
X132814855Y-59286546D02*
G01*
X132831575Y-59305842D01*
X132961501Y-59491396D01*
X132961506Y-59491402D01*
X133128597Y-59658493D01*
X133128603Y-59658498D01*
X133314158Y-59788425D01*
X133357783Y-59843002D01*
X133364977Y-59912500D01*
X133333454Y-59974855D01*
X133314158Y-59991575D01*
X133128597Y-60121505D01*
X132961505Y-60288597D01*
X132831269Y-60474595D01*
X132776692Y-60518220D01*
X132707194Y-60525414D01*
X132644839Y-60493891D01*
X132628119Y-60474595D01*
X132574925Y-60398626D01*
X132574925Y-60398625D01*
X131942962Y-61030589D01*
X131925925Y-60967007D01*
X131860099Y-60852993D01*
X131767007Y-60759901D01*
X131652993Y-60694075D01*
X131589410Y-60677037D01*
X132221373Y-60045073D01*
X132221373Y-60045072D01*
X132145405Y-59991880D01*
X132101780Y-59937304D01*
X132094586Y-59867805D01*
X132126108Y-59805451D01*
X132145399Y-59788734D01*
X132331401Y-59658495D01*
X132498495Y-59491401D01*
X132628425Y-59305842D01*
X132683002Y-59262217D01*
X132752500Y-59255023D01*
X132814855Y-59286546D01*
G37*
%TD.AperFunction*%
%TA.AperFunction,Conductor*%
G36*
X133534075Y-53732993D02*
G01*
X133599901Y-53847007D01*
X133692993Y-53940099D01*
X133807007Y-54005925D01*
X133870590Y-54022962D01*
X133238625Y-54654925D01*
X133314594Y-54708119D01*
X133358219Y-54762696D01*
X133365413Y-54832194D01*
X133333890Y-54894549D01*
X133314595Y-54911269D01*
X133128594Y-55041508D01*
X132961505Y-55208597D01*
X132831575Y-55394158D01*
X132776998Y-55437783D01*
X132707500Y-55444977D01*
X132645145Y-55413454D01*
X132628425Y-55394158D01*
X132498494Y-55208597D01*
X132331402Y-55041506D01*
X132331396Y-55041501D01*
X132145842Y-54911575D01*
X132102217Y-54856998D01*
X132095023Y-54787500D01*
X132126546Y-54725145D01*
X132145842Y-54708425D01*
X132222248Y-54654925D01*
X132331401Y-54578495D01*
X132498495Y-54411401D01*
X132628732Y-54225403D01*
X132683307Y-54181780D01*
X132752805Y-54174586D01*
X132815160Y-54206109D01*
X132831880Y-54225405D01*
X132885073Y-54301373D01*
X133517037Y-53669409D01*
X133534075Y-53732993D01*
G37*
%TD.AperFunction*%
%TA.AperFunction,Conductor*%
G36*
X132814855Y-51666546D02*
G01*
X132831575Y-51685842D01*
X132961500Y-51871395D01*
X132961505Y-51871401D01*
X133128599Y-52038495D01*
X133314158Y-52168425D01*
X133314594Y-52168730D01*
X133358218Y-52223307D01*
X133365411Y-52292806D01*
X133333889Y-52355160D01*
X133314593Y-52371880D01*
X133238626Y-52425072D01*
X133238625Y-52425072D01*
X133870590Y-53057037D01*
X133807007Y-53074075D01*
X133692993Y-53139901D01*
X133599901Y-53232993D01*
X133534075Y-53347007D01*
X133517037Y-53410590D01*
X132885073Y-52778626D01*
X132831881Y-52854594D01*
X132777304Y-52898219D01*
X132707806Y-52905413D01*
X132645451Y-52873891D01*
X132628730Y-52854594D01*
X132498494Y-52668597D01*
X132331402Y-52501506D01*
X132331396Y-52501501D01*
X132145842Y-52371575D01*
X132102217Y-52316998D01*
X132095023Y-52247500D01*
X132126546Y-52185145D01*
X132145842Y-52168425D01*
X132168026Y-52152891D01*
X132331401Y-52038495D01*
X132498495Y-51871401D01*
X132628425Y-51685842D01*
X132683002Y-51642217D01*
X132752500Y-51635023D01*
X132814855Y-51666546D01*
G37*
%TD.AperFunction*%
%TA.AperFunction,Conductor*%
G36*
X132574925Y-49221373D02*
G01*
X132628119Y-49145405D01*
X132682696Y-49101781D01*
X132752195Y-49094588D01*
X132814549Y-49126110D01*
X132831269Y-49145405D01*
X132961505Y-49331401D01*
X132961506Y-49331402D01*
X133128597Y-49498493D01*
X133128603Y-49498498D01*
X133314158Y-49628425D01*
X133357783Y-49683002D01*
X133364977Y-49752500D01*
X133333454Y-49814855D01*
X133314158Y-49831575D01*
X133128597Y-49961505D01*
X132961505Y-50128597D01*
X132831575Y-50314158D01*
X132776998Y-50357783D01*
X132707500Y-50364977D01*
X132645145Y-50333454D01*
X132628425Y-50314158D01*
X132498494Y-50128597D01*
X132331402Y-49961506D01*
X132331401Y-49961505D01*
X132145405Y-49831269D01*
X132101781Y-49776692D01*
X132094588Y-49707193D01*
X132126110Y-49644839D01*
X132145405Y-49628119D01*
X132221373Y-49574925D01*
X131589409Y-48942962D01*
X131652993Y-48925925D01*
X131767007Y-48860099D01*
X131860099Y-48767007D01*
X131925925Y-48652993D01*
X131942962Y-48589410D01*
X132574925Y-49221373D01*
G37*
%TD.AperFunction*%
%TA.AperFunction,Conductor*%
G36*
X132814855Y-46586546D02*
G01*
X132831575Y-46605842D01*
X132961501Y-46791396D01*
X132961506Y-46791402D01*
X133128597Y-46958493D01*
X133128603Y-46958498D01*
X133314158Y-47088425D01*
X133357783Y-47143002D01*
X133364977Y-47212500D01*
X133333454Y-47274855D01*
X133314158Y-47291575D01*
X133128597Y-47421505D01*
X132961505Y-47588597D01*
X132831269Y-47774595D01*
X132776692Y-47818220D01*
X132707194Y-47825414D01*
X132644839Y-47793891D01*
X132628119Y-47774595D01*
X132574925Y-47698626D01*
X132574925Y-47698625D01*
X131942962Y-48330589D01*
X131925925Y-48267007D01*
X131860099Y-48152993D01*
X131767007Y-48059901D01*
X131652993Y-47994075D01*
X131589410Y-47977037D01*
X132221373Y-47345073D01*
X132221373Y-47345072D01*
X132145405Y-47291880D01*
X132101780Y-47237304D01*
X132094586Y-47167805D01*
X132126108Y-47105451D01*
X132145399Y-47088734D01*
X132331401Y-46958495D01*
X132498495Y-46791401D01*
X132628425Y-46605842D01*
X132683002Y-46562217D01*
X132752500Y-46555023D01*
X132814855Y-46586546D01*
G37*
%TD.AperFunction*%
%TA.AperFunction,Conductor*%
G36*
X132574925Y-44141373D02*
G01*
X132628119Y-44065405D01*
X132682696Y-44021781D01*
X132752195Y-44014588D01*
X132814549Y-44046110D01*
X132831269Y-44065405D01*
X132961505Y-44251401D01*
X132961506Y-44251402D01*
X133128597Y-44418493D01*
X133128603Y-44418498D01*
X133314158Y-44548425D01*
X133357783Y-44603002D01*
X133364977Y-44672500D01*
X133333454Y-44734855D01*
X133314158Y-44751575D01*
X133128597Y-44881505D01*
X132961505Y-45048597D01*
X132831575Y-45234158D01*
X132776998Y-45277783D01*
X132707500Y-45284977D01*
X132645145Y-45253454D01*
X132628425Y-45234158D01*
X132498494Y-45048597D01*
X132331402Y-44881506D01*
X132331401Y-44881505D01*
X132145405Y-44751269D01*
X132101781Y-44696692D01*
X132094588Y-44627193D01*
X132126110Y-44564839D01*
X132145405Y-44548119D01*
X132221373Y-44494925D01*
X131589409Y-43862962D01*
X131652993Y-43845925D01*
X131767007Y-43780099D01*
X131860099Y-43687007D01*
X131925925Y-43572993D01*
X131942962Y-43509410D01*
X132574925Y-44141373D01*
G37*
%TD.AperFunction*%
%TA.AperFunction,Conductor*%
G36*
X132814855Y-41506546D02*
G01*
X132831575Y-41525842D01*
X132961501Y-41711396D01*
X132961506Y-41711402D01*
X133128597Y-41878493D01*
X133128603Y-41878498D01*
X133314158Y-42008425D01*
X133357783Y-42063002D01*
X133364977Y-42132500D01*
X133333454Y-42194855D01*
X133314158Y-42211575D01*
X133128597Y-42341505D01*
X132961505Y-42508597D01*
X132831269Y-42694595D01*
X132776692Y-42738220D01*
X132707194Y-42745414D01*
X132644839Y-42713891D01*
X132628119Y-42694595D01*
X132574925Y-42618626D01*
X132574925Y-42618625D01*
X131942962Y-43250589D01*
X131925925Y-43187007D01*
X131860099Y-43072993D01*
X131767007Y-42979901D01*
X131652993Y-42914075D01*
X131589410Y-42897037D01*
X132221373Y-42265073D01*
X132221373Y-42265072D01*
X132145405Y-42211880D01*
X132101780Y-42157304D01*
X132094586Y-42087805D01*
X132126108Y-42025451D01*
X132145399Y-42008734D01*
X132331401Y-41878495D01*
X132498495Y-41711401D01*
X132628425Y-41525842D01*
X132683002Y-41482217D01*
X132752500Y-41475023D01*
X132814855Y-41506546D01*
G37*
%TD.AperFunction*%
%TA.AperFunction,Conductor*%
G36*
X228923434Y-66714482D02*
G01*
X228934861Y-66713297D01*
X229003573Y-66725960D01*
X229048092Y-66765794D01*
X229048683Y-66765335D01*
X229051218Y-66768592D01*
X229051456Y-66768805D01*
X229051831Y-66769380D01*
X229051836Y-66769385D01*
X229220256Y-66952338D01*
X229303008Y-67016747D01*
X229343821Y-67073457D01*
X229347496Y-67143230D01*
X229312864Y-67203913D01*
X229303014Y-67212448D01*
X229260414Y-67245606D01*
X229220257Y-67276861D01*
X229061230Y-67449610D01*
X229001342Y-67485601D01*
X228931504Y-67483500D01*
X228878770Y-67449610D01*
X228790343Y-67353553D01*
X228719744Y-67276862D01*
X228616253Y-67196312D01*
X228575442Y-67139603D01*
X228568655Y-67090776D01*
X228570056Y-67068209D01*
X227829409Y-66327562D01*
X227892993Y-66310525D01*
X228007007Y-66244699D01*
X228100099Y-66151607D01*
X228165925Y-66037593D01*
X228182962Y-65974010D01*
X228923434Y-66714482D01*
G37*
%TD.AperFunction*%
%TA.AperFunction,Conductor*%
G36*
X236943039Y-27019685D02*
G01*
X236988794Y-27072489D01*
X237000000Y-27124000D01*
X237000000Y-96876000D01*
X236980315Y-96943039D01*
X236927511Y-96988794D01*
X236876000Y-97000000D01*
X124124000Y-97000000D01*
X124056961Y-96980315D01*
X124011206Y-96927511D01*
X124000000Y-96876000D01*
X124000000Y-93000001D01*
X125994390Y-93000001D01*
X126014804Y-93285433D01*
X126075628Y-93565037D01*
X126075630Y-93565043D01*
X126075631Y-93565046D01*
X126175633Y-93833161D01*
X126175635Y-93833166D01*
X126312770Y-94084309D01*
X126312775Y-94084317D01*
X126484254Y-94313387D01*
X126484270Y-94313405D01*
X126686594Y-94515729D01*
X126686612Y-94515745D01*
X126915682Y-94687224D01*
X126915690Y-94687229D01*
X127166833Y-94824364D01*
X127166832Y-94824364D01*
X127166836Y-94824365D01*
X127166839Y-94824367D01*
X127434954Y-94924369D01*
X127434960Y-94924370D01*
X127434962Y-94924371D01*
X127714566Y-94985195D01*
X127714568Y-94985195D01*
X127714572Y-94985196D01*
X127968220Y-95003337D01*
X127999999Y-95005610D01*
X128000000Y-95005610D01*
X128000001Y-95005610D01*
X128028595Y-95003564D01*
X128285428Y-94985196D01*
X128565046Y-94924369D01*
X128833161Y-94824367D01*
X129084315Y-94687226D01*
X129313395Y-94515739D01*
X129515739Y-94313395D01*
X129687226Y-94084315D01*
X129733265Y-94000001D01*
X231994390Y-94000001D01*
X232014804Y-94285433D01*
X232075628Y-94565037D01*
X232175635Y-94833166D01*
X232312770Y-95084309D01*
X232312775Y-95084317D01*
X232484254Y-95313387D01*
X232484270Y-95313405D01*
X232686594Y-95515729D01*
X232686612Y-95515745D01*
X232915682Y-95687224D01*
X232915690Y-95687229D01*
X233166833Y-95824364D01*
X233166832Y-95824364D01*
X233166836Y-95824365D01*
X233166839Y-95824367D01*
X233434954Y-95924369D01*
X233434960Y-95924370D01*
X233434962Y-95924371D01*
X233714566Y-95985195D01*
X233714568Y-95985195D01*
X233714572Y-95985196D01*
X233968220Y-96003337D01*
X233999999Y-96005610D01*
X234000000Y-96005610D01*
X234000001Y-96005610D01*
X234028595Y-96003564D01*
X234285428Y-95985196D01*
X234565046Y-95924369D01*
X234833161Y-95824367D01*
X235084315Y-95687226D01*
X235313395Y-95515739D01*
X235515739Y-95313395D01*
X235687226Y-95084315D01*
X235824367Y-94833161D01*
X235924369Y-94565046D01*
X235985196Y-94285428D01*
X236005610Y-94000000D01*
X235985196Y-93714572D01*
X235924369Y-93434954D01*
X235824367Y-93166839D01*
X235687226Y-92915685D01*
X235559528Y-92745100D01*
X235515745Y-92686612D01*
X235515729Y-92686594D01*
X235313405Y-92484270D01*
X235313387Y-92484254D01*
X235084317Y-92312775D01*
X235084309Y-92312770D01*
X234833166Y-92175635D01*
X234833167Y-92175635D01*
X234725915Y-92135632D01*
X234565046Y-92075631D01*
X234565043Y-92075630D01*
X234565037Y-92075628D01*
X234285433Y-92014804D01*
X234000001Y-91994390D01*
X233999999Y-91994390D01*
X233714566Y-92014804D01*
X233434962Y-92075628D01*
X233166833Y-92175635D01*
X232915690Y-92312770D01*
X232915682Y-92312775D01*
X232686612Y-92484254D01*
X232686594Y-92484270D01*
X232484270Y-92686594D01*
X232484254Y-92686612D01*
X232312775Y-92915682D01*
X232312770Y-92915690D01*
X232175635Y-93166833D01*
X232075628Y-93434962D01*
X232014804Y-93714566D01*
X231994390Y-93999998D01*
X231994390Y-94000001D01*
X129733265Y-94000001D01*
X129824367Y-93833161D01*
X129924369Y-93565046D01*
X129985196Y-93285428D01*
X130005610Y-93000000D01*
X129985196Y-92714572D01*
X129982933Y-92704171D01*
X129924371Y-92434962D01*
X129924370Y-92434960D01*
X129924369Y-92434954D01*
X129824367Y-92166839D01*
X129774563Y-92075631D01*
X129687229Y-91915690D01*
X129687224Y-91915682D01*
X129515745Y-91686612D01*
X129515729Y-91686594D01*
X129313405Y-91484270D01*
X129313387Y-91484254D01*
X129084317Y-91312775D01*
X129084309Y-91312770D01*
X128833166Y-91175635D01*
X128833167Y-91175635D01*
X128725915Y-91135632D01*
X128565046Y-91075631D01*
X128565043Y-91075630D01*
X128565037Y-91075628D01*
X128285433Y-91014804D01*
X128000001Y-90994390D01*
X127999999Y-90994390D01*
X127714566Y-91014804D01*
X127434962Y-91075628D01*
X127166833Y-91175635D01*
X126915690Y-91312770D01*
X126915682Y-91312775D01*
X126686612Y-91484254D01*
X126686594Y-91484270D01*
X126484270Y-91686594D01*
X126484254Y-91686612D01*
X126312775Y-91915682D01*
X126312770Y-91915690D01*
X126175635Y-92166833D01*
X126075628Y-92434962D01*
X126014804Y-92714566D01*
X125994390Y-92999998D01*
X125994390Y-93000001D01*
X124000000Y-93000001D01*
X124000000Y-90000001D01*
X209946390Y-90000001D01*
X209966804Y-90285433D01*
X210027628Y-90565037D01*
X210127635Y-90833166D01*
X210264770Y-91084309D01*
X210264775Y-91084317D01*
X210436254Y-91313387D01*
X210436270Y-91313405D01*
X210638594Y-91515729D01*
X210638612Y-91515745D01*
X210867682Y-91687224D01*
X210867690Y-91687229D01*
X211118833Y-91824364D01*
X211118832Y-91824364D01*
X211118836Y-91824365D01*
X211118839Y-91824367D01*
X211386954Y-91924369D01*
X211386960Y-91924370D01*
X211386962Y-91924371D01*
X211666566Y-91985195D01*
X211666568Y-91985195D01*
X211666572Y-91985196D01*
X211920220Y-92003337D01*
X211951999Y-92005610D01*
X211952000Y-92005610D01*
X211952001Y-92005610D01*
X211980595Y-92003564D01*
X212237428Y-91985196D01*
X212260349Y-91980210D01*
X212517037Y-91924371D01*
X212517037Y-91924370D01*
X212517046Y-91924369D01*
X212785161Y-91824367D01*
X213036315Y-91687226D01*
X213265395Y-91515739D01*
X213314874Y-91466260D01*
X213376197Y-91432774D01*
X213445888Y-91437758D01*
X213501822Y-91479629D01*
X213522762Y-91523500D01*
X213575936Y-91733481D01*
X213675826Y-91961206D01*
X213811833Y-92169382D01*
X213821229Y-92179589D01*
X213980256Y-92352338D01*
X214176491Y-92505074D01*
X214395190Y-92623428D01*
X214630386Y-92704171D01*
X214875665Y-92745100D01*
X215124335Y-92745100D01*
X215369614Y-92704171D01*
X215604810Y-92623428D01*
X215823509Y-92505074D01*
X216019744Y-92352338D01*
X216178771Y-92179588D01*
X216238657Y-92143599D01*
X216308495Y-92145699D01*
X216361228Y-92179588D01*
X216520256Y-92352338D01*
X216716491Y-92505074D01*
X216935190Y-92623428D01*
X217170386Y-92704171D01*
X217415665Y-92745100D01*
X217664335Y-92745100D01*
X217909614Y-92704171D01*
X218144810Y-92623428D01*
X218363509Y-92505074D01*
X218559744Y-92352338D01*
X218718771Y-92179588D01*
X218778657Y-92143599D01*
X218848495Y-92145699D01*
X218901228Y-92179588D01*
X219060256Y-92352338D01*
X219256491Y-92505074D01*
X219475190Y-92623428D01*
X219710386Y-92704171D01*
X219955665Y-92745100D01*
X220204335Y-92745100D01*
X220449614Y-92704171D01*
X220684810Y-92623428D01*
X220903509Y-92505074D01*
X221099744Y-92352338D01*
X221258771Y-92179588D01*
X221318657Y-92143599D01*
X221388495Y-92145699D01*
X221441228Y-92179588D01*
X221600256Y-92352338D01*
X221796491Y-92505074D01*
X222015190Y-92623428D01*
X222250386Y-92704171D01*
X222495665Y-92745100D01*
X222744335Y-92745100D01*
X222989614Y-92704171D01*
X223224810Y-92623428D01*
X223443509Y-92505074D01*
X223639744Y-92352338D01*
X223798771Y-92179588D01*
X223858657Y-92143599D01*
X223928495Y-92145699D01*
X223981228Y-92179588D01*
X224140256Y-92352338D01*
X224336491Y-92505074D01*
X224555190Y-92623428D01*
X224790386Y-92704171D01*
X225035665Y-92745100D01*
X225284335Y-92745100D01*
X225529614Y-92704171D01*
X225764810Y-92623428D01*
X225983509Y-92505074D01*
X226179744Y-92352338D01*
X226338771Y-92179588D01*
X226398657Y-92143599D01*
X226468495Y-92145699D01*
X226521228Y-92179588D01*
X226680256Y-92352338D01*
X226876491Y-92505074D01*
X227095190Y-92623428D01*
X227330386Y-92704171D01*
X227575665Y-92745100D01*
X227824335Y-92745100D01*
X228069614Y-92704171D01*
X228304810Y-92623428D01*
X228523509Y-92505074D01*
X228719744Y-92352338D01*
X228888164Y-92169385D01*
X229024173Y-91961207D01*
X229124063Y-91733481D01*
X229185108Y-91492421D01*
X229203383Y-91271865D01*
X229228536Y-91206685D01*
X229284937Y-91165446D01*
X229354681Y-91161248D01*
X229415623Y-91195421D01*
X229426226Y-91207798D01*
X229486261Y-91287995D01*
X229486265Y-91287999D01*
X229486270Y-91288005D01*
X229688594Y-91490329D01*
X229688612Y-91490345D01*
X229917682Y-91661824D01*
X229917690Y-91661829D01*
X230168833Y-91798964D01*
X230168832Y-91798964D01*
X230168836Y-91798965D01*
X230168839Y-91798967D01*
X230436954Y-91898969D01*
X230436960Y-91898970D01*
X230436962Y-91898971D01*
X230716566Y-91959795D01*
X230716568Y-91959795D01*
X230716572Y-91959796D01*
X230970220Y-91977937D01*
X231001999Y-91980210D01*
X231002000Y-91980210D01*
X231002001Y-91980210D01*
X231030595Y-91978164D01*
X231287428Y-91959796D01*
X231490218Y-91915682D01*
X231567037Y-91898971D01*
X231567037Y-91898970D01*
X231567046Y-91898969D01*
X231835161Y-91798967D01*
X232086315Y-91661826D01*
X232315395Y-91490339D01*
X232517739Y-91287995D01*
X232689226Y-91058915D01*
X232826367Y-90807761D01*
X232926369Y-90539646D01*
X232976410Y-90309610D01*
X232987195Y-90260033D01*
X232987195Y-90260032D01*
X232987196Y-90260028D01*
X233007610Y-89974600D01*
X232987196Y-89689172D01*
X232931894Y-89434954D01*
X232926371Y-89409562D01*
X232926370Y-89409560D01*
X232926369Y-89409554D01*
X232826367Y-89141439D01*
X232703098Y-88915690D01*
X232689229Y-88890290D01*
X232689224Y-88890282D01*
X232517745Y-88661212D01*
X232517729Y-88661194D01*
X232315405Y-88458870D01*
X232315387Y-88458854D01*
X232086317Y-88287375D01*
X232086309Y-88287370D01*
X231835166Y-88150235D01*
X231835167Y-88150235D01*
X231727915Y-88110232D01*
X231567046Y-88050231D01*
X231567043Y-88050230D01*
X231567037Y-88050228D01*
X231287433Y-87989404D01*
X231002001Y-87968990D01*
X231001999Y-87968990D01*
X230716566Y-87989404D01*
X230436962Y-88050228D01*
X230168833Y-88150235D01*
X229917690Y-88287370D01*
X229917682Y-88287375D01*
X229688612Y-88458854D01*
X229688594Y-88458870D01*
X229486270Y-88661194D01*
X229486254Y-88661212D01*
X229314775Y-88890282D01*
X229314770Y-88890290D01*
X229177635Y-89141433D01*
X229077628Y-89409562D01*
X229016804Y-89689166D01*
X228996390Y-89974598D01*
X228996390Y-89974601D01*
X229006974Y-90122590D01*
X228992122Y-90190863D01*
X228942717Y-90240268D01*
X228874444Y-90255120D01*
X228808979Y-90230703D01*
X228792064Y-90215423D01*
X228719744Y-90136862D01*
X228523509Y-89984126D01*
X228523507Y-89984125D01*
X228523506Y-89984124D01*
X228304811Y-89865772D01*
X228304802Y-89865769D01*
X228069616Y-89785029D01*
X227824335Y-89744100D01*
X227575665Y-89744100D01*
X227330383Y-89785029D01*
X227095197Y-89865769D01*
X227095188Y-89865772D01*
X226876493Y-89984124D01*
X226680257Y-90136861D01*
X226521230Y-90309610D01*
X226461342Y-90345601D01*
X226391504Y-90343500D01*
X226338770Y-90309610D01*
X226274936Y-90240268D01*
X226179744Y-90136862D01*
X225983509Y-89984126D01*
X225983507Y-89984125D01*
X225983506Y-89984124D01*
X225764811Y-89865772D01*
X225764802Y-89865769D01*
X225529616Y-89785029D01*
X225284335Y-89744100D01*
X225035665Y-89744100D01*
X224790383Y-89785029D01*
X224555197Y-89865769D01*
X224555188Y-89865772D01*
X224336493Y-89984124D01*
X224140257Y-90136861D01*
X223981230Y-90309610D01*
X223921342Y-90345601D01*
X223851504Y-90343500D01*
X223798770Y-90309610D01*
X223734936Y-90240268D01*
X223639744Y-90136862D01*
X223443509Y-89984126D01*
X223443507Y-89984125D01*
X223443506Y-89984124D01*
X223224811Y-89865772D01*
X223224802Y-89865769D01*
X222989616Y-89785029D01*
X222744335Y-89744100D01*
X222495665Y-89744100D01*
X222250383Y-89785029D01*
X222015197Y-89865769D01*
X222015188Y-89865772D01*
X221796493Y-89984124D01*
X221600257Y-90136861D01*
X221441230Y-90309610D01*
X221381342Y-90345601D01*
X221311504Y-90343500D01*
X221258770Y-90309610D01*
X221194936Y-90240268D01*
X221099744Y-90136862D01*
X220903509Y-89984126D01*
X220903507Y-89984125D01*
X220903506Y-89984124D01*
X220684811Y-89865772D01*
X220684802Y-89865769D01*
X220449616Y-89785029D01*
X220204335Y-89744100D01*
X219955665Y-89744100D01*
X219710383Y-89785029D01*
X219475197Y-89865769D01*
X219475188Y-89865772D01*
X219256493Y-89984124D01*
X219060257Y-90136861D01*
X218901230Y-90309610D01*
X218841342Y-90345601D01*
X218771504Y-90343500D01*
X218718770Y-90309610D01*
X218654936Y-90240268D01*
X218559744Y-90136862D01*
X218363509Y-89984126D01*
X218363507Y-89984125D01*
X218363506Y-89984124D01*
X218144811Y-89865772D01*
X218144802Y-89865769D01*
X217909616Y-89785029D01*
X217664335Y-89744100D01*
X217415665Y-89744100D01*
X217170383Y-89785029D01*
X216935197Y-89865769D01*
X216935188Y-89865772D01*
X216716493Y-89984124D01*
X216520257Y-90136861D01*
X216361230Y-90309610D01*
X216301342Y-90345601D01*
X216231504Y-90343500D01*
X216178770Y-90309610D01*
X216114936Y-90240268D01*
X216019744Y-90136862D01*
X215823509Y-89984126D01*
X215823507Y-89984125D01*
X215823506Y-89984124D01*
X215604811Y-89865772D01*
X215604802Y-89865769D01*
X215369616Y-89785029D01*
X215124335Y-89744100D01*
X214875665Y-89744100D01*
X214630383Y-89785029D01*
X214395197Y-89865769D01*
X214395188Y-89865772D01*
X214176493Y-89984124D01*
X214151353Y-90003692D01*
X214086358Y-90029333D01*
X214017818Y-90015766D01*
X213967494Y-89967296D01*
X213951508Y-89914683D01*
X213942235Y-89785029D01*
X213937196Y-89714572D01*
X213931669Y-89689166D01*
X213876371Y-89434962D01*
X213876370Y-89434960D01*
X213876369Y-89434954D01*
X213776367Y-89166839D01*
X213762497Y-89141439D01*
X213639229Y-88915690D01*
X213639224Y-88915682D01*
X213467745Y-88686612D01*
X213467729Y-88686594D01*
X213265405Y-88484270D01*
X213265387Y-88484254D01*
X213036317Y-88312775D01*
X213036309Y-88312770D01*
X212785166Y-88175635D01*
X212785167Y-88175635D01*
X212677915Y-88135632D01*
X212517046Y-88075631D01*
X212517043Y-88075630D01*
X212517037Y-88075628D01*
X212237433Y-88014804D01*
X211952001Y-87994390D01*
X211951999Y-87994390D01*
X211666566Y-88014804D01*
X211386962Y-88075628D01*
X211118833Y-88175635D01*
X210867690Y-88312770D01*
X210867682Y-88312775D01*
X210638612Y-88484254D01*
X210638594Y-88484270D01*
X210436270Y-88686594D01*
X210436254Y-88686612D01*
X210264775Y-88915682D01*
X210264770Y-88915690D01*
X210127635Y-89166833D01*
X210027628Y-89434962D01*
X209966804Y-89714566D01*
X209946390Y-89999998D01*
X209946390Y-90000001D01*
X124000000Y-90000001D01*
X124000000Y-86375000D01*
X170904364Y-86375000D01*
X170961567Y-86588486D01*
X170961570Y-86588492D01*
X171061399Y-86802578D01*
X171196894Y-86996082D01*
X171363917Y-87163105D01*
X171557421Y-87298600D01*
X171771507Y-87398429D01*
X171771516Y-87398433D01*
X171985000Y-87455634D01*
X171985000Y-86558012D01*
X172042007Y-86590925D01*
X172169174Y-86625000D01*
X172300826Y-86625000D01*
X172427993Y-86590925D01*
X172485000Y-86558012D01*
X172485000Y-87455633D01*
X172698483Y-87398433D01*
X172698492Y-87398429D01*
X172912578Y-87298600D01*
X173106078Y-87163108D01*
X173228133Y-87041053D01*
X173289456Y-87007568D01*
X173359148Y-87012552D01*
X173415082Y-87054423D01*
X173431997Y-87085401D01*
X173481202Y-87217328D01*
X173481206Y-87217335D01*
X173567452Y-87332544D01*
X173567455Y-87332547D01*
X173682664Y-87418793D01*
X173682671Y-87418797D01*
X173817517Y-87469091D01*
X173817516Y-87469091D01*
X173824444Y-87469835D01*
X173877127Y-87475500D01*
X175672872Y-87475499D01*
X175732483Y-87469091D01*
X175867331Y-87418796D01*
X175982546Y-87332546D01*
X176068796Y-87217331D01*
X176119091Y-87082483D01*
X176125500Y-87022873D01*
X176125500Y-86164605D01*
X226194357Y-86164605D01*
X226214890Y-86412412D01*
X226214892Y-86412424D01*
X226275936Y-86653481D01*
X226375826Y-86881206D01*
X226511833Y-87089382D01*
X226511836Y-87089385D01*
X226680256Y-87272338D01*
X226876491Y-87425074D01*
X227095190Y-87543428D01*
X227330386Y-87624171D01*
X227575665Y-87665100D01*
X227824335Y-87665100D01*
X228069614Y-87624171D01*
X228304810Y-87543428D01*
X228523509Y-87425074D01*
X228719744Y-87272338D01*
X228878771Y-87099588D01*
X228938657Y-87063599D01*
X229008495Y-87065699D01*
X229061228Y-87099588D01*
X229220256Y-87272338D01*
X229416491Y-87425074D01*
X229635190Y-87543428D01*
X229870386Y-87624171D01*
X230115665Y-87665100D01*
X230364335Y-87665100D01*
X230609614Y-87624171D01*
X230844810Y-87543428D01*
X231063509Y-87425074D01*
X231259744Y-87272338D01*
X231418771Y-87099588D01*
X231478657Y-87063599D01*
X231548495Y-87065699D01*
X231601228Y-87099588D01*
X231760256Y-87272338D01*
X231956491Y-87425074D01*
X232175190Y-87543428D01*
X232410386Y-87624171D01*
X232655665Y-87665100D01*
X232904335Y-87665100D01*
X233149614Y-87624171D01*
X233384810Y-87543428D01*
X233603509Y-87425074D01*
X233799744Y-87272338D01*
X233968164Y-87089385D01*
X234104173Y-86881207D01*
X234204063Y-86653481D01*
X234265108Y-86412421D01*
X234285643Y-86164600D01*
X234276907Y-86059174D01*
X234265109Y-85916787D01*
X234265107Y-85916775D01*
X234204063Y-85675718D01*
X234104173Y-85447993D01*
X233968166Y-85239817D01*
X233939747Y-85208946D01*
X233799744Y-85056862D01*
X233716991Y-84992452D01*
X233676179Y-84935743D01*
X233672504Y-84865970D01*
X233707136Y-84805287D01*
X233716985Y-84796751D01*
X233799744Y-84732338D01*
X233968164Y-84549385D01*
X234104173Y-84341207D01*
X234204063Y-84113481D01*
X234265108Y-83872421D01*
X234265109Y-83872412D01*
X234285643Y-83624605D01*
X234285643Y-83624594D01*
X234265109Y-83376787D01*
X234265107Y-83376775D01*
X234204063Y-83135718D01*
X234104173Y-82907993D01*
X233968166Y-82699817D01*
X233931764Y-82660274D01*
X233799744Y-82516862D01*
X233716991Y-82452452D01*
X233676179Y-82395743D01*
X233672504Y-82325970D01*
X233707136Y-82265287D01*
X233716985Y-82256751D01*
X233799744Y-82192338D01*
X233968164Y-82009385D01*
X234104173Y-81801207D01*
X234204063Y-81573481D01*
X234265108Y-81332421D01*
X234272302Y-81245606D01*
X234285643Y-81084605D01*
X234285643Y-81084594D01*
X234265109Y-80836787D01*
X234265107Y-80836775D01*
X234204063Y-80595718D01*
X234104173Y-80367993D01*
X233968166Y-80159817D01*
X233935508Y-80124341D01*
X233799744Y-79976862D01*
X233716991Y-79912452D01*
X233676179Y-79855743D01*
X233672504Y-79785970D01*
X233707136Y-79725287D01*
X233716985Y-79716751D01*
X233799744Y-79652338D01*
X233968164Y-79469385D01*
X234104173Y-79261207D01*
X234204063Y-79033481D01*
X234265108Y-78792421D01*
X234272379Y-78704673D01*
X234285643Y-78544605D01*
X234285643Y-78544594D01*
X234265109Y-78296787D01*
X234265107Y-78296775D01*
X234204063Y-78055718D01*
X234104173Y-77827993D01*
X233968166Y-77619817D01*
X233936248Y-77585145D01*
X233799744Y-77436862D01*
X233603509Y-77284126D01*
X233603507Y-77284125D01*
X233603506Y-77284124D01*
X233384811Y-77165772D01*
X233384802Y-77165769D01*
X233149616Y-77085029D01*
X232904335Y-77044100D01*
X232655665Y-77044100D01*
X232410383Y-77085029D01*
X232175197Y-77165769D01*
X232175188Y-77165772D01*
X231956493Y-77284124D01*
X231760257Y-77436861D01*
X231601230Y-77609610D01*
X231541342Y-77645601D01*
X231471504Y-77643500D01*
X231418770Y-77609610D01*
X231379108Y-77566526D01*
X231259744Y-77436862D01*
X231063509Y-77284126D01*
X231063507Y-77284125D01*
X231063506Y-77284124D01*
X230844811Y-77165772D01*
X230844802Y-77165769D01*
X230609616Y-77085029D01*
X230364335Y-77044100D01*
X230115665Y-77044100D01*
X229870383Y-77085029D01*
X229635197Y-77165769D01*
X229635188Y-77165772D01*
X229416493Y-77284124D01*
X229220257Y-77436861D01*
X229061230Y-77609610D01*
X229001342Y-77645601D01*
X228931504Y-77643500D01*
X228878770Y-77609610D01*
X228839108Y-77566526D01*
X228719744Y-77436862D01*
X228523509Y-77284126D01*
X228523507Y-77284125D01*
X228523506Y-77284124D01*
X228304811Y-77165772D01*
X228304802Y-77165769D01*
X228069616Y-77085029D01*
X227824335Y-77044100D01*
X227575665Y-77044100D01*
X227330383Y-77085029D01*
X227095197Y-77165769D01*
X227095188Y-77165772D01*
X226876493Y-77284124D01*
X226680257Y-77436861D01*
X226511833Y-77619817D01*
X226375826Y-77827993D01*
X226275936Y-78055718D01*
X226214892Y-78296775D01*
X226214890Y-78296787D01*
X226194357Y-78544594D01*
X226194357Y-78544605D01*
X226214890Y-78792412D01*
X226214892Y-78792424D01*
X226275936Y-79033481D01*
X226375826Y-79261206D01*
X226511833Y-79469382D01*
X226511836Y-79469385D01*
X226680256Y-79652338D01*
X226763008Y-79716747D01*
X226803821Y-79773457D01*
X226807496Y-79843230D01*
X226772864Y-79903913D01*
X226763014Y-79912448D01*
X226752061Y-79920974D01*
X226680257Y-79976861D01*
X226511833Y-80159817D01*
X226375826Y-80367993D01*
X226275936Y-80595718D01*
X226214892Y-80836775D01*
X226214890Y-80836787D01*
X226194357Y-81084594D01*
X226194357Y-81084605D01*
X226214890Y-81332412D01*
X226214892Y-81332424D01*
X226275936Y-81573481D01*
X226375826Y-81801206D01*
X226511833Y-82009382D01*
X226511836Y-82009385D01*
X226680256Y-82192338D01*
X226763008Y-82256747D01*
X226803821Y-82313457D01*
X226807496Y-82383230D01*
X226772864Y-82443913D01*
X226763014Y-82452448D01*
X226736191Y-82473326D01*
X226680257Y-82516861D01*
X226511833Y-82699817D01*
X226375826Y-82907993D01*
X226275936Y-83135718D01*
X226214892Y-83376775D01*
X226214890Y-83376787D01*
X226194357Y-83624594D01*
X226194357Y-83624605D01*
X226214890Y-83872412D01*
X226214892Y-83872424D01*
X226275936Y-84113481D01*
X226375826Y-84341206D01*
X226511833Y-84549382D01*
X226511836Y-84549385D01*
X226680256Y-84732338D01*
X226763008Y-84796747D01*
X226803821Y-84853457D01*
X226807496Y-84923230D01*
X226772864Y-84983913D01*
X226763014Y-84992448D01*
X226711346Y-85032664D01*
X226680257Y-85056861D01*
X226511833Y-85239817D01*
X226375826Y-85447993D01*
X226275936Y-85675718D01*
X226214892Y-85916775D01*
X226214890Y-85916787D01*
X226194357Y-86164594D01*
X226194357Y-86164605D01*
X176125500Y-86164605D01*
X176125499Y-85227128D01*
X176119091Y-85167517D01*
X176118002Y-85164598D01*
X176068797Y-85032671D01*
X176068793Y-85032664D01*
X175982547Y-84917455D01*
X175982544Y-84917452D01*
X175867335Y-84831206D01*
X175867328Y-84831202D01*
X175732482Y-84780908D01*
X175732483Y-84780908D01*
X175672883Y-84774501D01*
X175672881Y-84774500D01*
X175672873Y-84774500D01*
X175672864Y-84774500D01*
X173877129Y-84774500D01*
X173877123Y-84774501D01*
X173817516Y-84780908D01*
X173682671Y-84831202D01*
X173682664Y-84831206D01*
X173567455Y-84917452D01*
X173567452Y-84917455D01*
X173481206Y-85032664D01*
X173481202Y-85032671D01*
X173431997Y-85164598D01*
X173390126Y-85220532D01*
X173324661Y-85244949D01*
X173256388Y-85230097D01*
X173228134Y-85208946D01*
X173106082Y-85086894D01*
X172912578Y-84951399D01*
X172698492Y-84851570D01*
X172698486Y-84851567D01*
X172485000Y-84794364D01*
X172485000Y-85691988D01*
X172427993Y-85659075D01*
X172300826Y-85625000D01*
X172169174Y-85625000D01*
X172042007Y-85659075D01*
X171985000Y-85691988D01*
X171985000Y-84794364D01*
X171984999Y-84794364D01*
X171771513Y-84851567D01*
X171771507Y-84851570D01*
X171557422Y-84951399D01*
X171557420Y-84951400D01*
X171363926Y-85086886D01*
X171363920Y-85086891D01*
X171196891Y-85253920D01*
X171196886Y-85253926D01*
X171061400Y-85447420D01*
X171061399Y-85447422D01*
X170961570Y-85661507D01*
X170961567Y-85661513D01*
X170904364Y-85874999D01*
X170904364Y-85875000D01*
X171801988Y-85875000D01*
X171769075Y-85932007D01*
X171735000Y-86059174D01*
X171735000Y-86190826D01*
X171769075Y-86317993D01*
X171801988Y-86375000D01*
X170904364Y-86375000D01*
X124000000Y-86375000D01*
X124000000Y-84020000D01*
X130104341Y-84020000D01*
X130124936Y-84255403D01*
X130124938Y-84255413D01*
X130186094Y-84483655D01*
X130186096Y-84483659D01*
X130186097Y-84483663D01*
X130216744Y-84549385D01*
X130285965Y-84697830D01*
X130285967Y-84697834D01*
X130379356Y-84831206D01*
X130421505Y-84891401D01*
X130588599Y-85058495D01*
X130685384Y-85126265D01*
X130782165Y-85194032D01*
X130782167Y-85194033D01*
X130782170Y-85194035D01*
X130996337Y-85293903D01*
X131224592Y-85355063D01*
X131401034Y-85370500D01*
X131459999Y-85375659D01*
X131460000Y-85375659D01*
X131460001Y-85375659D01*
X131518966Y-85370500D01*
X131695408Y-85355063D01*
X131923663Y-85293903D01*
X132137830Y-85194035D01*
X132331401Y-85058495D01*
X132453329Y-84936566D01*
X132514648Y-84903084D01*
X132584340Y-84908068D01*
X132640274Y-84949939D01*
X132657189Y-84980917D01*
X132706202Y-85112328D01*
X132706206Y-85112335D01*
X132792452Y-85227544D01*
X132792455Y-85227547D01*
X132907664Y-85313793D01*
X132907671Y-85313797D01*
X133042517Y-85364091D01*
X133042516Y-85364091D01*
X133049444Y-85364835D01*
X133102127Y-85370500D01*
X134897872Y-85370499D01*
X134957483Y-85364091D01*
X135092331Y-85313796D01*
X135207546Y-85227546D01*
X135293796Y-85112331D01*
X135344091Y-84977483D01*
X135350500Y-84917873D01*
X135350499Y-83122128D01*
X135344091Y-83062517D01*
X135342810Y-83059083D01*
X135293797Y-82927671D01*
X135293793Y-82927664D01*
X135207547Y-82812455D01*
X135207544Y-82812452D01*
X135092335Y-82726206D01*
X135092328Y-82726202D01*
X134960917Y-82677189D01*
X134904983Y-82635318D01*
X134880566Y-82569853D01*
X134895418Y-82501580D01*
X134916563Y-82473332D01*
X135038495Y-82351401D01*
X135174035Y-82157830D01*
X135273903Y-81943663D01*
X135299570Y-81847870D01*
X164699500Y-81847870D01*
X164699501Y-81847876D01*
X164705908Y-81907483D01*
X164756202Y-82042328D01*
X164756206Y-82042335D01*
X164842452Y-82157544D01*
X164842455Y-82157547D01*
X164957664Y-82243793D01*
X164957671Y-82243797D01*
X165092517Y-82294091D01*
X165092516Y-82294091D01*
X165099444Y-82294835D01*
X165152127Y-82300500D01*
X166847872Y-82300499D01*
X166907483Y-82294091D01*
X167042331Y-82243796D01*
X167157546Y-82157546D01*
X167243796Y-82042331D01*
X167294091Y-81907483D01*
X167300500Y-81847873D01*
X167300499Y-81847845D01*
X167300678Y-81844547D01*
X167302183Y-81844627D01*
X167320112Y-81783326D01*
X167372868Y-81737514D01*
X167416465Y-81729981D01*
X168100000Y-81046446D01*
X168100000Y-81052661D01*
X168127259Y-81154394D01*
X168179920Y-81245606D01*
X168254394Y-81320080D01*
X168345606Y-81372741D01*
X168447339Y-81400000D01*
X168453553Y-81400000D01*
X167774526Y-82079025D01*
X167847513Y-82130132D01*
X167847521Y-82130136D01*
X168053668Y-82226264D01*
X168053682Y-82226269D01*
X168273389Y-82285139D01*
X168273400Y-82285141D01*
X168499998Y-82304966D01*
X168500002Y-82304966D01*
X168726599Y-82285141D01*
X168726610Y-82285139D01*
X168946317Y-82226269D01*
X168946331Y-82226264D01*
X169152478Y-82130136D01*
X169225471Y-82079024D01*
X168546447Y-81400000D01*
X168552661Y-81400000D01*
X168654394Y-81372741D01*
X168745606Y-81320080D01*
X168820080Y-81245606D01*
X168872741Y-81154394D01*
X168900000Y-81052661D01*
X168900000Y-81046447D01*
X169579024Y-81725471D01*
X169630136Y-81652478D01*
X169726264Y-81446331D01*
X169726269Y-81446317D01*
X169785139Y-81226610D01*
X169785141Y-81226599D01*
X169804966Y-81000002D01*
X169804966Y-80999997D01*
X169785141Y-80773400D01*
X169785139Y-80773389D01*
X169726269Y-80553682D01*
X169726264Y-80553668D01*
X169630136Y-80347521D01*
X169630132Y-80347513D01*
X169579025Y-80274526D01*
X168900000Y-80953551D01*
X168900000Y-80947339D01*
X168872741Y-80845606D01*
X168820080Y-80754394D01*
X168745606Y-80679920D01*
X168654394Y-80627259D01*
X168552661Y-80600000D01*
X168546448Y-80600000D01*
X169225472Y-79920974D01*
X169152478Y-79869863D01*
X168946331Y-79773735D01*
X168946317Y-79773730D01*
X168726610Y-79714860D01*
X168726599Y-79714858D01*
X168500002Y-79695034D01*
X168499998Y-79695034D01*
X168273400Y-79714858D01*
X168273389Y-79714860D01*
X168053682Y-79773730D01*
X168053673Y-79773734D01*
X167847516Y-79869866D01*
X167847512Y-79869868D01*
X167774526Y-79920973D01*
X167774526Y-79920974D01*
X168453553Y-80600000D01*
X168447339Y-80600000D01*
X168345606Y-80627259D01*
X168254394Y-80679920D01*
X168179920Y-80754394D01*
X168127259Y-80845606D01*
X168100000Y-80947339D01*
X168100000Y-80953552D01*
X167415799Y-80269351D01*
X167366805Y-80259505D01*
X167316622Y-80210889D01*
X167301981Y-80155366D01*
X167300900Y-80155423D01*
X167300854Y-80155429D01*
X167300853Y-80155426D01*
X167300676Y-80155436D01*
X167300499Y-80152135D01*
X167300499Y-80152128D01*
X167294091Y-80092517D01*
X167243796Y-79957669D01*
X167243795Y-79957668D01*
X167243793Y-79957664D01*
X167157547Y-79842455D01*
X167157544Y-79842452D01*
X167042335Y-79756206D01*
X167042328Y-79756202D01*
X166907482Y-79705908D01*
X166907483Y-79705908D01*
X166847883Y-79699501D01*
X166847881Y-79699500D01*
X166847873Y-79699500D01*
X166847864Y-79699500D01*
X165152129Y-79699500D01*
X165152123Y-79699501D01*
X165092516Y-79705908D01*
X164957671Y-79756202D01*
X164957664Y-79756206D01*
X164842455Y-79842452D01*
X164842452Y-79842455D01*
X164756206Y-79957664D01*
X164756202Y-79957671D01*
X164705908Y-80092517D01*
X164699501Y-80152116D01*
X164699501Y-80152123D01*
X164699500Y-80152135D01*
X164699500Y-81847870D01*
X135299570Y-81847870D01*
X135335063Y-81715408D01*
X135355659Y-81480000D01*
X135335063Y-81244592D01*
X135273903Y-81016337D01*
X135174035Y-80802171D01*
X135168425Y-80794158D01*
X135038494Y-80608597D01*
X134871402Y-80441506D01*
X134871396Y-80441501D01*
X134685842Y-80311575D01*
X134642217Y-80256998D01*
X134635023Y-80187500D01*
X134666546Y-80125145D01*
X134685842Y-80108425D01*
X134762248Y-80054925D01*
X134871401Y-79978495D01*
X135038495Y-79811401D01*
X135174035Y-79617830D01*
X135273903Y-79403663D01*
X135335063Y-79175408D01*
X135355659Y-78940000D01*
X135335063Y-78704592D01*
X135273903Y-78476337D01*
X135174035Y-78262171D01*
X135168731Y-78254595D01*
X135038494Y-78068597D01*
X134871402Y-77901506D01*
X134871396Y-77901501D01*
X134685842Y-77771575D01*
X134642217Y-77716998D01*
X134635023Y-77647500D01*
X134666546Y-77585145D01*
X134685842Y-77568425D01*
X134708026Y-77552891D01*
X134871401Y-77438495D01*
X135038495Y-77271401D01*
X135174035Y-77077830D01*
X135273903Y-76863663D01*
X135335063Y-76635408D01*
X135355659Y-76400000D01*
X135335063Y-76164592D01*
X135273903Y-75936337D01*
X135174035Y-75722171D01*
X135168425Y-75714158D01*
X135038494Y-75528597D01*
X134871402Y-75361506D01*
X134871401Y-75361505D01*
X134685405Y-75231269D01*
X134641781Y-75176692D01*
X134634588Y-75107193D01*
X134666110Y-75044839D01*
X134685405Y-75028119D01*
X134761373Y-74974925D01*
X134129409Y-74342962D01*
X134192993Y-74325925D01*
X134307007Y-74260099D01*
X134400099Y-74167007D01*
X134465925Y-74052993D01*
X134482962Y-73989410D01*
X135114925Y-74621373D01*
X135114926Y-74621373D01*
X135173598Y-74537582D01*
X135173600Y-74537578D01*
X135273429Y-74323492D01*
X135273433Y-74323483D01*
X135334567Y-74095326D01*
X135334569Y-74095315D01*
X135355157Y-73860001D01*
X135355157Y-73859998D01*
X135334569Y-73624684D01*
X135334567Y-73624673D01*
X135291677Y-73464605D01*
X226194357Y-73464605D01*
X226214890Y-73712412D01*
X226214892Y-73712424D01*
X226275936Y-73953481D01*
X226375826Y-74181206D01*
X226511833Y-74389382D01*
X226511836Y-74389385D01*
X226680256Y-74572338D01*
X226876491Y-74725074D01*
X227095190Y-74843428D01*
X227330386Y-74924171D01*
X227575665Y-74965100D01*
X227824335Y-74965100D01*
X228069614Y-74924171D01*
X228304810Y-74843428D01*
X228523509Y-74725074D01*
X228719744Y-74572338D01*
X228878771Y-74399588D01*
X228938657Y-74363599D01*
X229008495Y-74365699D01*
X229061228Y-74399588D01*
X229220256Y-74572338D01*
X229416491Y-74725074D01*
X229635190Y-74843428D01*
X229870386Y-74924171D01*
X230115665Y-74965100D01*
X230364335Y-74965100D01*
X230609614Y-74924171D01*
X230844810Y-74843428D01*
X231063509Y-74725074D01*
X231259744Y-74572338D01*
X231418771Y-74399588D01*
X231478657Y-74363599D01*
X231548495Y-74365699D01*
X231601228Y-74399588D01*
X231760256Y-74572338D01*
X231956491Y-74725074D01*
X232175190Y-74843428D01*
X232410386Y-74924171D01*
X232655665Y-74965100D01*
X232904335Y-74965100D01*
X233149614Y-74924171D01*
X233384810Y-74843428D01*
X233603509Y-74725074D01*
X233799744Y-74572338D01*
X233968164Y-74389385D01*
X234104173Y-74181207D01*
X234204063Y-73953481D01*
X234265108Y-73712421D01*
X234272379Y-73624673D01*
X234285643Y-73464605D01*
X234285643Y-73464594D01*
X234265109Y-73216787D01*
X234265107Y-73216775D01*
X234204063Y-72975718D01*
X234104173Y-72747993D01*
X233968166Y-72539817D01*
X233936248Y-72505145D01*
X233799744Y-72356862D01*
X233716991Y-72292452D01*
X233676179Y-72235743D01*
X233672504Y-72165970D01*
X233707136Y-72105287D01*
X233716985Y-72096751D01*
X233799744Y-72032338D01*
X233968164Y-71849385D01*
X234104173Y-71641207D01*
X234204063Y-71413481D01*
X234265108Y-71172421D01*
X234265109Y-71172412D01*
X234285643Y-70924605D01*
X234285643Y-70924594D01*
X234265109Y-70676787D01*
X234265107Y-70676775D01*
X234204063Y-70435718D01*
X234104173Y-70207993D01*
X233968166Y-69999817D01*
X233935508Y-69964341D01*
X233799744Y-69816862D01*
X233716991Y-69752452D01*
X233676179Y-69695743D01*
X233672504Y-69625970D01*
X233707136Y-69565287D01*
X233716985Y-69556751D01*
X233799744Y-69492338D01*
X233968164Y-69309385D01*
X234104173Y-69101207D01*
X234204063Y-68873481D01*
X234265108Y-68632421D01*
X234272379Y-68544673D01*
X234285643Y-68384605D01*
X234285643Y-68384594D01*
X234265109Y-68136787D01*
X234265107Y-68136775D01*
X234204063Y-67895718D01*
X234104173Y-67667993D01*
X233968166Y-67459817D01*
X233932897Y-67421505D01*
X233799744Y-67276862D01*
X233716991Y-67212452D01*
X233676179Y-67155743D01*
X233672504Y-67085970D01*
X233707136Y-67025287D01*
X233716985Y-67016751D01*
X233799744Y-66952338D01*
X233968164Y-66769385D01*
X234104173Y-66561207D01*
X234204063Y-66333481D01*
X234265108Y-66092421D01*
X234269651Y-66037593D01*
X234285643Y-65844605D01*
X234285643Y-65844594D01*
X234265109Y-65596787D01*
X234265107Y-65596775D01*
X234204063Y-65355718D01*
X234104173Y-65127993D01*
X233968166Y-64919817D01*
X233936248Y-64885145D01*
X233799744Y-64736862D01*
X233603509Y-64584126D01*
X233603507Y-64584125D01*
X233603506Y-64584124D01*
X233384811Y-64465772D01*
X233384802Y-64465769D01*
X233149616Y-64385029D01*
X232904335Y-64344100D01*
X232655665Y-64344100D01*
X232410383Y-64385029D01*
X232175197Y-64465769D01*
X232175188Y-64465772D01*
X231956493Y-64584124D01*
X231760257Y-64736861D01*
X231601230Y-64909610D01*
X231541342Y-64945601D01*
X231471504Y-64943500D01*
X231418770Y-64909610D01*
X231379108Y-64866526D01*
X231259744Y-64736862D01*
X231063509Y-64584126D01*
X231063507Y-64584125D01*
X231063506Y-64584124D01*
X230844811Y-64465772D01*
X230844802Y-64465769D01*
X230609616Y-64385029D01*
X230364335Y-64344100D01*
X230115665Y-64344100D01*
X229870383Y-64385029D01*
X229635197Y-64465769D01*
X229635188Y-64465772D01*
X229416493Y-64584124D01*
X229220257Y-64736861D01*
X229051837Y-64919813D01*
X229051829Y-64919824D01*
X229051455Y-64920397D01*
X229051242Y-64920578D01*
X229048690Y-64923858D01*
X229048014Y-64923332D01*
X228998304Y-64965747D01*
X228934865Y-64975902D01*
X228923434Y-64974716D01*
X228182962Y-65715189D01*
X228165925Y-65651607D01*
X228100099Y-65537593D01*
X228007007Y-65444501D01*
X227892993Y-65378675D01*
X227829410Y-65361637D01*
X228570057Y-64620990D01*
X228570056Y-64620989D01*
X228523229Y-64584543D01*
X228304614Y-64466235D01*
X228304603Y-64466230D01*
X228069493Y-64385516D01*
X227824293Y-64344600D01*
X227575707Y-64344600D01*
X227330506Y-64385516D01*
X227095396Y-64466230D01*
X227095390Y-64466232D01*
X226876761Y-64584549D01*
X226829942Y-64620988D01*
X226829942Y-64620990D01*
X227570590Y-65361637D01*
X227507007Y-65378675D01*
X227392993Y-65444501D01*
X227299901Y-65537593D01*
X227234075Y-65651607D01*
X227217037Y-65715189D01*
X226476564Y-64974716D01*
X226376267Y-65128232D01*
X226276412Y-65355882D01*
X226215387Y-65596861D01*
X226215385Y-65596870D01*
X226194859Y-65844594D01*
X226194859Y-65844605D01*
X226215385Y-66092329D01*
X226215387Y-66092338D01*
X226276412Y-66333317D01*
X226376266Y-66560964D01*
X226476564Y-66714482D01*
X227217037Y-65974009D01*
X227234075Y-66037593D01*
X227299901Y-66151607D01*
X227392993Y-66244699D01*
X227507007Y-66310525D01*
X227570590Y-66327562D01*
X226829942Y-67068209D01*
X226831343Y-67090777D01*
X226815850Y-67158907D01*
X226783744Y-67196313D01*
X226680258Y-67276860D01*
X226511833Y-67459817D01*
X226375826Y-67667993D01*
X226275936Y-67895718D01*
X226214892Y-68136775D01*
X226214890Y-68136787D01*
X226194357Y-68384594D01*
X226194357Y-68384605D01*
X226214890Y-68632412D01*
X226214892Y-68632424D01*
X226275936Y-68873481D01*
X226375826Y-69101206D01*
X226511833Y-69309382D01*
X226532103Y-69331401D01*
X226680256Y-69492338D01*
X226763008Y-69556747D01*
X226803821Y-69613457D01*
X226807496Y-69683230D01*
X226772864Y-69743913D01*
X226763014Y-69752448D01*
X226711618Y-69792452D01*
X226680257Y-69816861D01*
X226511833Y-69999817D01*
X226375826Y-70207993D01*
X226275936Y-70435718D01*
X226214892Y-70676775D01*
X226214890Y-70676787D01*
X226194357Y-70924594D01*
X226194357Y-70924605D01*
X226214890Y-71172412D01*
X226214892Y-71172424D01*
X226275936Y-71413481D01*
X226375826Y-71641206D01*
X226511833Y-71849382D01*
X226511836Y-71849385D01*
X226680256Y-72032338D01*
X226763008Y-72096747D01*
X226803821Y-72153457D01*
X226807496Y-72223230D01*
X226772864Y-72283913D01*
X226763014Y-72292448D01*
X226761282Y-72293797D01*
X226680257Y-72356861D01*
X226511833Y-72539817D01*
X226375826Y-72747993D01*
X226275936Y-72975718D01*
X226214892Y-73216775D01*
X226214890Y-73216787D01*
X226194357Y-73464594D01*
X226194357Y-73464605D01*
X135291677Y-73464605D01*
X135273433Y-73396516D01*
X135273429Y-73396507D01*
X135173600Y-73182423D01*
X135173599Y-73182421D01*
X135114925Y-73098626D01*
X135114925Y-73098625D01*
X134482962Y-73730589D01*
X134465925Y-73667007D01*
X134400099Y-73552993D01*
X134307007Y-73459901D01*
X134192993Y-73394075D01*
X134129410Y-73377037D01*
X134761373Y-72745073D01*
X134761373Y-72745072D01*
X134685405Y-72691880D01*
X134641780Y-72637304D01*
X134634586Y-72567805D01*
X134666108Y-72505451D01*
X134685399Y-72488734D01*
X134871401Y-72358495D01*
X135038495Y-72191401D01*
X135174035Y-71997830D01*
X135273903Y-71783663D01*
X135335063Y-71555408D01*
X135355659Y-71320000D01*
X135335063Y-71084592D01*
X135273903Y-70856337D01*
X135174035Y-70642171D01*
X135168425Y-70634158D01*
X135038494Y-70448597D01*
X134871402Y-70281506D01*
X134871396Y-70281501D01*
X134685842Y-70151575D01*
X134642217Y-70096998D01*
X134635023Y-70027500D01*
X134666546Y-69965145D01*
X134685842Y-69948425D01*
X134708026Y-69932891D01*
X134871401Y-69818495D01*
X135038495Y-69651401D01*
X135174035Y-69457830D01*
X135273903Y-69243663D01*
X135335063Y-69015408D01*
X135355659Y-68780000D01*
X135335063Y-68544592D01*
X135312397Y-68460000D01*
X192144341Y-68460000D01*
X192164936Y-68695403D01*
X192164938Y-68695413D01*
X192226094Y-68923655D01*
X192226096Y-68923659D01*
X192226097Y-68923663D01*
X192268876Y-69015403D01*
X192325965Y-69137830D01*
X192325967Y-69137834D01*
X192400070Y-69243663D01*
X192461501Y-69331396D01*
X192461506Y-69331402D01*
X192583430Y-69453326D01*
X192616915Y-69514649D01*
X192611931Y-69584341D01*
X192570059Y-69640274D01*
X192539083Y-69657189D01*
X192407669Y-69706203D01*
X192407664Y-69706206D01*
X192292455Y-69792452D01*
X192292452Y-69792455D01*
X192206206Y-69907664D01*
X192206202Y-69907671D01*
X192155908Y-70042517D01*
X192155104Y-70050000D01*
X192149501Y-70102123D01*
X192149500Y-70102135D01*
X192149500Y-71897870D01*
X192149501Y-71897876D01*
X192155908Y-71957483D01*
X192206202Y-72092328D01*
X192206206Y-72092335D01*
X192292452Y-72207544D01*
X192292455Y-72207547D01*
X192407664Y-72293793D01*
X192407671Y-72293797D01*
X192542517Y-72344091D01*
X192542516Y-72344091D01*
X192549444Y-72344835D01*
X192602127Y-72350500D01*
X194397872Y-72350499D01*
X194457483Y-72344091D01*
X194592331Y-72293796D01*
X194707546Y-72207546D01*
X194793796Y-72092331D01*
X194844091Y-71957483D01*
X194850500Y-71897873D01*
X194850499Y-70102128D01*
X194844091Y-70042517D01*
X194828164Y-69999815D01*
X194793797Y-69907671D01*
X194793793Y-69907664D01*
X194707547Y-69792455D01*
X194707544Y-69792452D01*
X194592335Y-69706206D01*
X194592328Y-69706202D01*
X194460917Y-69657189D01*
X194404983Y-69615318D01*
X194380566Y-69549853D01*
X194395418Y-69481580D01*
X194416563Y-69453332D01*
X194538495Y-69331401D01*
X194674035Y-69137830D01*
X194773903Y-68923663D01*
X194835063Y-68695408D01*
X194855659Y-68460000D01*
X194835063Y-68224592D01*
X194773903Y-67996337D01*
X194674035Y-67782171D01*
X194645562Y-67741506D01*
X194538494Y-67588597D01*
X194371402Y-67421506D01*
X194371401Y-67421505D01*
X194185405Y-67291269D01*
X194141781Y-67236692D01*
X194134588Y-67167193D01*
X194166110Y-67104839D01*
X194185405Y-67088119D01*
X194371082Y-66958105D01*
X194538105Y-66791082D01*
X194673600Y-66597578D01*
X194773429Y-66383492D01*
X194773432Y-66383486D01*
X194830636Y-66170000D01*
X193933012Y-66170000D01*
X193965925Y-66112993D01*
X194000000Y-65985826D01*
X194000000Y-65854174D01*
X193965925Y-65727007D01*
X193933012Y-65670000D01*
X194830636Y-65670000D01*
X194830635Y-65669999D01*
X194773432Y-65456513D01*
X194773429Y-65456507D01*
X194673600Y-65242422D01*
X194673599Y-65242420D01*
X194538113Y-65048926D01*
X194538108Y-65048920D01*
X194371078Y-64881890D01*
X194185405Y-64751879D01*
X194141780Y-64697302D01*
X194134588Y-64627804D01*
X194166110Y-64565449D01*
X194185406Y-64548730D01*
X194303221Y-64466235D01*
X194371401Y-64418495D01*
X194538495Y-64251401D01*
X194674035Y-64057830D01*
X194773903Y-63843663D01*
X194782225Y-63812605D01*
X211081357Y-63812605D01*
X211101890Y-64060412D01*
X211101892Y-64060424D01*
X211162936Y-64301481D01*
X211262826Y-64529206D01*
X211398833Y-64737382D01*
X211431245Y-64772591D01*
X211567256Y-64920338D01*
X211763491Y-65073074D01*
X211982190Y-65191428D01*
X212217386Y-65272171D01*
X212462665Y-65313100D01*
X212711335Y-65313100D01*
X212956614Y-65272171D01*
X213191810Y-65191428D01*
X213410509Y-65073074D01*
X213606744Y-64920338D01*
X213775164Y-64737385D01*
X213911173Y-64529207D01*
X214011063Y-64301481D01*
X214072108Y-64060421D01*
X214072109Y-64060412D01*
X214092643Y-63812605D01*
X214092643Y-63812594D01*
X214072109Y-63564787D01*
X214072107Y-63564775D01*
X214011063Y-63323718D01*
X213911173Y-63095993D01*
X213775166Y-62887817D01*
X213720650Y-62828597D01*
X213606744Y-62704862D01*
X213410509Y-62552126D01*
X213410507Y-62552125D01*
X213410506Y-62552124D01*
X213191811Y-62433772D01*
X213191802Y-62433769D01*
X212956616Y-62353029D01*
X212711335Y-62312100D01*
X212462665Y-62312100D01*
X212217383Y-62353029D01*
X211982197Y-62433769D01*
X211982188Y-62433772D01*
X211763493Y-62552124D01*
X211567257Y-62704861D01*
X211398833Y-62887817D01*
X211262826Y-63095993D01*
X211162936Y-63323718D01*
X211101892Y-63564775D01*
X211101890Y-63564787D01*
X211081357Y-63812594D01*
X211081357Y-63812605D01*
X194782225Y-63812605D01*
X194835063Y-63615408D01*
X194855659Y-63380000D01*
X194835063Y-63144592D01*
X194773903Y-62916337D01*
X194674035Y-62702171D01*
X194645562Y-62661506D01*
X194538494Y-62508597D01*
X194371402Y-62341506D01*
X194371396Y-62341501D01*
X194185842Y-62211575D01*
X194142217Y-62156998D01*
X194135023Y-62087500D01*
X194166546Y-62025145D01*
X194185842Y-62008425D01*
X194208026Y-61992891D01*
X194371401Y-61878495D01*
X194538495Y-61711401D01*
X194674035Y-61517830D01*
X194773903Y-61303663D01*
X194835063Y-61075408D01*
X194855659Y-60840000D01*
X194835063Y-60604592D01*
X194773903Y-60376337D01*
X194765448Y-60358205D01*
X211081859Y-60358205D01*
X211102385Y-60605929D01*
X211102387Y-60605938D01*
X211163412Y-60846917D01*
X211263266Y-61074564D01*
X211363564Y-61228082D01*
X212104037Y-60487609D01*
X212121075Y-60551193D01*
X212186901Y-60665207D01*
X212279993Y-60758299D01*
X212394007Y-60824125D01*
X212457590Y-60841162D01*
X211716942Y-61581809D01*
X211763768Y-61618255D01*
X211763770Y-61618256D01*
X211982385Y-61736564D01*
X211982396Y-61736569D01*
X212217506Y-61817283D01*
X212462707Y-61858200D01*
X212711293Y-61858200D01*
X212956493Y-61817283D01*
X213191603Y-61736569D01*
X213191614Y-61736564D01*
X213410228Y-61618257D01*
X213410231Y-61618255D01*
X213457056Y-61581809D01*
X212716409Y-60841162D01*
X212779993Y-60824125D01*
X212894007Y-60758299D01*
X212987099Y-60665207D01*
X213052925Y-60551193D01*
X213069962Y-60487609D01*
X213810434Y-61228082D01*
X213910731Y-61074569D01*
X214010587Y-60846917D01*
X214071612Y-60605938D01*
X214071614Y-60605929D01*
X214092141Y-60358205D01*
X214092141Y-60358194D01*
X214071614Y-60110470D01*
X214071612Y-60110461D01*
X214010587Y-59869482D01*
X213910731Y-59641830D01*
X213810434Y-59488316D01*
X213069962Y-60228789D01*
X213052925Y-60165207D01*
X212987099Y-60051193D01*
X212894007Y-59958101D01*
X212779993Y-59892275D01*
X212716410Y-59875237D01*
X213457057Y-59134590D01*
X213457056Y-59134589D01*
X213410229Y-59098143D01*
X213191614Y-58979835D01*
X213191603Y-58979830D01*
X212956493Y-58899116D01*
X212711293Y-58858200D01*
X212462707Y-58858200D01*
X212217506Y-58899116D01*
X211982396Y-58979830D01*
X211982390Y-58979832D01*
X211763761Y-59098149D01*
X211716942Y-59134588D01*
X211716942Y-59134590D01*
X212457590Y-59875237D01*
X212394007Y-59892275D01*
X212279993Y-59958101D01*
X212186901Y-60051193D01*
X212121075Y-60165207D01*
X212104037Y-60228789D01*
X211363564Y-59488316D01*
X211263267Y-59641832D01*
X211163412Y-59869482D01*
X211102387Y-60110461D01*
X211102385Y-60110470D01*
X211081859Y-60358194D01*
X211081859Y-60358205D01*
X194765448Y-60358205D01*
X194674035Y-60162171D01*
X194645562Y-60121506D01*
X194538494Y-59968597D01*
X194371402Y-59801506D01*
X194371401Y-59801505D01*
X194185405Y-59671269D01*
X194141781Y-59616692D01*
X194134588Y-59547193D01*
X194166110Y-59484839D01*
X194185405Y-59468119D01*
X194371082Y-59338105D01*
X194538105Y-59171082D01*
X194673600Y-58977578D01*
X194773429Y-58763492D01*
X194773432Y-58763486D01*
X194830636Y-58550000D01*
X193933012Y-58550000D01*
X193965925Y-58492993D01*
X194000000Y-58365826D01*
X194000000Y-58234174D01*
X193997436Y-58224605D01*
X226194357Y-58224605D01*
X226214890Y-58472412D01*
X226214892Y-58472424D01*
X226275936Y-58713481D01*
X226375826Y-58941206D01*
X226511833Y-59149382D01*
X226511836Y-59149385D01*
X226680256Y-59332338D01*
X226876491Y-59485074D01*
X227095190Y-59603428D01*
X227330386Y-59684171D01*
X227575665Y-59725100D01*
X227824335Y-59725100D01*
X228069614Y-59684171D01*
X228304810Y-59603428D01*
X228523509Y-59485074D01*
X228719744Y-59332338D01*
X228878771Y-59159588D01*
X228938657Y-59123599D01*
X229008495Y-59125699D01*
X229061228Y-59159588D01*
X229220256Y-59332338D01*
X229416491Y-59485074D01*
X229635190Y-59603428D01*
X229870386Y-59684171D01*
X230115665Y-59725100D01*
X230364335Y-59725100D01*
X230609614Y-59684171D01*
X230844810Y-59603428D01*
X231063509Y-59485074D01*
X231259744Y-59332338D01*
X231418771Y-59159588D01*
X231478657Y-59123599D01*
X231548495Y-59125699D01*
X231601228Y-59159588D01*
X231760256Y-59332338D01*
X231956491Y-59485074D01*
X232175190Y-59603428D01*
X232410386Y-59684171D01*
X232655665Y-59725100D01*
X232904335Y-59725100D01*
X233149614Y-59684171D01*
X233384810Y-59603428D01*
X233603509Y-59485074D01*
X233799744Y-59332338D01*
X233968164Y-59149385D01*
X234104173Y-58941207D01*
X234204063Y-58713481D01*
X234265108Y-58472421D01*
X234265109Y-58472412D01*
X234285643Y-58224605D01*
X234285643Y-58224594D01*
X234265109Y-57976787D01*
X234265107Y-57976775D01*
X234204063Y-57735718D01*
X234104173Y-57507993D01*
X233968166Y-57299817D01*
X233936248Y-57265145D01*
X233799744Y-57116862D01*
X233716991Y-57052452D01*
X233676179Y-56995743D01*
X233672504Y-56925970D01*
X233707136Y-56865287D01*
X233716985Y-56856751D01*
X233799744Y-56792338D01*
X233968164Y-56609385D01*
X234104173Y-56401207D01*
X234204063Y-56173481D01*
X234265108Y-55932421D01*
X234267174Y-55907486D01*
X234285643Y-55684605D01*
X234285643Y-55684594D01*
X234265109Y-55436787D01*
X234265107Y-55436775D01*
X234204063Y-55195718D01*
X234104173Y-54967993D01*
X233968166Y-54759817D01*
X233932893Y-54721501D01*
X233799744Y-54576862D01*
X233716991Y-54512452D01*
X233676179Y-54455743D01*
X233672504Y-54385970D01*
X233707136Y-54325287D01*
X233716985Y-54316751D01*
X233799744Y-54252338D01*
X233968164Y-54069385D01*
X234104173Y-53861207D01*
X234204063Y-53633481D01*
X234265108Y-53392421D01*
X234272379Y-53304673D01*
X234285643Y-53144605D01*
X234285643Y-53144594D01*
X234265109Y-52896787D01*
X234265107Y-52896775D01*
X234204063Y-52655718D01*
X234104173Y-52427993D01*
X233968166Y-52219817D01*
X233936248Y-52185145D01*
X233799744Y-52036862D01*
X233716991Y-51972452D01*
X233676179Y-51915743D01*
X233672504Y-51845970D01*
X233707136Y-51785287D01*
X233716985Y-51776751D01*
X233799744Y-51712338D01*
X233968164Y-51529385D01*
X234104173Y-51321207D01*
X234204063Y-51093481D01*
X234265108Y-50852421D01*
X234265109Y-50852412D01*
X234285643Y-50604605D01*
X234285643Y-50604594D01*
X234265109Y-50356787D01*
X234265107Y-50356775D01*
X234204063Y-50115718D01*
X234104173Y-49887993D01*
X233968166Y-49679817D01*
X233935508Y-49644341D01*
X233799744Y-49496862D01*
X233603509Y-49344126D01*
X233603507Y-49344125D01*
X233603506Y-49344124D01*
X233384811Y-49225772D01*
X233384802Y-49225769D01*
X233149616Y-49145029D01*
X232904335Y-49104100D01*
X232655665Y-49104100D01*
X232410383Y-49145029D01*
X232175197Y-49225769D01*
X232175188Y-49225772D01*
X231956493Y-49344124D01*
X231760257Y-49496861D01*
X231601230Y-49669610D01*
X231541342Y-49705601D01*
X231471504Y-49703500D01*
X231418770Y-49669610D01*
X231331606Y-49574925D01*
X231259744Y-49496862D01*
X231063509Y-49344126D01*
X231063507Y-49344125D01*
X231063506Y-49344124D01*
X230844811Y-49225772D01*
X230844802Y-49225769D01*
X230609616Y-49145029D01*
X230364335Y-49104100D01*
X230115665Y-49104100D01*
X229870383Y-49145029D01*
X229635197Y-49225769D01*
X229635188Y-49225772D01*
X229416493Y-49344124D01*
X229220257Y-49496861D01*
X229061230Y-49669610D01*
X229001342Y-49705601D01*
X228931504Y-49703500D01*
X228878770Y-49669610D01*
X228791606Y-49574925D01*
X228719744Y-49496862D01*
X228523509Y-49344126D01*
X228523507Y-49344125D01*
X228523506Y-49344124D01*
X228304811Y-49225772D01*
X228304802Y-49225769D01*
X228069616Y-49145029D01*
X227824335Y-49104100D01*
X227575665Y-49104100D01*
X227330383Y-49145029D01*
X227095197Y-49225769D01*
X227095188Y-49225772D01*
X226876493Y-49344124D01*
X226680257Y-49496861D01*
X226511833Y-49679817D01*
X226375826Y-49887993D01*
X226275936Y-50115718D01*
X226214892Y-50356775D01*
X226214890Y-50356787D01*
X226194357Y-50604594D01*
X226194357Y-50604605D01*
X226214890Y-50852412D01*
X226214892Y-50852424D01*
X226275936Y-51093481D01*
X226375826Y-51321206D01*
X226511833Y-51529382D01*
X226511836Y-51529385D01*
X226680256Y-51712338D01*
X226763008Y-51776747D01*
X226803821Y-51833457D01*
X226807496Y-51903230D01*
X226772864Y-51963913D01*
X226763014Y-51972448D01*
X226704400Y-52018069D01*
X226680257Y-52036861D01*
X226511833Y-52219817D01*
X226375826Y-52427993D01*
X226275936Y-52655718D01*
X226214892Y-52896775D01*
X226214890Y-52896787D01*
X226194357Y-53144594D01*
X226194357Y-53144605D01*
X226214890Y-53392412D01*
X226214892Y-53392424D01*
X226275936Y-53633481D01*
X226375826Y-53861206D01*
X226511833Y-54069382D01*
X226533130Y-54092517D01*
X226680256Y-54252338D01*
X226763008Y-54316747D01*
X226803821Y-54373457D01*
X226807496Y-54443230D01*
X226772864Y-54503913D01*
X226763014Y-54512448D01*
X226710056Y-54553668D01*
X226680257Y-54576861D01*
X226511833Y-54759817D01*
X226375826Y-54967993D01*
X226275936Y-55195718D01*
X226214892Y-55436775D01*
X226214890Y-55436787D01*
X226194357Y-55684594D01*
X226194357Y-55684605D01*
X226214890Y-55932412D01*
X226214892Y-55932424D01*
X226275936Y-56173481D01*
X226375826Y-56401206D01*
X226511833Y-56609382D01*
X226511836Y-56609385D01*
X226680256Y-56792338D01*
X226763008Y-56856747D01*
X226803821Y-56913457D01*
X226807496Y-56983230D01*
X226772864Y-57043913D01*
X226763014Y-57052448D01*
X226731083Y-57077302D01*
X226680257Y-57116861D01*
X226511833Y-57299817D01*
X226375826Y-57507993D01*
X226275936Y-57735718D01*
X226214892Y-57976775D01*
X226214890Y-57976787D01*
X226194357Y-58224594D01*
X226194357Y-58224605D01*
X193997436Y-58224605D01*
X193965925Y-58107007D01*
X193933012Y-58050000D01*
X194830636Y-58050000D01*
X194830635Y-58049999D01*
X194773432Y-57836513D01*
X194773429Y-57836507D01*
X194673600Y-57622422D01*
X194673599Y-57622420D01*
X194538113Y-57428926D01*
X194538108Y-57428920D01*
X194371078Y-57261890D01*
X194185405Y-57131879D01*
X194141780Y-57077302D01*
X194134588Y-57007804D01*
X194166110Y-56945449D01*
X194185406Y-56928730D01*
X194276012Y-56865287D01*
X194371401Y-56798495D01*
X194538495Y-56631401D01*
X194674035Y-56437830D01*
X194773903Y-56223663D01*
X194835063Y-55995408D01*
X194855659Y-55760000D01*
X194835063Y-55524592D01*
X194773903Y-55296337D01*
X194674035Y-55082171D01*
X194645562Y-55041506D01*
X194538494Y-54888597D01*
X194371402Y-54721506D01*
X194371395Y-54721501D01*
X194177834Y-54585967D01*
X194177830Y-54585965D01*
X194161817Y-54578498D01*
X193963663Y-54486097D01*
X193963659Y-54486096D01*
X193963655Y-54486094D01*
X193735413Y-54424938D01*
X193735403Y-54424936D01*
X193500001Y-54404341D01*
X193499999Y-54404341D01*
X193264596Y-54424936D01*
X193264586Y-54424938D01*
X193036344Y-54486094D01*
X193036335Y-54486098D01*
X192822171Y-54585964D01*
X192822169Y-54585965D01*
X192628597Y-54721505D01*
X192461505Y-54888597D01*
X192325965Y-55082169D01*
X192325964Y-55082171D01*
X192226098Y-55296335D01*
X192226094Y-55296344D01*
X192164938Y-55524586D01*
X192164936Y-55524596D01*
X192144341Y-55759999D01*
X192144341Y-55760000D01*
X192164936Y-55995403D01*
X192164938Y-55995413D01*
X192226094Y-56223655D01*
X192226096Y-56223659D01*
X192226097Y-56223663D01*
X192268876Y-56315403D01*
X192325965Y-56437830D01*
X192325967Y-56437834D01*
X192461501Y-56631395D01*
X192461506Y-56631402D01*
X192628597Y-56798493D01*
X192628603Y-56798498D01*
X192814594Y-56928730D01*
X192858219Y-56983307D01*
X192865413Y-57052805D01*
X192833890Y-57115160D01*
X192814595Y-57131880D01*
X192628922Y-57261890D01*
X192628920Y-57261891D01*
X192461891Y-57428920D01*
X192461886Y-57428926D01*
X192326400Y-57622420D01*
X192326399Y-57622422D01*
X192226570Y-57836507D01*
X192226567Y-57836513D01*
X192169364Y-58049999D01*
X192169364Y-58050000D01*
X193066988Y-58050000D01*
X193034075Y-58107007D01*
X193000000Y-58234174D01*
X193000000Y-58365826D01*
X193034075Y-58492993D01*
X193066988Y-58550000D01*
X192169364Y-58550000D01*
X192226567Y-58763486D01*
X192226570Y-58763492D01*
X192326399Y-58977578D01*
X192461894Y-59171082D01*
X192628917Y-59338105D01*
X192814595Y-59468119D01*
X192858219Y-59522696D01*
X192865412Y-59592195D01*
X192833890Y-59654549D01*
X192814595Y-59671269D01*
X192628594Y-59801508D01*
X192461505Y-59968597D01*
X192325965Y-60162169D01*
X192325964Y-60162171D01*
X192226098Y-60376335D01*
X192226094Y-60376344D01*
X192164938Y-60604586D01*
X192164936Y-60604596D01*
X192144341Y-60839999D01*
X192144341Y-60840000D01*
X192164936Y-61075403D01*
X192164938Y-61075413D01*
X192226094Y-61303655D01*
X192226096Y-61303659D01*
X192226097Y-61303663D01*
X192268876Y-61395403D01*
X192325965Y-61517830D01*
X192325967Y-61517834D01*
X192461501Y-61711395D01*
X192461506Y-61711402D01*
X192628597Y-61878493D01*
X192628603Y-61878498D01*
X192814158Y-62008425D01*
X192857783Y-62063002D01*
X192864977Y-62132500D01*
X192833454Y-62194855D01*
X192814158Y-62211575D01*
X192628597Y-62341505D01*
X192461505Y-62508597D01*
X192325965Y-62702169D01*
X192325964Y-62702171D01*
X192226098Y-62916335D01*
X192226094Y-62916344D01*
X192164938Y-63144586D01*
X192164936Y-63144596D01*
X192144341Y-63379999D01*
X192144341Y-63380000D01*
X192164936Y-63615403D01*
X192164938Y-63615413D01*
X192226094Y-63843655D01*
X192226096Y-63843659D01*
X192226097Y-63843663D01*
X192268876Y-63935403D01*
X192325965Y-64057830D01*
X192325967Y-64057834D01*
X192461501Y-64251395D01*
X192461506Y-64251402D01*
X192628597Y-64418493D01*
X192628603Y-64418498D01*
X192814594Y-64548730D01*
X192858219Y-64603307D01*
X192865413Y-64672805D01*
X192833890Y-64735160D01*
X192814595Y-64751880D01*
X192628922Y-64881890D01*
X192628920Y-64881891D01*
X192461891Y-65048920D01*
X192461886Y-65048926D01*
X192326400Y-65242420D01*
X192326399Y-65242422D01*
X192226570Y-65456507D01*
X192226567Y-65456513D01*
X192169364Y-65669999D01*
X192169364Y-65670000D01*
X193066988Y-65670000D01*
X193034075Y-65727007D01*
X193000000Y-65854174D01*
X193000000Y-65985826D01*
X193034075Y-66112993D01*
X193066988Y-66170000D01*
X192169364Y-66170000D01*
X192226567Y-66383486D01*
X192226570Y-66383492D01*
X192326399Y-66597578D01*
X192461894Y-66791082D01*
X192628917Y-66958105D01*
X192814595Y-67088119D01*
X192858219Y-67142696D01*
X192865412Y-67212195D01*
X192833890Y-67274549D01*
X192814595Y-67291269D01*
X192628594Y-67421508D01*
X192461505Y-67588597D01*
X192325965Y-67782169D01*
X192325964Y-67782171D01*
X192226098Y-67996335D01*
X192226094Y-67996344D01*
X192164938Y-68224586D01*
X192164936Y-68224596D01*
X192144341Y-68459999D01*
X192144341Y-68460000D01*
X135312397Y-68460000D01*
X135273903Y-68316337D01*
X135174035Y-68102171D01*
X135168731Y-68094595D01*
X135038494Y-67908597D01*
X134977767Y-67847870D01*
X179699500Y-67847870D01*
X179699501Y-67847876D01*
X179705908Y-67907483D01*
X179756202Y-68042328D01*
X179756206Y-68042335D01*
X179842452Y-68157544D01*
X179842455Y-68157547D01*
X179957664Y-68243793D01*
X179957671Y-68243797D01*
X180092517Y-68294091D01*
X180092516Y-68294091D01*
X180099444Y-68294835D01*
X180152127Y-68300500D01*
X181847872Y-68300499D01*
X181907483Y-68294091D01*
X182042331Y-68243796D01*
X182157546Y-68157546D01*
X182243796Y-68042331D01*
X182294091Y-67907483D01*
X182300500Y-67847873D01*
X182300499Y-67847845D01*
X182300678Y-67844547D01*
X182302183Y-67844627D01*
X182320112Y-67783326D01*
X182372868Y-67737514D01*
X182416465Y-67729981D01*
X183100000Y-67046446D01*
X183100000Y-67052661D01*
X183127259Y-67154394D01*
X183179920Y-67245606D01*
X183254394Y-67320080D01*
X183345606Y-67372741D01*
X183447339Y-67400000D01*
X183453553Y-67400000D01*
X182774526Y-68079025D01*
X182847513Y-68130132D01*
X182847521Y-68130136D01*
X183053668Y-68226264D01*
X183053682Y-68226269D01*
X183273389Y-68285139D01*
X183273400Y-68285141D01*
X183499998Y-68304966D01*
X183500002Y-68304966D01*
X183726599Y-68285141D01*
X183726610Y-68285139D01*
X183946317Y-68226269D01*
X183946331Y-68226264D01*
X184152478Y-68130136D01*
X184225471Y-68079024D01*
X183546447Y-67400000D01*
X183552661Y-67400000D01*
X183654394Y-67372741D01*
X183745606Y-67320080D01*
X183820080Y-67245606D01*
X183872741Y-67154394D01*
X183900000Y-67052661D01*
X183900000Y-67046447D01*
X184579024Y-67725471D01*
X184630136Y-67652478D01*
X184726264Y-67446331D01*
X184726269Y-67446317D01*
X184785139Y-67226610D01*
X184785141Y-67226599D01*
X184804966Y-67000002D01*
X184804966Y-66999997D01*
X184785141Y-66773400D01*
X184785139Y-66773389D01*
X184726269Y-66553682D01*
X184726264Y-66553668D01*
X184630136Y-66347521D01*
X184630132Y-66347513D01*
X184579025Y-66274526D01*
X183900000Y-66953551D01*
X183900000Y-66947339D01*
X183872741Y-66845606D01*
X183820080Y-66754394D01*
X183745606Y-66679920D01*
X183654394Y-66627259D01*
X183552661Y-66600000D01*
X183546448Y-66600000D01*
X184225472Y-65920974D01*
X184152478Y-65869863D01*
X183946331Y-65773735D01*
X183946317Y-65773730D01*
X183726610Y-65714860D01*
X183726599Y-65714858D01*
X183500002Y-65695034D01*
X183499998Y-65695034D01*
X183273400Y-65714858D01*
X183273389Y-65714860D01*
X183053682Y-65773730D01*
X183053673Y-65773734D01*
X182847516Y-65869866D01*
X182847512Y-65869868D01*
X182774526Y-65920973D01*
X182774526Y-65920974D01*
X183453553Y-66600000D01*
X183447339Y-66600000D01*
X183345606Y-66627259D01*
X183254394Y-66679920D01*
X183179920Y-66754394D01*
X183127259Y-66845606D01*
X183100000Y-66947339D01*
X183100000Y-66953552D01*
X182415799Y-66269351D01*
X182366805Y-66259505D01*
X182316622Y-66210889D01*
X182301981Y-66155366D01*
X182300900Y-66155423D01*
X182300854Y-66155429D01*
X182300853Y-66155426D01*
X182300676Y-66155436D01*
X182300499Y-66152135D01*
X182300499Y-66152128D01*
X182294091Y-66092517D01*
X182294056Y-66092424D01*
X182243797Y-65957671D01*
X182243793Y-65957664D01*
X182157547Y-65842455D01*
X182157544Y-65842452D01*
X182042335Y-65756206D01*
X182042328Y-65756202D01*
X181907482Y-65705908D01*
X181907483Y-65705908D01*
X181847883Y-65699501D01*
X181847881Y-65699500D01*
X181847873Y-65699500D01*
X181847864Y-65699500D01*
X180152129Y-65699500D01*
X180152123Y-65699501D01*
X180092516Y-65705908D01*
X179957671Y-65756202D01*
X179957664Y-65756206D01*
X179842455Y-65842452D01*
X179842452Y-65842455D01*
X179756206Y-65957664D01*
X179756202Y-65957671D01*
X179705908Y-66092517D01*
X179699556Y-66151607D01*
X179699501Y-66152123D01*
X179699500Y-66152135D01*
X179699500Y-67847870D01*
X134977767Y-67847870D01*
X134871402Y-67741506D01*
X134871396Y-67741501D01*
X134685842Y-67611575D01*
X134642217Y-67556998D01*
X134635023Y-67487500D01*
X134666546Y-67425145D01*
X134685842Y-67408425D01*
X134764207Y-67353553D01*
X134871401Y-67278495D01*
X135038495Y-67111401D01*
X135174035Y-66917830D01*
X135273903Y-66703663D01*
X135335063Y-66475408D01*
X135355659Y-66240000D01*
X135335063Y-66004592D01*
X135273903Y-65776337D01*
X135174035Y-65562171D01*
X135168425Y-65554158D01*
X135038494Y-65368597D01*
X134871402Y-65201506D01*
X134871396Y-65201501D01*
X134685842Y-65071575D01*
X134642217Y-65016998D01*
X134635023Y-64947500D01*
X134666546Y-64885145D01*
X134685842Y-64868425D01*
X134852285Y-64751880D01*
X134871401Y-64738495D01*
X135038495Y-64571401D01*
X135174035Y-64377830D01*
X135273903Y-64163663D01*
X135335063Y-63935408D01*
X135355659Y-63700000D01*
X135335063Y-63464592D01*
X135273903Y-63236337D01*
X135174035Y-63022171D01*
X135168425Y-63014158D01*
X135038494Y-62828597D01*
X134871402Y-62661506D01*
X134871396Y-62661501D01*
X134685842Y-62531575D01*
X134642217Y-62476998D01*
X134635023Y-62407500D01*
X134666546Y-62345145D01*
X134685842Y-62328425D01*
X134762248Y-62274925D01*
X134871401Y-62198495D01*
X135038495Y-62031401D01*
X135174035Y-61837830D01*
X135273903Y-61623663D01*
X135335063Y-61395408D01*
X135355659Y-61160000D01*
X135335063Y-60924592D01*
X135273903Y-60696337D01*
X135174035Y-60482171D01*
X135168731Y-60474595D01*
X135038494Y-60288597D01*
X134871402Y-60121506D01*
X134871396Y-60121501D01*
X134685842Y-59991575D01*
X134642217Y-59936998D01*
X134635023Y-59867500D01*
X134666546Y-59805145D01*
X134685842Y-59788425D01*
X134776279Y-59725100D01*
X134871401Y-59658495D01*
X135038495Y-59491401D01*
X135174035Y-59297830D01*
X135273903Y-59083663D01*
X135335063Y-58855408D01*
X135355659Y-58620000D01*
X135335063Y-58384592D01*
X135273903Y-58156337D01*
X135174035Y-57942171D01*
X135168425Y-57934158D01*
X135038494Y-57748597D01*
X134871402Y-57581506D01*
X134871396Y-57581501D01*
X134685842Y-57451575D01*
X134642217Y-57396998D01*
X134635023Y-57327500D01*
X134666546Y-57265145D01*
X134685842Y-57248425D01*
X134852285Y-57131880D01*
X134871401Y-57118495D01*
X135038495Y-56951401D01*
X135174035Y-56757830D01*
X135273903Y-56543663D01*
X135335063Y-56315408D01*
X135355659Y-56080000D01*
X135335350Y-55847870D01*
X179699500Y-55847870D01*
X179699501Y-55847876D01*
X179705908Y-55907483D01*
X179756202Y-56042328D01*
X179756206Y-56042335D01*
X179842452Y-56157544D01*
X179842455Y-56157547D01*
X179957664Y-56243793D01*
X179957671Y-56243797D01*
X180092517Y-56294091D01*
X180092516Y-56294091D01*
X180099444Y-56294835D01*
X180152127Y-56300500D01*
X181847872Y-56300499D01*
X181907483Y-56294091D01*
X182042331Y-56243796D01*
X182157546Y-56157546D01*
X182243796Y-56042331D01*
X182294091Y-55907483D01*
X182300500Y-55847873D01*
X182300499Y-55847845D01*
X182300678Y-55844547D01*
X182302183Y-55844627D01*
X182320112Y-55783326D01*
X182372868Y-55737514D01*
X182416465Y-55729981D01*
X183100000Y-55046446D01*
X183100000Y-55052661D01*
X183127259Y-55154394D01*
X183179920Y-55245606D01*
X183254394Y-55320080D01*
X183345606Y-55372741D01*
X183447339Y-55400000D01*
X183453553Y-55400000D01*
X182774526Y-56079025D01*
X182847513Y-56130132D01*
X182847521Y-56130136D01*
X183053668Y-56226264D01*
X183053682Y-56226269D01*
X183273389Y-56285139D01*
X183273400Y-56285141D01*
X183499998Y-56304966D01*
X183500002Y-56304966D01*
X183726599Y-56285141D01*
X183726610Y-56285139D01*
X183946317Y-56226269D01*
X183946331Y-56226264D01*
X184152478Y-56130136D01*
X184225471Y-56079024D01*
X183546447Y-55400000D01*
X183552661Y-55400000D01*
X183654394Y-55372741D01*
X183745606Y-55320080D01*
X183820080Y-55245606D01*
X183872741Y-55154394D01*
X183900000Y-55052661D01*
X183900000Y-55046447D01*
X184579024Y-55725471D01*
X184630136Y-55652478D01*
X184726264Y-55446331D01*
X184726269Y-55446317D01*
X184785139Y-55226610D01*
X184785141Y-55226599D01*
X184804966Y-55000002D01*
X184804966Y-54999997D01*
X184785141Y-54773400D01*
X184785139Y-54773389D01*
X184726269Y-54553682D01*
X184726264Y-54553668D01*
X184630136Y-54347521D01*
X184630132Y-54347513D01*
X184579025Y-54274526D01*
X183900000Y-54953551D01*
X183900000Y-54947339D01*
X183872741Y-54845606D01*
X183820080Y-54754394D01*
X183745606Y-54679920D01*
X183654394Y-54627259D01*
X183552661Y-54600000D01*
X183546448Y-54600000D01*
X184225472Y-53920974D01*
X184152478Y-53869863D01*
X183946331Y-53773735D01*
X183946317Y-53773730D01*
X183726610Y-53714860D01*
X183726599Y-53714858D01*
X183500002Y-53695034D01*
X183499998Y-53695034D01*
X183273400Y-53714858D01*
X183273389Y-53714860D01*
X183053682Y-53773730D01*
X183053673Y-53773734D01*
X182847516Y-53869866D01*
X182847512Y-53869868D01*
X182774526Y-53920973D01*
X182774526Y-53920974D01*
X183453553Y-54600000D01*
X183447339Y-54600000D01*
X183345606Y-54627259D01*
X183254394Y-54679920D01*
X183179920Y-54754394D01*
X183127259Y-54845606D01*
X183100000Y-54947339D01*
X183100000Y-54953552D01*
X182415799Y-54269351D01*
X182366805Y-54259505D01*
X182316622Y-54210889D01*
X182301981Y-54155366D01*
X182300900Y-54155423D01*
X182300854Y-54155429D01*
X182300853Y-54155426D01*
X182300676Y-54155436D01*
X182300499Y-54152135D01*
X182300499Y-54152128D01*
X182294091Y-54092517D01*
X182289269Y-54079589D01*
X182243797Y-53957671D01*
X182243793Y-53957664D01*
X182157547Y-53842455D01*
X182157544Y-53842452D01*
X182042335Y-53756206D01*
X182042328Y-53756202D01*
X181907482Y-53705908D01*
X181907483Y-53705908D01*
X181847883Y-53699501D01*
X181847881Y-53699500D01*
X181847873Y-53699500D01*
X181847864Y-53699500D01*
X180152129Y-53699500D01*
X180152123Y-53699501D01*
X180092516Y-53705908D01*
X179957671Y-53756202D01*
X179957664Y-53756206D01*
X179842455Y-53842452D01*
X179842452Y-53842455D01*
X179756206Y-53957664D01*
X179756202Y-53957671D01*
X179705908Y-54092517D01*
X179699501Y-54152116D01*
X179699501Y-54152123D01*
X179699500Y-54152135D01*
X179699500Y-55847870D01*
X135335350Y-55847870D01*
X135335063Y-55844592D01*
X135273903Y-55616337D01*
X135174035Y-55402171D01*
X135168425Y-55394158D01*
X135038494Y-55208597D01*
X134871402Y-55041506D01*
X134871401Y-55041505D01*
X134685405Y-54911269D01*
X134641781Y-54856692D01*
X134634588Y-54787193D01*
X134666110Y-54724839D01*
X134685405Y-54708119D01*
X134761373Y-54654925D01*
X134129409Y-54022962D01*
X134192993Y-54005925D01*
X134307007Y-53940099D01*
X134400099Y-53847007D01*
X134465925Y-53732993D01*
X134482962Y-53669410D01*
X135114925Y-54301373D01*
X135114926Y-54301373D01*
X135173598Y-54217582D01*
X135173600Y-54217578D01*
X135273429Y-54003492D01*
X135273433Y-54003483D01*
X135334567Y-53775326D01*
X135334569Y-53775315D01*
X135355157Y-53540001D01*
X135355157Y-53539998D01*
X135334569Y-53304684D01*
X135334567Y-53304673D01*
X135273433Y-53076516D01*
X135273429Y-53076507D01*
X135173600Y-52862423D01*
X135173599Y-52862421D01*
X135114925Y-52778626D01*
X135114925Y-52778625D01*
X134482962Y-53410589D01*
X134465925Y-53347007D01*
X134400099Y-53232993D01*
X134307007Y-53139901D01*
X134192993Y-53074075D01*
X134129410Y-53057037D01*
X134761373Y-52425073D01*
X134761373Y-52425072D01*
X134685405Y-52371880D01*
X134641780Y-52317304D01*
X134634586Y-52247805D01*
X134666108Y-52185451D01*
X134685399Y-52168734D01*
X134871401Y-52038495D01*
X135038495Y-51871401D01*
X135174035Y-51677830D01*
X135273903Y-51463663D01*
X135335063Y-51235408D01*
X135355659Y-51000000D01*
X135335063Y-50764592D01*
X135273903Y-50536337D01*
X135174035Y-50322171D01*
X135168425Y-50314158D01*
X135038494Y-50128597D01*
X134871402Y-49961506D01*
X134871396Y-49961501D01*
X134685842Y-49831575D01*
X134642217Y-49776998D01*
X134635023Y-49707500D01*
X134666546Y-49645145D01*
X134685842Y-49628425D01*
X134762248Y-49574925D01*
X134871401Y-49498495D01*
X135038495Y-49331401D01*
X135174035Y-49137830D01*
X135273903Y-48923663D01*
X135335063Y-48695408D01*
X135355659Y-48460000D01*
X135335063Y-48224592D01*
X135273903Y-47996337D01*
X135174035Y-47782171D01*
X135168731Y-47774595D01*
X135038494Y-47588597D01*
X134871402Y-47421506D01*
X134871396Y-47421501D01*
X134685842Y-47291575D01*
X134642217Y-47236998D01*
X134635023Y-47167500D01*
X134666546Y-47105145D01*
X134685842Y-47088425D01*
X134776279Y-47025100D01*
X134871401Y-46958495D01*
X135038495Y-46791401D01*
X135174035Y-46597830D01*
X135273903Y-46383663D01*
X135335063Y-46155408D01*
X135355659Y-45920000D01*
X135335063Y-45684592D01*
X135273903Y-45456337D01*
X135174035Y-45242171D01*
X135168425Y-45234158D01*
X135038494Y-45048597D01*
X134871402Y-44881506D01*
X134871396Y-44881501D01*
X134685842Y-44751575D01*
X134642217Y-44696998D01*
X134635023Y-44627500D01*
X134666546Y-44565145D01*
X134685842Y-44548425D01*
X134751985Y-44502111D01*
X134871401Y-44418495D01*
X135038495Y-44251401D01*
X135174035Y-44057830D01*
X135273903Y-43843663D01*
X135335063Y-43615408D01*
X135355659Y-43380000D01*
X135335063Y-43144592D01*
X135296322Y-43000005D01*
X138944457Y-43000005D01*
X138964606Y-43320283D01*
X138964607Y-43320290D01*
X138993830Y-43473481D01*
X139020888Y-43615326D01*
X139024745Y-43635542D01*
X139123916Y-43940759D01*
X139123918Y-43940764D01*
X139260558Y-44231138D01*
X139260562Y-44231144D01*
X139432520Y-44502108D01*
X139432522Y-44502111D01*
X139637087Y-44749388D01*
X139637089Y-44749390D01*
X139818025Y-44919299D01*
X139871034Y-44969078D01*
X139871044Y-44969086D01*
X140130660Y-45157708D01*
X140130666Y-45157711D01*
X140130672Y-45157716D01*
X140411903Y-45312324D01*
X140710294Y-45430466D01*
X140710293Y-45430466D01*
X141021135Y-45510276D01*
X141021139Y-45510277D01*
X141087935Y-45518715D01*
X141339524Y-45550499D01*
X141339533Y-45550499D01*
X141339536Y-45550500D01*
X141339538Y-45550500D01*
X141660462Y-45550500D01*
X141660464Y-45550500D01*
X141660467Y-45550499D01*
X141660475Y-45550499D01*
X141865483Y-45524600D01*
X141978861Y-45510277D01*
X142289706Y-45430466D01*
X142588097Y-45312324D01*
X142869328Y-45157716D01*
X143128964Y-44969080D01*
X143362911Y-44749390D01*
X143567478Y-44502110D01*
X143739439Y-44231142D01*
X143803377Y-44095268D01*
X146150000Y-44095268D01*
X146160215Y-44239958D01*
X146160217Y-44239968D01*
X146214313Y-44480165D01*
X146214315Y-44480172D01*
X146306244Y-44708585D01*
X146433620Y-44919289D01*
X146433627Y-44919299D01*
X146593153Y-45106846D01*
X146780700Y-45266372D01*
X146780710Y-45266379D01*
X146991414Y-45393755D01*
X147219827Y-45485684D01*
X147219834Y-45485686D01*
X147460031Y-45539782D01*
X147460041Y-45539784D01*
X147604731Y-45549999D01*
X147604734Y-45550000D01*
X148450000Y-45550000D01*
X148450000Y-44327231D01*
X148593753Y-44350000D01*
X148806247Y-44350000D01*
X148950000Y-44327231D01*
X148950000Y-45550000D01*
X149795266Y-45550000D01*
X149795268Y-45549999D01*
X149939958Y-45539784D01*
X149939968Y-45539782D01*
X150007357Y-45524605D01*
X226194357Y-45524605D01*
X226214890Y-45772412D01*
X226214892Y-45772424D01*
X226275936Y-46013481D01*
X226375826Y-46241206D01*
X226511833Y-46449382D01*
X226511836Y-46449385D01*
X226680256Y-46632338D01*
X226876491Y-46785074D01*
X227095190Y-46903428D01*
X227330386Y-46984171D01*
X227575665Y-47025100D01*
X227824335Y-47025100D01*
X228069614Y-46984171D01*
X228304810Y-46903428D01*
X228523509Y-46785074D01*
X228719744Y-46632338D01*
X228878771Y-46459588D01*
X228938657Y-46423599D01*
X229008495Y-46425699D01*
X229061228Y-46459588D01*
X229220256Y-46632338D01*
X229416491Y-46785074D01*
X229635190Y-46903428D01*
X229870386Y-46984171D01*
X230115665Y-47025100D01*
X230364335Y-47025100D01*
X230609614Y-46984171D01*
X230844810Y-46903428D01*
X231063509Y-46785074D01*
X231259744Y-46632338D01*
X231418771Y-46459588D01*
X231478657Y-46423599D01*
X231548495Y-46425699D01*
X231601228Y-46459588D01*
X231760256Y-46632338D01*
X231956491Y-46785074D01*
X232175190Y-46903428D01*
X232410386Y-46984171D01*
X232655665Y-47025100D01*
X232904335Y-47025100D01*
X233149614Y-46984171D01*
X233384810Y-46903428D01*
X233603509Y-46785074D01*
X233799744Y-46632338D01*
X233968164Y-46449385D01*
X234104173Y-46241207D01*
X234204063Y-46013481D01*
X234265108Y-45772421D01*
X234265109Y-45772412D01*
X234285643Y-45524605D01*
X234285643Y-45524594D01*
X234265109Y-45276787D01*
X234265107Y-45276775D01*
X234204063Y-45035718D01*
X234104173Y-44807993D01*
X233968166Y-44599817D01*
X233935508Y-44564341D01*
X233799744Y-44416862D01*
X233716991Y-44352452D01*
X233676179Y-44295743D01*
X233672504Y-44225970D01*
X233707136Y-44165287D01*
X233716985Y-44156751D01*
X233799744Y-44092338D01*
X233968164Y-43909385D01*
X234104173Y-43701207D01*
X234204063Y-43473481D01*
X234265108Y-43232421D01*
X234272379Y-43144673D01*
X234285643Y-42984605D01*
X234285643Y-42984594D01*
X234265109Y-42736787D01*
X234265107Y-42736775D01*
X234204063Y-42495718D01*
X234104173Y-42267993D01*
X233968166Y-42059817D01*
X233936248Y-42025145D01*
X233799744Y-41876862D01*
X233716991Y-41812452D01*
X233676179Y-41755743D01*
X233672504Y-41685970D01*
X233707136Y-41625287D01*
X233716985Y-41616751D01*
X233799744Y-41552338D01*
X233968164Y-41369385D01*
X234104173Y-41161207D01*
X234204063Y-40933481D01*
X234265108Y-40692421D01*
X234265501Y-40687676D01*
X234285643Y-40444605D01*
X234285643Y-40444594D01*
X234265109Y-40196787D01*
X234265107Y-40196775D01*
X234204063Y-39955718D01*
X234104173Y-39727993D01*
X233968166Y-39519817D01*
X233928462Y-39476687D01*
X233799744Y-39336862D01*
X233716991Y-39272452D01*
X233676179Y-39215743D01*
X233672504Y-39145970D01*
X233707136Y-39085287D01*
X233716985Y-39076751D01*
X233799744Y-39012338D01*
X233968164Y-38829385D01*
X234104173Y-38621207D01*
X234204063Y-38393481D01*
X234265108Y-38152421D01*
X234268832Y-38107482D01*
X234285643Y-37904605D01*
X234285643Y-37904594D01*
X234265109Y-37656787D01*
X234265107Y-37656775D01*
X234204063Y-37415718D01*
X234104173Y-37187993D01*
X233968166Y-36979817D01*
X233928924Y-36937189D01*
X233799744Y-36796862D01*
X233603509Y-36644126D01*
X233603507Y-36644125D01*
X233603506Y-36644124D01*
X233384811Y-36525772D01*
X233384802Y-36525769D01*
X233149616Y-36445029D01*
X232904335Y-36404100D01*
X232655665Y-36404100D01*
X232410383Y-36445029D01*
X232175197Y-36525769D01*
X232175188Y-36525772D01*
X231956493Y-36644124D01*
X231760257Y-36796861D01*
X231601230Y-36969610D01*
X231541342Y-37005601D01*
X231471504Y-37003500D01*
X231418770Y-36969610D01*
X231287876Y-36827422D01*
X231259744Y-36796862D01*
X231063509Y-36644126D01*
X231063507Y-36644125D01*
X231063506Y-36644124D01*
X230844811Y-36525772D01*
X230844802Y-36525769D01*
X230609616Y-36445029D01*
X230364335Y-36404100D01*
X230115665Y-36404100D01*
X229870383Y-36445029D01*
X229635197Y-36525769D01*
X229635188Y-36525772D01*
X229416493Y-36644124D01*
X229220257Y-36796861D01*
X229061230Y-36969610D01*
X229001342Y-37005601D01*
X228931504Y-37003500D01*
X228878770Y-36969610D01*
X228747876Y-36827422D01*
X228719744Y-36796862D01*
X228523509Y-36644126D01*
X228523507Y-36644125D01*
X228523506Y-36644124D01*
X228304811Y-36525772D01*
X228304802Y-36525769D01*
X228069616Y-36445029D01*
X227824335Y-36404100D01*
X227575665Y-36404100D01*
X227330383Y-36445029D01*
X227095197Y-36525769D01*
X227095188Y-36525772D01*
X226876493Y-36644124D01*
X226680257Y-36796861D01*
X226511833Y-36979817D01*
X226375826Y-37187993D01*
X226275936Y-37415718D01*
X226214892Y-37656775D01*
X226214890Y-37656787D01*
X226194357Y-37904594D01*
X226194357Y-37904605D01*
X226214890Y-38152412D01*
X226214892Y-38152424D01*
X226275936Y-38393481D01*
X226375826Y-38621206D01*
X226511833Y-38829382D01*
X226544245Y-38864591D01*
X226680256Y-39012338D01*
X226763008Y-39076747D01*
X226803821Y-39133457D01*
X226807496Y-39203230D01*
X226772864Y-39263913D01*
X226763014Y-39272448D01*
X226713557Y-39310943D01*
X226680257Y-39336861D01*
X226511833Y-39519817D01*
X226375826Y-39727993D01*
X226275936Y-39955718D01*
X226214892Y-40196775D01*
X226214890Y-40196787D01*
X226194357Y-40444594D01*
X226194357Y-40444605D01*
X226214890Y-40692412D01*
X226214892Y-40692424D01*
X226275936Y-40933481D01*
X226375826Y-41161206D01*
X226511833Y-41369382D01*
X226511836Y-41369385D01*
X226680256Y-41552338D01*
X226763008Y-41616747D01*
X226803821Y-41673457D01*
X226807496Y-41743230D01*
X226772864Y-41803913D01*
X226763014Y-41812448D01*
X226720708Y-41845377D01*
X226680257Y-41876861D01*
X226511833Y-42059817D01*
X226375826Y-42267993D01*
X226275936Y-42495718D01*
X226214892Y-42736775D01*
X226214890Y-42736787D01*
X226194357Y-42984594D01*
X226194357Y-42984605D01*
X226214890Y-43232412D01*
X226214892Y-43232424D01*
X226275936Y-43473481D01*
X226375826Y-43701206D01*
X226511833Y-43909382D01*
X226511836Y-43909385D01*
X226680256Y-44092338D01*
X226763008Y-44156747D01*
X226803821Y-44213457D01*
X226807496Y-44283230D01*
X226772864Y-44343913D01*
X226763014Y-44352448D01*
X226704400Y-44398069D01*
X226680257Y-44416861D01*
X226511833Y-44599817D01*
X226375826Y-44807993D01*
X226275936Y-45035718D01*
X226214892Y-45276775D01*
X226214890Y-45276787D01*
X226194357Y-45524594D01*
X226194357Y-45524605D01*
X150007357Y-45524605D01*
X150180165Y-45485686D01*
X150180172Y-45485684D01*
X150408585Y-45393755D01*
X150619289Y-45266379D01*
X150619299Y-45266372D01*
X150806846Y-45106846D01*
X150966372Y-44919299D01*
X150966379Y-44919289D01*
X151093755Y-44708585D01*
X151185684Y-44480172D01*
X151185686Y-44480165D01*
X151239782Y-44239968D01*
X151239784Y-44239958D01*
X151249999Y-44095268D01*
X151250000Y-44095266D01*
X151250000Y-43250000D01*
X150027231Y-43250000D01*
X150050000Y-43106247D01*
X150050000Y-42893753D01*
X150027231Y-42750000D01*
X151250000Y-42750000D01*
X151250000Y-41904734D01*
X151249999Y-41904731D01*
X151239784Y-41760041D01*
X151239782Y-41760031D01*
X151185686Y-41519834D01*
X151185684Y-41519827D01*
X151093755Y-41291414D01*
X150966379Y-41080710D01*
X150966372Y-41080700D01*
X150806846Y-40893153D01*
X150619299Y-40733627D01*
X150619289Y-40733620D01*
X150408585Y-40606244D01*
X150180172Y-40514315D01*
X150180165Y-40514313D01*
X149939968Y-40460217D01*
X149939958Y-40460215D01*
X149795268Y-40450000D01*
X148950000Y-40450000D01*
X148950000Y-41672768D01*
X148806247Y-41650000D01*
X148593753Y-41650000D01*
X148450000Y-41672768D01*
X148450000Y-40450000D01*
X147604731Y-40450000D01*
X147460041Y-40460215D01*
X147460031Y-40460217D01*
X147219834Y-40514313D01*
X147219827Y-40514315D01*
X146991414Y-40606244D01*
X146780710Y-40733620D01*
X146780700Y-40733627D01*
X146593153Y-40893153D01*
X146433627Y-41080700D01*
X146433620Y-41080710D01*
X146306244Y-41291414D01*
X146214315Y-41519827D01*
X146214313Y-41519834D01*
X146160217Y-41760031D01*
X146160215Y-41760041D01*
X146150000Y-41904731D01*
X146150000Y-42750000D01*
X147372769Y-42750000D01*
X147350000Y-42893753D01*
X147350000Y-43106247D01*
X147372769Y-43250000D01*
X146150000Y-43250000D01*
X146150000Y-44095268D01*
X143803377Y-44095268D01*
X143876084Y-43940758D01*
X143975256Y-43635538D01*
X144035392Y-43320294D01*
X144035393Y-43320283D01*
X144055543Y-43000005D01*
X144055543Y-42999994D01*
X144035393Y-42679716D01*
X144035392Y-42679709D01*
X144035392Y-42679706D01*
X143975256Y-42364462D01*
X143876084Y-42059242D01*
X143852315Y-42008730D01*
X143739441Y-41768861D01*
X143739437Y-41768855D01*
X143733843Y-41760041D01*
X143580135Y-41517834D01*
X143567479Y-41497891D01*
X143567477Y-41497888D01*
X143362912Y-41250611D01*
X143181975Y-41080700D01*
X143128964Y-41030920D01*
X143128961Y-41030918D01*
X143128955Y-41030913D01*
X142869339Y-40842291D01*
X142869321Y-40842280D01*
X142588096Y-40687675D01*
X142588093Y-40687674D01*
X142289703Y-40569533D01*
X142289706Y-40569533D01*
X141978864Y-40489723D01*
X141978851Y-40489721D01*
X141660475Y-40449500D01*
X141660464Y-40449500D01*
X141339536Y-40449500D01*
X141339524Y-40449500D01*
X141021148Y-40489721D01*
X141021135Y-40489723D01*
X140710294Y-40569533D01*
X140411906Y-40687674D01*
X140411903Y-40687675D01*
X140130678Y-40842280D01*
X140130660Y-40842291D01*
X139871044Y-41030913D01*
X139871034Y-41030921D01*
X139637087Y-41250611D01*
X139432522Y-41497888D01*
X139432520Y-41497891D01*
X139260562Y-41768855D01*
X139260558Y-41768861D01*
X139123918Y-42059235D01*
X139123916Y-42059240D01*
X139024745Y-42364457D01*
X138964607Y-42679709D01*
X138964606Y-42679716D01*
X138944457Y-42999994D01*
X138944457Y-43000005D01*
X135296322Y-43000005D01*
X135273903Y-42916337D01*
X135174035Y-42702171D01*
X135168731Y-42694595D01*
X135038494Y-42508597D01*
X134871402Y-42341506D01*
X134871396Y-42341501D01*
X134685842Y-42211575D01*
X134642217Y-42156998D01*
X134635023Y-42087500D01*
X134666546Y-42025145D01*
X134685842Y-42008425D01*
X134740321Y-41970278D01*
X134871401Y-41878495D01*
X135038495Y-41711401D01*
X135174035Y-41517830D01*
X135273903Y-41303663D01*
X135335063Y-41075408D01*
X135355659Y-40840000D01*
X135335063Y-40604592D01*
X135273903Y-40376337D01*
X135174035Y-40162171D01*
X135168425Y-40154158D01*
X135038494Y-39968597D01*
X134871402Y-39801506D01*
X134871396Y-39801501D01*
X134685842Y-39671575D01*
X134642217Y-39616998D01*
X134635023Y-39547500D01*
X134666546Y-39485145D01*
X134685842Y-39468425D01*
X134708026Y-39452891D01*
X134871401Y-39338495D01*
X135038495Y-39171401D01*
X135174035Y-38977830D01*
X135273903Y-38763663D01*
X135335063Y-38535408D01*
X135355659Y-38300000D01*
X135335063Y-38064592D01*
X135330582Y-38047870D01*
X137399500Y-38047870D01*
X137399501Y-38047876D01*
X137405908Y-38107483D01*
X137456202Y-38242328D01*
X137456206Y-38242335D01*
X137542452Y-38357544D01*
X137542455Y-38357547D01*
X137657664Y-38443793D01*
X137657671Y-38443797D01*
X137792517Y-38494091D01*
X137792516Y-38494091D01*
X137799444Y-38494835D01*
X137852127Y-38500500D01*
X138847872Y-38500499D01*
X138907483Y-38494091D01*
X139042331Y-38443796D01*
X139157546Y-38357546D01*
X139243796Y-38242331D01*
X139294091Y-38107483D01*
X139300500Y-38047873D01*
X139300500Y-38047870D01*
X150899500Y-38047870D01*
X150899501Y-38047876D01*
X150905908Y-38107483D01*
X150956202Y-38242328D01*
X150956206Y-38242335D01*
X151042452Y-38357544D01*
X151042455Y-38357547D01*
X151157664Y-38443793D01*
X151157671Y-38443797D01*
X151292517Y-38494091D01*
X151292516Y-38494091D01*
X151299444Y-38494835D01*
X151352127Y-38500500D01*
X152347872Y-38500499D01*
X152407483Y-38494091D01*
X152542331Y-38443796D01*
X152657546Y-38357546D01*
X152743796Y-38242331D01*
X152794091Y-38107483D01*
X152800500Y-38047873D01*
X152800499Y-36580002D01*
X159232677Y-36580002D01*
X159251929Y-36800062D01*
X159251930Y-36800070D01*
X159309104Y-37013445D01*
X159309105Y-37013447D01*
X159309106Y-37013450D01*
X159390496Y-37187993D01*
X159402466Y-37213662D01*
X159402468Y-37213666D01*
X159529170Y-37394615D01*
X159529175Y-37394621D01*
X159685378Y-37550824D01*
X159685384Y-37550829D01*
X159866333Y-37677531D01*
X159866335Y-37677532D01*
X159866338Y-37677534D01*
X160066550Y-37770894D01*
X160279932Y-37828070D01*
X160437123Y-37841822D01*
X160499998Y-37847323D01*
X160500000Y-37847323D01*
X160500002Y-37847323D01*
X160555017Y-37842509D01*
X160720068Y-37828070D01*
X160933450Y-37770894D01*
X161133662Y-37677534D01*
X161314620Y-37550826D01*
X161470826Y-37394620D01*
X161597534Y-37213662D01*
X161690894Y-37013450D01*
X161748070Y-36800068D01*
X161764951Y-36607116D01*
X161767323Y-36580002D01*
X161767323Y-36579997D01*
X161756990Y-36461894D01*
X161748070Y-36359932D01*
X161690894Y-36146550D01*
X161597534Y-35946339D01*
X161534180Y-35855859D01*
X161470827Y-35765381D01*
X161399620Y-35694174D01*
X161314620Y-35609174D01*
X161314616Y-35609171D01*
X161314615Y-35609170D01*
X161133666Y-35482468D01*
X161133662Y-35482466D01*
X161004218Y-35422105D01*
X160997285Y-35416000D01*
X168809211Y-35416000D01*
X168827938Y-35653963D01*
X168883661Y-35886068D01*
X168975008Y-36106600D01*
X168975010Y-36106604D01*
X168975011Y-36106605D01*
X169099732Y-36310132D01*
X169254757Y-36491643D01*
X169347175Y-36570575D01*
X169403580Y-36618750D01*
X169441773Y-36677257D01*
X169445287Y-36717335D01*
X170045790Y-37317837D01*
X169999536Y-37336997D01*
X169885132Y-37413439D01*
X169787839Y-37510732D01*
X169711397Y-37625136D01*
X169692238Y-37671390D01*
X169093629Y-37072781D01*
X168975456Y-37265621D01*
X168884142Y-37486074D01*
X168828433Y-37718116D01*
X168809712Y-37956000D01*
X168828433Y-38193883D01*
X168884142Y-38425925D01*
X168975456Y-38646378D01*
X169093629Y-38839217D01*
X169692237Y-38240608D01*
X169711397Y-38286864D01*
X169787839Y-38401268D01*
X169885132Y-38498561D01*
X169999536Y-38575003D01*
X170045790Y-38594161D01*
X169447181Y-39192769D01*
X169640021Y-39310943D01*
X169860475Y-39402257D01*
X169860472Y-39402257D01*
X170092516Y-39457966D01*
X170330400Y-39476687D01*
X170568283Y-39457966D01*
X170800325Y-39402257D01*
X171020778Y-39310943D01*
X171213617Y-39192770D01*
X171213617Y-39192769D01*
X170615009Y-38594162D01*
X170661264Y-38575003D01*
X170775668Y-38498561D01*
X170872961Y-38401268D01*
X170949403Y-38286864D01*
X170968561Y-38240609D01*
X171567169Y-38839217D01*
X171567170Y-38839217D01*
X171685343Y-38646378D01*
X171776657Y-38425925D01*
X171782192Y-38402870D01*
X174374500Y-38402870D01*
X174374501Y-38402876D01*
X174380908Y-38462483D01*
X174431202Y-38597328D01*
X174431206Y-38597335D01*
X174517452Y-38712544D01*
X174517455Y-38712547D01*
X174632664Y-38798793D01*
X174632671Y-38798797D01*
X174767517Y-38849091D01*
X174767516Y-38849091D01*
X174774444Y-38849835D01*
X174827127Y-38855500D01*
X176622872Y-38855499D01*
X176682483Y-38849091D01*
X176817331Y-38798796D01*
X176932546Y-38712546D01*
X177018796Y-38597331D01*
X177020660Y-38592335D01*
X177041894Y-38535403D01*
X177068002Y-38465401D01*
X177109872Y-38409468D01*
X177175337Y-38385050D01*
X177243610Y-38399901D01*
X177271865Y-38421053D01*
X177393917Y-38543105D01*
X177587421Y-38678600D01*
X177801507Y-38778429D01*
X177801516Y-38778433D01*
X178015000Y-38835634D01*
X178015000Y-37938012D01*
X178072007Y-37970925D01*
X178199174Y-38005000D01*
X178330826Y-38005000D01*
X178457993Y-37970925D01*
X178515000Y-37938012D01*
X178515000Y-38835633D01*
X178728483Y-38778433D01*
X178728492Y-38778429D01*
X178942578Y-38678600D01*
X179136082Y-38543105D01*
X179281317Y-38397870D01*
X180609500Y-38397870D01*
X180609501Y-38397876D01*
X180615908Y-38457483D01*
X180666202Y-38592328D01*
X180666206Y-38592335D01*
X180752452Y-38707544D01*
X180752455Y-38707547D01*
X180867664Y-38793793D01*
X180867671Y-38793797D01*
X181002517Y-38844091D01*
X181002516Y-38844091D01*
X181009444Y-38844835D01*
X181062127Y-38850500D01*
X182857872Y-38850499D01*
X182917483Y-38844091D01*
X183052331Y-38793796D01*
X183167546Y-38707546D01*
X183253796Y-38592331D01*
X183303002Y-38460401D01*
X183344872Y-38404468D01*
X183410337Y-38380050D01*
X183478610Y-38394901D01*
X183506865Y-38416053D01*
X183628917Y-38538105D01*
X183822421Y-38673600D01*
X184036507Y-38773429D01*
X184036516Y-38773433D01*
X184250000Y-38830634D01*
X184250000Y-37933012D01*
X184307007Y-37965925D01*
X184434174Y-38000000D01*
X184565826Y-38000000D01*
X184692993Y-37965925D01*
X184750000Y-37933012D01*
X184750000Y-38830633D01*
X184963483Y-38773433D01*
X184963492Y-38773429D01*
X185177578Y-38673600D01*
X185371082Y-38538105D01*
X185538105Y-38371082D01*
X185673600Y-38177578D01*
X185773429Y-37963492D01*
X185773432Y-37963486D01*
X185830636Y-37750000D01*
X184933012Y-37750000D01*
X184965925Y-37692993D01*
X185000000Y-37565826D01*
X185000000Y-37434174D01*
X184965925Y-37307007D01*
X184933012Y-37250000D01*
X185830636Y-37250000D01*
X185830635Y-37249999D01*
X185773432Y-37036513D01*
X185773429Y-37036507D01*
X185673600Y-36822422D01*
X185673599Y-36822420D01*
X185538113Y-36628926D01*
X185538108Y-36628920D01*
X185371082Y-36461894D01*
X185177578Y-36326399D01*
X184963492Y-36226570D01*
X184963486Y-36226567D01*
X184750000Y-36169364D01*
X184750000Y-37066988D01*
X184692993Y-37034075D01*
X184565826Y-37000000D01*
X184434174Y-37000000D01*
X184307007Y-37034075D01*
X184250000Y-37066988D01*
X184250000Y-36169364D01*
X184249999Y-36169364D01*
X184036513Y-36226567D01*
X184036507Y-36226570D01*
X183822422Y-36326399D01*
X183822420Y-36326400D01*
X183628926Y-36461886D01*
X183506865Y-36583947D01*
X183445542Y-36617431D01*
X183375850Y-36612447D01*
X183319917Y-36570575D01*
X183303002Y-36539598D01*
X183297845Y-36525772D01*
X183275885Y-36466894D01*
X183253797Y-36407671D01*
X183253793Y-36407664D01*
X183167547Y-36292455D01*
X183167544Y-36292452D01*
X183052335Y-36206206D01*
X183052328Y-36206202D01*
X182917482Y-36155908D01*
X182917483Y-36155908D01*
X182857883Y-36149501D01*
X182857881Y-36149500D01*
X182857873Y-36149500D01*
X182857864Y-36149500D01*
X181062129Y-36149500D01*
X181062123Y-36149501D01*
X181002516Y-36155908D01*
X180867671Y-36206202D01*
X180867664Y-36206206D01*
X180752455Y-36292452D01*
X180752452Y-36292455D01*
X180666206Y-36407664D01*
X180666202Y-36407671D01*
X180615908Y-36542517D01*
X180609501Y-36602116D01*
X180609500Y-36602135D01*
X180609500Y-38397870D01*
X179281317Y-38397870D01*
X179303105Y-38376082D01*
X179438600Y-38182578D01*
X179538429Y-37968492D01*
X179538432Y-37968486D01*
X179595636Y-37755000D01*
X178698012Y-37755000D01*
X178730925Y-37697993D01*
X178765000Y-37570826D01*
X178765000Y-37439174D01*
X178730925Y-37312007D01*
X178698012Y-37255000D01*
X179595636Y-37255000D01*
X179595635Y-37254999D01*
X179538432Y-37041513D01*
X179538429Y-37041507D01*
X179438600Y-36827422D01*
X179438599Y-36827420D01*
X179303113Y-36633926D01*
X179303108Y-36633920D01*
X179136082Y-36466894D01*
X178942578Y-36331399D01*
X178728492Y-36231570D01*
X178728486Y-36231567D01*
X178515000Y-36174364D01*
X178515000Y-37071988D01*
X178457993Y-37039075D01*
X178330826Y-37005000D01*
X178199174Y-37005000D01*
X178072007Y-37039075D01*
X178015000Y-37071988D01*
X178015000Y-36174364D01*
X178014999Y-36174364D01*
X177801513Y-36231567D01*
X177801507Y-36231570D01*
X177587422Y-36331399D01*
X177587420Y-36331400D01*
X177393926Y-36466886D01*
X177271865Y-36588947D01*
X177210542Y-36622431D01*
X177140850Y-36617447D01*
X177084917Y-36575575D01*
X177068002Y-36544598D01*
X177060980Y-36525772D01*
X177031006Y-36445405D01*
X177018797Y-36412671D01*
X177018793Y-36412664D01*
X176932547Y-36297455D01*
X176932544Y-36297452D01*
X176817335Y-36211206D01*
X176817328Y-36211202D01*
X176682482Y-36160908D01*
X176682483Y-36160908D01*
X176622883Y-36154501D01*
X176622881Y-36154500D01*
X176622873Y-36154500D01*
X176622864Y-36154500D01*
X174827129Y-36154500D01*
X174827123Y-36154501D01*
X174767516Y-36160908D01*
X174632671Y-36211202D01*
X174632664Y-36211206D01*
X174517455Y-36297452D01*
X174517452Y-36297455D01*
X174431206Y-36412664D01*
X174431202Y-36412671D01*
X174380908Y-36547517D01*
X174374501Y-36607116D01*
X174374500Y-36607135D01*
X174374500Y-38402870D01*
X171782192Y-38402870D01*
X171832366Y-38193883D01*
X171851087Y-37956000D01*
X171832366Y-37718116D01*
X171776657Y-37486074D01*
X171685343Y-37265621D01*
X171567169Y-37072781D01*
X170968561Y-37671389D01*
X170949403Y-37625136D01*
X170872961Y-37510732D01*
X170775668Y-37413439D01*
X170661264Y-37336997D01*
X170615009Y-37317837D01*
X171216522Y-36716324D01*
X171226278Y-36658728D01*
X171257216Y-36618752D01*
X171406043Y-36491643D01*
X171561068Y-36310132D01*
X171685789Y-36106605D01*
X171777137Y-35886073D01*
X171832861Y-35653966D01*
X171851589Y-35416000D01*
X171832861Y-35178034D01*
X171777137Y-34945927D01*
X171685789Y-34725395D01*
X171561068Y-34521868D01*
X171406043Y-34340357D01*
X171257219Y-34213249D01*
X171257218Y-34213248D01*
X171219025Y-34154741D01*
X171215511Y-34114663D01*
X171195449Y-34094601D01*
X209946390Y-34094601D01*
X209966804Y-34380033D01*
X210027628Y-34659637D01*
X210027630Y-34659643D01*
X210027631Y-34659646D01*
X210056926Y-34738188D01*
X210127635Y-34927766D01*
X210264770Y-35178909D01*
X210264775Y-35178917D01*
X210436254Y-35407987D01*
X210436270Y-35408005D01*
X210638594Y-35610329D01*
X210638612Y-35610345D01*
X210867682Y-35781824D01*
X210867690Y-35781829D01*
X211118833Y-35918964D01*
X211118832Y-35918964D01*
X211118836Y-35918965D01*
X211118839Y-35918967D01*
X211386954Y-36018969D01*
X211386960Y-36018970D01*
X211386962Y-36018971D01*
X211666566Y-36079795D01*
X211666568Y-36079795D01*
X211666572Y-36079796D01*
X211920220Y-36097937D01*
X211951999Y-36100210D01*
X211952000Y-36100210D01*
X211952001Y-36100210D01*
X211980595Y-36098164D01*
X212237428Y-36079796D01*
X212296219Y-36067007D01*
X212517037Y-36018971D01*
X212517037Y-36018970D01*
X212517046Y-36018969D01*
X212785161Y-35918967D01*
X213036315Y-35781826D01*
X213265395Y-35610339D01*
X213467739Y-35407995D01*
X213639226Y-35178915D01*
X213776367Y-34927761D01*
X213876369Y-34659646D01*
X213892397Y-34585965D01*
X213937195Y-34380033D01*
X213937195Y-34380032D01*
X213937196Y-34380028D01*
X213953229Y-34155854D01*
X213977646Y-34090391D01*
X214033579Y-34048519D01*
X214103271Y-34043535D01*
X214153073Y-34066847D01*
X214176491Y-34085074D01*
X214361751Y-34185332D01*
X214395190Y-34203428D01*
X214630386Y-34284171D01*
X214875665Y-34325100D01*
X215124335Y-34325100D01*
X215369614Y-34284171D01*
X215604810Y-34203428D01*
X215823509Y-34085074D01*
X216019744Y-33932338D01*
X216178771Y-33759588D01*
X216238657Y-33723599D01*
X216308495Y-33725699D01*
X216361228Y-33759588D01*
X216520256Y-33932338D01*
X216716491Y-34085074D01*
X216716493Y-34085075D01*
X216901751Y-34185332D01*
X216935190Y-34203428D01*
X217170386Y-34284171D01*
X217415665Y-34325100D01*
X217664335Y-34325100D01*
X217909614Y-34284171D01*
X218144810Y-34203428D01*
X218363509Y-34085074D01*
X218559744Y-33932338D01*
X218718771Y-33759588D01*
X218778657Y-33723599D01*
X218848495Y-33725699D01*
X218901228Y-33759588D01*
X219060256Y-33932338D01*
X219256491Y-34085074D01*
X219256493Y-34085075D01*
X219441751Y-34185332D01*
X219475190Y-34203428D01*
X219710386Y-34284171D01*
X219955665Y-34325100D01*
X220204335Y-34325100D01*
X220449614Y-34284171D01*
X220684810Y-34203428D01*
X220903509Y-34085074D01*
X221099744Y-33932338D01*
X221258771Y-33759588D01*
X221318657Y-33723599D01*
X221388495Y-33725699D01*
X221441228Y-33759588D01*
X221600256Y-33932338D01*
X221796491Y-34085074D01*
X221796493Y-34085075D01*
X221981751Y-34185332D01*
X222015190Y-34203428D01*
X222250386Y-34284171D01*
X222495665Y-34325100D01*
X222744335Y-34325100D01*
X222989614Y-34284171D01*
X223224810Y-34203428D01*
X223443509Y-34085074D01*
X223639744Y-33932338D01*
X223798771Y-33759588D01*
X223858657Y-33723599D01*
X223928495Y-33725699D01*
X223981228Y-33759588D01*
X224140256Y-33932338D01*
X224336491Y-34085074D01*
X224336493Y-34085075D01*
X224521751Y-34185332D01*
X224555190Y-34203428D01*
X224790386Y-34284171D01*
X225035665Y-34325100D01*
X225284335Y-34325100D01*
X225529614Y-34284171D01*
X225764810Y-34203428D01*
X225983509Y-34085074D01*
X226179744Y-33932338D01*
X226338771Y-33759588D01*
X226398657Y-33723599D01*
X226468495Y-33725699D01*
X226521228Y-33759588D01*
X226680256Y-33932338D01*
X226876491Y-34085074D01*
X226876493Y-34085075D01*
X227061751Y-34185332D01*
X227095190Y-34203428D01*
X227330386Y-34284171D01*
X227575665Y-34325100D01*
X227824335Y-34325100D01*
X228069614Y-34284171D01*
X228304810Y-34203428D01*
X228523509Y-34085074D01*
X228719744Y-33932338D01*
X228792061Y-33853779D01*
X228851946Y-33817790D01*
X228921785Y-33819889D01*
X228979401Y-33859413D01*
X229006503Y-33923812D01*
X229006974Y-33946609D01*
X228996390Y-34094598D01*
X228996390Y-34094601D01*
X229016804Y-34380033D01*
X229077628Y-34659637D01*
X229077630Y-34659643D01*
X229077631Y-34659646D01*
X229106926Y-34738188D01*
X229177635Y-34927766D01*
X229314770Y-35178909D01*
X229314775Y-35178917D01*
X229486254Y-35407987D01*
X229486270Y-35408005D01*
X229688594Y-35610329D01*
X229688612Y-35610345D01*
X229917682Y-35781824D01*
X229917690Y-35781829D01*
X230168833Y-35918964D01*
X230168832Y-35918964D01*
X230168836Y-35918965D01*
X230168839Y-35918967D01*
X230436954Y-36018969D01*
X230436960Y-36018970D01*
X230436962Y-36018971D01*
X230716566Y-36079795D01*
X230716568Y-36079795D01*
X230716572Y-36079796D01*
X230970220Y-36097937D01*
X231001999Y-36100210D01*
X231002000Y-36100210D01*
X231002001Y-36100210D01*
X231030595Y-36098164D01*
X231287428Y-36079796D01*
X231346219Y-36067007D01*
X231567037Y-36018971D01*
X231567037Y-36018970D01*
X231567046Y-36018969D01*
X231835161Y-35918967D01*
X232086315Y-35781826D01*
X232315395Y-35610339D01*
X232517739Y-35407995D01*
X232689226Y-35178915D01*
X232826367Y-34927761D01*
X232926369Y-34659646D01*
X232942397Y-34585965D01*
X232987195Y-34380033D01*
X232987195Y-34380032D01*
X232987196Y-34380028D01*
X233007610Y-34094600D01*
X232987196Y-33809172D01*
X232978037Y-33767070D01*
X232926371Y-33529562D01*
X232926370Y-33529560D01*
X232926369Y-33529554D01*
X232826367Y-33261439D01*
X232689226Y-33010285D01*
X232689224Y-33010282D01*
X232517745Y-32781212D01*
X232517729Y-32781194D01*
X232315405Y-32578870D01*
X232315387Y-32578854D01*
X232086317Y-32407375D01*
X232086309Y-32407370D01*
X231835166Y-32270235D01*
X231835167Y-32270235D01*
X231727915Y-32230232D01*
X231567046Y-32170231D01*
X231567043Y-32170230D01*
X231567037Y-32170228D01*
X231287433Y-32109404D01*
X231002001Y-32088990D01*
X231001999Y-32088990D01*
X230716566Y-32109404D01*
X230436962Y-32170228D01*
X230168833Y-32270235D01*
X229917690Y-32407370D01*
X229917682Y-32407375D01*
X229688612Y-32578854D01*
X229688594Y-32578870D01*
X229486270Y-32781194D01*
X229486252Y-32781215D01*
X229426225Y-32861401D01*
X229370291Y-32903272D01*
X229300600Y-32908256D01*
X229239277Y-32874770D01*
X229205793Y-32813447D01*
X229203384Y-32797347D01*
X229185108Y-32576779D01*
X229169652Y-32515745D01*
X229124063Y-32335718D01*
X229024173Y-32107993D01*
X228888166Y-31899817D01*
X228848924Y-31857189D01*
X228719744Y-31716862D01*
X228523509Y-31564126D01*
X228523507Y-31564125D01*
X228523506Y-31564124D01*
X228304811Y-31445772D01*
X228304802Y-31445769D01*
X228069616Y-31365029D01*
X227824335Y-31324100D01*
X227575665Y-31324100D01*
X227330383Y-31365029D01*
X227095197Y-31445769D01*
X227095188Y-31445772D01*
X226876493Y-31564124D01*
X226680257Y-31716861D01*
X226521230Y-31889610D01*
X226461342Y-31925601D01*
X226391504Y-31923500D01*
X226338770Y-31889610D01*
X226278709Y-31824367D01*
X226179744Y-31716862D01*
X225983509Y-31564126D01*
X225983507Y-31564125D01*
X225983506Y-31564124D01*
X225764811Y-31445772D01*
X225764802Y-31445769D01*
X225529616Y-31365029D01*
X225284335Y-31324100D01*
X225035665Y-31324100D01*
X224790383Y-31365029D01*
X224555197Y-31445769D01*
X224555188Y-31445772D01*
X224336493Y-31564124D01*
X224140257Y-31716861D01*
X223981230Y-31889610D01*
X223921342Y-31925601D01*
X223851504Y-31923500D01*
X223798770Y-31889610D01*
X223738709Y-31824367D01*
X223639744Y-31716862D01*
X223443509Y-31564126D01*
X223443507Y-31564125D01*
X223443506Y-31564124D01*
X223224811Y-31445772D01*
X223224802Y-31445769D01*
X222989616Y-31365029D01*
X222744335Y-31324100D01*
X222495665Y-31324100D01*
X222250383Y-31365029D01*
X222015197Y-31445769D01*
X222015188Y-31445772D01*
X221796493Y-31564124D01*
X221600257Y-31716861D01*
X221441230Y-31889610D01*
X221381342Y-31925601D01*
X221311504Y-31923500D01*
X221258770Y-31889610D01*
X221198709Y-31824367D01*
X221099744Y-31716862D01*
X220903509Y-31564126D01*
X220903507Y-31564125D01*
X220903506Y-31564124D01*
X220684811Y-31445772D01*
X220684802Y-31445769D01*
X220449616Y-31365029D01*
X220204335Y-31324100D01*
X219955665Y-31324100D01*
X219710383Y-31365029D01*
X219475197Y-31445769D01*
X219475188Y-31445772D01*
X219256493Y-31564124D01*
X219060257Y-31716861D01*
X218901230Y-31889610D01*
X218841342Y-31925601D01*
X218771504Y-31923500D01*
X218718770Y-31889610D01*
X218658709Y-31824367D01*
X218559744Y-31716862D01*
X218363509Y-31564126D01*
X218363507Y-31564125D01*
X218363506Y-31564124D01*
X218144811Y-31445772D01*
X218144802Y-31445769D01*
X217909616Y-31365029D01*
X217664335Y-31324100D01*
X217415665Y-31324100D01*
X217170383Y-31365029D01*
X216935197Y-31445769D01*
X216935188Y-31445772D01*
X216716493Y-31564124D01*
X216520257Y-31716861D01*
X216361230Y-31889610D01*
X216301342Y-31925601D01*
X216231504Y-31923500D01*
X216178770Y-31889610D01*
X216118709Y-31824367D01*
X216019744Y-31716862D01*
X215823509Y-31564126D01*
X215823507Y-31564125D01*
X215823506Y-31564124D01*
X215604811Y-31445772D01*
X215604802Y-31445769D01*
X215369616Y-31365029D01*
X215124335Y-31324100D01*
X214875665Y-31324100D01*
X214630383Y-31365029D01*
X214395197Y-31445769D01*
X214395188Y-31445772D01*
X214176493Y-31564124D01*
X213980257Y-31716861D01*
X213811833Y-31899817D01*
X213675826Y-32107993D01*
X213575935Y-32335722D01*
X213575935Y-32335723D01*
X213517628Y-32565967D01*
X213482089Y-32626122D01*
X213419668Y-32657514D01*
X213350185Y-32650176D01*
X213309742Y-32623207D01*
X213265405Y-32578870D01*
X213265387Y-32578854D01*
X213036317Y-32407375D01*
X213036309Y-32407370D01*
X212785166Y-32270235D01*
X212785167Y-32270235D01*
X212677915Y-32230232D01*
X212517046Y-32170231D01*
X212517043Y-32170230D01*
X212517037Y-32170228D01*
X212237433Y-32109404D01*
X211952001Y-32088990D01*
X211951999Y-32088990D01*
X211666566Y-32109404D01*
X211386962Y-32170228D01*
X211118833Y-32270235D01*
X210867690Y-32407370D01*
X210867682Y-32407375D01*
X210638612Y-32578854D01*
X210638594Y-32578870D01*
X210436270Y-32781194D01*
X210436254Y-32781212D01*
X210264775Y-33010282D01*
X210264770Y-33010290D01*
X210127635Y-33261433D01*
X210027628Y-33529562D01*
X209966804Y-33809166D01*
X209946390Y-34094598D01*
X209946390Y-34094601D01*
X171195449Y-34094601D01*
X170615009Y-33514162D01*
X170661264Y-33495003D01*
X170775668Y-33418561D01*
X170872961Y-33321268D01*
X170949403Y-33206864D01*
X170968562Y-33160609D01*
X171567169Y-33759217D01*
X171567170Y-33759217D01*
X171685343Y-33566378D01*
X171776657Y-33345925D01*
X171832366Y-33113883D01*
X171851087Y-32876000D01*
X171832366Y-32638116D01*
X171776657Y-32406074D01*
X171685343Y-32185621D01*
X171567169Y-31992781D01*
X170968561Y-32591389D01*
X170949403Y-32545136D01*
X170872961Y-32430732D01*
X170775668Y-32333439D01*
X170661264Y-32256997D01*
X170615009Y-32237837D01*
X171216522Y-31636324D01*
X171226278Y-31578728D01*
X171257216Y-31538752D01*
X171406043Y-31411643D01*
X171561068Y-31230132D01*
X171685789Y-31026605D01*
X171777137Y-30806073D01*
X171832861Y-30573966D01*
X171851589Y-30336000D01*
X171832861Y-30098034D01*
X171809325Y-30000001D01*
X231994390Y-30000001D01*
X232014804Y-30285433D01*
X232075628Y-30565037D01*
X232075630Y-30565043D01*
X232075631Y-30565046D01*
X232165528Y-30806068D01*
X232175635Y-30833166D01*
X232312770Y-31084309D01*
X232312775Y-31084317D01*
X232484254Y-31313387D01*
X232484270Y-31313405D01*
X232686594Y-31515729D01*
X232686612Y-31515745D01*
X232915682Y-31687224D01*
X232915690Y-31687229D01*
X233166833Y-31824364D01*
X233166832Y-31824364D01*
X233166836Y-31824365D01*
X233166839Y-31824367D01*
X233434954Y-31924369D01*
X233434960Y-31924370D01*
X233434962Y-31924371D01*
X233714566Y-31985195D01*
X233714568Y-31985195D01*
X233714572Y-31985196D01*
X233968220Y-32003337D01*
X233999999Y-32005610D01*
X234000000Y-32005610D01*
X234000001Y-32005610D01*
X234028595Y-32003564D01*
X234285428Y-31985196D01*
X234565046Y-31924369D01*
X234833161Y-31824367D01*
X235084315Y-31687226D01*
X235313395Y-31515739D01*
X235515739Y-31313395D01*
X235687226Y-31084315D01*
X235824367Y-30833161D01*
X235924369Y-30565046D01*
X235932172Y-30529175D01*
X235985195Y-30285433D01*
X235985195Y-30285432D01*
X235985196Y-30285428D01*
X236005610Y-30000000D01*
X235985196Y-29714572D01*
X235970148Y-29645399D01*
X235924371Y-29434962D01*
X235924370Y-29434960D01*
X235924369Y-29434954D01*
X235824367Y-29166839D01*
X235774563Y-29075631D01*
X235687229Y-28915690D01*
X235687224Y-28915682D01*
X235515745Y-28686612D01*
X235515729Y-28686594D01*
X235313405Y-28484270D01*
X235313387Y-28484254D01*
X235084317Y-28312775D01*
X235084309Y-28312770D01*
X234833166Y-28175635D01*
X234833167Y-28175635D01*
X234725915Y-28135632D01*
X234565046Y-28075631D01*
X234565043Y-28075630D01*
X234565037Y-28075628D01*
X234285433Y-28014804D01*
X234000001Y-27994390D01*
X233999999Y-27994390D01*
X233714566Y-28014804D01*
X233434962Y-28075628D01*
X233166833Y-28175635D01*
X232915690Y-28312770D01*
X232915682Y-28312775D01*
X232686612Y-28484254D01*
X232686594Y-28484270D01*
X232484270Y-28686594D01*
X232484254Y-28686612D01*
X232312775Y-28915682D01*
X232312770Y-28915690D01*
X232175635Y-29166833D01*
X232075628Y-29434962D01*
X232014804Y-29714566D01*
X231994390Y-29999998D01*
X231994390Y-30000001D01*
X171809325Y-30000001D01*
X171777137Y-29865927D01*
X171685789Y-29645395D01*
X171561068Y-29441868D01*
X171406043Y-29260357D01*
X171224532Y-29105332D01*
X171021005Y-28980611D01*
X171021004Y-28980610D01*
X171021000Y-28980608D01*
X170800468Y-28889261D01*
X170568362Y-28833538D01*
X170568363Y-28833538D01*
X170330400Y-28814811D01*
X170092436Y-28833538D01*
X169860331Y-28889261D01*
X169639799Y-28980608D01*
X169436267Y-29105332D01*
X169254757Y-29260357D01*
X169099732Y-29441867D01*
X168975008Y-29645399D01*
X168883661Y-29865931D01*
X168827938Y-30098036D01*
X168809211Y-30336000D01*
X168827938Y-30573963D01*
X168883661Y-30806068D01*
X168975008Y-31026600D01*
X168975010Y-31026604D01*
X168975011Y-31026605D01*
X169099732Y-31230132D01*
X169254757Y-31411643D01*
X169358206Y-31499997D01*
X169403580Y-31538750D01*
X169441773Y-31597257D01*
X169445287Y-31637335D01*
X170045790Y-32237837D01*
X169999536Y-32256997D01*
X169885132Y-32333439D01*
X169787839Y-32430732D01*
X169711397Y-32545136D01*
X169692238Y-32591390D01*
X169093629Y-31992781D01*
X168975456Y-32185621D01*
X168884142Y-32406074D01*
X168828433Y-32638116D01*
X168809712Y-32876000D01*
X168828433Y-33113883D01*
X168884142Y-33345925D01*
X168975456Y-33566378D01*
X169093629Y-33759217D01*
X169692237Y-33160608D01*
X169711397Y-33206864D01*
X169787839Y-33321268D01*
X169885132Y-33418561D01*
X169999536Y-33495003D01*
X170045790Y-33514161D01*
X169444276Y-34115674D01*
X169434521Y-34173272D01*
X169403581Y-34213249D01*
X169254757Y-34340357D01*
X169099732Y-34521867D01*
X168975008Y-34725399D01*
X168883661Y-34945931D01*
X168827938Y-35178036D01*
X168809211Y-35416000D01*
X160997285Y-35416000D01*
X160951779Y-35375932D01*
X160932627Y-35308739D01*
X160952843Y-35241858D01*
X161004219Y-35197340D01*
X161133416Y-35137095D01*
X161133417Y-35137094D01*
X161198188Y-35091741D01*
X160584095Y-34477647D01*
X160671571Y-34454208D01*
X160772930Y-34395689D01*
X160855689Y-34312930D01*
X160914208Y-34211571D01*
X160937647Y-34124094D01*
X161551741Y-34738188D01*
X161597094Y-34673417D01*
X161597100Y-34673407D01*
X161690419Y-34473284D01*
X161690424Y-34473270D01*
X161747573Y-34259986D01*
X161747575Y-34259976D01*
X161766821Y-34040000D01*
X161766821Y-34039999D01*
X161747575Y-33820023D01*
X161747573Y-33820013D01*
X161690424Y-33606729D01*
X161690420Y-33606720D01*
X161597096Y-33406586D01*
X161551741Y-33341811D01*
X161551740Y-33341810D01*
X160937647Y-33955904D01*
X160914208Y-33868429D01*
X160855689Y-33767070D01*
X160772930Y-33684311D01*
X160671571Y-33625792D01*
X160584095Y-33602352D01*
X161198188Y-32988259D01*
X161198187Y-32988258D01*
X161133411Y-32942901D01*
X161133405Y-32942898D01*
X161004219Y-32882658D01*
X160951779Y-32836486D01*
X160932627Y-32769293D01*
X160952843Y-32702411D01*
X161004219Y-32657894D01*
X161046633Y-32638116D01*
X161133662Y-32597534D01*
X161314620Y-32470826D01*
X161470826Y-32314620D01*
X161597534Y-32133662D01*
X161690894Y-31933450D01*
X161748070Y-31720068D01*
X161767323Y-31500000D01*
X161748070Y-31279932D01*
X161690894Y-31066550D01*
X161597534Y-30866339D01*
X161534180Y-30775859D01*
X161470827Y-30685381D01*
X161470823Y-30685377D01*
X161314620Y-30529174D01*
X161314616Y-30529171D01*
X161314615Y-30529170D01*
X161133666Y-30402468D01*
X161133662Y-30402466D01*
X161133660Y-30402465D01*
X160933450Y-30309106D01*
X160933447Y-30309105D01*
X160933445Y-30309104D01*
X160720070Y-30251930D01*
X160720062Y-30251929D01*
X160500002Y-30232677D01*
X160499998Y-30232677D01*
X160279937Y-30251929D01*
X160279929Y-30251930D01*
X160066554Y-30309104D01*
X160066548Y-30309107D01*
X159866340Y-30402465D01*
X159866338Y-30402466D01*
X159685377Y-30529175D01*
X159529175Y-30685377D01*
X159402466Y-30866338D01*
X159402465Y-30866340D01*
X159309107Y-31066548D01*
X159309104Y-31066554D01*
X159251930Y-31279929D01*
X159251929Y-31279937D01*
X159232677Y-31499997D01*
X159232677Y-31500002D01*
X159251929Y-31720062D01*
X159251930Y-31720070D01*
X159309104Y-31933445D01*
X159309105Y-31933447D01*
X159309106Y-31933450D01*
X159379455Y-32084315D01*
X159402466Y-32133662D01*
X159402468Y-32133666D01*
X159529170Y-32314615D01*
X159529175Y-32314621D01*
X159685378Y-32470824D01*
X159685384Y-32470829D01*
X159866333Y-32597531D01*
X159866335Y-32597532D01*
X159866338Y-32597534D01*
X159953367Y-32638116D01*
X159995781Y-32657894D01*
X160048220Y-32704066D01*
X160067372Y-32771260D01*
X160047156Y-32838141D01*
X159995781Y-32882658D01*
X159866590Y-32942901D01*
X159801811Y-32988258D01*
X160415905Y-33602352D01*
X160328429Y-33625792D01*
X160227070Y-33684311D01*
X160144311Y-33767070D01*
X160085792Y-33868429D01*
X160062352Y-33955905D01*
X159448258Y-33341811D01*
X159402901Y-33406590D01*
X159309579Y-33606720D01*
X159309575Y-33606729D01*
X159252426Y-33820013D01*
X159252424Y-33820023D01*
X159233179Y-34039999D01*
X159233179Y-34040000D01*
X159252424Y-34259976D01*
X159252426Y-34259986D01*
X159309575Y-34473270D01*
X159309580Y-34473284D01*
X159402898Y-34673405D01*
X159402901Y-34673411D01*
X159448258Y-34738187D01*
X159448259Y-34738188D01*
X160062352Y-34124094D01*
X160085792Y-34211571D01*
X160144311Y-34312930D01*
X160227070Y-34395689D01*
X160328429Y-34454208D01*
X160415905Y-34477647D01*
X159801810Y-35091740D01*
X159866589Y-35137098D01*
X159995781Y-35197342D01*
X160048220Y-35243514D01*
X160067372Y-35310708D01*
X160047156Y-35377589D01*
X159995781Y-35422106D01*
X159866340Y-35482465D01*
X159866338Y-35482466D01*
X159685377Y-35609175D01*
X159529175Y-35765377D01*
X159402466Y-35946338D01*
X159402465Y-35946340D01*
X159309107Y-36146548D01*
X159309104Y-36146554D01*
X159251930Y-36359929D01*
X159251929Y-36359937D01*
X159232677Y-36579997D01*
X159232677Y-36580002D01*
X152800499Y-36580002D01*
X152800499Y-35952128D01*
X152794091Y-35892517D01*
X152791660Y-35886000D01*
X152743797Y-35757671D01*
X152743793Y-35757664D01*
X152657547Y-35642455D01*
X152657544Y-35642452D01*
X152542335Y-35556206D01*
X152542328Y-35556202D01*
X152407482Y-35505908D01*
X152407483Y-35505908D01*
X152347883Y-35499501D01*
X152347881Y-35499500D01*
X152347873Y-35499500D01*
X152347864Y-35499500D01*
X151352129Y-35499500D01*
X151352123Y-35499501D01*
X151292516Y-35505908D01*
X151157671Y-35556202D01*
X151157664Y-35556206D01*
X151042455Y-35642452D01*
X151042452Y-35642455D01*
X150956206Y-35757664D01*
X150956202Y-35757671D01*
X150905908Y-35892517D01*
X150903065Y-35918967D01*
X150899501Y-35952123D01*
X150899500Y-35952135D01*
X150899500Y-38047870D01*
X139300500Y-38047870D01*
X139300499Y-35952128D01*
X139294091Y-35892517D01*
X139291660Y-35886000D01*
X139243797Y-35757671D01*
X139243793Y-35757664D01*
X139157547Y-35642455D01*
X139157544Y-35642452D01*
X139042335Y-35556206D01*
X139042328Y-35556202D01*
X138907482Y-35505908D01*
X138907483Y-35505908D01*
X138847883Y-35499501D01*
X138847881Y-35499500D01*
X138847873Y-35499500D01*
X138847864Y-35499500D01*
X137852129Y-35499500D01*
X137852123Y-35499501D01*
X137792516Y-35505908D01*
X137657671Y-35556202D01*
X137657664Y-35556206D01*
X137542455Y-35642452D01*
X137542452Y-35642455D01*
X137456206Y-35757664D01*
X137456202Y-35757671D01*
X137405908Y-35892517D01*
X137403065Y-35918967D01*
X137399501Y-35952123D01*
X137399500Y-35952135D01*
X137399500Y-38047870D01*
X135330582Y-38047870D01*
X135273903Y-37836337D01*
X135174035Y-37622171D01*
X135168425Y-37614158D01*
X135038494Y-37428597D01*
X134871402Y-37261506D01*
X134871401Y-37261505D01*
X134685405Y-37131269D01*
X134641781Y-37076692D01*
X134634588Y-37007193D01*
X134666110Y-36944839D01*
X134685405Y-36928119D01*
X134871082Y-36798105D01*
X135038105Y-36631082D01*
X135173600Y-36437578D01*
X135273429Y-36223492D01*
X135273432Y-36223486D01*
X135330636Y-36010000D01*
X134433012Y-36010000D01*
X134465925Y-35952993D01*
X134500000Y-35825826D01*
X134500000Y-35694174D01*
X134465925Y-35567007D01*
X134433012Y-35510000D01*
X135330636Y-35510000D01*
X135330635Y-35509999D01*
X135273432Y-35296513D01*
X135273429Y-35296507D01*
X135173600Y-35082422D01*
X135173599Y-35082420D01*
X135038113Y-34888926D01*
X135038108Y-34888920D01*
X134871082Y-34721894D01*
X134677578Y-34586399D01*
X134463492Y-34486570D01*
X134463486Y-34486567D01*
X134250000Y-34429364D01*
X134250000Y-35326988D01*
X134192993Y-35294075D01*
X134065826Y-35260000D01*
X133934174Y-35260000D01*
X133807007Y-35294075D01*
X133750000Y-35326988D01*
X133750000Y-34429364D01*
X133749999Y-34429364D01*
X133536513Y-34486567D01*
X133536507Y-34486570D01*
X133322422Y-34586399D01*
X133322420Y-34586400D01*
X133128926Y-34721886D01*
X133128920Y-34721891D01*
X132961891Y-34888920D01*
X132961890Y-34888922D01*
X132831880Y-35074595D01*
X132777303Y-35118219D01*
X132707804Y-35125412D01*
X132645450Y-35093890D01*
X132628730Y-35074594D01*
X132498494Y-34888597D01*
X132331402Y-34721506D01*
X132331395Y-34721501D01*
X132137834Y-34585967D01*
X132137830Y-34585965D01*
X132137828Y-34585964D01*
X131923663Y-34486097D01*
X131923659Y-34486096D01*
X131923655Y-34486094D01*
X131695413Y-34424938D01*
X131695403Y-34424936D01*
X131460001Y-34404341D01*
X131459999Y-34404341D01*
X131224596Y-34424936D01*
X131224586Y-34424938D01*
X130996344Y-34486094D01*
X130996335Y-34486098D01*
X130782171Y-34585964D01*
X130782169Y-34585965D01*
X130588597Y-34721505D01*
X130421505Y-34888597D01*
X130285965Y-35082169D01*
X130285964Y-35082171D01*
X130186098Y-35296335D01*
X130186094Y-35296344D01*
X130124938Y-35524586D01*
X130124936Y-35524596D01*
X130104341Y-35759999D01*
X130104341Y-35760000D01*
X130124936Y-35995403D01*
X130124938Y-35995413D01*
X130186094Y-36223655D01*
X130186096Y-36223659D01*
X130186097Y-36223663D01*
X130269155Y-36401781D01*
X130285965Y-36437830D01*
X130285967Y-36437834D01*
X130360725Y-36544598D01*
X130421501Y-36631396D01*
X130421506Y-36631402D01*
X130588597Y-36798493D01*
X130588603Y-36798498D01*
X130774158Y-36928425D01*
X130817783Y-36983002D01*
X130824977Y-37052500D01*
X130793454Y-37114855D01*
X130774158Y-37131575D01*
X130588597Y-37261505D01*
X130421505Y-37428597D01*
X130285965Y-37622169D01*
X130285964Y-37622171D01*
X130186098Y-37836335D01*
X130186094Y-37836344D01*
X130124938Y-38064586D01*
X130124936Y-38064596D01*
X130104341Y-38299999D01*
X130104341Y-38300000D01*
X130124936Y-38535403D01*
X130124938Y-38535413D01*
X130186094Y-38763655D01*
X130186096Y-38763659D01*
X130186097Y-38763663D01*
X130266004Y-38935023D01*
X130285965Y-38977830D01*
X130285967Y-38977834D01*
X130355227Y-39076746D01*
X130421501Y-39171396D01*
X130421506Y-39171402D01*
X130588597Y-39338493D01*
X130588603Y-39338498D01*
X130774158Y-39468425D01*
X130817783Y-39523002D01*
X130824977Y-39592500D01*
X130793454Y-39654855D01*
X130774158Y-39671575D01*
X130588597Y-39801505D01*
X130421505Y-39968597D01*
X130285965Y-40162169D01*
X130285964Y-40162171D01*
X130186098Y-40376335D01*
X130186094Y-40376344D01*
X130124938Y-40604586D01*
X130124936Y-40604596D01*
X130104341Y-40839999D01*
X130104341Y-40840000D01*
X130124936Y-41075403D01*
X130124938Y-41075413D01*
X130186094Y-41303655D01*
X130186096Y-41303659D01*
X130186097Y-41303663D01*
X130216744Y-41369385D01*
X130285965Y-41517830D01*
X130285967Y-41517834D01*
X130394281Y-41672521D01*
X130421505Y-41711401D01*
X130588599Y-41878495D01*
X130719679Y-41970278D01*
X130774594Y-42008730D01*
X130818218Y-42063307D01*
X130825411Y-42132806D01*
X130793889Y-42195160D01*
X130774593Y-42211880D01*
X130698626Y-42265072D01*
X130698625Y-42265072D01*
X131330590Y-42897037D01*
X131267007Y-42914075D01*
X131152993Y-42979901D01*
X131059901Y-43072993D01*
X130994075Y-43187007D01*
X130977037Y-43250590D01*
X130345072Y-42618625D01*
X130286401Y-42702419D01*
X130186570Y-42916507D01*
X130186566Y-42916516D01*
X130125432Y-43144673D01*
X130125430Y-43144684D01*
X130104843Y-43379998D01*
X130104843Y-43380001D01*
X130125430Y-43615315D01*
X130125432Y-43615326D01*
X130186566Y-43843483D01*
X130186570Y-43843492D01*
X130286400Y-44057579D01*
X130286402Y-44057583D01*
X130345072Y-44141373D01*
X130345073Y-44141373D01*
X130977037Y-43509409D01*
X130994075Y-43572993D01*
X131059901Y-43687007D01*
X131152993Y-43780099D01*
X131267007Y-43845925D01*
X131330590Y-43862962D01*
X130698625Y-44494925D01*
X130774594Y-44548119D01*
X130818219Y-44602696D01*
X130825413Y-44672194D01*
X130793890Y-44734549D01*
X130774595Y-44751269D01*
X130588594Y-44881508D01*
X130421505Y-45048597D01*
X130285965Y-45242169D01*
X130285964Y-45242171D01*
X130186098Y-45456335D01*
X130186094Y-45456344D01*
X130124938Y-45684586D01*
X130124936Y-45684596D01*
X130104341Y-45919999D01*
X130104341Y-45920000D01*
X130124936Y-46155403D01*
X130124938Y-46155413D01*
X130186094Y-46383655D01*
X130186096Y-46383659D01*
X130186097Y-46383663D01*
X130216744Y-46449385D01*
X130285965Y-46597830D01*
X130285967Y-46597834D01*
X130394281Y-46752521D01*
X130421505Y-46791401D01*
X130588599Y-46958495D01*
X130774158Y-47088425D01*
X130774594Y-47088730D01*
X130818218Y-47143307D01*
X130825411Y-47212806D01*
X130793889Y-47275160D01*
X130774593Y-47291880D01*
X130698626Y-47345072D01*
X130698625Y-47345072D01*
X131330590Y-47977037D01*
X131267007Y-47994075D01*
X131152993Y-48059901D01*
X131059901Y-48152993D01*
X130994075Y-48267007D01*
X130977037Y-48330590D01*
X130345072Y-47698625D01*
X130286401Y-47782419D01*
X130186570Y-47996507D01*
X130186566Y-47996516D01*
X130125432Y-48224673D01*
X130125430Y-48224684D01*
X130104843Y-48459998D01*
X130104843Y-48460001D01*
X130125430Y-48695315D01*
X130125432Y-48695326D01*
X130186566Y-48923483D01*
X130186570Y-48923492D01*
X130286400Y-49137579D01*
X130286402Y-49137583D01*
X130345072Y-49221373D01*
X130345073Y-49221373D01*
X130977037Y-48589409D01*
X130994075Y-48652993D01*
X131059901Y-48767007D01*
X131152993Y-48860099D01*
X131267007Y-48925925D01*
X131330590Y-48942962D01*
X130698625Y-49574925D01*
X130774594Y-49628119D01*
X130818219Y-49682696D01*
X130825413Y-49752194D01*
X130793890Y-49814549D01*
X130774595Y-49831269D01*
X130588594Y-49961508D01*
X130421505Y-50128597D01*
X130285965Y-50322169D01*
X130285964Y-50322171D01*
X130186098Y-50536335D01*
X130186094Y-50536344D01*
X130124938Y-50764586D01*
X130124936Y-50764596D01*
X130104341Y-50999999D01*
X130104341Y-51000000D01*
X130124936Y-51235403D01*
X130124938Y-51235413D01*
X130186094Y-51463655D01*
X130186096Y-51463659D01*
X130186097Y-51463663D01*
X130216744Y-51529385D01*
X130285965Y-51677830D01*
X130285967Y-51677834D01*
X130355227Y-51776746D01*
X130421501Y-51871396D01*
X130421506Y-51871402D01*
X130588597Y-52038493D01*
X130588603Y-52038498D01*
X130774158Y-52168425D01*
X130817783Y-52223002D01*
X130824977Y-52292500D01*
X130793454Y-52354855D01*
X130774158Y-52371575D01*
X130588597Y-52501505D01*
X130421505Y-52668597D01*
X130285965Y-52862169D01*
X130285964Y-52862171D01*
X130186098Y-53076335D01*
X130186094Y-53076344D01*
X130124938Y-53304586D01*
X130124936Y-53304596D01*
X130104341Y-53539999D01*
X130104341Y-53540000D01*
X130124936Y-53775403D01*
X130124938Y-53775413D01*
X130186094Y-54003655D01*
X130186096Y-54003659D01*
X130186097Y-54003663D01*
X130256867Y-54155429D01*
X130285965Y-54217830D01*
X130285967Y-54217834D01*
X130344462Y-54301373D01*
X130421501Y-54411396D01*
X130421506Y-54411402D01*
X130588597Y-54578493D01*
X130588603Y-54578498D01*
X130774158Y-54708425D01*
X130817783Y-54763002D01*
X130824977Y-54832500D01*
X130793454Y-54894855D01*
X130774158Y-54911575D01*
X130588597Y-55041505D01*
X130421505Y-55208597D01*
X130285965Y-55402169D01*
X130285964Y-55402171D01*
X130186098Y-55616335D01*
X130186094Y-55616344D01*
X130124938Y-55844586D01*
X130124936Y-55844596D01*
X130104341Y-56079999D01*
X130104341Y-56080000D01*
X130124936Y-56315403D01*
X130124938Y-56315413D01*
X130186094Y-56543655D01*
X130186096Y-56543659D01*
X130186097Y-56543663D01*
X130266004Y-56715023D01*
X130285965Y-56757830D01*
X130285967Y-56757834D01*
X130355227Y-56856746D01*
X130421501Y-56951396D01*
X130421506Y-56951402D01*
X130588597Y-57118493D01*
X130588603Y-57118498D01*
X130774158Y-57248425D01*
X130817783Y-57303002D01*
X130824977Y-57372500D01*
X130793454Y-57434855D01*
X130774158Y-57451575D01*
X130588597Y-57581505D01*
X130421505Y-57748597D01*
X130285965Y-57942169D01*
X130285964Y-57942171D01*
X130186098Y-58156335D01*
X130186094Y-58156344D01*
X130124938Y-58384586D01*
X130124936Y-58384596D01*
X130104341Y-58619999D01*
X130104341Y-58620000D01*
X130124936Y-58855403D01*
X130124938Y-58855413D01*
X130186094Y-59083655D01*
X130186096Y-59083659D01*
X130186097Y-59083663D01*
X130266004Y-59255023D01*
X130285965Y-59297830D01*
X130285967Y-59297834D01*
X130394281Y-59452521D01*
X130421505Y-59491401D01*
X130588599Y-59658495D01*
X130774158Y-59788425D01*
X130774594Y-59788730D01*
X130818218Y-59843307D01*
X130825411Y-59912806D01*
X130793889Y-59975160D01*
X130774593Y-59991880D01*
X130698626Y-60045072D01*
X130698625Y-60045072D01*
X131330590Y-60677037D01*
X131267007Y-60694075D01*
X131152993Y-60759901D01*
X131059901Y-60852993D01*
X130994075Y-60967007D01*
X130977037Y-61030590D01*
X130345072Y-60398625D01*
X130286401Y-60482419D01*
X130186570Y-60696507D01*
X130186566Y-60696516D01*
X130125432Y-60924673D01*
X130125430Y-60924684D01*
X130104843Y-61159998D01*
X130104843Y-61160001D01*
X130125430Y-61395315D01*
X130125432Y-61395326D01*
X130186566Y-61623483D01*
X130186570Y-61623492D01*
X130286400Y-61837579D01*
X130286402Y-61837583D01*
X130345072Y-61921373D01*
X130345073Y-61921373D01*
X130977037Y-61289409D01*
X130994075Y-61352993D01*
X131059901Y-61467007D01*
X131152993Y-61560099D01*
X131267007Y-61625925D01*
X131330590Y-61642962D01*
X130698625Y-62274925D01*
X130774594Y-62328119D01*
X130818219Y-62382696D01*
X130825413Y-62452194D01*
X130793890Y-62514549D01*
X130774595Y-62531269D01*
X130588594Y-62661508D01*
X130421505Y-62828597D01*
X130285965Y-63022169D01*
X130285964Y-63022171D01*
X130186098Y-63236335D01*
X130186094Y-63236344D01*
X130124938Y-63464586D01*
X130124936Y-63464596D01*
X130104341Y-63699999D01*
X130104341Y-63700000D01*
X130124936Y-63935403D01*
X130124938Y-63935413D01*
X130186094Y-64163655D01*
X130186096Y-64163659D01*
X130186097Y-64163663D01*
X130250363Y-64301481D01*
X130285965Y-64377830D01*
X130285967Y-64377834D01*
X130347867Y-64466235D01*
X130421501Y-64571396D01*
X130421506Y-64571402D01*
X130588597Y-64738493D01*
X130588603Y-64738498D01*
X130774158Y-64868425D01*
X130817783Y-64923002D01*
X130824977Y-64992500D01*
X130793454Y-65054855D01*
X130774158Y-65071575D01*
X130588597Y-65201505D01*
X130421505Y-65368597D01*
X130285965Y-65562169D01*
X130285964Y-65562171D01*
X130186098Y-65776335D01*
X130186094Y-65776344D01*
X130124938Y-66004586D01*
X130124936Y-66004596D01*
X130104341Y-66239999D01*
X130104341Y-66240000D01*
X130124936Y-66475403D01*
X130124938Y-66475413D01*
X130186094Y-66703655D01*
X130186096Y-66703659D01*
X130186097Y-66703663D01*
X130252286Y-66845606D01*
X130285965Y-66917830D01*
X130285967Y-66917834D01*
X130355227Y-67016746D01*
X130421505Y-67111401D01*
X130588599Y-67278495D01*
X130762126Y-67400000D01*
X130774594Y-67408730D01*
X130818218Y-67463307D01*
X130825411Y-67532806D01*
X130793889Y-67595160D01*
X130774593Y-67611880D01*
X130698626Y-67665072D01*
X130698625Y-67665072D01*
X131330590Y-68297037D01*
X131267007Y-68314075D01*
X131152993Y-68379901D01*
X131059901Y-68472993D01*
X130994075Y-68587007D01*
X130977037Y-68650590D01*
X130345072Y-68018625D01*
X130286401Y-68102419D01*
X130186570Y-68316507D01*
X130186566Y-68316516D01*
X130125432Y-68544673D01*
X130125430Y-68544684D01*
X130104843Y-68779998D01*
X130104843Y-68780001D01*
X130125430Y-69015315D01*
X130125432Y-69015326D01*
X130186566Y-69243483D01*
X130186570Y-69243492D01*
X130286400Y-69457579D01*
X130286402Y-69457583D01*
X130345072Y-69541373D01*
X130345073Y-69541373D01*
X130977037Y-68909409D01*
X130994075Y-68972993D01*
X131059901Y-69087007D01*
X131152993Y-69180099D01*
X131267007Y-69245925D01*
X131330590Y-69262962D01*
X130698625Y-69894925D01*
X130774594Y-69948119D01*
X130818219Y-70002696D01*
X130825413Y-70072194D01*
X130793890Y-70134549D01*
X130774595Y-70151269D01*
X130588594Y-70281508D01*
X130421505Y-70448597D01*
X130285965Y-70642169D01*
X130285964Y-70642171D01*
X130186098Y-70856335D01*
X130186094Y-70856344D01*
X130124938Y-71084586D01*
X130124936Y-71084596D01*
X130104341Y-71319999D01*
X130104341Y-71320000D01*
X130124936Y-71555403D01*
X130124938Y-71555413D01*
X130186094Y-71783655D01*
X130186096Y-71783659D01*
X130186097Y-71783663D01*
X130216744Y-71849385D01*
X130285965Y-71997830D01*
X130285967Y-71997834D01*
X130352133Y-72092328D01*
X130421501Y-72191396D01*
X130421506Y-72191402D01*
X130588597Y-72358493D01*
X130588603Y-72358498D01*
X130774158Y-72488425D01*
X130817783Y-72543002D01*
X130824977Y-72612500D01*
X130793454Y-72674855D01*
X130774158Y-72691575D01*
X130588597Y-72821505D01*
X130421505Y-72988597D01*
X130285965Y-73182169D01*
X130285964Y-73182171D01*
X130186098Y-73396335D01*
X130186094Y-73396344D01*
X130124938Y-73624586D01*
X130124936Y-73624596D01*
X130104341Y-73859999D01*
X130104341Y-73860000D01*
X130124936Y-74095403D01*
X130124938Y-74095413D01*
X130186094Y-74323655D01*
X130186096Y-74323659D01*
X130186097Y-74323663D01*
X130216744Y-74389385D01*
X130285965Y-74537830D01*
X130285967Y-74537834D01*
X130344462Y-74621373D01*
X130421501Y-74731396D01*
X130421506Y-74731402D01*
X130588597Y-74898493D01*
X130588603Y-74898498D01*
X130774158Y-75028425D01*
X130817783Y-75083002D01*
X130824977Y-75152500D01*
X130793454Y-75214855D01*
X130774158Y-75231575D01*
X130588597Y-75361505D01*
X130421505Y-75528597D01*
X130285965Y-75722169D01*
X130285964Y-75722171D01*
X130186098Y-75936335D01*
X130186094Y-75936344D01*
X130124938Y-76164586D01*
X130124936Y-76164596D01*
X130104341Y-76399999D01*
X130104341Y-76400000D01*
X130124936Y-76635403D01*
X130124938Y-76635413D01*
X130186094Y-76863655D01*
X130186096Y-76863659D01*
X130186097Y-76863663D01*
X130190000Y-76872032D01*
X130285965Y-77077830D01*
X130285967Y-77077834D01*
X130394281Y-77232521D01*
X130421505Y-77271401D01*
X130588599Y-77438495D01*
X130774158Y-77568425D01*
X130774594Y-77568730D01*
X130818218Y-77623307D01*
X130825411Y-77692806D01*
X130793889Y-77755160D01*
X130774593Y-77771880D01*
X130698626Y-77825072D01*
X130698625Y-77825072D01*
X131330590Y-78457037D01*
X131267007Y-78474075D01*
X131152993Y-78539901D01*
X131059901Y-78632993D01*
X130994075Y-78747007D01*
X130977037Y-78810590D01*
X130345072Y-78178625D01*
X130286401Y-78262419D01*
X130186570Y-78476507D01*
X130186566Y-78476516D01*
X130125432Y-78704673D01*
X130125430Y-78704684D01*
X130104843Y-78939998D01*
X130104843Y-78940001D01*
X130125430Y-79175315D01*
X130125432Y-79175326D01*
X130186566Y-79403483D01*
X130186570Y-79403492D01*
X130286400Y-79617579D01*
X130286402Y-79617583D01*
X130345072Y-79701373D01*
X130345073Y-79701373D01*
X130977037Y-79069409D01*
X130994075Y-79132993D01*
X131059901Y-79247007D01*
X131152993Y-79340099D01*
X131267007Y-79405925D01*
X131330590Y-79422962D01*
X130698625Y-80054925D01*
X130774594Y-80108119D01*
X130818219Y-80162696D01*
X130825413Y-80232194D01*
X130793890Y-80294549D01*
X130774595Y-80311269D01*
X130588594Y-80441508D01*
X130421505Y-80608597D01*
X130285965Y-80802169D01*
X130285964Y-80802171D01*
X130186098Y-81016335D01*
X130186094Y-81016344D01*
X130124938Y-81244586D01*
X130124936Y-81244596D01*
X130104341Y-81479999D01*
X130104341Y-81480000D01*
X130124936Y-81715403D01*
X130124938Y-81715413D01*
X130186094Y-81943655D01*
X130186096Y-81943659D01*
X130186097Y-81943663D01*
X130232107Y-82042331D01*
X130285965Y-82157830D01*
X130285967Y-82157834D01*
X130355227Y-82256746D01*
X130421501Y-82351396D01*
X130421506Y-82351402D01*
X130588597Y-82518493D01*
X130588603Y-82518498D01*
X130774158Y-82648425D01*
X130817783Y-82703002D01*
X130824977Y-82772500D01*
X130793454Y-82834855D01*
X130774158Y-82851575D01*
X130588597Y-82981505D01*
X130421505Y-83148597D01*
X130285965Y-83342169D01*
X130285964Y-83342171D01*
X130186098Y-83556335D01*
X130186094Y-83556344D01*
X130124938Y-83784586D01*
X130124936Y-83784596D01*
X130104341Y-84019999D01*
X130104341Y-84020000D01*
X124000000Y-84020000D01*
X124000000Y-31000001D01*
X125994390Y-31000001D01*
X126014804Y-31285433D01*
X126075628Y-31565037D01*
X126075630Y-31565043D01*
X126075631Y-31565046D01*
X126133452Y-31720070D01*
X126175635Y-31833166D01*
X126312770Y-32084309D01*
X126312775Y-32084317D01*
X126484254Y-32313387D01*
X126484270Y-32313405D01*
X126686594Y-32515729D01*
X126686612Y-32515745D01*
X126915682Y-32687224D01*
X126915690Y-32687229D01*
X127166833Y-32824364D01*
X127166832Y-32824364D01*
X127166836Y-32824365D01*
X127166839Y-32824367D01*
X127434954Y-32924369D01*
X127434960Y-32924370D01*
X127434962Y-32924371D01*
X127714566Y-32985195D01*
X127714568Y-32985195D01*
X127714572Y-32985196D01*
X127968220Y-33003337D01*
X127999999Y-33005610D01*
X128000000Y-33005610D01*
X128000001Y-33005610D01*
X128028595Y-33003564D01*
X128285428Y-32985196D01*
X128471145Y-32944796D01*
X128565037Y-32924371D01*
X128565037Y-32924370D01*
X128565046Y-32924369D01*
X128833161Y-32824367D01*
X129084315Y-32687226D01*
X129313395Y-32515739D01*
X129515739Y-32313395D01*
X129687226Y-32084315D01*
X129824367Y-31833161D01*
X129924369Y-31565046D01*
X129967880Y-31365029D01*
X129985195Y-31285433D01*
X129985195Y-31285432D01*
X129985196Y-31285428D01*
X130005610Y-31000000D01*
X129985196Y-30714572D01*
X129954608Y-30573963D01*
X129924371Y-30434962D01*
X129924370Y-30434960D01*
X129924369Y-30434954D01*
X129824367Y-30166839D01*
X129786796Y-30098034D01*
X129687229Y-29915690D01*
X129687224Y-29915682D01*
X129515745Y-29686612D01*
X129515729Y-29686594D01*
X129313405Y-29484270D01*
X129313387Y-29484254D01*
X129084317Y-29312775D01*
X129084309Y-29312770D01*
X128833166Y-29175635D01*
X128833167Y-29175635D01*
X128644677Y-29105332D01*
X128565046Y-29075631D01*
X128565043Y-29075630D01*
X128565037Y-29075628D01*
X128285433Y-29014804D01*
X128000001Y-28994390D01*
X127999999Y-28994390D01*
X127714566Y-29014804D01*
X127434962Y-29075628D01*
X127166833Y-29175635D01*
X126915690Y-29312770D01*
X126915682Y-29312775D01*
X126686612Y-29484254D01*
X126686594Y-29484270D01*
X126484270Y-29686594D01*
X126484254Y-29686612D01*
X126312775Y-29915682D01*
X126312770Y-29915690D01*
X126175635Y-30166833D01*
X126075628Y-30434962D01*
X126014804Y-30714566D01*
X125994390Y-30999998D01*
X125994390Y-31000001D01*
X124000000Y-31000001D01*
X124000000Y-27124000D01*
X124019685Y-27056961D01*
X124072489Y-27011206D01*
X124124000Y-27000000D01*
X236876000Y-27000000D01*
X236943039Y-27019685D01*
G37*
%TD.AperFunction*%
%TD*%
M02*
