M48
; DRILL file {KiCad 8.0.1} date 2024-05-27T17:32:08-0700
; FORMAT={-:-/ absolute / inch / decimal}
; #@! TF.CreationDate,2024-05-27T17:32:08-07:00
; #@! TF.GenerationSoftware,Kicad,Pcbnew,8.0.1
; #@! TF.FileFunction,Plated,1,2,PTH
FMAT,2
INCH
; #@! TA.AperFunction,Plated,PTH,ComponentDrill
T1C0.0236
; #@! TA.AperFunction,Plated,PTH,ComponentDrill
T2C0.0315
; #@! TA.AperFunction,Plated,PTH,ComponentDrill
T3C0.0350
; #@! TA.AperFunction,Plated,PTH,ComponentDrill
T4C0.0394
; #@! TA.AperFunction,Plated,PTH,ComponentDrill
T5C0.0550
; #@! TA.AperFunction,Plated,PTH,ComponentDrill
T6C0.1063
%
G90
G05
T2
X6.5354Y-3.189
X6.6339Y-3.189
X7.126Y-2.1654
X7.126Y-2.6378
X7.2244Y-2.1654
X7.2244Y-2.6378
T3
X6.3189Y-1.2402
X6.3189Y-1.3402
X6.3189Y-1.4402
T4
X5.1756Y-1.4079
X5.1756Y-1.5079
X5.1756Y-1.6079
X5.1756Y-1.7079
X5.1756Y-1.8079
X5.1756Y-1.9079
X5.1756Y-2.0079
X5.1756Y-2.1079
X5.1756Y-2.2079
X5.1756Y-2.3079
X5.1756Y-2.4079
X5.1756Y-2.5079
X5.1756Y-2.6079
X5.1756Y-2.7079
X5.1756Y-2.8079
X5.1756Y-2.9079
X5.1756Y-3.0079
X5.1756Y-3.1079
X5.1756Y-3.2079
X5.1756Y-3.3079
X5.2756Y-1.4079
X5.2756Y-1.5079
X5.2756Y-1.6079
X5.2756Y-1.7079
X5.2756Y-1.8079
X5.2756Y-1.9079
X5.2756Y-2.0079
X5.2756Y-2.1079
X5.2756Y-2.2079
X5.2756Y-2.3079
X5.2756Y-2.4079
X5.2756Y-2.5079
X5.2756Y-2.6079
X5.2756Y-2.7079
X5.2756Y-2.8079
X5.2756Y-2.9079
X5.2756Y-3.0079
X5.2756Y-3.1079
X5.2756Y-3.2079
X5.2756Y-3.3079
X6.7809Y-3.3907
X6.8809Y-3.3907
X6.9183Y-1.4766
X7.0183Y-1.4766
X7.1638Y-1.4764
X7.2638Y-1.4764
X7.6181Y-2.1953
X7.6181Y-2.2953
X7.6181Y-2.3953
X7.6181Y-2.4953
X7.6181Y-2.5953
X7.6181Y-2.6953
X7.6181Y-2.7953
X8.3696Y-2.3763
X8.3696Y-2.5123
X8.4646Y-1.2923
X8.4646Y-3.5923
X8.5646Y-1.2923
X8.5646Y-3.5923
X8.6646Y-1.2923
X8.6646Y-3.5923
X8.7646Y-1.2923
X8.7646Y-3.5923
X8.8646Y-1.2923
X8.8646Y-3.5923
X8.9646Y-1.2923
X8.9646Y-1.4923
X8.9646Y-1.5923
X8.9646Y-1.6923
X8.9646Y-1.7923
X8.9646Y-1.9923
X8.9646Y-2.0923
X8.9646Y-2.1923
X8.9646Y-2.2923
X8.9646Y-2.5923
X8.9646Y-2.6923
X8.9646Y-2.7923
X8.9646Y-2.8923
X8.9646Y-3.0923
X8.9646Y-3.1923
X8.9646Y-3.2923
X8.9646Y-3.3923
X8.9646Y-3.5923
X9.0646Y-1.4923
X9.0646Y-1.5923
X9.0646Y-1.6923
X9.0646Y-1.7923
X9.0646Y-1.9923
X9.0646Y-2.0923
X9.0646Y-2.1923
X9.0646Y-2.2923
X9.0646Y-2.5923
X9.0646Y-2.6923
X9.0646Y-2.7923
X9.0646Y-2.8923
X9.0646Y-3.0923
X9.0646Y-3.1923
X9.0646Y-3.2923
X9.0646Y-3.3923
X9.1646Y-1.4923
X9.1646Y-1.5923
X9.1646Y-1.6923
X9.1646Y-1.7923
X9.1646Y-1.9923
X9.1646Y-2.0923
X9.1646Y-2.1923
X9.1646Y-2.2923
X9.1646Y-2.5923
X9.1646Y-2.6923
X9.1646Y-2.7923
X9.1646Y-2.8923
X9.1646Y-3.0923
X9.1646Y-3.1923
X9.1646Y-3.2923
X9.1646Y-3.3923
T5
X6.7059Y-1.1943
X6.7059Y-1.2943
X6.7059Y-1.3943
X6.7059Y-1.4943
T6
X5.5709Y-1.6929
X5.8543Y-1.6929
T1
G00X5.4469Y-1.435
M15
G01X5.4469Y-1.4783
M16
G05
G00X5.9783Y-1.435
M15
G01X5.9783Y-1.4783
M16
G05
M30
