%TF.GenerationSoftware,KiCad,Pcbnew,8.0.1*%
%TF.CreationDate,2024-05-22T18:28:10-07:00*%
%TF.ProjectId,pcb-v3,7063622d-7633-42e6-9b69-6361645f7063,rev?*%
%TF.SameCoordinates,Original*%
%TF.FileFunction,Soldermask,Top*%
%TF.FilePolarity,Negative*%
%FSLAX46Y46*%
G04 Gerber Fmt 4.6, Leading zero omitted, Abs format (unit mm)*
G04 Created by KiCad (PCBNEW 8.0.1) date 2024-05-22 18:28:10*
%MOMM*%
%LPD*%
G01*
G04 APERTURE LIST*
G04 Aperture macros list*
%AMRoundRect*
0 Rectangle with rounded corners*
0 $1 Rounding radius*
0 $2 $3 $4 $5 $6 $7 $8 $9 X,Y pos of 4 corners*
0 Add a 4 corners polygon primitive as box body*
4,1,4,$2,$3,$4,$5,$6,$7,$8,$9,$2,$3,0*
0 Add four circle primitives for the rounded corners*
1,1,$1+$1,$2,$3*
1,1,$1+$1,$4,$5*
1,1,$1+$1,$6,$7*
1,1,$1+$1,$8,$9*
0 Add four rect primitives between the rounded corners*
20,1,$1+$1,$2,$3,$4,$5,0*
20,1,$1+$1,$4,$5,$6,$7,0*
20,1,$1+$1,$6,$7,$8,$9,0*
20,1,$1+$1,$8,$9,$2,$3,0*%
G04 Aperture macros list end*
%ADD10R,1.700000X1.700000*%
%ADD11O,1.700000X1.700000*%
%ADD12C,2.032000*%
%ADD13C,1.524000*%
%ADD14C,3.000000*%
%ADD15C,2.000000*%
%ADD16R,0.900000X2.000000*%
%ADD17RoundRect,1.025000X-1.025000X-1.025000X1.025000X-1.025000X1.025000X1.025000X-1.025000X1.025000X0*%
%ADD18C,4.100000*%
G04 APERTURE END LIST*
D10*
%TO.C,J1*%
X175725000Y-37505000D03*
D11*
X178265000Y-37505000D03*
%TD*%
D10*
%TO.C,J4*%
X174775000Y-86125000D03*
D11*
X172235000Y-86125000D03*
%TD*%
D12*
%TO.C,Q2*%
X170330400Y-37956000D03*
X170330400Y-35416000D03*
X170330400Y-32876000D03*
X170330400Y-30336000D03*
%TD*%
D10*
%TO.C,J2*%
X193500000Y-71000000D03*
D11*
X193500000Y-68460000D03*
X193500000Y-65920000D03*
X193500000Y-63380000D03*
X193500000Y-60840000D03*
X193500000Y-58300000D03*
X193500000Y-55760000D03*
%TD*%
D10*
%TO.C,J3*%
X181960000Y-37500000D03*
D11*
X184500000Y-37500000D03*
%TD*%
D13*
%TO.C,Q1*%
X160500000Y-36580000D03*
X160500000Y-34040000D03*
X160500000Y-31500000D03*
%TD*%
D14*
%TO.C,U2*%
X214000000Y-90000000D03*
X233050000Y-89974600D03*
X214000000Y-34094600D03*
X233050000Y-34094600D03*
D15*
X229748000Y-91244600D03*
X232288000Y-86164600D03*
X232288000Y-83624600D03*
X232288000Y-81084600D03*
X232288000Y-78544600D03*
X232288000Y-73464600D03*
X232288000Y-70924600D03*
X232288000Y-68384600D03*
X232288000Y-65844600D03*
X232288000Y-58224600D03*
X232288000Y-55684600D03*
X232288000Y-53144600D03*
X232288000Y-50604600D03*
X232288000Y-45524600D03*
X232288000Y-42984600D03*
X232288000Y-40444600D03*
X232288000Y-37904600D03*
X229748000Y-32824600D03*
X227208000Y-91244600D03*
X227208000Y-32824600D03*
X224668000Y-91244600D03*
X224668000Y-32824600D03*
X222128000Y-91244600D03*
X222128000Y-32824600D03*
X219588000Y-91244600D03*
X219588000Y-32824600D03*
X217048000Y-91244600D03*
X234828000Y-86164600D03*
X234828000Y-83624600D03*
X234828000Y-81084600D03*
X234828000Y-78544600D03*
X234828000Y-73464600D03*
X234828000Y-70924600D03*
X234828000Y-68384600D03*
X234828000Y-65844600D03*
X234828000Y-58224600D03*
X234828000Y-55684600D03*
X234828000Y-53144600D03*
X234828000Y-50604600D03*
X234828000Y-45524600D03*
X234828000Y-42984600D03*
X234828000Y-40444600D03*
X234828000Y-37904600D03*
X217048000Y-32824600D03*
X229748000Y-86164600D03*
X229748000Y-83624600D03*
X229748000Y-81084600D03*
X229748000Y-78544600D03*
X229748000Y-73464600D03*
X229748000Y-70924600D03*
X229748000Y-68384600D03*
X229748000Y-65844600D03*
X229748000Y-58224600D03*
X229748000Y-55684600D03*
X229748000Y-53144600D03*
X229748000Y-50604600D03*
X229748000Y-45524600D03*
X229748000Y-42984600D03*
X229748000Y-40444600D03*
X229748000Y-37904600D03*
X214635000Y-63812600D03*
X214635000Y-60358200D03*
%TD*%
D16*
%TO.C,C2*%
X138350000Y-37000000D03*
X151850000Y-37000000D03*
D17*
X148700000Y-43000000D03*
D18*
X141500000Y-43000000D03*
%TD*%
D10*
%TO.C,J5*%
X132000000Y-79000000D03*
D11*
X129460000Y-79000000D03*
X132000000Y-76460000D03*
X129460000Y-76460000D03*
X132000000Y-73920000D03*
X129460000Y-73920000D03*
X132000000Y-71380000D03*
X129460000Y-71380000D03*
X132000000Y-68840000D03*
X129460000Y-68840000D03*
X132000000Y-66300000D03*
X129460000Y-66300000D03*
X132000000Y-63760000D03*
X129460000Y-63760000D03*
X132000000Y-61220000D03*
X129460000Y-61220000D03*
X132000000Y-58680000D03*
X129460000Y-58680000D03*
X132000000Y-56140000D03*
X129460000Y-56140000D03*
X132000000Y-53600000D03*
X129460000Y-53600000D03*
X132000000Y-51060000D03*
X129460000Y-51060000D03*
X132000000Y-48520000D03*
X129460000Y-48520000D03*
X132000000Y-45980000D03*
X129460000Y-45980000D03*
X132000000Y-43440000D03*
X129460000Y-43440000D03*
X132000000Y-40900000D03*
X129460000Y-40900000D03*
X132000000Y-38360000D03*
X129460000Y-38360000D03*
X132000000Y-35820000D03*
X129460000Y-35820000D03*
X132000000Y-33280000D03*
X129460000Y-33280000D03*
X132000000Y-30740000D03*
X129460000Y-30740000D03*
%TD*%
M02*
