%TF.GenerationSoftware,KiCad,Pcbnew,8.0.1*%
%TF.CreationDate,2024-05-22T18:28:10-07:00*%
%TF.ProjectId,pcb-v3,7063622d-7633-42e6-9b69-6361645f7063,rev?*%
%TF.SameCoordinates,Original*%
%TF.FileFunction,Legend,Bot*%
%TF.FilePolarity,Positive*%
%FSLAX46Y46*%
G04 Gerber Fmt 4.6, Leading zero omitted, Abs format (unit mm)*
G04 Created by KiCad (PCBNEW 8.0.1) date 2024-05-22 18:28:10*
%MOMM*%
%LPD*%
G01*
G04 APERTURE LIST*
%ADD10C,0.150000*%
%ADD11C,0.120000*%
G04 APERTURE END LIST*
D10*
X131063333Y-81224819D02*
X131063333Y-81939104D01*
X131063333Y-81939104D02*
X131110952Y-82081961D01*
X131110952Y-82081961D02*
X131206190Y-82177200D01*
X131206190Y-82177200D02*
X131349047Y-82224819D01*
X131349047Y-82224819D02*
X131444285Y-82224819D01*
X130110952Y-81224819D02*
X130587142Y-81224819D01*
X130587142Y-81224819D02*
X130634761Y-81701009D01*
X130634761Y-81701009D02*
X130587142Y-81653390D01*
X130587142Y-81653390D02*
X130491904Y-81605771D01*
X130491904Y-81605771D02*
X130253809Y-81605771D01*
X130253809Y-81605771D02*
X130158571Y-81653390D01*
X130158571Y-81653390D02*
X130110952Y-81701009D01*
X130110952Y-81701009D02*
X130063333Y-81796247D01*
X130063333Y-81796247D02*
X130063333Y-82034342D01*
X130063333Y-82034342D02*
X130110952Y-82129580D01*
X130110952Y-82129580D02*
X130158571Y-82177200D01*
X130158571Y-82177200D02*
X130253809Y-82224819D01*
X130253809Y-82224819D02*
X130491904Y-82224819D01*
X130491904Y-82224819D02*
X130587142Y-82177200D01*
X130587142Y-82177200D02*
X130634761Y-82129580D01*
D11*
%TO.C,J5*%
X128130000Y-29410000D02*
X128130000Y-80330000D01*
X130730000Y-77730000D02*
X130730000Y-80330000D01*
X130730000Y-80330000D02*
X128130000Y-80330000D01*
X133330000Y-29410000D02*
X128130000Y-29410000D01*
X133330000Y-29410000D02*
X133330000Y-77730000D01*
X133330000Y-77730000D02*
X130730000Y-77730000D01*
X133330000Y-79000000D02*
X133330000Y-80330000D01*
X133330000Y-80330000D02*
X132000000Y-80330000D01*
%TD*%
M02*
