%TF.GenerationSoftware,KiCad,Pcbnew,8.0.1*%
%TF.CreationDate,2024-05-22T18:28:10-07:00*%
%TF.ProjectId,pcb-v3,7063622d-7633-42e6-9b69-6361645f7063,rev?*%
%TF.SameCoordinates,Original*%
%TF.FileFunction,Legend,Top*%
%TF.FilePolarity,Positive*%
%FSLAX46Y46*%
G04 Gerber Fmt 4.6, Leading zero omitted, Abs format (unit mm)*
G04 Created by KiCad (PCBNEW 8.0.1) date 2024-05-22 18:28:10*
%MOMM*%
%LPD*%
G01*
G04 APERTURE LIST*
%ADD10C,0.150000*%
%ADD11C,0.100000*%
%ADD12C,0.120000*%
%ADD13C,0.200000*%
G04 APERTURE END LIST*
D10*
X176709819Y-49107506D02*
X177424104Y-49107506D01*
X177424104Y-49107506D02*
X177566961Y-49155125D01*
X177566961Y-49155125D02*
X177662200Y-49250363D01*
X177662200Y-49250363D02*
X177709819Y-49393220D01*
X177709819Y-49393220D02*
X177709819Y-49488458D01*
X177662200Y-48250363D02*
X177709819Y-48345601D01*
X177709819Y-48345601D02*
X177709819Y-48536077D01*
X177709819Y-48536077D02*
X177662200Y-48631315D01*
X177662200Y-48631315D02*
X177566961Y-48678934D01*
X177566961Y-48678934D02*
X177186009Y-48678934D01*
X177186009Y-48678934D02*
X177090771Y-48631315D01*
X177090771Y-48631315D02*
X177043152Y-48536077D01*
X177043152Y-48536077D02*
X177043152Y-48345601D01*
X177043152Y-48345601D02*
X177090771Y-48250363D01*
X177090771Y-48250363D02*
X177186009Y-48202744D01*
X177186009Y-48202744D02*
X177281247Y-48202744D01*
X177281247Y-48202744D02*
X177376485Y-48678934D01*
X177043152Y-47917029D02*
X177043152Y-47536077D01*
X176709819Y-47774172D02*
X177566961Y-47774172D01*
X177566961Y-47774172D02*
X177662200Y-47726553D01*
X177662200Y-47726553D02*
X177709819Y-47631315D01*
X177709819Y-47631315D02*
X177709819Y-47536077D01*
X177662200Y-47250362D02*
X177709819Y-47155124D01*
X177709819Y-47155124D02*
X177709819Y-46964648D01*
X177709819Y-46964648D02*
X177662200Y-46869410D01*
X177662200Y-46869410D02*
X177566961Y-46821791D01*
X177566961Y-46821791D02*
X177519342Y-46821791D01*
X177519342Y-46821791D02*
X177424104Y-46869410D01*
X177424104Y-46869410D02*
X177376485Y-46964648D01*
X177376485Y-46964648D02*
X177376485Y-47107505D01*
X177376485Y-47107505D02*
X177328866Y-47202743D01*
X177328866Y-47202743D02*
X177233628Y-47250362D01*
X177233628Y-47250362D02*
X177186009Y-47250362D01*
X177186009Y-47250362D02*
X177090771Y-47202743D01*
X177090771Y-47202743D02*
X177043152Y-47107505D01*
X177043152Y-47107505D02*
X177043152Y-46964648D01*
X177043152Y-46964648D02*
X177090771Y-46869410D01*
X177709819Y-46250362D02*
X177662200Y-46345600D01*
X177662200Y-46345600D02*
X177614580Y-46393219D01*
X177614580Y-46393219D02*
X177519342Y-46440838D01*
X177519342Y-46440838D02*
X177233628Y-46440838D01*
X177233628Y-46440838D02*
X177138390Y-46393219D01*
X177138390Y-46393219D02*
X177090771Y-46345600D01*
X177090771Y-46345600D02*
X177043152Y-46250362D01*
X177043152Y-46250362D02*
X177043152Y-46107505D01*
X177043152Y-46107505D02*
X177090771Y-46012267D01*
X177090771Y-46012267D02*
X177138390Y-45964648D01*
X177138390Y-45964648D02*
X177233628Y-45917029D01*
X177233628Y-45917029D02*
X177519342Y-45917029D01*
X177519342Y-45917029D02*
X177614580Y-45964648D01*
X177614580Y-45964648D02*
X177662200Y-46012267D01*
X177662200Y-46012267D02*
X177709819Y-46107505D01*
X177709819Y-46107505D02*
X177709819Y-46250362D01*
X177043152Y-45488457D02*
X177709819Y-45488457D01*
X177138390Y-45488457D02*
X177090771Y-45440838D01*
X177090771Y-45440838D02*
X177043152Y-45345600D01*
X177043152Y-45345600D02*
X177043152Y-45202743D01*
X177043152Y-45202743D02*
X177090771Y-45107505D01*
X177090771Y-45107505D02*
X177186009Y-45059886D01*
X177186009Y-45059886D02*
X177709819Y-45059886D01*
X177709819Y-43821790D02*
X176709819Y-43821790D01*
X176709819Y-43821790D02*
X176709819Y-43440838D01*
X176709819Y-43440838D02*
X176757438Y-43345600D01*
X176757438Y-43345600D02*
X176805057Y-43297981D01*
X176805057Y-43297981D02*
X176900295Y-43250362D01*
X176900295Y-43250362D02*
X177043152Y-43250362D01*
X177043152Y-43250362D02*
X177138390Y-43297981D01*
X177138390Y-43297981D02*
X177186009Y-43345600D01*
X177186009Y-43345600D02*
X177233628Y-43440838D01*
X177233628Y-43440838D02*
X177233628Y-43821790D01*
X177709819Y-42678933D02*
X177662200Y-42774171D01*
X177662200Y-42774171D02*
X177614580Y-42821790D01*
X177614580Y-42821790D02*
X177519342Y-42869409D01*
X177519342Y-42869409D02*
X177233628Y-42869409D01*
X177233628Y-42869409D02*
X177138390Y-42821790D01*
X177138390Y-42821790D02*
X177090771Y-42774171D01*
X177090771Y-42774171D02*
X177043152Y-42678933D01*
X177043152Y-42678933D02*
X177043152Y-42536076D01*
X177043152Y-42536076D02*
X177090771Y-42440838D01*
X177090771Y-42440838D02*
X177138390Y-42393219D01*
X177138390Y-42393219D02*
X177233628Y-42345600D01*
X177233628Y-42345600D02*
X177519342Y-42345600D01*
X177519342Y-42345600D02*
X177614580Y-42393219D01*
X177614580Y-42393219D02*
X177662200Y-42440838D01*
X177662200Y-42440838D02*
X177709819Y-42536076D01*
X177709819Y-42536076D02*
X177709819Y-42678933D01*
X177043152Y-42012266D02*
X177709819Y-41821790D01*
X177709819Y-41821790D02*
X177233628Y-41631314D01*
X177233628Y-41631314D02*
X177709819Y-41440838D01*
X177709819Y-41440838D02*
X177043152Y-41250362D01*
X177662200Y-40488457D02*
X177709819Y-40583695D01*
X177709819Y-40583695D02*
X177709819Y-40774171D01*
X177709819Y-40774171D02*
X177662200Y-40869409D01*
X177662200Y-40869409D02*
X177566961Y-40917028D01*
X177566961Y-40917028D02*
X177186009Y-40917028D01*
X177186009Y-40917028D02*
X177090771Y-40869409D01*
X177090771Y-40869409D02*
X177043152Y-40774171D01*
X177043152Y-40774171D02*
X177043152Y-40583695D01*
X177043152Y-40583695D02*
X177090771Y-40488457D01*
X177090771Y-40488457D02*
X177186009Y-40440838D01*
X177186009Y-40440838D02*
X177281247Y-40440838D01*
X177281247Y-40440838D02*
X177376485Y-40917028D01*
X177709819Y-40012266D02*
X177043152Y-40012266D01*
X177233628Y-40012266D02*
X177138390Y-39964647D01*
X177138390Y-39964647D02*
X177090771Y-39917028D01*
X177090771Y-39917028D02*
X177043152Y-39821790D01*
X177043152Y-39821790D02*
X177043152Y-39726552D01*
X208259875Y-65877505D02*
X207259875Y-65877505D01*
X207259875Y-65877505D02*
X207259875Y-65496553D01*
X207259875Y-65496553D02*
X207307494Y-65401315D01*
X207307494Y-65401315D02*
X207355113Y-65353696D01*
X207355113Y-65353696D02*
X207450351Y-65306077D01*
X207450351Y-65306077D02*
X207593208Y-65306077D01*
X207593208Y-65306077D02*
X207688446Y-65353696D01*
X207688446Y-65353696D02*
X207736065Y-65401315D01*
X207736065Y-65401315D02*
X207783684Y-65496553D01*
X207783684Y-65496553D02*
X207783684Y-65877505D01*
X208164636Y-64306077D02*
X208212256Y-64353696D01*
X208212256Y-64353696D02*
X208259875Y-64496553D01*
X208259875Y-64496553D02*
X208259875Y-64591791D01*
X208259875Y-64591791D02*
X208212256Y-64734648D01*
X208212256Y-64734648D02*
X208117017Y-64829886D01*
X208117017Y-64829886D02*
X208021779Y-64877505D01*
X208021779Y-64877505D02*
X207831303Y-64925124D01*
X207831303Y-64925124D02*
X207688446Y-64925124D01*
X207688446Y-64925124D02*
X207497970Y-64877505D01*
X207497970Y-64877505D02*
X207402732Y-64829886D01*
X207402732Y-64829886D02*
X207307494Y-64734648D01*
X207307494Y-64734648D02*
X207259875Y-64591791D01*
X207259875Y-64591791D02*
X207259875Y-64496553D01*
X207259875Y-64496553D02*
X207307494Y-64353696D01*
X207307494Y-64353696D02*
X207355113Y-64306077D01*
X207974160Y-63925124D02*
X207974160Y-63448934D01*
X208259875Y-64020362D02*
X207259875Y-63687029D01*
X207259875Y-63687029D02*
X208259875Y-63353696D01*
X208259875Y-62210838D02*
X208259875Y-62020362D01*
X208259875Y-62020362D02*
X208212256Y-61925124D01*
X208212256Y-61925124D02*
X208164636Y-61877505D01*
X208164636Y-61877505D02*
X208021779Y-61782267D01*
X208021779Y-61782267D02*
X207831303Y-61734648D01*
X207831303Y-61734648D02*
X207450351Y-61734648D01*
X207450351Y-61734648D02*
X207355113Y-61782267D01*
X207355113Y-61782267D02*
X207307494Y-61829886D01*
X207307494Y-61829886D02*
X207259875Y-61925124D01*
X207259875Y-61925124D02*
X207259875Y-62115600D01*
X207259875Y-62115600D02*
X207307494Y-62210838D01*
X207307494Y-62210838D02*
X207355113Y-62258457D01*
X207355113Y-62258457D02*
X207450351Y-62306076D01*
X207450351Y-62306076D02*
X207688446Y-62306076D01*
X207688446Y-62306076D02*
X207783684Y-62258457D01*
X207783684Y-62258457D02*
X207831303Y-62210838D01*
X207831303Y-62210838D02*
X207878922Y-62115600D01*
X207878922Y-62115600D02*
X207878922Y-61925124D01*
X207878922Y-61925124D02*
X207831303Y-61829886D01*
X207831303Y-61829886D02*
X207783684Y-61782267D01*
X207783684Y-61782267D02*
X207688446Y-61734648D01*
X207259875Y-60877505D02*
X207259875Y-61067981D01*
X207259875Y-61067981D02*
X207307494Y-61163219D01*
X207307494Y-61163219D02*
X207355113Y-61210838D01*
X207355113Y-61210838D02*
X207497970Y-61306076D01*
X207497970Y-61306076D02*
X207688446Y-61353695D01*
X207688446Y-61353695D02*
X208069398Y-61353695D01*
X208069398Y-61353695D02*
X208164636Y-61306076D01*
X208164636Y-61306076D02*
X208212256Y-61258457D01*
X208212256Y-61258457D02*
X208259875Y-61163219D01*
X208259875Y-61163219D02*
X208259875Y-60972743D01*
X208259875Y-60972743D02*
X208212256Y-60877505D01*
X208212256Y-60877505D02*
X208164636Y-60829886D01*
X208164636Y-60829886D02*
X208069398Y-60782267D01*
X208069398Y-60782267D02*
X207831303Y-60782267D01*
X207831303Y-60782267D02*
X207736065Y-60829886D01*
X207736065Y-60829886D02*
X207688446Y-60877505D01*
X207688446Y-60877505D02*
X207640827Y-60972743D01*
X207640827Y-60972743D02*
X207640827Y-61163219D01*
X207640827Y-61163219D02*
X207688446Y-61258457D01*
X207688446Y-61258457D02*
X207736065Y-61306076D01*
X207736065Y-61306076D02*
X207831303Y-61353695D01*
X207688446Y-60210838D02*
X207640827Y-60306076D01*
X207640827Y-60306076D02*
X207593208Y-60353695D01*
X207593208Y-60353695D02*
X207497970Y-60401314D01*
X207497970Y-60401314D02*
X207450351Y-60401314D01*
X207450351Y-60401314D02*
X207355113Y-60353695D01*
X207355113Y-60353695D02*
X207307494Y-60306076D01*
X207307494Y-60306076D02*
X207259875Y-60210838D01*
X207259875Y-60210838D02*
X207259875Y-60020362D01*
X207259875Y-60020362D02*
X207307494Y-59925124D01*
X207307494Y-59925124D02*
X207355113Y-59877505D01*
X207355113Y-59877505D02*
X207450351Y-59829886D01*
X207450351Y-59829886D02*
X207497970Y-59829886D01*
X207497970Y-59829886D02*
X207593208Y-59877505D01*
X207593208Y-59877505D02*
X207640827Y-59925124D01*
X207640827Y-59925124D02*
X207688446Y-60020362D01*
X207688446Y-60020362D02*
X207688446Y-60210838D01*
X207688446Y-60210838D02*
X207736065Y-60306076D01*
X207736065Y-60306076D02*
X207783684Y-60353695D01*
X207783684Y-60353695D02*
X207878922Y-60401314D01*
X207878922Y-60401314D02*
X208069398Y-60401314D01*
X208069398Y-60401314D02*
X208164636Y-60353695D01*
X208164636Y-60353695D02*
X208212256Y-60306076D01*
X208212256Y-60306076D02*
X208259875Y-60210838D01*
X208259875Y-60210838D02*
X208259875Y-60020362D01*
X208259875Y-60020362D02*
X208212256Y-59925124D01*
X208212256Y-59925124D02*
X208164636Y-59877505D01*
X208164636Y-59877505D02*
X208069398Y-59829886D01*
X208069398Y-59829886D02*
X207878922Y-59829886D01*
X207878922Y-59829886D02*
X207783684Y-59877505D01*
X207783684Y-59877505D02*
X207736065Y-59925124D01*
X207736065Y-59925124D02*
X207688446Y-60020362D01*
X207259875Y-58925124D02*
X207259875Y-59401314D01*
X207259875Y-59401314D02*
X207736065Y-59448933D01*
X207736065Y-59448933D02*
X207688446Y-59401314D01*
X207688446Y-59401314D02*
X207640827Y-59306076D01*
X207640827Y-59306076D02*
X207640827Y-59067981D01*
X207640827Y-59067981D02*
X207688446Y-58972743D01*
X207688446Y-58972743D02*
X207736065Y-58925124D01*
X207736065Y-58925124D02*
X207831303Y-58877505D01*
X207831303Y-58877505D02*
X208069398Y-58877505D01*
X208069398Y-58877505D02*
X208164636Y-58925124D01*
X208164636Y-58925124D02*
X208212256Y-58972743D01*
X208212256Y-58972743D02*
X208259875Y-59067981D01*
X208259875Y-59067981D02*
X208259875Y-59306076D01*
X208259875Y-59306076D02*
X208212256Y-59401314D01*
X208212256Y-59401314D02*
X208164636Y-59448933D01*
X209869819Y-68163220D02*
X208869819Y-68163220D01*
X208869819Y-68163220D02*
X208869819Y-67782268D01*
X208869819Y-67782268D02*
X208917438Y-67687030D01*
X208917438Y-67687030D02*
X208965057Y-67639411D01*
X208965057Y-67639411D02*
X209060295Y-67591792D01*
X209060295Y-67591792D02*
X209203152Y-67591792D01*
X209203152Y-67591792D02*
X209298390Y-67639411D01*
X209298390Y-67639411D02*
X209346009Y-67687030D01*
X209346009Y-67687030D02*
X209393628Y-67782268D01*
X209393628Y-67782268D02*
X209393628Y-68163220D01*
X208869819Y-67258458D02*
X209869819Y-67020363D01*
X209869819Y-67020363D02*
X209155533Y-66829887D01*
X209155533Y-66829887D02*
X209869819Y-66639411D01*
X209869819Y-66639411D02*
X208869819Y-66401316D01*
X209869819Y-66020363D02*
X208869819Y-66020363D01*
X208869819Y-66020363D02*
X209584104Y-65687030D01*
X209584104Y-65687030D02*
X208869819Y-65353697D01*
X208869819Y-65353697D02*
X209869819Y-65353697D01*
X208822200Y-64163221D02*
X210107914Y-65020363D01*
X209822200Y-63877506D02*
X209869819Y-63734649D01*
X209869819Y-63734649D02*
X209869819Y-63496554D01*
X209869819Y-63496554D02*
X209822200Y-63401316D01*
X209822200Y-63401316D02*
X209774580Y-63353697D01*
X209774580Y-63353697D02*
X209679342Y-63306078D01*
X209679342Y-63306078D02*
X209584104Y-63306078D01*
X209584104Y-63306078D02*
X209488866Y-63353697D01*
X209488866Y-63353697D02*
X209441247Y-63401316D01*
X209441247Y-63401316D02*
X209393628Y-63496554D01*
X209393628Y-63496554D02*
X209346009Y-63687030D01*
X209346009Y-63687030D02*
X209298390Y-63782268D01*
X209298390Y-63782268D02*
X209250771Y-63829887D01*
X209250771Y-63829887D02*
X209155533Y-63877506D01*
X209155533Y-63877506D02*
X209060295Y-63877506D01*
X209060295Y-63877506D02*
X208965057Y-63829887D01*
X208965057Y-63829887D02*
X208917438Y-63782268D01*
X208917438Y-63782268D02*
X208869819Y-63687030D01*
X208869819Y-63687030D02*
X208869819Y-63448935D01*
X208869819Y-63448935D02*
X208917438Y-63306078D01*
X209822200Y-62496554D02*
X209869819Y-62591792D01*
X209869819Y-62591792D02*
X209869819Y-62782268D01*
X209869819Y-62782268D02*
X209822200Y-62877506D01*
X209822200Y-62877506D02*
X209726961Y-62925125D01*
X209726961Y-62925125D02*
X209346009Y-62925125D01*
X209346009Y-62925125D02*
X209250771Y-62877506D01*
X209250771Y-62877506D02*
X209203152Y-62782268D01*
X209203152Y-62782268D02*
X209203152Y-62591792D01*
X209203152Y-62591792D02*
X209250771Y-62496554D01*
X209250771Y-62496554D02*
X209346009Y-62448935D01*
X209346009Y-62448935D02*
X209441247Y-62448935D01*
X209441247Y-62448935D02*
X209536485Y-62925125D01*
X209869819Y-62020363D02*
X209203152Y-62020363D01*
X209393628Y-62020363D02*
X209298390Y-61972744D01*
X209298390Y-61972744D02*
X209250771Y-61925125D01*
X209250771Y-61925125D02*
X209203152Y-61829887D01*
X209203152Y-61829887D02*
X209203152Y-61734649D01*
X209203152Y-61496553D02*
X209869819Y-61258458D01*
X209869819Y-61258458D02*
X209203152Y-61020363D01*
X209869819Y-60496553D02*
X209822200Y-60591791D01*
X209822200Y-60591791D02*
X209774580Y-60639410D01*
X209774580Y-60639410D02*
X209679342Y-60687029D01*
X209679342Y-60687029D02*
X209393628Y-60687029D01*
X209393628Y-60687029D02*
X209298390Y-60639410D01*
X209298390Y-60639410D02*
X209250771Y-60591791D01*
X209250771Y-60591791D02*
X209203152Y-60496553D01*
X209203152Y-60496553D02*
X209203152Y-60353696D01*
X209203152Y-60353696D02*
X209250771Y-60258458D01*
X209250771Y-60258458D02*
X209298390Y-60210839D01*
X209298390Y-60210839D02*
X209393628Y-60163220D01*
X209393628Y-60163220D02*
X209679342Y-60163220D01*
X209679342Y-60163220D02*
X209774580Y-60210839D01*
X209774580Y-60210839D02*
X209822200Y-60258458D01*
X209822200Y-60258458D02*
X209869819Y-60353696D01*
X209869819Y-60353696D02*
X209869819Y-60496553D01*
X209869819Y-58972743D02*
X208869819Y-58972743D01*
X208869819Y-58972743D02*
X208869819Y-58734648D01*
X208869819Y-58734648D02*
X208917438Y-58591791D01*
X208917438Y-58591791D02*
X209012676Y-58496553D01*
X209012676Y-58496553D02*
X209107914Y-58448934D01*
X209107914Y-58448934D02*
X209298390Y-58401315D01*
X209298390Y-58401315D02*
X209441247Y-58401315D01*
X209441247Y-58401315D02*
X209631723Y-58448934D01*
X209631723Y-58448934D02*
X209726961Y-58496553D01*
X209726961Y-58496553D02*
X209822200Y-58591791D01*
X209822200Y-58591791D02*
X209869819Y-58734648D01*
X209869819Y-58734648D02*
X209869819Y-58972743D01*
X209869819Y-57972743D02*
X209203152Y-57972743D01*
X209393628Y-57972743D02*
X209298390Y-57925124D01*
X209298390Y-57925124D02*
X209250771Y-57877505D01*
X209250771Y-57877505D02*
X209203152Y-57782267D01*
X209203152Y-57782267D02*
X209203152Y-57687029D01*
X209869819Y-57353695D02*
X209203152Y-57353695D01*
X208869819Y-57353695D02*
X208917438Y-57401314D01*
X208917438Y-57401314D02*
X208965057Y-57353695D01*
X208965057Y-57353695D02*
X208917438Y-57306076D01*
X208917438Y-57306076D02*
X208869819Y-57353695D01*
X208869819Y-57353695D02*
X208965057Y-57353695D01*
X209203152Y-56972743D02*
X209869819Y-56734648D01*
X209869819Y-56734648D02*
X209203152Y-56496553D01*
X209822200Y-55734648D02*
X209869819Y-55829886D01*
X209869819Y-55829886D02*
X209869819Y-56020362D01*
X209869819Y-56020362D02*
X209822200Y-56115600D01*
X209822200Y-56115600D02*
X209726961Y-56163219D01*
X209726961Y-56163219D02*
X209346009Y-56163219D01*
X209346009Y-56163219D02*
X209250771Y-56115600D01*
X209250771Y-56115600D02*
X209203152Y-56020362D01*
X209203152Y-56020362D02*
X209203152Y-55829886D01*
X209203152Y-55829886D02*
X209250771Y-55734648D01*
X209250771Y-55734648D02*
X209346009Y-55687029D01*
X209346009Y-55687029D02*
X209441247Y-55687029D01*
X209441247Y-55687029D02*
X209536485Y-56163219D01*
X209869819Y-55258457D02*
X209203152Y-55258457D01*
X209393628Y-55258457D02*
X209298390Y-55210838D01*
X209298390Y-55210838D02*
X209250771Y-55163219D01*
X209250771Y-55163219D02*
X209203152Y-55067981D01*
X209203152Y-55067981D02*
X209203152Y-54972743D01*
X184779819Y-48857030D02*
X184779819Y-49333220D01*
X184779819Y-49333220D02*
X183779819Y-49333220D01*
X184779819Y-48523696D02*
X183779819Y-48523696D01*
X184779819Y-48047506D02*
X183779819Y-48047506D01*
X183779819Y-48047506D02*
X183779819Y-47809411D01*
X183779819Y-47809411D02*
X183827438Y-47666554D01*
X183827438Y-47666554D02*
X183922676Y-47571316D01*
X183922676Y-47571316D02*
X184017914Y-47523697D01*
X184017914Y-47523697D02*
X184208390Y-47476078D01*
X184208390Y-47476078D02*
X184351247Y-47476078D01*
X184351247Y-47476078D02*
X184541723Y-47523697D01*
X184541723Y-47523697D02*
X184636961Y-47571316D01*
X184636961Y-47571316D02*
X184732200Y-47666554D01*
X184732200Y-47666554D02*
X184779819Y-47809411D01*
X184779819Y-47809411D02*
X184779819Y-48047506D01*
X184494104Y-47095125D02*
X184494104Y-46618935D01*
X184779819Y-47190363D02*
X183779819Y-46857030D01*
X183779819Y-46857030D02*
X184779819Y-46523697D01*
X184779819Y-45618935D02*
X184303628Y-45952268D01*
X184779819Y-46190363D02*
X183779819Y-46190363D01*
X183779819Y-46190363D02*
X183779819Y-45809411D01*
X183779819Y-45809411D02*
X183827438Y-45714173D01*
X183827438Y-45714173D02*
X183875057Y-45666554D01*
X183875057Y-45666554D02*
X183970295Y-45618935D01*
X183970295Y-45618935D02*
X184113152Y-45618935D01*
X184113152Y-45618935D02*
X184208390Y-45666554D01*
X184208390Y-45666554D02*
X184256009Y-45714173D01*
X184256009Y-45714173D02*
X184303628Y-45809411D01*
X184303628Y-45809411D02*
X184303628Y-46190363D01*
X184779819Y-44428458D02*
X183779819Y-44428458D01*
X183779819Y-44428458D02*
X183779819Y-44047506D01*
X183779819Y-44047506D02*
X183827438Y-43952268D01*
X183827438Y-43952268D02*
X183875057Y-43904649D01*
X183875057Y-43904649D02*
X183970295Y-43857030D01*
X183970295Y-43857030D02*
X184113152Y-43857030D01*
X184113152Y-43857030D02*
X184208390Y-43904649D01*
X184208390Y-43904649D02*
X184256009Y-43952268D01*
X184256009Y-43952268D02*
X184303628Y-44047506D01*
X184303628Y-44047506D02*
X184303628Y-44428458D01*
X184779819Y-43285601D02*
X184732200Y-43380839D01*
X184732200Y-43380839D02*
X184684580Y-43428458D01*
X184684580Y-43428458D02*
X184589342Y-43476077D01*
X184589342Y-43476077D02*
X184303628Y-43476077D01*
X184303628Y-43476077D02*
X184208390Y-43428458D01*
X184208390Y-43428458D02*
X184160771Y-43380839D01*
X184160771Y-43380839D02*
X184113152Y-43285601D01*
X184113152Y-43285601D02*
X184113152Y-43142744D01*
X184113152Y-43142744D02*
X184160771Y-43047506D01*
X184160771Y-43047506D02*
X184208390Y-42999887D01*
X184208390Y-42999887D02*
X184303628Y-42952268D01*
X184303628Y-42952268D02*
X184589342Y-42952268D01*
X184589342Y-42952268D02*
X184684580Y-42999887D01*
X184684580Y-42999887D02*
X184732200Y-43047506D01*
X184732200Y-43047506D02*
X184779819Y-43142744D01*
X184779819Y-43142744D02*
X184779819Y-43285601D01*
X184113152Y-42618934D02*
X184779819Y-42428458D01*
X184779819Y-42428458D02*
X184303628Y-42237982D01*
X184303628Y-42237982D02*
X184779819Y-42047506D01*
X184779819Y-42047506D02*
X184113152Y-41857030D01*
X184732200Y-41095125D02*
X184779819Y-41190363D01*
X184779819Y-41190363D02*
X184779819Y-41380839D01*
X184779819Y-41380839D02*
X184732200Y-41476077D01*
X184732200Y-41476077D02*
X184636961Y-41523696D01*
X184636961Y-41523696D02*
X184256009Y-41523696D01*
X184256009Y-41523696D02*
X184160771Y-41476077D01*
X184160771Y-41476077D02*
X184113152Y-41380839D01*
X184113152Y-41380839D02*
X184113152Y-41190363D01*
X184113152Y-41190363D02*
X184160771Y-41095125D01*
X184160771Y-41095125D02*
X184256009Y-41047506D01*
X184256009Y-41047506D02*
X184351247Y-41047506D01*
X184351247Y-41047506D02*
X184446485Y-41523696D01*
X184779819Y-40618934D02*
X184113152Y-40618934D01*
X184303628Y-40618934D02*
X184208390Y-40571315D01*
X184208390Y-40571315D02*
X184160771Y-40523696D01*
X184160771Y-40523696D02*
X184113152Y-40428458D01*
X184113152Y-40428458D02*
X184113152Y-40333220D01*
X134369819Y-63377506D02*
X135084104Y-63377506D01*
X135084104Y-63377506D02*
X135226961Y-63425125D01*
X135226961Y-63425125D02*
X135322200Y-63520363D01*
X135322200Y-63520363D02*
X135369819Y-63663220D01*
X135369819Y-63663220D02*
X135369819Y-63758458D01*
X135322200Y-62520363D02*
X135369819Y-62615601D01*
X135369819Y-62615601D02*
X135369819Y-62806077D01*
X135369819Y-62806077D02*
X135322200Y-62901315D01*
X135322200Y-62901315D02*
X135226961Y-62948934D01*
X135226961Y-62948934D02*
X134846009Y-62948934D01*
X134846009Y-62948934D02*
X134750771Y-62901315D01*
X134750771Y-62901315D02*
X134703152Y-62806077D01*
X134703152Y-62806077D02*
X134703152Y-62615601D01*
X134703152Y-62615601D02*
X134750771Y-62520363D01*
X134750771Y-62520363D02*
X134846009Y-62472744D01*
X134846009Y-62472744D02*
X134941247Y-62472744D01*
X134941247Y-62472744D02*
X135036485Y-62948934D01*
X134703152Y-62187029D02*
X134703152Y-61806077D01*
X134369819Y-62044172D02*
X135226961Y-62044172D01*
X135226961Y-62044172D02*
X135322200Y-61996553D01*
X135322200Y-61996553D02*
X135369819Y-61901315D01*
X135369819Y-61901315D02*
X135369819Y-61806077D01*
X135322200Y-61520362D02*
X135369819Y-61425124D01*
X135369819Y-61425124D02*
X135369819Y-61234648D01*
X135369819Y-61234648D02*
X135322200Y-61139410D01*
X135322200Y-61139410D02*
X135226961Y-61091791D01*
X135226961Y-61091791D02*
X135179342Y-61091791D01*
X135179342Y-61091791D02*
X135084104Y-61139410D01*
X135084104Y-61139410D02*
X135036485Y-61234648D01*
X135036485Y-61234648D02*
X135036485Y-61377505D01*
X135036485Y-61377505D02*
X134988866Y-61472743D01*
X134988866Y-61472743D02*
X134893628Y-61520362D01*
X134893628Y-61520362D02*
X134846009Y-61520362D01*
X134846009Y-61520362D02*
X134750771Y-61472743D01*
X134750771Y-61472743D02*
X134703152Y-61377505D01*
X134703152Y-61377505D02*
X134703152Y-61234648D01*
X134703152Y-61234648D02*
X134750771Y-61139410D01*
X135369819Y-60520362D02*
X135322200Y-60615600D01*
X135322200Y-60615600D02*
X135274580Y-60663219D01*
X135274580Y-60663219D02*
X135179342Y-60710838D01*
X135179342Y-60710838D02*
X134893628Y-60710838D01*
X134893628Y-60710838D02*
X134798390Y-60663219D01*
X134798390Y-60663219D02*
X134750771Y-60615600D01*
X134750771Y-60615600D02*
X134703152Y-60520362D01*
X134703152Y-60520362D02*
X134703152Y-60377505D01*
X134703152Y-60377505D02*
X134750771Y-60282267D01*
X134750771Y-60282267D02*
X134798390Y-60234648D01*
X134798390Y-60234648D02*
X134893628Y-60187029D01*
X134893628Y-60187029D02*
X135179342Y-60187029D01*
X135179342Y-60187029D02*
X135274580Y-60234648D01*
X135274580Y-60234648D02*
X135322200Y-60282267D01*
X135322200Y-60282267D02*
X135369819Y-60377505D01*
X135369819Y-60377505D02*
X135369819Y-60520362D01*
X134703152Y-59758457D02*
X135369819Y-59758457D01*
X134798390Y-59758457D02*
X134750771Y-59710838D01*
X134750771Y-59710838D02*
X134703152Y-59615600D01*
X134703152Y-59615600D02*
X134703152Y-59472743D01*
X134703152Y-59472743D02*
X134750771Y-59377505D01*
X134750771Y-59377505D02*
X134846009Y-59329886D01*
X134846009Y-59329886D02*
X135369819Y-59329886D01*
X135369819Y-58091790D02*
X134369819Y-58091790D01*
X134846009Y-58091790D02*
X134846009Y-57520362D01*
X135369819Y-57520362D02*
X134369819Y-57520362D01*
X135322200Y-56663219D02*
X135369819Y-56758457D01*
X135369819Y-56758457D02*
X135369819Y-56948933D01*
X135369819Y-56948933D02*
X135322200Y-57044171D01*
X135322200Y-57044171D02*
X135226961Y-57091790D01*
X135226961Y-57091790D02*
X134846009Y-57091790D01*
X134846009Y-57091790D02*
X134750771Y-57044171D01*
X134750771Y-57044171D02*
X134703152Y-56948933D01*
X134703152Y-56948933D02*
X134703152Y-56758457D01*
X134703152Y-56758457D02*
X134750771Y-56663219D01*
X134750771Y-56663219D02*
X134846009Y-56615600D01*
X134846009Y-56615600D02*
X134941247Y-56615600D01*
X134941247Y-56615600D02*
X135036485Y-57091790D01*
X135369819Y-55758457D02*
X134846009Y-55758457D01*
X134846009Y-55758457D02*
X134750771Y-55806076D01*
X134750771Y-55806076D02*
X134703152Y-55901314D01*
X134703152Y-55901314D02*
X134703152Y-56091790D01*
X134703152Y-56091790D02*
X134750771Y-56187028D01*
X135322200Y-55758457D02*
X135369819Y-55853695D01*
X135369819Y-55853695D02*
X135369819Y-56091790D01*
X135369819Y-56091790D02*
X135322200Y-56187028D01*
X135322200Y-56187028D02*
X135226961Y-56234647D01*
X135226961Y-56234647D02*
X135131723Y-56234647D01*
X135131723Y-56234647D02*
X135036485Y-56187028D01*
X135036485Y-56187028D02*
X134988866Y-56091790D01*
X134988866Y-56091790D02*
X134988866Y-55853695D01*
X134988866Y-55853695D02*
X134941247Y-55758457D01*
X135369819Y-54853695D02*
X134369819Y-54853695D01*
X135322200Y-54853695D02*
X135369819Y-54948933D01*
X135369819Y-54948933D02*
X135369819Y-55139409D01*
X135369819Y-55139409D02*
X135322200Y-55234647D01*
X135322200Y-55234647D02*
X135274580Y-55282266D01*
X135274580Y-55282266D02*
X135179342Y-55329885D01*
X135179342Y-55329885D02*
X134893628Y-55329885D01*
X134893628Y-55329885D02*
X134798390Y-55282266D01*
X134798390Y-55282266D02*
X134750771Y-55234647D01*
X134750771Y-55234647D02*
X134703152Y-55139409D01*
X134703152Y-55139409D02*
X134703152Y-54948933D01*
X134703152Y-54948933D02*
X134750771Y-54853695D01*
X135322200Y-53996552D02*
X135369819Y-54091790D01*
X135369819Y-54091790D02*
X135369819Y-54282266D01*
X135369819Y-54282266D02*
X135322200Y-54377504D01*
X135322200Y-54377504D02*
X135226961Y-54425123D01*
X135226961Y-54425123D02*
X134846009Y-54425123D01*
X134846009Y-54425123D02*
X134750771Y-54377504D01*
X134750771Y-54377504D02*
X134703152Y-54282266D01*
X134703152Y-54282266D02*
X134703152Y-54091790D01*
X134703152Y-54091790D02*
X134750771Y-53996552D01*
X134750771Y-53996552D02*
X134846009Y-53948933D01*
X134846009Y-53948933D02*
X134941247Y-53948933D01*
X134941247Y-53948933D02*
X135036485Y-54425123D01*
X135369819Y-53520361D02*
X134703152Y-53520361D01*
X134893628Y-53520361D02*
X134798390Y-53472742D01*
X134798390Y-53472742D02*
X134750771Y-53425123D01*
X134750771Y-53425123D02*
X134703152Y-53329885D01*
X134703152Y-53329885D02*
X134703152Y-53234647D01*
X167566065Y-51590363D02*
X167613684Y-51453458D01*
X167613684Y-51453458D02*
X167661303Y-51411792D01*
X167661303Y-51411792D02*
X167756541Y-51376077D01*
X167756541Y-51376077D02*
X167899398Y-51393935D01*
X167899398Y-51393935D02*
X167994636Y-51453458D01*
X167994636Y-51453458D02*
X168042256Y-51507030D01*
X168042256Y-51507030D02*
X168089875Y-51608220D01*
X168089875Y-51608220D02*
X168089875Y-51989173D01*
X168089875Y-51989173D02*
X167089875Y-51864173D01*
X167089875Y-51864173D02*
X167089875Y-51530839D01*
X167089875Y-51530839D02*
X167137494Y-51441554D01*
X167137494Y-51441554D02*
X167185113Y-51399887D01*
X167185113Y-51399887D02*
X167280351Y-51364173D01*
X167280351Y-51364173D02*
X167375589Y-51376077D01*
X167375589Y-51376077D02*
X167470827Y-51435601D01*
X167470827Y-51435601D02*
X167518446Y-51489173D01*
X167518446Y-51489173D02*
X167566065Y-51590363D01*
X167566065Y-51590363D02*
X167566065Y-51923696D01*
X168089875Y-50846316D02*
X168042256Y-50935601D01*
X168042256Y-50935601D02*
X167994636Y-50977268D01*
X167994636Y-50977268D02*
X167899398Y-51012982D01*
X167899398Y-51012982D02*
X167613684Y-50977268D01*
X167613684Y-50977268D02*
X167518446Y-50917744D01*
X167518446Y-50917744D02*
X167470827Y-50864173D01*
X167470827Y-50864173D02*
X167423208Y-50762982D01*
X167423208Y-50762982D02*
X167423208Y-50620125D01*
X167423208Y-50620125D02*
X167470827Y-50530839D01*
X167470827Y-50530839D02*
X167518446Y-50489173D01*
X167518446Y-50489173D02*
X167613684Y-50453458D01*
X167613684Y-50453458D02*
X167899398Y-50489173D01*
X167899398Y-50489173D02*
X167994636Y-50548696D01*
X167994636Y-50548696D02*
X168042256Y-50602268D01*
X168042256Y-50602268D02*
X168089875Y-50703458D01*
X168089875Y-50703458D02*
X168089875Y-50846316D01*
X168089875Y-49941554D02*
X168042256Y-50030839D01*
X168042256Y-50030839D02*
X167994636Y-50072506D01*
X167994636Y-50072506D02*
X167899398Y-50108220D01*
X167899398Y-50108220D02*
X167613684Y-50072506D01*
X167613684Y-50072506D02*
X167518446Y-50012982D01*
X167518446Y-50012982D02*
X167470827Y-49959411D01*
X167470827Y-49959411D02*
X167423208Y-49858220D01*
X167423208Y-49858220D02*
X167423208Y-49715363D01*
X167423208Y-49715363D02*
X167470827Y-49626077D01*
X167470827Y-49626077D02*
X167518446Y-49584411D01*
X167518446Y-49584411D02*
X167613684Y-49548696D01*
X167613684Y-49548696D02*
X167899398Y-49584411D01*
X167899398Y-49584411D02*
X167994636Y-49643934D01*
X167994636Y-49643934D02*
X168042256Y-49697506D01*
X168042256Y-49697506D02*
X168089875Y-49798696D01*
X168089875Y-49798696D02*
X168089875Y-49941554D01*
X168042256Y-49221315D02*
X168089875Y-49132030D01*
X168089875Y-49132030D02*
X168089875Y-48941553D01*
X168089875Y-48941553D02*
X168042256Y-48840363D01*
X168042256Y-48840363D02*
X167947017Y-48780839D01*
X167947017Y-48780839D02*
X167899398Y-48774887D01*
X167899398Y-48774887D02*
X167804160Y-48810601D01*
X167804160Y-48810601D02*
X167756541Y-48899887D01*
X167756541Y-48899887D02*
X167756541Y-49042744D01*
X167756541Y-49042744D02*
X167708922Y-49132030D01*
X167708922Y-49132030D02*
X167613684Y-49167744D01*
X167613684Y-49167744D02*
X167566065Y-49161792D01*
X167566065Y-49161792D02*
X167470827Y-49102268D01*
X167470827Y-49102268D02*
X167423208Y-49001077D01*
X167423208Y-49001077D02*
X167423208Y-48858220D01*
X167423208Y-48858220D02*
X167470827Y-48768934D01*
X167423208Y-48429648D02*
X167423208Y-48048696D01*
X167089875Y-48245125D02*
X167947017Y-48352268D01*
X167947017Y-48352268D02*
X168042256Y-48316553D01*
X168042256Y-48316553D02*
X168089875Y-48227268D01*
X168089875Y-48227268D02*
X168089875Y-48132029D01*
X167994636Y-46453457D02*
X168042256Y-46507029D01*
X168042256Y-46507029D02*
X168089875Y-46655838D01*
X168089875Y-46655838D02*
X168089875Y-46751076D01*
X168089875Y-46751076D02*
X168042256Y-46887981D01*
X168042256Y-46887981D02*
X167947017Y-46971314D01*
X167947017Y-46971314D02*
X167851779Y-47007029D01*
X167851779Y-47007029D02*
X167661303Y-47030838D01*
X167661303Y-47030838D02*
X167518446Y-47012981D01*
X167518446Y-47012981D02*
X167327970Y-46941553D01*
X167327970Y-46941553D02*
X167232732Y-46882029D01*
X167232732Y-46882029D02*
X167137494Y-46774886D01*
X167137494Y-46774886D02*
X167089875Y-46626076D01*
X167089875Y-46626076D02*
X167089875Y-46530838D01*
X167089875Y-46530838D02*
X167137494Y-46393934D01*
X167137494Y-46393934D02*
X167185113Y-46352267D01*
X168089875Y-45893934D02*
X168042256Y-45983219D01*
X168042256Y-45983219D02*
X167994636Y-46024886D01*
X167994636Y-46024886D02*
X167899398Y-46060600D01*
X167899398Y-46060600D02*
X167613684Y-46024886D01*
X167613684Y-46024886D02*
X167518446Y-45965362D01*
X167518446Y-45965362D02*
X167470827Y-45911791D01*
X167470827Y-45911791D02*
X167423208Y-45810600D01*
X167423208Y-45810600D02*
X167423208Y-45667743D01*
X167423208Y-45667743D02*
X167470827Y-45578457D01*
X167470827Y-45578457D02*
X167518446Y-45536791D01*
X167518446Y-45536791D02*
X167613684Y-45501076D01*
X167613684Y-45501076D02*
X167899398Y-45536791D01*
X167899398Y-45536791D02*
X167994636Y-45596314D01*
X167994636Y-45596314D02*
X168042256Y-45649886D01*
X168042256Y-45649886D02*
X168089875Y-45751076D01*
X168089875Y-45751076D02*
X168089875Y-45893934D01*
X167423208Y-45048695D02*
X168089875Y-45132029D01*
X167518446Y-45060600D02*
X167470827Y-45007029D01*
X167470827Y-45007029D02*
X167423208Y-44905838D01*
X167423208Y-44905838D02*
X167423208Y-44762981D01*
X167423208Y-44762981D02*
X167470827Y-44673695D01*
X167470827Y-44673695D02*
X167566065Y-44637981D01*
X167566065Y-44637981D02*
X168089875Y-44703457D01*
X167423208Y-44239171D02*
X168089875Y-44084410D01*
X168089875Y-44084410D02*
X167423208Y-43762981D01*
X168042256Y-43078457D02*
X168089875Y-43179647D01*
X168089875Y-43179647D02*
X168089875Y-43370124D01*
X168089875Y-43370124D02*
X168042256Y-43459409D01*
X168042256Y-43459409D02*
X167947017Y-43495124D01*
X167947017Y-43495124D02*
X167566065Y-43447505D01*
X167566065Y-43447505D02*
X167470827Y-43387981D01*
X167470827Y-43387981D02*
X167423208Y-43286790D01*
X167423208Y-43286790D02*
X167423208Y-43096314D01*
X167423208Y-43096314D02*
X167470827Y-43007028D01*
X167470827Y-43007028D02*
X167566065Y-42971314D01*
X167566065Y-42971314D02*
X167661303Y-42983219D01*
X167661303Y-42983219D02*
X167756541Y-43471314D01*
X168089875Y-42608219D02*
X167423208Y-42524885D01*
X167613684Y-42548695D02*
X167518446Y-42489171D01*
X167518446Y-42489171D02*
X167470827Y-42435600D01*
X167470827Y-42435600D02*
X167423208Y-42334409D01*
X167423208Y-42334409D02*
X167423208Y-42239171D01*
X167423208Y-42048694D02*
X167423208Y-41667742D01*
X167089875Y-41864171D02*
X167947017Y-41971314D01*
X167947017Y-41971314D02*
X168042256Y-41935599D01*
X168042256Y-41935599D02*
X168089875Y-41846314D01*
X168089875Y-41846314D02*
X168089875Y-41751075D01*
X168042256Y-41030837D02*
X168089875Y-41132027D01*
X168089875Y-41132027D02*
X168089875Y-41322504D01*
X168089875Y-41322504D02*
X168042256Y-41411789D01*
X168042256Y-41411789D02*
X167947017Y-41447504D01*
X167947017Y-41447504D02*
X167566065Y-41399885D01*
X167566065Y-41399885D02*
X167470827Y-41340361D01*
X167470827Y-41340361D02*
X167423208Y-41239170D01*
X167423208Y-41239170D02*
X167423208Y-41048694D01*
X167423208Y-41048694D02*
X167470827Y-40959408D01*
X167470827Y-40959408D02*
X167566065Y-40923694D01*
X167566065Y-40923694D02*
X167661303Y-40935599D01*
X167661303Y-40935599D02*
X167756541Y-41423694D01*
X168089875Y-40560599D02*
X167423208Y-40477265D01*
X167613684Y-40501075D02*
X167518446Y-40441551D01*
X167518446Y-40441551D02*
X167470827Y-40387980D01*
X167470827Y-40387980D02*
X167423208Y-40286789D01*
X167423208Y-40286789D02*
X167423208Y-40191551D01*
X170080771Y-48703457D02*
X170033152Y-48745124D01*
X170033152Y-48745124D02*
X169890295Y-48822505D01*
X169890295Y-48822505D02*
X169795057Y-48858219D01*
X169795057Y-48858219D02*
X169652200Y-48887981D01*
X169652200Y-48887981D02*
X169414104Y-48905838D01*
X169414104Y-48905838D02*
X169223628Y-48882029D01*
X169223628Y-48882029D02*
X168985533Y-48804648D01*
X168985533Y-48804648D02*
X168842676Y-48739172D01*
X168842676Y-48739172D02*
X168747438Y-48679648D01*
X168747438Y-48679648D02*
X168604580Y-48566553D01*
X168604580Y-48566553D02*
X168556961Y-48512981D01*
X169699819Y-47751076D02*
X169699819Y-48322505D01*
X169699819Y-48036790D02*
X168699819Y-47911790D01*
X168699819Y-47911790D02*
X168842676Y-48024886D01*
X168842676Y-48024886D02*
X168937914Y-48132029D01*
X168937914Y-48132029D02*
X168985533Y-48233219D01*
X168795057Y-47257028D02*
X168747438Y-47203457D01*
X168747438Y-47203457D02*
X168699819Y-47102267D01*
X168699819Y-47102267D02*
X168699819Y-46864171D01*
X168699819Y-46864171D02*
X168747438Y-46774886D01*
X168747438Y-46774886D02*
X168795057Y-46733219D01*
X168795057Y-46733219D02*
X168890295Y-46697505D01*
X168890295Y-46697505D02*
X168985533Y-46709409D01*
X168985533Y-46709409D02*
X169128390Y-46774886D01*
X169128390Y-46774886D02*
X169699819Y-47417743D01*
X169699819Y-47417743D02*
X169699819Y-46798695D01*
X169033152Y-46382028D02*
X169699819Y-46227267D01*
X169699819Y-46227267D02*
X169033152Y-45905838D01*
X170080771Y-45751076D02*
X170033152Y-45697504D01*
X170033152Y-45697504D02*
X169890295Y-45584409D01*
X169890295Y-45584409D02*
X169795057Y-45524885D01*
X169795057Y-45524885D02*
X169652200Y-45459409D01*
X169652200Y-45459409D02*
X169414104Y-45382028D01*
X169414104Y-45382028D02*
X169223628Y-45358219D01*
X169223628Y-45358219D02*
X168985533Y-45376076D01*
X168985533Y-45376076D02*
X168842676Y-45405838D01*
X168842676Y-45405838D02*
X168747438Y-45441552D01*
X168747438Y-45441552D02*
X168604580Y-45518933D01*
X168604580Y-45518933D02*
X168556961Y-45560600D01*
X178346009Y-91663220D02*
X178346009Y-91329887D01*
X178869819Y-91187030D02*
X178869819Y-91663220D01*
X178869819Y-91663220D02*
X177869819Y-91663220D01*
X177869819Y-91663220D02*
X177869819Y-91187030D01*
X178822200Y-90806077D02*
X178869819Y-90663220D01*
X178869819Y-90663220D02*
X178869819Y-90425125D01*
X178869819Y-90425125D02*
X178822200Y-90329887D01*
X178822200Y-90329887D02*
X178774580Y-90282268D01*
X178774580Y-90282268D02*
X178679342Y-90234649D01*
X178679342Y-90234649D02*
X178584104Y-90234649D01*
X178584104Y-90234649D02*
X178488866Y-90282268D01*
X178488866Y-90282268D02*
X178441247Y-90329887D01*
X178441247Y-90329887D02*
X178393628Y-90425125D01*
X178393628Y-90425125D02*
X178346009Y-90615601D01*
X178346009Y-90615601D02*
X178298390Y-90710839D01*
X178298390Y-90710839D02*
X178250771Y-90758458D01*
X178250771Y-90758458D02*
X178155533Y-90806077D01*
X178155533Y-90806077D02*
X178060295Y-90806077D01*
X178060295Y-90806077D02*
X177965057Y-90758458D01*
X177965057Y-90758458D02*
X177917438Y-90710839D01*
X177917438Y-90710839D02*
X177869819Y-90615601D01*
X177869819Y-90615601D02*
X177869819Y-90377506D01*
X177869819Y-90377506D02*
X177917438Y-90234649D01*
X178774580Y-89234649D02*
X178822200Y-89282268D01*
X178822200Y-89282268D02*
X178869819Y-89425125D01*
X178869819Y-89425125D02*
X178869819Y-89520363D01*
X178869819Y-89520363D02*
X178822200Y-89663220D01*
X178822200Y-89663220D02*
X178726961Y-89758458D01*
X178726961Y-89758458D02*
X178631723Y-89806077D01*
X178631723Y-89806077D02*
X178441247Y-89853696D01*
X178441247Y-89853696D02*
X178298390Y-89853696D01*
X178298390Y-89853696D02*
X178107914Y-89806077D01*
X178107914Y-89806077D02*
X178012676Y-89758458D01*
X178012676Y-89758458D02*
X177917438Y-89663220D01*
X177917438Y-89663220D02*
X177869819Y-89520363D01*
X177869819Y-89520363D02*
X177869819Y-89425125D01*
X177869819Y-89425125D02*
X177917438Y-89282268D01*
X177917438Y-89282268D02*
X177965057Y-89234649D01*
X143360588Y-48869819D02*
X142789160Y-48869819D01*
X143074874Y-48869819D02*
X143074874Y-47869819D01*
X143074874Y-47869819D02*
X142979636Y-48012676D01*
X142979636Y-48012676D02*
X142884398Y-48107914D01*
X142884398Y-48107914D02*
X142789160Y-48155533D01*
X143741541Y-47965057D02*
X143789160Y-47917438D01*
X143789160Y-47917438D02*
X143884398Y-47869819D01*
X143884398Y-47869819D02*
X144122493Y-47869819D01*
X144122493Y-47869819D02*
X144217731Y-47917438D01*
X144217731Y-47917438D02*
X144265350Y-47965057D01*
X144265350Y-47965057D02*
X144312969Y-48060295D01*
X144312969Y-48060295D02*
X144312969Y-48155533D01*
X144312969Y-48155533D02*
X144265350Y-48298390D01*
X144265350Y-48298390D02*
X143693922Y-48869819D01*
X143693922Y-48869819D02*
X144312969Y-48869819D01*
X144646303Y-48203152D02*
X144884398Y-48869819D01*
X144884398Y-48869819D02*
X145122493Y-48203152D01*
X146265351Y-48869819D02*
X146265351Y-48203152D01*
X146265351Y-47869819D02*
X146217732Y-47917438D01*
X146217732Y-47917438D02*
X146265351Y-47965057D01*
X146265351Y-47965057D02*
X146312970Y-47917438D01*
X146312970Y-47917438D02*
X146265351Y-47869819D01*
X146265351Y-47869819D02*
X146265351Y-47965057D01*
X146741541Y-48203152D02*
X146741541Y-48869819D01*
X146741541Y-48298390D02*
X146789160Y-48250771D01*
X146789160Y-48250771D02*
X146884398Y-48203152D01*
X146884398Y-48203152D02*
X147027255Y-48203152D01*
X147027255Y-48203152D02*
X147122493Y-48250771D01*
X147122493Y-48250771D02*
X147170112Y-48346009D01*
X147170112Y-48346009D02*
X147170112Y-48869819D01*
X157256065Y-50649887D02*
X157303684Y-50507030D01*
X157303684Y-50507030D02*
X157351303Y-50459411D01*
X157351303Y-50459411D02*
X157446541Y-50411792D01*
X157446541Y-50411792D02*
X157589398Y-50411792D01*
X157589398Y-50411792D02*
X157684636Y-50459411D01*
X157684636Y-50459411D02*
X157732256Y-50507030D01*
X157732256Y-50507030D02*
X157779875Y-50602268D01*
X157779875Y-50602268D02*
X157779875Y-50983220D01*
X157779875Y-50983220D02*
X156779875Y-50983220D01*
X156779875Y-50983220D02*
X156779875Y-50649887D01*
X156779875Y-50649887D02*
X156827494Y-50554649D01*
X156827494Y-50554649D02*
X156875113Y-50507030D01*
X156875113Y-50507030D02*
X156970351Y-50459411D01*
X156970351Y-50459411D02*
X157065589Y-50459411D01*
X157065589Y-50459411D02*
X157160827Y-50507030D01*
X157160827Y-50507030D02*
X157208446Y-50554649D01*
X157208446Y-50554649D02*
X157256065Y-50649887D01*
X157256065Y-50649887D02*
X157256065Y-50983220D01*
X157113208Y-49554649D02*
X157779875Y-49554649D01*
X157113208Y-49983220D02*
X157637017Y-49983220D01*
X157637017Y-49983220D02*
X157732256Y-49935601D01*
X157732256Y-49935601D02*
X157779875Y-49840363D01*
X157779875Y-49840363D02*
X157779875Y-49697506D01*
X157779875Y-49697506D02*
X157732256Y-49602268D01*
X157732256Y-49602268D02*
X157684636Y-49554649D01*
X157732256Y-48649887D02*
X157779875Y-48745125D01*
X157779875Y-48745125D02*
X157779875Y-48935601D01*
X157779875Y-48935601D02*
X157732256Y-49030839D01*
X157732256Y-49030839D02*
X157684636Y-49078458D01*
X157684636Y-49078458D02*
X157589398Y-49126077D01*
X157589398Y-49126077D02*
X157303684Y-49126077D01*
X157303684Y-49126077D02*
X157208446Y-49078458D01*
X157208446Y-49078458D02*
X157160827Y-49030839D01*
X157160827Y-49030839D02*
X157113208Y-48935601D01*
X157113208Y-48935601D02*
X157113208Y-48745125D01*
X157113208Y-48745125D02*
X157160827Y-48649887D01*
X157779875Y-48221315D02*
X156779875Y-48221315D01*
X157398922Y-48126077D02*
X157779875Y-47840363D01*
X157113208Y-47840363D02*
X157494160Y-48221315D01*
X157684636Y-46078458D02*
X157732256Y-46126077D01*
X157732256Y-46126077D02*
X157779875Y-46268934D01*
X157779875Y-46268934D02*
X157779875Y-46364172D01*
X157779875Y-46364172D02*
X157732256Y-46507029D01*
X157732256Y-46507029D02*
X157637017Y-46602267D01*
X157637017Y-46602267D02*
X157541779Y-46649886D01*
X157541779Y-46649886D02*
X157351303Y-46697505D01*
X157351303Y-46697505D02*
X157208446Y-46697505D01*
X157208446Y-46697505D02*
X157017970Y-46649886D01*
X157017970Y-46649886D02*
X156922732Y-46602267D01*
X156922732Y-46602267D02*
X156827494Y-46507029D01*
X156827494Y-46507029D02*
X156779875Y-46364172D01*
X156779875Y-46364172D02*
X156779875Y-46268934D01*
X156779875Y-46268934D02*
X156827494Y-46126077D01*
X156827494Y-46126077D02*
X156875113Y-46078458D01*
X157779875Y-45507029D02*
X157732256Y-45602267D01*
X157732256Y-45602267D02*
X157684636Y-45649886D01*
X157684636Y-45649886D02*
X157589398Y-45697505D01*
X157589398Y-45697505D02*
X157303684Y-45697505D01*
X157303684Y-45697505D02*
X157208446Y-45649886D01*
X157208446Y-45649886D02*
X157160827Y-45602267D01*
X157160827Y-45602267D02*
X157113208Y-45507029D01*
X157113208Y-45507029D02*
X157113208Y-45364172D01*
X157113208Y-45364172D02*
X157160827Y-45268934D01*
X157160827Y-45268934D02*
X157208446Y-45221315D01*
X157208446Y-45221315D02*
X157303684Y-45173696D01*
X157303684Y-45173696D02*
X157589398Y-45173696D01*
X157589398Y-45173696D02*
X157684636Y-45221315D01*
X157684636Y-45221315D02*
X157732256Y-45268934D01*
X157732256Y-45268934D02*
X157779875Y-45364172D01*
X157779875Y-45364172D02*
X157779875Y-45507029D01*
X157113208Y-44745124D02*
X157779875Y-44745124D01*
X157208446Y-44745124D02*
X157160827Y-44697505D01*
X157160827Y-44697505D02*
X157113208Y-44602267D01*
X157113208Y-44602267D02*
X157113208Y-44459410D01*
X157113208Y-44459410D02*
X157160827Y-44364172D01*
X157160827Y-44364172D02*
X157256065Y-44316553D01*
X157256065Y-44316553D02*
X157779875Y-44316553D01*
X157113208Y-43935600D02*
X157779875Y-43697505D01*
X157779875Y-43697505D02*
X157113208Y-43459410D01*
X157732256Y-42697505D02*
X157779875Y-42792743D01*
X157779875Y-42792743D02*
X157779875Y-42983219D01*
X157779875Y-42983219D02*
X157732256Y-43078457D01*
X157732256Y-43078457D02*
X157637017Y-43126076D01*
X157637017Y-43126076D02*
X157256065Y-43126076D01*
X157256065Y-43126076D02*
X157160827Y-43078457D01*
X157160827Y-43078457D02*
X157113208Y-42983219D01*
X157113208Y-42983219D02*
X157113208Y-42792743D01*
X157113208Y-42792743D02*
X157160827Y-42697505D01*
X157160827Y-42697505D02*
X157256065Y-42649886D01*
X157256065Y-42649886D02*
X157351303Y-42649886D01*
X157351303Y-42649886D02*
X157446541Y-43126076D01*
X157779875Y-42221314D02*
X157113208Y-42221314D01*
X157303684Y-42221314D02*
X157208446Y-42173695D01*
X157208446Y-42173695D02*
X157160827Y-42126076D01*
X157160827Y-42126076D02*
X157113208Y-42030838D01*
X157113208Y-42030838D02*
X157113208Y-41935600D01*
X157113208Y-41745123D02*
X157113208Y-41364171D01*
X156779875Y-41602266D02*
X157637017Y-41602266D01*
X157637017Y-41602266D02*
X157732256Y-41554647D01*
X157732256Y-41554647D02*
X157779875Y-41459409D01*
X157779875Y-41459409D02*
X157779875Y-41364171D01*
X157732256Y-40649885D02*
X157779875Y-40745123D01*
X157779875Y-40745123D02*
X157779875Y-40935599D01*
X157779875Y-40935599D02*
X157732256Y-41030837D01*
X157732256Y-41030837D02*
X157637017Y-41078456D01*
X157637017Y-41078456D02*
X157256065Y-41078456D01*
X157256065Y-41078456D02*
X157160827Y-41030837D01*
X157160827Y-41030837D02*
X157113208Y-40935599D01*
X157113208Y-40935599D02*
X157113208Y-40745123D01*
X157113208Y-40745123D02*
X157160827Y-40649885D01*
X157160827Y-40649885D02*
X157256065Y-40602266D01*
X157256065Y-40602266D02*
X157351303Y-40602266D01*
X157351303Y-40602266D02*
X157446541Y-41078456D01*
X157779875Y-40173694D02*
X157113208Y-40173694D01*
X157303684Y-40173694D02*
X157208446Y-40126075D01*
X157208446Y-40126075D02*
X157160827Y-40078456D01*
X157160827Y-40078456D02*
X157113208Y-39983218D01*
X157113208Y-39983218D02*
X157113208Y-39887980D01*
X159770771Y-49173696D02*
X159723152Y-49221315D01*
X159723152Y-49221315D02*
X159580295Y-49316553D01*
X159580295Y-49316553D02*
X159485057Y-49364172D01*
X159485057Y-49364172D02*
X159342200Y-49411791D01*
X159342200Y-49411791D02*
X159104104Y-49459410D01*
X159104104Y-49459410D02*
X158913628Y-49459410D01*
X158913628Y-49459410D02*
X158675533Y-49411791D01*
X158675533Y-49411791D02*
X158532676Y-49364172D01*
X158532676Y-49364172D02*
X158437438Y-49316553D01*
X158437438Y-49316553D02*
X158294580Y-49221315D01*
X158294580Y-49221315D02*
X158246961Y-49173696D01*
X159389819Y-48268934D02*
X159389819Y-48840362D01*
X159389819Y-48554648D02*
X158389819Y-48554648D01*
X158389819Y-48554648D02*
X158532676Y-48649886D01*
X158532676Y-48649886D02*
X158627914Y-48745124D01*
X158627914Y-48745124D02*
X158675533Y-48840362D01*
X158485057Y-47887981D02*
X158437438Y-47840362D01*
X158437438Y-47840362D02*
X158389819Y-47745124D01*
X158389819Y-47745124D02*
X158389819Y-47507029D01*
X158389819Y-47507029D02*
X158437438Y-47411791D01*
X158437438Y-47411791D02*
X158485057Y-47364172D01*
X158485057Y-47364172D02*
X158580295Y-47316553D01*
X158580295Y-47316553D02*
X158675533Y-47316553D01*
X158675533Y-47316553D02*
X158818390Y-47364172D01*
X158818390Y-47364172D02*
X159389819Y-47935600D01*
X159389819Y-47935600D02*
X159389819Y-47316553D01*
X158723152Y-46983219D02*
X159389819Y-46745124D01*
X159389819Y-46745124D02*
X158723152Y-46507029D01*
X159008866Y-46126076D02*
X159008866Y-45364172D01*
X158389819Y-44411791D02*
X158389819Y-44887981D01*
X158389819Y-44887981D02*
X158866009Y-44935600D01*
X158866009Y-44935600D02*
X158818390Y-44887981D01*
X158818390Y-44887981D02*
X158770771Y-44792743D01*
X158770771Y-44792743D02*
X158770771Y-44554648D01*
X158770771Y-44554648D02*
X158818390Y-44459410D01*
X158818390Y-44459410D02*
X158866009Y-44411791D01*
X158866009Y-44411791D02*
X158961247Y-44364172D01*
X158961247Y-44364172D02*
X159199342Y-44364172D01*
X159199342Y-44364172D02*
X159294580Y-44411791D01*
X159294580Y-44411791D02*
X159342200Y-44459410D01*
X159342200Y-44459410D02*
X159389819Y-44554648D01*
X159389819Y-44554648D02*
X159389819Y-44792743D01*
X159389819Y-44792743D02*
X159342200Y-44887981D01*
X159342200Y-44887981D02*
X159294580Y-44935600D01*
X158723152Y-44030838D02*
X159389819Y-43792743D01*
X159389819Y-43792743D02*
X158723152Y-43554648D01*
X159770771Y-43268933D02*
X159723152Y-43221314D01*
X159723152Y-43221314D02*
X159580295Y-43126076D01*
X159580295Y-43126076D02*
X159485057Y-43078457D01*
X159485057Y-43078457D02*
X159342200Y-43030838D01*
X159342200Y-43030838D02*
X159104104Y-42983219D01*
X159104104Y-42983219D02*
X158913628Y-42983219D01*
X158913628Y-42983219D02*
X158675533Y-43030838D01*
X158675533Y-43030838D02*
X158532676Y-43078457D01*
X158532676Y-43078457D02*
X158437438Y-43126076D01*
X158437438Y-43126076D02*
X158294580Y-43221314D01*
X158294580Y-43221314D02*
X158246961Y-43268933D01*
X196346009Y-65829887D02*
X196393628Y-65687030D01*
X196393628Y-65687030D02*
X196441247Y-65639411D01*
X196441247Y-65639411D02*
X196536485Y-65591792D01*
X196536485Y-65591792D02*
X196679342Y-65591792D01*
X196679342Y-65591792D02*
X196774580Y-65639411D01*
X196774580Y-65639411D02*
X196822200Y-65687030D01*
X196822200Y-65687030D02*
X196869819Y-65782268D01*
X196869819Y-65782268D02*
X196869819Y-66163220D01*
X196869819Y-66163220D02*
X195869819Y-66163220D01*
X195869819Y-66163220D02*
X195869819Y-65829887D01*
X195869819Y-65829887D02*
X195917438Y-65734649D01*
X195917438Y-65734649D02*
X195965057Y-65687030D01*
X195965057Y-65687030D02*
X196060295Y-65639411D01*
X196060295Y-65639411D02*
X196155533Y-65639411D01*
X196155533Y-65639411D02*
X196250771Y-65687030D01*
X196250771Y-65687030D02*
X196298390Y-65734649D01*
X196298390Y-65734649D02*
X196346009Y-65829887D01*
X196346009Y-65829887D02*
X196346009Y-66163220D01*
X196869819Y-65163220D02*
X195869819Y-65163220D01*
X195869819Y-65163220D02*
X196584104Y-64829887D01*
X196584104Y-64829887D02*
X195869819Y-64496554D01*
X195869819Y-64496554D02*
X196869819Y-64496554D01*
X195869819Y-64115601D02*
X196869819Y-63448935D01*
X195869819Y-63448935D02*
X196869819Y-64115601D01*
X196869819Y-61782268D02*
X196869819Y-62353696D01*
X196869819Y-62067982D02*
X195869819Y-62067982D01*
X195869819Y-62067982D02*
X196012676Y-62163220D01*
X196012676Y-62163220D02*
X196107914Y-62258458D01*
X196107914Y-62258458D02*
X196155533Y-62353696D01*
X195869819Y-60925125D02*
X195869819Y-61115601D01*
X195869819Y-61115601D02*
X195917438Y-61210839D01*
X195917438Y-61210839D02*
X195965057Y-61258458D01*
X195965057Y-61258458D02*
X196107914Y-61353696D01*
X196107914Y-61353696D02*
X196298390Y-61401315D01*
X196298390Y-61401315D02*
X196679342Y-61401315D01*
X196679342Y-61401315D02*
X196774580Y-61353696D01*
X196774580Y-61353696D02*
X196822200Y-61306077D01*
X196822200Y-61306077D02*
X196869819Y-61210839D01*
X196869819Y-61210839D02*
X196869819Y-61020363D01*
X196869819Y-61020363D02*
X196822200Y-60925125D01*
X196822200Y-60925125D02*
X196774580Y-60877506D01*
X196774580Y-60877506D02*
X196679342Y-60829887D01*
X196679342Y-60829887D02*
X196441247Y-60829887D01*
X196441247Y-60829887D02*
X196346009Y-60877506D01*
X196346009Y-60877506D02*
X196298390Y-60925125D01*
X196298390Y-60925125D02*
X196250771Y-61020363D01*
X196250771Y-61020363D02*
X196250771Y-61210839D01*
X196250771Y-61210839D02*
X196298390Y-61306077D01*
X196298390Y-61306077D02*
X196346009Y-61353696D01*
X196346009Y-61353696D02*
X196441247Y-61401315D01*
X195869819Y-60210839D02*
X195869819Y-60115601D01*
X195869819Y-60115601D02*
X195917438Y-60020363D01*
X195917438Y-60020363D02*
X195965057Y-59972744D01*
X195965057Y-59972744D02*
X196060295Y-59925125D01*
X196060295Y-59925125D02*
X196250771Y-59877506D01*
X196250771Y-59877506D02*
X196488866Y-59877506D01*
X196488866Y-59877506D02*
X196679342Y-59925125D01*
X196679342Y-59925125D02*
X196774580Y-59972744D01*
X196774580Y-59972744D02*
X196822200Y-60020363D01*
X196822200Y-60020363D02*
X196869819Y-60115601D01*
X196869819Y-60115601D02*
X196869819Y-60210839D01*
X196869819Y-60210839D02*
X196822200Y-60306077D01*
X196822200Y-60306077D02*
X196774580Y-60353696D01*
X196774580Y-60353696D02*
X196679342Y-60401315D01*
X196679342Y-60401315D02*
X196488866Y-60448934D01*
X196488866Y-60448934D02*
X196250771Y-60448934D01*
X196250771Y-60448934D02*
X196060295Y-60401315D01*
X196060295Y-60401315D02*
X195965057Y-60353696D01*
X195965057Y-60353696D02*
X195917438Y-60306077D01*
X195917438Y-60306077D02*
X195869819Y-60210839D01*
X179014819Y-29913333D02*
X179729104Y-29913333D01*
X179729104Y-29913333D02*
X179871961Y-29960952D01*
X179871961Y-29960952D02*
X179967200Y-30056190D01*
X179967200Y-30056190D02*
X180014819Y-30199047D01*
X180014819Y-30199047D02*
X180014819Y-30294285D01*
X180014819Y-28913333D02*
X180014819Y-29484761D01*
X180014819Y-29199047D02*
X179014819Y-29199047D01*
X179014819Y-29199047D02*
X179157676Y-29294285D01*
X179157676Y-29294285D02*
X179252914Y-29389523D01*
X179252914Y-29389523D02*
X179300533Y-29484761D01*
X176499819Y-90843333D02*
X177214104Y-90843333D01*
X177214104Y-90843333D02*
X177356961Y-90890952D01*
X177356961Y-90890952D02*
X177452200Y-90986190D01*
X177452200Y-90986190D02*
X177499819Y-91129047D01*
X177499819Y-91129047D02*
X177499819Y-91224285D01*
X176833152Y-89938571D02*
X177499819Y-89938571D01*
X176452200Y-90176666D02*
X177166485Y-90414761D01*
X177166485Y-90414761D02*
X177166485Y-89795714D01*
D11*
X167552657Y-30595238D02*
X167505038Y-30690476D01*
X167505038Y-30690476D02*
X167409800Y-30785714D01*
X167409800Y-30785714D02*
X167266942Y-30928571D01*
X167266942Y-30928571D02*
X167219323Y-31023809D01*
X167219323Y-31023809D02*
X167219323Y-31119047D01*
X167457419Y-31071428D02*
X167409800Y-31166666D01*
X167409800Y-31166666D02*
X167314561Y-31261904D01*
X167314561Y-31261904D02*
X167124085Y-31309523D01*
X167124085Y-31309523D02*
X166790752Y-31309523D01*
X166790752Y-31309523D02*
X166600276Y-31261904D01*
X166600276Y-31261904D02*
X166505038Y-31166666D01*
X166505038Y-31166666D02*
X166457419Y-31071428D01*
X166457419Y-31071428D02*
X166457419Y-30880952D01*
X166457419Y-30880952D02*
X166505038Y-30785714D01*
X166505038Y-30785714D02*
X166600276Y-30690476D01*
X166600276Y-30690476D02*
X166790752Y-30642857D01*
X166790752Y-30642857D02*
X167124085Y-30642857D01*
X167124085Y-30642857D02*
X167314561Y-30690476D01*
X167314561Y-30690476D02*
X167409800Y-30785714D01*
X167409800Y-30785714D02*
X167457419Y-30880952D01*
X167457419Y-30880952D02*
X167457419Y-31071428D01*
X166552657Y-30261904D02*
X166505038Y-30214285D01*
X166505038Y-30214285D02*
X166457419Y-30119047D01*
X166457419Y-30119047D02*
X166457419Y-29880952D01*
X166457419Y-29880952D02*
X166505038Y-29785714D01*
X166505038Y-29785714D02*
X166552657Y-29738095D01*
X166552657Y-29738095D02*
X166647895Y-29690476D01*
X166647895Y-29690476D02*
X166743133Y-29690476D01*
X166743133Y-29690476D02*
X166885990Y-29738095D01*
X166885990Y-29738095D02*
X167457419Y-30309523D01*
X167457419Y-30309523D02*
X167457419Y-29690476D01*
D10*
X193166666Y-72784819D02*
X193166666Y-73499104D01*
X193166666Y-73499104D02*
X193119047Y-73641961D01*
X193119047Y-73641961D02*
X193023809Y-73737200D01*
X193023809Y-73737200D02*
X192880952Y-73784819D01*
X192880952Y-73784819D02*
X192785714Y-73784819D01*
X193595238Y-72880057D02*
X193642857Y-72832438D01*
X193642857Y-72832438D02*
X193738095Y-72784819D01*
X193738095Y-72784819D02*
X193976190Y-72784819D01*
X193976190Y-72784819D02*
X194071428Y-72832438D01*
X194071428Y-72832438D02*
X194119047Y-72880057D01*
X194119047Y-72880057D02*
X194166666Y-72975295D01*
X194166666Y-72975295D02*
X194166666Y-73070533D01*
X194166666Y-73070533D02*
X194119047Y-73213390D01*
X194119047Y-73213390D02*
X193547619Y-73784819D01*
X193547619Y-73784819D02*
X194166666Y-73784819D01*
X185944819Y-30063333D02*
X186659104Y-30063333D01*
X186659104Y-30063333D02*
X186801961Y-30110952D01*
X186801961Y-30110952D02*
X186897200Y-30206190D01*
X186897200Y-30206190D02*
X186944819Y-30349047D01*
X186944819Y-30349047D02*
X186944819Y-30444285D01*
X185944819Y-29682380D02*
X185944819Y-29063333D01*
X185944819Y-29063333D02*
X186325771Y-29396666D01*
X186325771Y-29396666D02*
X186325771Y-29253809D01*
X186325771Y-29253809D02*
X186373390Y-29158571D01*
X186373390Y-29158571D02*
X186421009Y-29110952D01*
X186421009Y-29110952D02*
X186516247Y-29063333D01*
X186516247Y-29063333D02*
X186754342Y-29063333D01*
X186754342Y-29063333D02*
X186849580Y-29110952D01*
X186849580Y-29110952D02*
X186897200Y-29158571D01*
X186897200Y-29158571D02*
X186944819Y-29253809D01*
X186944819Y-29253809D02*
X186944819Y-29539523D01*
X186944819Y-29539523D02*
X186897200Y-29634761D01*
X186897200Y-29634761D02*
X186849580Y-29682380D01*
D11*
X156904761Y-30552657D02*
X156809523Y-30505038D01*
X156809523Y-30505038D02*
X156714285Y-30409800D01*
X156714285Y-30409800D02*
X156571428Y-30266942D01*
X156571428Y-30266942D02*
X156476190Y-30219323D01*
X156476190Y-30219323D02*
X156380952Y-30219323D01*
X156428571Y-30457419D02*
X156333333Y-30409800D01*
X156333333Y-30409800D02*
X156238095Y-30314561D01*
X156238095Y-30314561D02*
X156190476Y-30124085D01*
X156190476Y-30124085D02*
X156190476Y-29790752D01*
X156190476Y-29790752D02*
X156238095Y-29600276D01*
X156238095Y-29600276D02*
X156333333Y-29505038D01*
X156333333Y-29505038D02*
X156428571Y-29457419D01*
X156428571Y-29457419D02*
X156619047Y-29457419D01*
X156619047Y-29457419D02*
X156714285Y-29505038D01*
X156714285Y-29505038D02*
X156809523Y-29600276D01*
X156809523Y-29600276D02*
X156857142Y-29790752D01*
X156857142Y-29790752D02*
X156857142Y-30124085D01*
X156857142Y-30124085D02*
X156809523Y-30314561D01*
X156809523Y-30314561D02*
X156714285Y-30409800D01*
X156714285Y-30409800D02*
X156619047Y-30457419D01*
X156619047Y-30457419D02*
X156428571Y-30457419D01*
X157809523Y-30457419D02*
X157238095Y-30457419D01*
X157523809Y-30457419D02*
X157523809Y-29457419D01*
X157523809Y-29457419D02*
X157428571Y-29600276D01*
X157428571Y-29600276D02*
X157333333Y-29695514D01*
X157333333Y-29695514D02*
X157238095Y-29743133D01*
D10*
X221074819Y-62761904D02*
X221884342Y-62761904D01*
X221884342Y-62761904D02*
X221979580Y-62714285D01*
X221979580Y-62714285D02*
X222027200Y-62666666D01*
X222027200Y-62666666D02*
X222074819Y-62571428D01*
X222074819Y-62571428D02*
X222074819Y-62380952D01*
X222074819Y-62380952D02*
X222027200Y-62285714D01*
X222027200Y-62285714D02*
X221979580Y-62238095D01*
X221979580Y-62238095D02*
X221884342Y-62190476D01*
X221884342Y-62190476D02*
X221074819Y-62190476D01*
X221170057Y-61761904D02*
X221122438Y-61714285D01*
X221122438Y-61714285D02*
X221074819Y-61619047D01*
X221074819Y-61619047D02*
X221074819Y-61380952D01*
X221074819Y-61380952D02*
X221122438Y-61285714D01*
X221122438Y-61285714D02*
X221170057Y-61238095D01*
X221170057Y-61238095D02*
X221265295Y-61190476D01*
X221265295Y-61190476D02*
X221360533Y-61190476D01*
X221360533Y-61190476D02*
X221503390Y-61238095D01*
X221503390Y-61238095D02*
X222074819Y-61809523D01*
X222074819Y-61809523D02*
X222074819Y-61190476D01*
X144933333Y-39859580D02*
X144885714Y-39907200D01*
X144885714Y-39907200D02*
X144742857Y-39954819D01*
X144742857Y-39954819D02*
X144647619Y-39954819D01*
X144647619Y-39954819D02*
X144504762Y-39907200D01*
X144504762Y-39907200D02*
X144409524Y-39811961D01*
X144409524Y-39811961D02*
X144361905Y-39716723D01*
X144361905Y-39716723D02*
X144314286Y-39526247D01*
X144314286Y-39526247D02*
X144314286Y-39383390D01*
X144314286Y-39383390D02*
X144361905Y-39192914D01*
X144361905Y-39192914D02*
X144409524Y-39097676D01*
X144409524Y-39097676D02*
X144504762Y-39002438D01*
X144504762Y-39002438D02*
X144647619Y-38954819D01*
X144647619Y-38954819D02*
X144742857Y-38954819D01*
X144742857Y-38954819D02*
X144885714Y-39002438D01*
X144885714Y-39002438D02*
X144933333Y-39050057D01*
X145314286Y-39050057D02*
X145361905Y-39002438D01*
X145361905Y-39002438D02*
X145457143Y-38954819D01*
X145457143Y-38954819D02*
X145695238Y-38954819D01*
X145695238Y-38954819D02*
X145790476Y-39002438D01*
X145790476Y-39002438D02*
X145838095Y-39050057D01*
X145838095Y-39050057D02*
X145885714Y-39145295D01*
X145885714Y-39145295D02*
X145885714Y-39240533D01*
X145885714Y-39240533D02*
X145838095Y-39383390D01*
X145838095Y-39383390D02*
X145266667Y-39954819D01*
X145266667Y-39954819D02*
X145885714Y-39954819D01*
X151119048Y-45573866D02*
X151880953Y-45573866D01*
X138628571Y-45614700D02*
X139771429Y-45614700D01*
X139200000Y-46186128D02*
X139200000Y-45043271D01*
D12*
%TO.C,J1*%
X174395000Y-33405000D02*
X174395000Y-36065000D01*
X174395000Y-36065000D02*
X179595000Y-36065000D01*
X174455000Y-38775000D02*
X174455000Y-37505000D01*
X175345000Y-27405000D02*
X176105000Y-27405000D01*
X175345000Y-33405000D02*
X175345000Y-27405000D01*
X175345000Y-36395000D02*
X175345000Y-36065000D01*
X175405000Y-33405000D02*
X175405000Y-27405000D01*
X175525000Y-33405000D02*
X175525000Y-27405000D01*
X175645000Y-33405000D02*
X175645000Y-27405000D01*
X175725000Y-38775000D02*
X174455000Y-38775000D01*
X175765000Y-33405000D02*
X175765000Y-27405000D01*
X175885000Y-33405000D02*
X175885000Y-27405000D01*
X176005000Y-33405000D02*
X176005000Y-27405000D01*
X176105000Y-27405000D02*
X176105000Y-33405000D01*
X176105000Y-36395000D02*
X176105000Y-36065000D01*
X176995000Y-36065000D02*
X176995000Y-33405000D01*
X177885000Y-27405000D02*
X178645000Y-27405000D01*
X177885000Y-33405000D02*
X177885000Y-27405000D01*
X177885000Y-36462071D02*
X177885000Y-36065000D01*
X178645000Y-27405000D02*
X178645000Y-33405000D01*
X178645000Y-36462071D02*
X178645000Y-36065000D01*
X179595000Y-33405000D02*
X174395000Y-33405000D01*
X179595000Y-36065000D02*
X179595000Y-33405000D01*
%TO.C,J4*%
X170905000Y-87565000D02*
X170905000Y-90225000D01*
X170905000Y-90225000D02*
X176105000Y-90225000D01*
X171855000Y-87167929D02*
X171855000Y-87565000D01*
X171855000Y-96225000D02*
X171855000Y-90225000D01*
X172615000Y-87167929D02*
X172615000Y-87565000D01*
X172615000Y-90225000D02*
X172615000Y-96225000D01*
X172615000Y-96225000D02*
X171855000Y-96225000D01*
X173505000Y-87565000D02*
X173505000Y-90225000D01*
X174395000Y-87235000D02*
X174395000Y-87565000D01*
X174395000Y-96225000D02*
X174395000Y-90225000D01*
X174495000Y-90225000D02*
X174495000Y-96225000D01*
X174615000Y-90225000D02*
X174615000Y-96225000D01*
X174735000Y-90225000D02*
X174735000Y-96225000D01*
X174775000Y-84855000D02*
X176045000Y-84855000D01*
X174855000Y-90225000D02*
X174855000Y-96225000D01*
X174975000Y-90225000D02*
X174975000Y-96225000D01*
X175095000Y-90225000D02*
X175095000Y-96225000D01*
X175155000Y-87235000D02*
X175155000Y-87565000D01*
X175155000Y-90225000D02*
X175155000Y-96225000D01*
X175155000Y-96225000D02*
X174395000Y-96225000D01*
X176045000Y-84855000D02*
X176045000Y-86125000D01*
X176105000Y-87565000D02*
X170905000Y-87565000D01*
X176105000Y-90225000D02*
X176105000Y-87565000D01*
%TO.C,Q2*%
D11*
X165352000Y-40165800D02*
X171448000Y-40165800D01*
X171448000Y-28634200D01*
X165352000Y-28634200D01*
X165352000Y-40165800D01*
D12*
%TO.C,J2*%
X192170000Y-69730000D02*
X192170000Y-54430000D01*
X194830000Y-54430000D02*
X192170000Y-54430000D01*
X194830000Y-69730000D02*
X192170000Y-69730000D01*
X194830000Y-69730000D02*
X194830000Y-54430000D01*
X194830000Y-71000000D02*
X194830000Y-72330000D01*
X194830000Y-72330000D02*
X193500000Y-72330000D01*
%TO.C,J3*%
X180630000Y-33400000D02*
X180630000Y-36060000D01*
X180630000Y-36060000D02*
X185830000Y-36060000D01*
X180690000Y-38770000D02*
X180690000Y-37500000D01*
X181580000Y-27400000D02*
X182340000Y-27400000D01*
X181580000Y-33400000D02*
X181580000Y-27400000D01*
X181580000Y-36390000D02*
X181580000Y-36060000D01*
X181640000Y-33400000D02*
X181640000Y-27400000D01*
X181760000Y-33400000D02*
X181760000Y-27400000D01*
X181880000Y-33400000D02*
X181880000Y-27400000D01*
X181960000Y-38770000D02*
X180690000Y-38770000D01*
X182000000Y-33400000D02*
X182000000Y-27400000D01*
X182120000Y-33400000D02*
X182120000Y-27400000D01*
X182240000Y-33400000D02*
X182240000Y-27400000D01*
X182340000Y-27400000D02*
X182340000Y-33400000D01*
X182340000Y-36390000D02*
X182340000Y-36060000D01*
X183230000Y-36060000D02*
X183230000Y-33400000D01*
X184120000Y-27400000D02*
X184880000Y-27400000D01*
X184120000Y-33400000D02*
X184120000Y-27400000D01*
X184120000Y-36457071D02*
X184120000Y-36060000D01*
X184880000Y-27400000D02*
X184880000Y-33400000D01*
X184880000Y-36457071D02*
X184880000Y-36060000D01*
X185830000Y-33400000D02*
X180630000Y-33400000D01*
X185830000Y-36060000D02*
X185830000Y-33400000D01*
%TO.C,Q1*%
D11*
X155674000Y-27893200D02*
X163192400Y-27893200D01*
X163192400Y-39501000D01*
X155674000Y-39501000D01*
X155674000Y-27893200D01*
D13*
%TO.C,U2*%
X210824600Y-89974600D02*
X210824600Y-34094600D01*
X213999600Y-30919600D02*
X233050000Y-30919600D01*
X233050000Y-93149600D02*
X213999600Y-93149600D01*
X236225000Y-34094600D02*
X236225000Y-89974600D01*
X210824600Y-34094600D02*
G75*
G02*
X213999600Y-30919600I3175000J0D01*
G01*
X213999600Y-93149600D02*
G75*
G02*
X210824600Y-89974600I0J3175000D01*
G01*
X233050000Y-30919600D02*
G75*
G02*
X236225000Y-34094600I0J-3175000D01*
G01*
X236225000Y-89974600D02*
G75*
G02*
X233050000Y-93149600I-3175000J0D01*
G01*
D12*
%TO.C,C2*%
X137240000Y-35240000D02*
X137240000Y-40850000D01*
X137240000Y-35240000D02*
X138090000Y-35240000D01*
X138090000Y-27540000D02*
X138090000Y-35240000D01*
X138090000Y-27540000D02*
X152110000Y-27540000D01*
X142650000Y-44960000D02*
X146390000Y-44960000D01*
X152110000Y-27540000D02*
X152110000Y-35240000D01*
X152110000Y-35240000D02*
X152960000Y-35240000D01*
X152960000Y-35240000D02*
X152960000Y-40850000D01*
X140110100Y-44808718D02*
G75*
G02*
X137240001Y-40850000I1239898J3918716D01*
G01*
X152960000Y-40850000D02*
G75*
G02*
X150966806Y-44372958I-4110000J0D01*
G01*
%TD*%
M02*
